<svg width="37.342102" height="33.738770" viewBox="0 0 37.3421 33.7388" fill="none" xmlns="http://www.w3.org/2000/svg" xmlns:xlink="http://www.w3.org/1999/xlink">
	<desc>
			Created with Pixso.
	</desc>
	<defs/>
	<path id="Fill 1" d="M2.83 30.82C0.89 28.88 -0.11 26.29 0 23.52C0.13 20.5 1.58 17.51 4.2 14.88L15.8 3.25C16.45 2.6 17.49 2.6 18.13 3.25C18.78 3.89 18.78 4.94 18.13 5.58L6.53 17.22C2.18 21.59 2.7 26.03 5.16 28.49C7.61 30.94 12.22 31.61 16.55 27.27L31.74 12.04C33.6 10.16 34.39 8.03 33.89 6.19C33.53 4.83 32.52 3.8 31.18 3.44C29.37 2.95 27.25 3.76 25.37 5.65L11.35 19.71C9.28 21.79 8.99 23.34 9.14 23.92C9.19 24.1 9.28 24.27 9.59 24.35C10.44 24.58 12.08 24.01 13.86 22.23L24.29 11.77C24.94 11.12 25.98 11.12 26.63 11.77C27.27 12.41 27.27 13.46 26.63 14.1L16.19 24.57C13.7 27.07 10.99 28.15 8.74 27.55C7.34 27.17 6.33 26.16 5.96 24.78C5.38 22.6 6.5 19.91 9.02 17.37L23.04 3.31C25.78 0.56 29.05 -0.55 32.03 0.25C34.52 0.92 36.4 2.82 37.08 5.33C37.88 8.35 36.79 11.64 34.07 14.37L18.88 29.6C13.21 35.29 6.51 34.52 2.83 30.82Z" fill="#BCC0C3" fill-opacity="1.000000" fill-rule="evenodd"/>
</svg>
