<svg width="32.000000" height="32.000000" viewBox="0 0 32 32" fill="none" xmlns="http://www.w3.org/2000/svg" xmlns:xlink="http://www.w3.org/1999/xlink">
	<desc>
			Created with Pixso.
	</desc>
	<defs/>
	<path id="Fill 1" d="M2.42 29.23C0.76 27.39 -0.1 24.93 0 22.31C0.11 19.44 1.35 16.61 3.6 14.11L13.54 3.08C14.09 2.47 14.99 2.47 15.54 3.08C16.09 3.69 16.09 4.68 15.54 5.3L5.6 16.33C1.87 20.47 2.32 24.68 4.42 27.02C6.52 29.35 10.47 29.98 14.18 25.86L27.19 11.41C28.79 9.64 29.47 7.62 29.04 5.87C28.74 4.58 27.87 3.6 26.72 3.26C25.17 2.8 23.35 3.57 21.74 5.36L9.72 18.69C7.95 20.67 7.7 22.14 7.83 22.69C7.87 22.86 7.95 23.02 8.22 23.1C8.94 23.31 10.36 22.77 11.88 21.08L20.82 11.16C21.37 10.55 22.26 10.55 22.82 11.16C23.37 11.77 23.37 12.76 22.82 13.38L13.87 23.3C11.74 25.67 9.41 26.7 7.49 26.13C6.29 25.77 5.42 24.81 5.11 23.5C4.61 21.44 5.57 18.88 7.73 16.48L19.74 3.14C22.09 0.53 24.9 -0.52 27.45 0.23C29.58 0.87 31.2 2.67 31.77 5.05C32.46 7.92 31.52 11.04 29.19 13.63L16.18 28.08C11.32 33.47 5.58 32.74 2.42 29.23Z" fill="#0F2346" fill-opacity="1.000000" fill-rule="evenodd"/>
</svg>
