<svg width="45.000000" height="45.000000" viewBox="0 0 45 45" fill="none" xmlns="http://www.w3.org/2000/svg" xmlns:xlink="http://www.w3.org/1999/xlink">
	<desc>
			Created with Pixso.
	</desc>
	<defs>
		<clipPath id="clip248_237">
			<rect id="face" width="45.000000" height="45.000000" fill="white" fill-opacity="0"/>
		</clipPath>
	</defs>
	<rect id="face" width="45.000000" height="45.000000" fill="#FFFFFF" fill-opacity="0"/>
	<g clip-path="url(#clip248_237)">
		<path id="矢量 115" d="M16.87 22.03C15.58 22.03 14.53 23.08 14.53 24.37C14.53 25.66 15.58 26.71 16.87 26.71C18.16 26.71 19.21 25.66 19.21 24.37C19.21 23.08 18.16 22.03 16.87 22.03ZM28.12 22.03C26.83 22.03 25.78 23.08 25.78 24.37C25.78 25.66 26.83 26.71 28.12 26.71C29.41 26.71 30.46 25.66 30.46 24.37C30.46 23.08 29.41 22.03 28.12 22.03ZM22.5 3.75C12.15 3.75 3.75 12.15 3.75 22.5C3.75 32.84 12.15 41.25 22.5 41.25C32.84 41.25 41.25 32.84 41.25 22.5C41.25 12.15 32.84 3.75 22.5 3.75ZM22.5 37.5C14.23 37.5 7.5 30.76 7.5 22.5C7.5 21.95 7.53 21.41 7.59 20.88C12.01 18.91 15.52 15.3 17.36 10.81C20.75 15.61 26.34 18.75 32.66 18.75C34.12 18.75 35.53 18.58 36.88 18.26C37.27 19.59 37.5 21.01 37.5 22.5C37.5 30.76 30.76 37.5 22.5 37.5Z" fill="#0F2346" fill-opacity="1.000000" fill-rule="evenodd"/>
	</g>
</svg>
