<svg width="43.000000" height="38.999996" viewBox="0 0 43 39" fill="none" xmlns="http://www.w3.org/2000/svg" xmlns:xlink="http://www.w3.org/1999/xlink">
	<desc>
			Created with Pixso.
	</desc>
	<defs/>
	<path id="Fill 1" d="M3.26 35.63C1.03 33.39 -0.13 30.39 0.01 27.19C0.15 23.7 1.82 20.24 4.84 17.2L18.2 3.75C18.94 3.01 20.14 3.01 20.88 3.75C21.62 4.5 21.62 5.71 20.88 6.46L7.52 19.9C2.51 24.95 3.12 30.08 5.94 32.93C8.76 35.77 14.07 36.54 19.06 31.52L36.54 13.91C38.69 11.75 39.6 9.29 39.03 7.15C38.61 5.58 37.45 4.39 35.9 3.98C33.82 3.42 31.38 4.35 29.21 6.53L13.07 22.78C10.68 25.19 10.35 26.98 10.53 27.66C10.58 27.86 10.68 28.06 11.05 28.15C12.02 28.41 13.92 27.76 15.96 25.7L27.98 13.6C28.72 12.85 29.92 12.85 30.66 13.6C31.4 14.35 31.4 15.56 30.66 16.3L18.64 28.4C15.78 31.29 12.65 32.54 10.07 31.84C8.46 31.41 7.29 30.24 6.86 28.65C6.2 26.13 7.48 23.01 10.39 20.08L26.53 3.83C29.68 0.65 33.46 -0.64 36.89 0.29C39.75 1.06 41.92 3.26 42.7 6.16C43.63 9.65 42.36 13.46 39.23 16.61L21.74 34.22C15.22 40.79 7.5 39.9 3.26 35.63Z" fill="#BCC0C3" fill-opacity="1.000000" fill-rule="evenodd"/>
</svg>
