<svg width="30.011719" height="17.097046" viewBox="0 0 30.0117 17.097" fill="none" xmlns="http://www.w3.org/2000/svg" xmlns:xlink="http://www.w3.org/1999/xlink">
	<desc>
			Created with Pixso.
	</desc>
	<defs/>
	<path id="path" d="M9.33 7.46L11.58 9.79L9.42 11.88L7.17 9.54L9.33 7.46ZM29.58 2.54L16.08 16.54C15.42 17.22 14.74 17.26 14.02 16.64L11.32 14.3L13.28 12.03L15.98 14.37L15 15.5L13.92 14.46L27.42 0.46L29.58 2.54ZM7.2 9.54L7.17 9.54C6.59 8.94 6.6 8 7.21 7.42C7.81 6.84 8.75 6.86 9.33 7.46L9.33 7.49L7.2 9.54ZM11.55 9.79L11.58 9.79C12.16 10.4 12.15 11.33 11.54 11.91C10.94 12.5 10 12.48 9.42 11.88L9.42 11.85L11.55 9.79ZM27.42 0.49L27.42 0.46C28 -0.14 28.94 -0.16 29.54 0.42C30.15 1 30.16 1.94 29.58 2.54L29.55 2.54L27.42 0.49ZM11.35 14.3L11.32 14.3C10.68 13.75 10.62 12.82 11.17 12.19C11.72 11.55 12.65 11.48 13.28 12.03L13.28 12.06L11.35 14.3Z" fill="#0F2346" fill-opacity="1.000000" fill-rule="evenodd"/>
	<path id="path" d="M2.58 7.46L9.33 14.46L8.25 15.5L7.17 14.46L20.67 0.46L22.83 2.54L9.33 16.54C9.32 16.56 9.31 16.57 9.29 16.58C8.57 17.28 7.87 17.26 7.17 16.54L0.42 9.54L2.58 7.46ZM0.45 9.54L0.42 9.54C-0.16 8.94 -0.15 8 0.46 7.42C1.06 6.84 2 6.86 2.58 7.46L2.58 7.49L0.45 9.54ZM20.67 0.49L20.67 0.46C21.25 -0.14 22.19 -0.16 22.79 0.42C23.4 1 23.41 1.94 22.83 2.54L22.8 2.54L20.67 0.49Z" fill="#0F2346" fill-opacity="1.000000" fill-rule="evenodd"/>
</svg>
