<svg width="23.261719" height="17.083008" viewBox="0 0 23.2617 17.083" fill="none" xmlns="http://www.w3.org/2000/svg" xmlns:xlink="http://www.w3.org/1999/xlink">
	<desc>
			Created with Pixso.
	</desc>
	<defs/>
	<path id="path" d="M2.58 7.46L4.83 9.79L2.67 11.88L0.42 9.54L2.58 7.46ZM22.83 2.54L9.33 16.54C8.67 17.22 7.99 17.26 7.27 16.64L4.57 14.3L6.53 12.03L9.23 14.37L8.25 15.5L7.17 14.46L20.67 0.46L22.83 2.54ZM0.45 9.54L0.42 9.54C-0.16 8.94 -0.14 8 0.46 7.42C1.06 6.84 2 6.86 2.58 7.46L2.58 7.49L0.45 9.54ZM4.8 9.79L4.83 9.79C5.41 10.4 5.4 11.33 4.79 11.91C4.19 12.5 3.25 12.48 2.67 11.88L2.67 11.85L4.8 9.79ZM20.67 0.49L20.67 0.46C21.25 -0.14 22.19 -0.16 22.79 0.42C23.4 1 23.41 1.94 22.83 2.54L22.8 2.54L20.67 0.49ZM4.6 14.3L4.57 14.3C3.93 13.75 3.87 12.82 4.42 12.19C4.96 11.55 5.9 11.48 6.53 12.03L6.53 12.06L4.6 14.3Z" fill="#0F2346" fill-opacity="1.000000" fill-rule="evenodd"/>
</svg>
