<svg width="42.309570" height="42.297852" viewBox="0 0 42.3096 42.2979" fill="none" xmlns="http://www.w3.org/2000/svg" xmlns:xlink="http://www.w3.org/1999/xlink">
	<desc>
			Created with Pixso.
	</desc>
	<defs>
		<clipPath id="clip248_354">
			<rect id="search" width="42.309719" height="42.297844" fill="white" fill-opacity="0"/>
		</clipPath>
	</defs>
	<rect id="search" width="42.309719" height="42.297844" fill="#FFFFFF" fill-opacity="0"/>
	<g clip-path="url(#clip248_354)">
		<path id="矢量 267" d="M27.32 24.67L25.93 24.67L25.43 24.19C27.16 22.18 28.2 19.58 28.2 16.74C28.2 10.41 23.07 5.28 16.74 5.28C10.41 5.28 5.28 10.41 5.28 16.74C5.28 23.06 10.41 28.19 16.74 28.19C19.58 28.19 22.19 27.15 24.2 25.43L24.68 25.92L24.68 27.31L33.49 36.11L36.12 33.48L27.32 24.67ZM16.74 24.67C12.35 24.67 8.81 21.13 8.81 16.74C8.81 12.35 12.35 8.81 16.74 8.81C21.13 8.81 24.68 12.35 24.68 16.74C24.68 21.13 21.13 24.67 16.74 24.67Z" fill="#0F2346" fill-opacity="1.000000" fill-rule="evenodd"/>
	</g>
</svg>
