<svg fill="none" xmlns="http://www.w3.org/2000/svg" viewBox="0 0 586.65 93.5" xml:space="preserve"><title>Alexander McQueen</title><path d="M504.06 62.77v3.6h26.1v-3.6c-5.22 0-6.3-1.08-7.38-2.7-1.17-1.8-1.8-7.38-1.98-42.48 22.77 21.24 35.73 32.58 53.46 50.13h1.98c-.45-11.97-.54-23.85-.63-35.55-.18-17.73-.27-21.24 1.53-23.31 1.53-1.71 4.86-1.89 7.74-1.89v-3.6h-26.37v3.6c4.86 0 6.66 1.17 7.74 2.79s1.26 3.33 1.26 29.16v4.77c-15.21-13.77-30.42-27.27-44.46-40.32h-18.72v3.78c4.59.54 5.85 1.44 6.93 2.52 1.35 1.44 1.53 4.05 1.53 25.2 0 17.91-.36 23.58-2.16 25.65-1.8 1.98-3.96 2.25-6.57 2.25m-88.61 0v3.6h58.68l.27-19.17h-3.78c-.9 4.59-1.71 7.29-3.42 9.45-2.16 2.61-6.39 3.6-19.8 3.6h-10.08V36.76c6.66.09 9 .36 10.35 1.35 1.53.99 2.07 2.79 2.61 7.65h4.23v-24.3h-4.23c-.45 4.86-1.17 5.94-2.61 7.11-1.08.81-2.52 1.35-10.35 1.44V9.13h7.92c12.42 0 15.84.72 17.82 3.6.99 1.44 1.8 2.88 2.61 5.76h3.78l-.99-15.12h-52.47v3.6c4.95.45 6.39.72 7.47 1.8 1.35 1.44 1.26 3.87 1.26 26.1 0 17.73-.18 22.68-2.16 25.02-1.71 1.98-4.32 2.79-7.11 2.88m-87.1 0v3.6h58.68l.27-19.17h-3.78c-.9 4.59-1.71 7.29-3.42 9.45-2.16 2.61-6.39 3.6-19.8 3.6h-10.08V36.76c6.66.09 9 .36 10.35 1.35 1.53.99 2.07 2.79 2.61 7.65h4.23v-24.3h-4.23c-.45 4.86-1.17 5.94-2.61 7.11-1.08.81-2.52 1.35-10.35 1.44V9.13h7.92c12.42 0 15.84.72 17.82 3.6.99 1.44 1.8 2.88 2.61 5.76h3.78l-.99-15.12h-52.47v3.6c4.95.45 6.39.72 7.47 1.8 1.35 1.44 1.26 3.87 1.26 26.1 0 17.73-.18 22.68-2.16 25.02-1.71 1.98-4.32 2.79-7.11 2.88m-66.49 5.58c20.25 0 30.42-8.82 30.42-25.74V22.99c0-8.19-.18-12.6.99-14.31.99-1.53 2.7-1.53 7.2-1.71v-3.6h-24.3v3.6c4.5.09 5.49.27 6.66 1.71 1.26 1.53 1.17 5.49 1.17 32.85 0 12.78-5.94 18.45-19.35 18.45-12.51 0-18.09-5.67-18.09-18.45V24.7c0-12.78.09-14.4.81-15.84.99-1.89 3.06-1.8 6.93-1.89v-3.6h-28.8v3.6c3.87.18 6.03.09 7.11 2.34 1.08 2.16.72 8.91.72 25.2v9c0 16.47 9.54 24.84 28.53 24.84M141.13 35.41c0 10.17 7.02 17.37 16.74 17.37 6.66 0 11.79-3.33 15.75-11.07l-2.88-1.98c-3.06 4.05-6.03 5.94-9.9 5.94-5.85 0-9.36-4.59-9.36-13.5 0-6.57 2.61-10.62 6.93-10.62 6.21 0 2.88 9.09 9.45 9.09 2.79 0 4.77-1.8 4.77-4.95 0-5.13-5.4-8.46-13.05-8.46-11.25 0-18.45 7.29-18.45 18.18m-9.81-.18c0-17.46 9.18-27.54 26.28-27.54 17.01 0 26.19 9.99 26.19 27.54 0 18.09-9.72 28.17-26.19 28.17-16.56 0-26.28-10.17-26.28-28.17m26.37 33.93c26.19 0 39.87-18.18 39.87-34.92 0-18.36-16.29-32.31-39.96-32.31-23.4 0-39.42 13.59-39.42 33.66 0 17.28 11.88 28.71 27.99 32.31l-10.71 8.28c-1.26.99-1.8 2.07-1.8 3.06 0 1.8 1.53 3.24 3.06 3.24 3.06 0 5.58-5.4 11.16-5.4 8.28 0 13.5 14.49 29.07 14.49 9.72 0 17.01-6.66 20.43-16.92l-3.6-1.53c-2.34 3.96-6.21 6.39-13.95 6.39-10.62 0-16.74-5.49-30.06-5.94 1.62-1.44 3.51-2.97 5.58-4.5.81.09 1.53.09 2.34.09M43.35 67.45h1.62c4.59-10.08 9.63-19.8 14.94-29.61 3.51-7.2 7.74-14.67 11.7-22.32v19.35c0 16.56-.36 23.58-1.71 25.65-.99 1.53-3.24 2.16-6.84 2.25v3.6h30.06v-3.6c-4.05-.18-6.3-.63-7.2-2.25-1.08-1.98-1.71-9.09-1.71-25.65 0-21.33-.27-23.31.9-25.56.9-1.8 2.88-2.16 6.93-2.34v-3.6H69.45c-6.48 14.67-14.58 29.07-22.5 43.65L24.45 3.37H2.04v3.6c4.23.09 6.12.63 7.29 1.98 1.62 1.89 1.53 4.41 1.26 25.92-.18 16.74-.45 23.58-2.25 25.65-1.8 1.98-4.05 2.16-6.57 2.25v3.6h25.65v-3.6c-4.5-.18-6.75-.72-7.83-2.34-1.17-1.98-1.53-8.82-1.62-44.37 7.11 14.4 21.51 43.38 25.38 51.39" fill="currentColor"></path></svg>