<svg version="1.1" xmlns="http://www.w3.org/2000/svg" xmlns:xlink="http://www.w3.org/1999/xlink" x="0px" y="0px" viewBox="0 0 159.9 14.7" style="enable-background:new 0 0 159.9 14.7;" xml:space="preserve">
	<title>alexanderwang</title>
	<path d="M10.7,5.9v5.7h-3v-0.8c-0.4,0.7-1.3,1-3.8,1C0.6,11.7,0,10.9,0,9V8.8c0-1.9,0.6-2.7,3.9-2.7c2.2,0,3.2,0.2,3.6,0.8V6.1
		c0-1.3-0.3-1.5-2.1-1.5c-1.2,0-1.8,0.1-2.1,0.8h-3c0.2-1.9,1.3-2.5,5.1-2.5C10,2.9,10.7,3.8,10.7,5.9z M7.5,9V8.9
		c0-0.8-0.3-1-2.2-1s-2.2,0.2-2.2,1V9c0,0.8,0.3,1,2.2,1S7.5,9.8,7.5,9z"></path>
	<path d="M16.3,0v11.5h-3.2V0H16.3z"></path>
	<path d="M21.7,7.8v0.2c0,1.7,0.2,2,2.1,2c1.5,0,2-0.2,2.1-1.1h3.2c-0.2,2-1.2,2.8-5.3,2.8c-4.7,0-5.3-1.1-5.3-3.8V6.7
		c0-2.7,0.7-3.8,5.3-3.8s5.3,1.2,5.3,3.8v1.1H21.7z M21.7,6.3h4.3c0-1.5-0.3-1.8-2.1-1.8C22,4.6,21.7,4.8,21.7,6.3z"></path>
	<path d="M37.8,11.5l-2.2-2.9l-2.4,2.9h-3.5l3.7-4.3L30,3.1h3.7l1.9,2.5l2.1-2.5h3.5l-3.5,4l3.7,4.4H37.8z"></path>
	<path d="M53,5.9v5.7h-3v-0.8c-0.4,0.7-1.3,1-3.8,1c-3.3,0-3.9-0.8-3.9-2.7V8.8c0-1.9,0.6-2.7,3.9-2.7c2.2,0,3.2,0.2,3.6,0.8V6.1
		c0-1.3-0.3-1.5-2.1-1.5c-1.2,0-1.8,0.1-2.1,0.8h-3c0.2-1.9,1.3-2.5,5.1-2.5C52.4,2.9,53,3.8,53,5.9z M49.9,9V8.9
		c0-0.8-0.3-1-2.2-1s-2.2,0.2-2.2,1V9c0,0.8,0.3,1,2.2,1S49.9,9.8,49.9,9z"></path>
	<path d="M66.4,5.8v5.7h-3.2V6.9c0-1.6-0.4-1.8-2.1-1.8c-1.8,0-2.6,0.2-2.6,2v4.5h-3.2V3.1h3v1.2C59,3.3,60,2.9,62.1,2.9
		C65.6,2.9,66.4,4.1,66.4,5.8z"></path>
	<path d="M79.8,0v11.5h-3v-1.1c-0.5,0.9-1.6,1.3-3.8,1.3c-3.5,0-4.4-1.2-4.4-3.9V6.8c0-2.8,1-3.9,4.4-3.9c2,0,3.1,0.3,3.6,1.1V0
		H79.8z M76.6,7.9V6.7c0-1.5-0.5-1.7-2.4-1.7s-2.4,0.2-2.4,1.7v1.2c0,1.5,0.5,1.7,2.4,1.7S76.6,9.4,76.6,7.9z"></path>
	<path d="M85.1,7.8v0.2c0,1.7,0.2,2,2.1,2c1.5,0,2-0.2,2.1-1.1h3.2c-0.2,2-1.2,2.8-5.3,2.8c-4.7,0-5.3-1.1-5.3-3.8V6.7
		c0-2.7,0.7-3.8,5.3-3.8s5.3,1.2,5.3,3.8v1.1H85.1z M85.1,6.3h4.3c0-1.5-0.3-1.8-2.1-1.8C85.4,4.6,85.1,4.8,85.1,6.3z"></path>
	<path d="M103.9,5.6v0.8H101c-0.1-1.2-0.4-1.3-1.4-1.3c-1.2,0-1.8,0.2-1.8,2v4.5h-3.2V3.1h3v1.4C98.1,3.4,99,3,100.8,3
		C103.3,3,103.9,4,103.9,5.6z"></path>
	<path d="M122.5,3.1l-3,8.4h-4.2l-1.7-5.4l-1.7,5.4h-4.2l-3-8.4h3.3l2,6.6l2.1-6.6h3.2l2.1,6.6l2-6.6H122.5z"></path>
	<path d="M133.7,5.9v5.7h-3v-0.8c-0.4,0.7-1.3,1-3.8,1c-3.3,0-3.9-0.8-3.9-2.7V8.8c0-1.9,0.6-2.7,3.9-2.7c2.2,0,3.2,0.2,3.6,0.8
		V6.1c0-1.3-0.3-1.5-2.1-1.5c-1.2,0-1.8,0.1-2.1,0.8h-3c0.2-1.9,1.3-2.5,5.1-2.5C133,2.9,133.7,3.8,133.7,5.9z M130.5,9V8.9
		c0-0.8-0.3-1-2.2-1c-1.9,0-2.2,0.2-2.2,1V9c0,0.8,0.3,1,2.2,1C130.2,10,130.5,9.8,130.5,9z"></path>
	<path d="M146.8,5.8v5.7h-3.2V6.9c0-1.6-0.4-1.8-2.1-1.8c-1.8,0-2.6,0.2-2.6,2v4.5h-3.2V3.1h3v1.2c0.5-0.9,1.5-1.4,3.6-1.4
		C146,2.9,146.8,4.1,146.8,5.8z"></path>
	<path d="M159.9,3.1v8.3c0,2.3-0.9,3.3-5.6,3.3c-3.9,0-5-0.4-5.2-2.4h3c0.2,0.6,0.9,0.7,2.3,0.7c2.1,0,2.3-0.3,2.3-1.8v-0.8
		c-0.6,0.8-1.6,1.1-3.6,1.1c-3.5,0-4.4-1.2-4.4-3.9V6.8c0-2.8,1-3.9,4.4-3.9c2.1,0,3.2,0.4,3.8,1.3V3.1H159.9z M156.7,7.7v-1
		c0-1.5-0.5-1.7-2.4-1.7s-2.4,0.2-2.4,1.7v1.2c0,1.5,0.5,1.5,2.4,1.5S156.7,9.2,156.7,7.7z"></path>
</svg>
