<svg viewBox="0 0 598 159" fill="none" xmlns="http://www.w3.org/2000/svg">
<g clip-path="url(#clip0_24_2709)">
<path d="M91.08 129.11C123.737 129.082 155.582 139.287 182.14 158.29L91.06 0L0 158.31C26.5613 139.295 58.4141 129.083 91.08 129.11Z" fill="#E30513"></path>
<path d="M290.13 29.7302L329.9 128.8H307.68L299.33 107.43H261.54L253.19 128.8H231.39L271.3 29.7302H290.13ZM268.05 89.1702H293L280.4 56.7602L268.05 89.1702ZM366 128.8H345.31V58.8802H366V67.6602C369.79 61.2902 376.44 57.0002 385.64 57.0002C395.27 57.0002 402.34 61.3902 406.17 69.1702C410.55 61.8502 418.48 57.0002 428.67 57.0002C444.67 57.0002 453.72 67.7602 453.72 84.8902V128.8H433.06V89.7402C433.06 81.1002 429.06 75.8702 421.88 75.8702C414.7 75.8702 410 81.5302 409.85 91.0002V128.8H389.18V90.0002C389.18 80.9402 385.36 75.8502 378.18 75.8502C371 75.8502 366 81.8102 366 91.4402V128.8Z" fill="black"></path>
<path d="M484.31 50.6701C490.954 50.6701 496.34 45.2841 496.34 38.6401C496.34 31.9961 490.954 26.6101 484.31 26.6101C477.666 26.6101 472.28 31.9961 472.28 38.6401C472.28 45.2841 477.666 50.6701 484.31 50.6701Z" fill="black"></path>
<path d="M473.98 58.8801H494.64V128.8H473.98V58.8801ZM558.91 79.0001C557.248 78.3308 555.458 78.0404 553.67 78.1501C542.21 78.1501 535.42 86.6401 535.42 100.37V128.8H514.89V58.8801H535.27V70.3501C539.1 62.2801 546.27 57.3501 555.37 57.3501C556.563 57.3478 557.752 57.4922 558.91 57.7801V79.0001Z" fill="black"></path>
<path d="M585.25 50.6701C591.894 50.6701 597.28 45.2841 597.28 38.6401C597.28 31.9961 591.894 26.6101 585.25 26.6101C578.606 26.6101 573.22 31.9961 573.22 38.6401C573.22 45.2841 578.606 50.6701 585.25 50.6701Z" fill="black"></path>
<path d="M574.91 58.8801H595.57V128.8H574.91V58.8801Z" fill="black"></path>
</g>
<defs>
<clipPath id="clip0_24_2709">
<rect width="597.28" height="158.31" fill="white"></rect>
</clipPath>
</defs>
</svg>
