<?xml version="1.0" encoding="utf-8"?>
<!-- Generator: Adobe Illustrator 24.0.1, SVG Export Plug-In . SVG Version: 6.00 Build 0)  -->
<svg version="1.1" id="Livello_1" xmlns="http://www.w3.org/2000/svg" xmlns:xlink="http://www.w3.org/1999/xlink" x="0px" y="0px"
	 viewBox="0 0 340.3 482.9" style="enable-background:new 0 0 340.3 482.9;" xml:space="preserve">

<g>
	<g>
		<polygon class="st0" points="120.8,474.9 120.2,474.9 111.9,462.3 109.3,462.3 109.3,480.1 110.6,480.1 110.6,465.5 120.3,480.1 
			122.1,480.1 122.2,462.3 120.8,462.3 		"/>
		<polygon class="st0" points="289.9,474.9 289.3,474.9 281,462.3 278.4,462.3 278.4,480.1 279.7,480.1 279.7,465.5 289.4,480.1 
			291.2,480.1 291.3,462.3 289.9,462.3 		"/>
		<rect x="134.9" y="462.3" class="st0" width="2.9" height="17.9"/>
		<path class="st0" d="M40.9,466.8c0-2.9-2.6-4.5-5.7-4.5h-5.1v17.9H33v-8.8h0.4l5.7,8.8h3.2l-5.8-8.8
			C38.8,471.1,40.9,469.6,40.9,466.8z M33,470.5v-7.3h1.4c2.5,0,4,1.5,4,3.5c0,2-1.5,3.7-4,3.7H33z"/>
		<polygon class="st0" points="164.2,471.5 170.6,471.5 170.6,470.2 164.2,470.2 164.2,463.6 170.8,463.6 170.8,462.3 161.3,462.3 
			161.3,480.1 171.1,480.1 171.1,478.8 164.2,478.8 		"/>
		<polygon class="st0" points="330.3,478.8 330.3,471.5 336.8,471.5 336.8,470.2 330.3,470.2 330.3,463.6 337,463.6 337,462.3 
			327.5,462.3 327.5,480.1 337.2,480.1 337.2,478.8 		"/>
		<polygon class="st0" points="239.6,470.2 231.9,470.2 231.9,462.3 229.3,462.3 229.3,480.1 231.9,480.1 231.9,471.4 239.6,471.4 
			239.6,480.1 242.2,480.1 242.2,462.3 239.6,462.3 		"/>
		<path class="st0" d="M212.3,479.4c-3.5,0-5.3-4.4-5.3-8.1c0-3.7,1.6-8.3,5.1-8.3c2,0,3.7,2,4.4,3.5l2.2-0.9
			c-0.9-1.4-2.3-3.6-6.5-3.6c-5.6,0-8,4.5-8,9.3s2.9,9.2,7.9,9.2c2.6,0,5.2-1,6.8-3.7l-2.3-0.9C215.8,477.3,214.3,479.4,212.3,479.4
			z"/>
		<path class="st0" d="M309.8,463c2,0,3.7,2,4.4,3.5l2.2-0.9c-0.9-1.4-2.3-3.6-6.5-3.6c-5.6,0-8,4.5-8,9.3s2.9,9.2,7.9,9.2
			c3.6,0,6.6-1.7,6.6-1.7v-7.1h-2.5v6.8c-1.3,0.4-3.5,0.3-3.5,0.3c-3.6-0.2-5.6-3.9-5.6-7.6C304.7,467.6,306.3,463,309.8,463z"/>
		<polygon class="st0" points="194.4,462.3 192.6,462.3 188.7,468.3 185.1,462.3 181.8,462.3 187,470.9 181,480.1 182.7,480.1 
			187.9,472.4 192.4,480.1 195.7,480.1 189.6,469.7 		"/>
		<path class="st0" d="M7.8,462.3l-6,17.9h1.6l2-5.7h6.8l2.2,5.7h3l-6.6-17.9H7.8z M5.8,473.1l2.8-8.2l3.1,8.2L5.8,473.1z"/>
		<path class="st0" d="M89.1,462.3l-6,17.9h1.6l2-5.7h6.8l2.2,5.7h3L92,462.3H89.1z M87.1,473.1l2.8-8.2l3.1,8.2L87.1,473.1z"/>
		<path class="st0" d="M258.8,462.3l-6,17.9h1.6l2-5.7h6.8l2.2,5.7h3l-6.6-17.9H258.8z M256.8,473.1l2.8-8.2l3.1,8.2L256.8,473.1z"
			/>
		<polygon class="st0" points="63,474.6 58.5,462.3 55,462.3 55,480.1 56.2,480.1 56.2,465.7 56.7,465.7 61.9,480.1 62.3,480.1 
			67.7,465.7 68.2,465.7 68.2,480.1 71.1,480.1 71.1,462.3 67.8,462.3 		"/>
	</g>
	<g>
		<rect x="177.7" y="0.5" class="st0" width="3.1" height="435.3"/>
		<path class="st0" d="M39.7,277.9h55l20.2,87.7H91.2v5.8h70.1v-5.8h-14.2L78.6,62.1h-1.1L18.9,365.7h-17v5.8h40.3v-5.8H22.8
			L39.7,277.9z M93.3,272.2H40.8l23.9-124.1L93.3,272.2z"/>
		<polygon class="st0" points="318.6,365.7 276,178.4 302.7,73.8 322.9,73.8 322.9,68 282.5,68 282.5,73.8 298.7,73.8 274,169.7 
			252.2,73.8 264.9,73.8 264.9,68 198.1,68 198.1,73.8 219.1,73.8 255.4,230.6 220.9,365.7 197.1,365.7 197.1,371.4 245.3,371.4 
			245.3,365.7 225.1,365.7 257.3,238.9 286.7,365.7 263.5,365.7 263.5,371.4 337.2,371.4 337.2,365.7 		"/>
	</g>
</g>
</svg>
