<svg viewBox="0 0 111 37" id="logo-asics" xmlns="http://www.w3.org/2000/svg"><path d="M110.84 9.242c-.304 1.137-.619 2.271-.904 3.412-.077.309-.219.393-.525.391-1.993-.013-3.987-.01-5.98-.005-.864.002-1.563.317-1.992 1.11-.251.465-.235.93.145 1.292a7.84 7.84 0 001.29 1.007c.843.516 1.746.937 2.577 1.472.761.49 1.521 1.012 2.171 1.636 1.195 1.147 1.555 2.617 1.327 4.237-.157 1.111-.527 2.156-1.058 3.141-1.291 2.396-3.383 3.604-6.019 3.737-2.709.136-5.43.059-8.145.074-.078 0-.156-.019-.317-.04.128-.469.245-.892.358-1.316.242-.904.495-1.806.713-2.717.073-.305.203-.402.514-.4 1.993.013 3.987.022 5.98-.003a8.553 8.553 0 001.783-.206c.797-.181 1.164-.795 1.318-1.557.129-.638-.192-1.109-.649-1.456-.604-.458-1.261-.851-1.906-1.254-.929-.58-1.904-1.095-2.795-1.728-1.141-.808-2.049-1.85-2.245-3.292a6.44 6.44 0 01.078-2.145c.871-4.162 4.441-5.92 7.374-6.02 2.272-.078 4.549-.021 6.823-.022.065 0 .13.017.244.033-.057.22-.107.42-.16.619zm-15.258 3.446c-.066.268-.182.352-.461.358-1.268.03-2.552-.025-3.8.159-4.015.595-7.214 4.076-7.497 8.038-.211 2.96 1.65 4.992 4.623 5.033 1.136.016 2.274.003 3.411.004h.55c-.154.562-.292 1.058-.424 1.555-.223.84-.449 1.68-.659 2.524-.066.266-.166.402-.478.396-1.551-.03-3.107.039-4.652-.066-4.101-.278-6.911-2.937-7.281-6.933-.259-2.799.541-5.364 1.88-7.76 2.33-4.165 5.906-6.604 10.624-7.235 1.646-.22 3.336-.123 5.005-.168.063-.002.126.029.228.054l-.336 1.247c-.247.931-.502 1.86-.733 2.794zm-20.449 17.62c-.087.336-.216.453-.562.448-1.298-.019-2.596-.007-3.894-.009-.142 0-.284-.02-.485-.034l.453-1.749 5.059-19.455c.24-.922.241-.922 1.189-.922 1.111 0 2.221-.001 3.332.001.158 0 .315.013.54.022-.339 1.298-.661 2.525-.98 3.753-1.554 5.981-3.11 11.961-4.652 17.945zM71.3 12.625c-.058.326-.206.424-.539.421a518.098 518.098 0 00-5.979-.005c-.831.002-1.517.3-1.945 1.052-.302.53-.289.971.149 1.39.412.392.882.739 1.369 1.035.96.583 1.955 1.106 2.923 1.676.378.223.734.49 1.079.764 1.622 1.288 2.285 2.963 1.935 5.007-.229 1.333-.708 2.582-1.479 3.7-1.206 1.751-2.92 2.68-4.99 2.946-.911.117-1.839.123-2.76.132-1.9.018-3.8.006-5.699.004-.171 0-.342-.015-.579-.027.087-.354.153-.638.228-.921.265-.995.553-1.984.789-2.986.097-.408.256-.552.694-.546 1.966.028 3.933.021 5.899.006a8.865 8.865 0 001.473-.132c.59-.103 1.075-.392 1.35-.964.419-.869.343-1.51-.412-2.108-.645-.512-1.376-.917-2.075-1.359-.937-.593-1.92-1.122-2.811-1.777-1.231-.904-2.066-2.103-2.166-3.686-.083-1.32.295-2.554.927-3.689 1.321-2.372 3.448-3.538 6.067-3.906.408-.058.827-.061 1.241-.062 1.966-.006 3.933-.003 5.899-.003h.484c-.283 1.076-.55 2.094-.82 3.111-.082.31-.197.613-.252.927zM53.171 27.287c-.28 1.047-.568 2.091-.837 3.14-.061.238-.173.326-.416.324-3.131-.02-6.261-.012-9.391-.059-1.065-.015-2.084-.328-3.028-.834-2.06-1.105-3.093-3.463-2.605-5.929.403-2.034 1.548-3.599 3.155-4.833 2.142-1.646 4.552-2.556 7.287-2.509 1.11.019 2.221-.013 3.331.012.355.008.502-.111.558-.449.09-.539.269-1.069.306-1.61.053-.778-.414-1.299-1.18-1.418a6.695 6.695 0 00-.999-.08c-1.94-.008-3.88-.004-5.82-.004h-.539c.394-1.464.759-2.845 1.153-4.218.031-.109.273-.222.418-.223 1.686-.016 3.372-.011 5.058-.01.628 0 1.261-.04 1.885.012 2.061.17 3.694 1.063 4.623 2.975.607 1.25.548 2.581.201 3.893-1.044 3.943-2.105 7.88-3.16 11.82zm-3.436-6.302c-1.323-.001-2.648-.037-3.97.009-1.612.056-3.119 1.256-3.513 2.72-.358 1.324.383 2.454 1.743 2.52 1.413.07 2.832.028 4.249.045.251.004.31-.141.361-.336.406-1.537.818-3.074 1.224-4.611.027-.099.028-.205.041-.309-.06-.017-.097-.038-.135-.038zm-21.866 2.808c-2.992 3.641-6.356 6.885-10.302 9.488-2.349 1.549-4.834 2.811-7.608 3.409-1.964.423-3.928.468-5.852-.22C1.584 35.567.07 33.435.001 30.753c-.066-2.621.783-4.974 2.106-7.18 1.619-2.698 3.767-4.928 6.215-6.877 2.891-2.303 6.03-4.179 9.579-5.267a16.712 16.712 0 013.535-.66c.803-.065 1.664.078 2.443.314 1.787.541 2.644 2.216 2.174 4.031-.026.1-.044.202-.065.303l.069.042c.316-.408.644-.808.947-1.226 1.341-1.853 2.511-3.797 3.128-6.026.223-.804.385-1.623.246-2.457-.265-1.584-1.282-2.518-2.739-3.007-1.477-.496-2.988-.387-4.487-.111-2.899.534-5.571 1.683-8.126 3.117-1.071.601-2.105 1.269-3.191 1.928l-.296-.395c.381-.304.744-.609 1.123-.894 3.549-2.677 7.385-4.782 11.733-5.844 2.162-.528 4.348-.77 6.551-.271 2.938.665 4.828 2.948 5.011 5.96.144 2.363-.493 4.562-1.37 6.707-1.634 3.991-3.994 7.539-6.718 10.853zm-5.59-10.714c-.919-.115-1.815.043-2.686.317-3.621 1.139-6.514 3.343-8.947 6.199-.803.942-1.474 1.976-1.812 3.186-.55 1.967.65 3.527 2.67 3.486 1.034-.02 2.011-.297 2.937-.728 3.384-1.575 6.156-3.946 8.582-6.742.653-.752 1.08-1.655 1.335-2.629.452-1.732-.309-2.868-2.079-3.089z"/></svg>