<svg viewBox="0 0 33 33" fill="none" xmlns="http://www.w3.org/2000/svg">
<path d="M16.36 32.72C11.99 32.72 7.88 31.02 4.79 27.93C1.7 24.84 0 20.73 0 16.36C0 11.99 1.7 7.88 4.79 4.79C7.88 1.7 11.99 0 16.36 0C20.73 0 24.84 1.7 27.93 4.79C31.02 7.88 32.72 11.99 32.72 16.36C32.72 20.73 31.02 24.84 27.93 27.93C24.84 31.02 20.73 32.72 16.36 32.72ZM16.36 0.62C12.15 0.62 8.2 2.26 5.23 5.23C2.26 8.2 0.620001 12.15 0.620001 16.36C0.620001 20.57 2.26 24.52 5.23 27.49C8.2 30.46 12.16 32.1 16.36 32.1C20.56 32.1 24.52 30.46 27.49 27.49C30.46 24.52 32.1 20.56 32.1 16.36C32.1 12.16 30.46 8.2 27.49 5.23C24.52 2.26 20.56 0.62 16.36 0.62Z" fill="#231815"></path>
<path d="M8.05004 24.9803H20.45C23.18 24.9803 25.17 22.8703 25.17 20.0003C25.17 18.1403 24.44 16.7403 22.99 15.8503C23.91 14.9803 24.41 13.9203 24.41 12.3903C24.41 9.59027 22.44 7.78027 19.34 7.78027H8.04004V10.1703H9.83004V22.5703H8.04004V24.9803H8.05004ZM11.03 10.1703H12.22V22.5703H11.03V10.1703ZM14.61 15.1903V10.1703H19.03C20.93 10.1703 21.89 10.9703 21.89 12.6703C21.89 14.3703 20.95 15.1903 19.03 15.1903H14.61ZM14.61 22.5703V17.3903H19.81C21.6 17.3903 22.65 18.3303 22.65 19.9803C22.65 21.6303 21.59 22.5703 19.81 22.5703H14.61Z" fill="#231815"></path>
</svg>
