<svg viewBox="0 0 6229 512" fill="none" xmlns="http://www.w3.org/2000/svg">
<g clip-path="url(#clip0_85_15977)">
<path d="M1249.4 472.6C1149.6 472.6 1089.5 375.6 1089.5 256C1089.5 136.4 1149.5 39.4998 1249.4 39.4998C1349.3 39.4998 1409.3 136.4 1409.3 256.1C1409.3 375.8 1349.2 472.6 1249.4 472.6ZM1249.4 10.2998C1111 10.2998 998.7 120.3 998.7 256C998.7 391.7 1110.9 501.7 1249.4 501.7C1387.9 501.7 1500.1 391.7 1500.1 256C1500.1 120.3 1387.8 10.2998 1249.4 10.2998Z" fill="black"></path>
<path d="M733.9 462.2H696.1V237.4H712.4C767.9 237.4 861.1 252.6 861.1 354.7C861.1 423.1 814.8 462 734 462M696.1 50.4H737.8C791.4 50.4 820.9 77.7 820.9 127.2C820.9 181 791.1 208.2 732.2 208.2H696.1V50.4ZM798.5 220.8C867.5 200.2 901.1 168.6 901.1 124.8C900.5 90.2 880.7 58.8 849.7 43.4C822.4 28.8 777.5 21.5 716.5 21.5H601V30.5C619.9 39.6 619.3 70 619.3 91.5V421.2C619.3 442.7 619.9 473.1 601 482.2V491.2H743.6C772.5 491.2 828.3 487.8 875.1 464.9C921.8 442 946.1 406.7 946.1 360.1C946.1 273.3 871.6 231.8 798.4 221.1" fill="black"></path>
<path d="M1516.9 72.6997H1525.7C1541.2 49.7997 1567.9 49.7997 1589.3 49.7997H1627.8V420.9C1627.8 442.4 1628.4 472.8 1609.5 481.9V490.9H1722.5V481.9C1703.6 472.8 1704.2 442.4 1704.2 420.9V49.7997H1742.7C1764 49.7997 1790.8 49.7997 1806.2 72.7997H1815V21.1997H1516.9V72.6997Z" fill="black"></path>
<path d="M1892.1 72.6997H1900.9C1916.3 49.7997 1943.1 49.7997 1964.4 49.7997H2002.9V420.9C2002.9 442.4 2003.5 472.8 1984.5 481.9V490.9H2097.8V481.9C2078.9 472.8 2079.5 442.4 2079.5 420.9V49.7997H2118C2139.4 49.7997 2166.1 49.7997 2181.5 72.7997H2190.4V21.1997H1892.1V72.6997Z" fill="black"></path>
<path d="M5499.7 72.6997H5508.5C5523.9 49.7997 5550.7 49.7997 5572 49.7997H5610.5V420.9C5610.5 442.4 5611 472.8 5592.1 481.9V490.9H5705.1V481.9C5686.2 472.8 5686.8 442.4 5686.8 420.9V49.7997H5725.3C5746.6 49.7997 5773.4 49.7997 5788.8 72.7997H5797.7V21.1997H5499.7V72.6997Z" fill="black"></path>
<path d="M2514.4 462.2H2366.5V263.7H2473.8C2495.5 263.7 2526.4 263.4 2534.9 282H2543.8V216.9H2534.9C2526.5 235.4 2495.4 235.1 2473.8 235.1H2366.5V49.7997H2494.7C2516.1 49.7997 2543 49.7997 2558.3 72.7997H2567.1V21.1997H2266.6V29.9997C2290.5 45.4997 2290.3 73.4997 2290.3 95.4997V416.6C2290.3 438.6 2290.3 466.6 2266.6 482V490.9H2586.5V439.6H2577.7C2563.1 462.5 2535.6 462.6 2514.2 462.6" fill="black"></path>
<path d="M4524.1 462.2H4376.2V263.7H4483.5C4505.1 263.7 4536.1 263.4 4544.5 282H4553.5V216.9H4544.5C4536.1 235.4 4505 235.1 4483.5 235.1H4376.2V49.7997H4504.4C4525.7 49.7997 4552.7 49.7997 4567.9 72.7997H4577V21.1997H4276.5V29.9997C4300.4 45.4997 4300.2 73.4997 4300.2 95.4997V416.6C4300.2 438.6 4300.2 466.6 4276.5 482V490.9H4596.4V439.6H4587.6C4573 462.2 4545.4 462.2 4524.1 462.2Z" fill="black"></path>
<path d="M5362.9 462.2H5215V263.7H5322.3C5343.9 263.7 5374.9 263.4 5383.3 282H5392.3V216.9H5383.3C5374.9 235.4 5343.8 235.1 5322.3 235.1H5215V49.7997H5343.2C5364.5 49.7997 5391.4 49.7997 5406.7 72.7997H5415.5V21.1997H5115.2V29.9997C5139.2 45.4997 5139 73.4997 5139 95.4997V416.6C5139 438.6 5139 466.6 5115.2 482V490.9H5435.2V439.6H5426.4C5411.8 462.2 5384.2 462.2 5362.9 462.2Z" fill="black"></path>
<path d="M3255.2 309.7L3328.6 118.4L3401.5 309.7H3255.2ZM3529.7 432.3L3371.6 22.6999L3371.1 21.3999H3335.5L3178.1 431.5C3172.5 447.9 3156.7 476.7 3138.3 481.6V491H3219V481.8C3202.4 473.8 3198.5 460.2 3205.3 441.8L3244.8 338.1H3413L3452 441.8C3458.8 460.2 3454.7 474.2 3438.3 481.9V491.1H3564.6V481.8C3547.7 475.5 3534.7 443.8 3530 432.3" fill="black"></path>
<path d="M3008.7 280.2C3008.7 280.2 3039.7 284.7 3039.7 328.4C3039.7 414.2 2962.4 471.8 2890.3 471.8C2835.3 471.8 2790.6 448.4 2761.2 404C2735.9 366.2 2724.8 313.6 2724.8 255.8C2724.8 194.4 2736.1 142.1 2762.2 104.6C2792.6 61.2998 2837.8 39.2998 2896.6 39.2998C2965.8 39.2998 3016.2 65.1998 3051.9 116.1C3055.2 120.8 3058.3 125.7 3061.1 130.8L3069.8 129.3V21.5998H3061.1C3051.3 30.8998 3028.5 31.1998 3012.8 29.4998C2999.8 27.8998 2986.9 25.1998 2974.2 21.5998C2946.1 13.9998 2917.1 10.1998 2888.1 10.2998C2833.7 9.49979 2780.6 26.5998 2737 58.9998C2675.3 105.7 2635.3 184.7 2635.3 260.2C2634.8 326.4 2662.3 389.6 2711.2 434.2C2760.3 478.4 2824.3 502.5 2890.4 501.7C2979.5 501.7 3052.2 461.8 3095.3 389.3C3117.9 351.5 3123.5 322.9 3127.3 271.4H3008.7V280.2Z" fill="black"></path>
<path d="M5919.4 309.7L5992.5 118.5L6065.9 309.7H5919.4ZM6194 432.3L6035.8 22.6999L6035.3 21.3999H5999.7L5842.3 431.5C5836.7 447.9 5820.9 476.7 5802.5 481.6V491H5883.2V481.8C5866.6 473.8 5862.7 460.2 5869.5 441.8L5909 338.1H6077.2L6116.2 441.8C6123 460.2 6118.9 474.2 6102.5 481.9V491.1H6228.8V481.8C6211.9 475.5 6198.9 443.8 6194.2 432.3" fill="black"></path>
<path d="M4129 30.3997C4148 39.4997 4147.5 55.5997 4143.9 67.0997L4032.4 387L3927.4 76.3997C3923.8 66.4997 3917.3 41.4997 3940.7 30.4997V21.2997H3814.4V30.4997C3829.8 36.6997 3841.9 61.0997 3848.3 79.8997L3988.3 490.9H4027.5L4170.3 80.6997C4176.3 63.1997 4192.2 35.4997 4209.8 30.5997V21.1997H4129V30.3997Z" fill="black"></path>
<path d="M4966.1 29.9997C4981.1 39.5997 4981 68.7997 4981 78.0997V334.6L4761.6 22.0997L4761 21.2997H4667.9V30.0997C4691.1 44.9997 4690.9 72.2997 4690.9 93.5997V434C4690.9 443.3 4690.9 472.5 4676 482.1V490.9H4736.3V482.1C4721.3 472.5 4721.4 443.3 4721.4 434V105.6L4991.6 490.9H5011.4V78.0997C5011.4 68.7997 5011.4 39.5997 5026.3 29.9997V21.1997H4966V29.9997H4966.1Z" fill="black"></path>
<path d="M245.764 510.535C242.736 509.546 237.839 506.821 234.882 504.479C229.939 500.565 220.221 481.653 114.752 270.711L0 41.202V32.3792C0 18.902 6.43197 8.49658 18.4481 2.53459C23.443 0.0562954 28.7167 0 255.85 0C484.019 0 488.235 0.0455924 493.322 2.5679C505.616 8.6642 513.532 22.8048 511.918 35.7861C510.845 44.4163 286.082 494.73 279.35 501.738C270.726 510.714 257.18 514.263 245.764 510.535ZM354.331 244.726L452.153 49.076H255.85H59.5467L157.369 244.726C211.171 352.333 255.488 440.376 255.85 440.376C256.212 440.376 300.528 352.333 354.331 244.726Z" fill="black"></path>
</g>
<defs>
<clipPath id="clip0_85_15977">
<rect width="6229" height="512" fill="white"></rect>
</clipPath>
</defs>
</svg>
