<svg viewBox="0 0 1089 1066" fill="none" xmlns="http://www.w3.org/2000/svg">
<g clip-path="url(#clip0_996_17821)">
<path d="M1010.99 810.863C1002.64 810.867 994.4 808.972 986.891 805.322C979.382 801.672 972.802 796.361 967.648 789.793L614.802 334.11L770.427 184.013C811.142 144.962 852.602 106.697 894.786 69.2371C934.366 34.1428 995.968 19.9374 1049.17 19.9374C1049.71 19.9374 1049.17 0.589059 1049.17 0.589059H744.893V18.8046L791.927 19.5522C808.58 19.8241 825.232 20.7983 841.68 23.6077C854.186 25.6014 861.142 40.1693 854.73 51.2255C842.704 72.6008 827.935 92.3124 810.8 109.86C732.478 189.541 533.602 380.714 511.059 402.328C510.606 363.087 511.082 19.3257 511.082 19.3257L629.302 19.3483V0H284.657V19.3483L389.509 19.2577L389.736 810.183L280.76 810.138V831.729C280.737 831.435 627.874 831.729 627.874 831.729V810.704L510.244 810.727L510.334 437.014C510.153 436.969 518.898 429.719 524.993 424.666C536.434 438.872 549.711 455.32 549.847 455.366L820.202 810.387L713.673 810.41V831.978H1080.16V810.953C1080.43 810.953 1029.39 810.863 1010.99 810.863Z" fill="black"></path>
<path d="M282.369 206.126C264.815 192.779 244.47 183.574 222.856 179.199C201.242 174.825 178.919 175.394 157.556 180.864C120.275 190.742 86.8808 211.73 61.8114 241.039C1.36485 311.318 -16.4882 411.98 15.9554 499.047C36.3459 552.991 74.6574 602.676 128.806 625.944C150.692 635.236 174.156 640.25 197.929 640.716C201.17 640.768 204.41 640.594 207.626 640.195C238.104 636.251 266.893 623.939 290.797 604.625C299.633 597.533 311.867 587.972 323.308 595.607C331.782 601.158 334.704 622.274 334.795 622.387H346.1L346.236 474.08L334.795 474.012C334.795 474.012 334.002 487.062 333.866 492.885C332.416 509.333 328.519 526.778 320.703 541.414C318.03 546.58 315.288 551.655 312.547 556.662C285.201 606.732 223.236 642.71 165.871 624.653C151.356 620 138.023 612.253 126.793 601.946C115.563 591.639 106.703 579.018 100.825 564.954C71.2817 494.153 66.909 415.197 77.5574 339.842C80.3699 319.508 84.433 299.366 89.7237 279.532C98.338 247.617 118.425 220.002 146.138 201.98C151.348 198.581 157.103 195.953 162.994 193.96C211.319 177.851 266.464 194.435 298.024 234.605C317.089 259.008 329.549 287.908 334.206 318.523C334.727 322.85 336.222 331.482 336.222 331.482H346.825L346.893 197.109L334.365 197.131C334.478 197.131 334.342 202.388 334.274 204.948C333.979 218.224 319.57 222.733 308.083 220.784C297.934 219.04 290.276 212.22 282.369 206.126ZM1069.51 1.6543V3.76132H1064.19V19.1901H1062.01V3.76132H1056.69V1.6543H1069.51ZM1073.84 1.6543H1076.92L1081.45 16.4941L1085.96 1.6543H1088.99V19.1901H1086.96V8.83629L1086.98 7.06911L1087 4.39569L1082.49 19.1901H1080.36L1075.83 4.39569V4.93944L1075.85 6.88786L1075.9 8.81363V19.1675H1073.84V1.6543Z" fill="black"></path>
<path d="M318.958 1059.45H308.355V1044.9C304.718 1050.13 299.84 1054.38 294.158 1057.26C288.476 1060.14 282.167 1061.57 275.798 1061.42C251.284 1061.42 231.46 1042.05 231.46 1017.99C231.46 993.608 250.967 974.69 275.957 974.69C288.825 974.69 300.946 980.762 308.355 991.343V976.662H318.958V1059.45ZM338.465 928.449H349.045V1059.42H338.465V928.449ZM452.584 976.639H463.187V1059.45H452.584V976.639ZM480.474 976.639H491.077V987.4C499.867 978.021 504.444 975.461 514.435 975.461C536.978 975.461 547.309 990.527 547.309 1014.43V1059.45H536.706V1014.43C536.706 996.554 530.476 984.999 514.571 984.999C504.874 984.999 497.398 989.825 493.455 998.004C491.802 1001.79 491.054 1006.32 491.054 1014.04V1059.45H480.451V976.639H480.474ZM689.295 928.449H699.898V1059.42H689.295V928.449Z" fill="black"></path>
<path d="M459.087 940.774C462.666 940.774 465.567 937.873 465.567 934.294C465.567 930.715 462.666 927.814 459.087 927.814C455.508 927.814 452.607 930.715 452.607 934.294C452.607 937.873 455.508 940.774 459.087 940.774Z" fill="black"></path>
<path d="M818.458 976.639H829.061V1059.45H818.458V976.639Z" fill="black"></path>
<path d="M824.96 940.774C828.539 940.774 831.44 937.873 831.44 934.294C831.44 930.715 828.539 927.814 824.96 927.814C821.381 927.814 818.48 930.715 818.48 934.294C818.48 937.873 821.381 940.774 824.96 940.774Z" fill="black"></path>
<path d="M221.764 1037.18C213.409 1043.67 203.391 1047.68 192.861 1048.74C182.331 1049.79 171.716 1047.86 162.238 1043.15C152.759 1038.44 144.8 1031.16 139.277 1022.13C133.754 1013.1 130.891 1002.7 131.016 992.119C131.142 981.536 134.251 971.204 139.986 962.31C145.721 953.416 153.85 946.321 163.438 941.84C173.026 937.36 183.683 935.676 194.185 936.982C204.687 938.289 214.608 942.532 222.806 949.225L229.875 941.046C220.099 932.988 208.241 927.864 195.673 926.267C183.106 924.67 170.343 926.666 158.863 932.023C147.383 937.38 137.655 945.879 130.805 956.536C123.956 967.193 120.265 979.572 120.16 992.24C120.056 1004.91 123.542 1017.35 130.214 1028.12C136.886 1038.88 146.473 1047.54 157.863 1053.09C169.253 1058.64 181.981 1060.84 194.573 1059.45C207.165 1058.06 219.106 1053.14 229.014 1045.24L221.764 1037.18ZM358.154 976.729L398.685 1065.04L440.735 976.729H429.248L398.685 1040.96L369.618 976.729H358.154ZM847.503 976.638H858.106V987.4C866.897 978.021 871.473 975.46 881.465 975.46C904.008 975.46 914.339 990.527 914.339 1014.43V1059.45H903.758V1014.43C903.758 996.553 897.528 984.999 881.623 984.999C871.927 984.999 864.45 989.824 860.508 998.003C858.854 1001.79 858.106 1006.32 858.106 1014.04V1059.45H847.503V976.638ZM594.638 928.449H606.08V987.831L661.678 928.449H675.747L623.14 986.403L674.592 1059.45H660.907L615.641 994.559L606.08 1004.01V1059.45H594.638V928.449Z" fill="black"></path>
<path d="M275.663 1051.88C293.538 1051.88 308.356 1036.59 308.356 1018.12C308.356 999.34 293.81 984.206 275.799 984.206C257.334 984.206 242.041 999.657 242.041 1017.96C242.064 1036.43 257.493 1051.88 275.663 1051.88Z" fill="white"></path>
<path d="M759.145 1051.88C742.651 1051.88 727.97 1038.1 727.041 1021.75H802.577C802.418 1011.76 801.988 1008.58 799.699 1002.51C793.628 986.018 777.156 974.667 759.122 974.667C753.432 974.652 747.796 975.762 742.536 977.932C737.276 980.103 732.497 983.291 728.474 987.315C724.451 991.338 721.262 996.117 719.092 1001.38C716.921 1006.64 715.811 1012.27 715.826 1017.96C715.844 1029.48 720.426 1040.51 728.567 1048.65C736.708 1056.8 747.745 1061.38 759.258 1061.39C774.823 1061.39 789.368 1052.51 796.958 1039.21L787.896 1033.53C783.002 1044.2 771.221 1051.88 759.145 1051.88ZM759.303 984.205C774.891 984.205 787.624 995.262 791.566 1012.21H727.381C730.236 995.873 743.557 984.205 759.303 984.205Z" fill="black"></path>
</g>
<defs>
<clipPath id="clip0_996_17821">
<rect width="1089" height="1065.04" fill="white"></rect>
</clipPath>
</defs>
</svg>
