<svg width="80" height="84" viewBox="0 0 80 84" fill="none" xmlns="http://www.w3.org/2000/svg">
<path fill-rule="evenodd" clip-rule="evenodd" d="M64.66 30.696C58.387 28.808 54.933 21.938 56.939 15.35C57.632 13.066 58.891 11.119 60.501 9.62198C60.501 9.62198 64.691 5.53198 71.289 7.80598C71.217 7.80398 71.143 7.79898 71.069 7.79898C67.076 7.79898 63.84 11.35 63.84 15.731C63.84 20.113 67.076 23.663 71.068 23.663C74.222 23.663 76.904 21.449 77.891 18.358L77.886 18.357C77.886 18.357 78.121 17.692 78.253 16.607C78.277 16.423 78.298 16.198 78.298 16.198C78.549 13.438 78.061 8.54498 72.633 4.64998C65.268 -0.513021 54.908 0.0149796 54.908 0.0149796C36.496 0.0149796 21.572 15.177 21.572 33.883C21.572 52.586 36.496 67.75 54.908 67.75H79.642V22.188C77.637 28.776 70.929 32.584 64.66 30.696Z" fill="black"/>
<mask id="mask0_56_6" style="mask-type:luminance" maskUnits="userSpaceOnUse" x="0" y="75" width="10" height="9">
<path d="M0 75.4H9.549V83.677H0V75.4Z" fill="white"/>
</mask>
<g mask="url(#mask0_56_6)">
<path fill-rule="evenodd" clip-rule="evenodd" d="M4.02 77.226H9.55V75.401C9.55 75.401 5.01 75.399 4.405 75.401C1.69 75.408 -0.00199823 77.128 1.77109e-06 79.553C0.00500177 81.973 1.817 83.683 4.528 83.677H9.55V81.861H3.95C3.138 81.861 2.084 80.849 2.084 79.546C2.084 78.243 3.14 77.226 4.02 77.226Z" fill="black"/>
</g>
<mask id="mask1_56_6" style="mask-type:luminance" maskUnits="userSpaceOnUse" x="0" y="0" width="80" height="84">
<path d="M0 83.856H79.713V0H0V83.856Z" fill="white"/>
</mask>
<g mask="url(#mask1_56_6)">
<path fill-rule="evenodd" clip-rule="evenodd" d="M32.747 83.681H34.798V73.334H32.747V83.681ZM35.76 77.357C36.09 77.252 37.065 76.714 38.534 76.997C40.006 77.285 41.001 78.951 39.087 83.199C38.775 83.776 39.648 83.856 39.648 83.856L41.054 83.69C41.054 83.69 43.406 78.761 41.56 76.673C39.715 74.585 35.924 75.423 35.674 75.583C35.155 75.913 35.429 77.457 35.761 77.357M71.654 75.403H68.784V73.853H66.701V75.403H64.901V77.305H66.701V83.679H68.784V77.305H71.654V75.403ZM79.713 75.403H76.843V73.853H74.76V75.403H72.96V77.305H74.76V83.679H76.843V77.305H79.713V75.403ZM21.561 78.068C21.561 76.856 20.511 75.4 18.471 75.4H11.782V77.229H18.456C19.106 77.229 19.478 77.581 19.478 78.045V81.858H13.555C12.931 81.858 12.533 81.476 12.533 81.012C12.533 80.548 12.905 80.197 13.555 80.197H18.751L18.748 78.449C18.748 78.449 14.951 78.444 13.55 78.444C11.51 78.444 10.455 79.9 10.455 81.114C10.46 82.647 11.872 83.681 13.582 83.677H21.562L21.561 78.068ZM54.11 78.068C54.11 76.856 53.06 75.4 51.02 75.4H44.33V77.229H51.004C51.654 77.229 52.026 77.581 52.026 78.045V81.858H46.102C45.479 81.858 45.082 81.476 45.082 81.012C45.082 80.548 45.453 80.197 46.102 80.197H51.3L51.298 78.449C51.298 78.449 47.5 78.444 46.099 78.444C44.059 78.444 43.005 79.9 43.005 81.114C43.009 82.647 44.421 83.681 46.131 83.677H54.111L54.11 78.068ZM22.863 83.681H24.926V75.403H22.863V83.681ZM25.873 77.381C26.203 77.276 26.708 76.738 28.178 77.021C29.116 77.204 29.688 77.87 29.623 79.488C29.606 79.928 31.588 79.773 31.59 79.436C31.6 78.114 31.764 77.166 30.623 76.122C29.218 74.836 26.037 75.448 25.786 75.606C25.268 75.937 25.541 77.481 25.873 77.381ZM55.41 83.681H57.472V75.403H55.41V83.681ZM58.42 77.381C58.75 77.276 59.255 76.738 60.724 77.021C61.662 77.204 62.234 77.87 62.17 79.488C62.153 79.928 64.134 79.773 64.137 79.436C64.147 78.114 64.31 77.166 63.17 76.122C61.765 74.836 58.583 75.448 58.334 75.606C57.814 75.937 58.089 77.481 58.42 77.381ZM77.829 82.799C77.829 83.303 78.239 83.714 78.749 83.714C79.257 83.714 79.669 83.303 79.669 82.799C79.669 82.293 79.257 81.883 78.749 81.883C78.239 81.883 77.829 82.293 77.829 82.799ZM79.487 82.799C79.487 83.211 79.155 83.547 78.749 83.547C78.342 83.547 78.013 83.211 78.013 82.799C78.013 82.386 78.342 82.051 78.749 82.051C79.155 82.051 79.487 82.386 79.487 82.799ZM78.401 83.331H78.57V82.869H78.698L79.005 83.331H79.209L78.901 82.863C79.052 82.847 79.178 82.766 79.178 82.566C79.178 82.363 79.054 82.265 78.808 82.265H78.401V83.331ZM78.57 82.416H78.814C78.928 82.416 79.009 82.459 79.009 82.559C79.009 82.671 78.925 82.718 78.76 82.718H78.57V82.416Z" fill="black"/>
</g>
</svg>
