<svg viewBox="0 0 227 43" fill="none" xmlns="http://www.w3.org/2000/svg">
<g clip-path="url(#clip0_549_809)">
<path d="M37.3194 26.5117C37.3238 26.4492 37.3774 26.4023 37.4478 26.4023L50.585 26.3845C50.6564 26.3845 50.7067 26.4447 50.7133 26.5117C50.7357 26.7796 50.7022 28.5373 50.6062 29.776C50.2793 33.9419 49.401 36.0277 47.7895 37.9616C45.7484 40.4135 43.3346 41.7024 39.7165 42.1366C35.3843 42.6554 28.7576 42.8117 25.596 42.8117C23.2703 42.8117 15.3558 42.535 12.2779 42.1287C8.35749 41.6132 5.64688 40.1088 3.74188 37.9861C1.73645 35.7498 0.733217 33.068 0.412827 29.7624C0.219797 27.7706 0.0234375 23.9538 0.0234375 21.983C0.0234275 19.8303 0.230958 15.2492 0.387138 13.2215C0.666187 9.58447 1.70408 6.96761 3.67485 4.80807C6.1892 2.05394 8.86307 1.08526 12.3013 0.654531C14.5813 0.365361 20.2583 -0.0117188 25.5937 -0.0117188C30.9314 -0.0117188 37.0002 0.365351 39.2801 0.654531C42.7196 1.08526 44.8723 2.10529 46.9792 4.34166C48.9847 6.471 49.8462 9.03098 50.2067 12.2473C50.3518 13.5351 50.3563 14.9546 50.3049 15.7269C50.3005 15.7961 50.248 15.8531 50.1777 15.8531L36.9723 15.7894C36.9021 15.7894 36.845 15.7325 36.845 15.6621C36.845 15.6621 36.8016 14.3922 36.6364 13.7114C36.3663 12.6044 35.7069 11.5677 33.7359 11.3478C31.7796 11.1291 27.4139 11.0085 25.6117 11.0085C23.6375 11.0085 19.6088 11.0945 17.3702 11.263C15.1461 11.4304 14.068 12.3622 13.8336 13.7394C13.5636 15.3185 13.3816 18.4945 13.3816 20.9296C13.3816 23.4473 13.5323 26.1255 13.7142 28.2392C13.886 30.2235 15.0065 31.3573 17.3144 31.5113C19.5028 31.6574 23.6185 31.7903 25.6038 31.7903C27.3949 31.7903 31.4984 31.7345 33.7705 31.5013C35.3988 31.335 36.5739 30.6207 37.1085 28.8754C37.296 28.2638 37.3138 26.6033 37.3194 26.5117Z" fill="#0A3282"></path>
<path d="M104.617 41.8872L87.4096 0.8538C87.3995 0.81244 87.3616 0.78125 87.317 0.78125H68.4257C68.381 0.78125 68.3442 0.81244 68.332 0.8538L51.0242 41.8805C51.0187 41.8917 51.0176 41.905 51.0176 41.9184C51.0176 41.9709 51.06 42.0133 51.1124 42.0133L64.8233 42.02C64.8925 42.02 64.9584 41.9721 64.9796 41.9062L67.6836 34.6713C67.7137 34.5988 67.745 34.5675 67.8141 34.5675L87.8079 34.5742C87.8772 34.5742 87.9085 34.6043 87.9375 34.678L90.5935 41.9196C90.6214 41.9832 90.6738 42.0278 90.7363 42.0256L104.529 42.02C104.581 42.02 104.624 41.9764 104.624 41.9241C104.624 41.9107 104.623 41.8984 104.617 41.8872ZM84.8686 25.9377H70.8396C70.7702 25.9377 70.7224 25.8829 70.7224 25.8126C70.7224 25.7904 70.7346 25.7501 70.7503 25.7167L76.8077 9.93342C76.8257 9.87654 76.8703 9.83854 76.9227 9.83854H78.878C78.9314 9.83854 78.9761 9.87654 78.9918 9.93342L84.959 25.7167C84.9735 25.7501 84.9869 25.7904 84.9869 25.8126C84.9869 25.8829 84.9377 25.9377 84.8686 25.9377Z" fill="#0A3282"></path>
<path d="M170.102 1.0949C170.102 1.04145 170.061 1 170.007 1H157.075C157.023 1 156.981 1.04144 156.981 1.0949V41.7098C156.981 41.7623 157.025 41.8058 157.075 41.8058H170.008C170.061 41.8058 170.103 41.7623 170.103 41.7098L170.102 1.0949Z" fill="#0A3282"></path>
<path d="M118.062 29.4842C118 31.667 119.101 32.8121 120.981 32.9817C122.226 33.0934 126.147 33.2473 128.712 33.2473C131.472 33.2473 133.215 33.1781 135.417 33.0644C137.327 32.9683 138.824 32.0031 138.793 29.5501C138.771 27.7389 137.864 26.3518 135.59 26.172C132.745 25.9443 121.363 25.5382 115.268 25.0806C109.257 24.6297 106.683 20.5876 106.096 19.0208C105.574 17.627 105.139 16.126 105.139 13.0325C105.139 10.459 105.523 8.30522 106.279 6.68259C107.052 5.01981 108.63 3.03108 111.179 1.8035C114.107 0.394055 120.741 0.203125 127.6 0.203125C134.456 0.203125 140.895 0.415255 143.833 1.8035C146.365 3.00101 147.929 5.03315 148.734 6.68259C149.546 8.3476 150.082 10.9924 150.082 13.3036C150.082 13.3562 150.039 13.3997 149.986 13.3997L137.183 13.3974C137.13 13.3974 137.087 13.3561 137.087 13.3036C137.084 13.1151 137.077 12.5793 137.074 12.403C137.053 11.0394 136.235 10.1086 134.943 9.82967C134.109 9.65105 130.153 9.50824 128.113 9.50824C126.156 9.50824 121.968 9.61984 120.272 9.80169C118.442 9.99691 117.545 11.1175 117.545 13.0704C117.545 14.8236 118.461 16.0088 120.127 16.1104C121.723 16.2085 137.155 16.9239 139.893 17.117C145.041 17.4808 147.698 18.6011 149.88 21.8487C151.341 24.0271 151.583 26.4632 151.617 29.5401C151.674 34.6043 150.302 36.9546 148.902 38.4936C147.504 40.0324 145.713 41.4319 142.217 41.9631C138.718 42.4942 133.406 42.635 127.6 42.635C122.043 42.635 116.317 42.3068 113.503 41.7421C108.72 40.7824 105.039 36.939 105.039 29.4842C105.039 29.433 105.081 29.3905 105.134 29.3905H117.969C118.02 29.3905 118.062 29.433 118.062 29.4842Z" fill="#0A3282"></path>
<path d="M225.97 10.3633C225.05 5.96856 220.769 1.7557 216.119 0.996854C212.65 0.432184 207.161 0.115234 201.544 0.115234C195.931 0.115234 190.467 0.432174 186.997 0.996854C182.346 1.7557 178.067 5.96856 177.148 10.3633C176.56 13.1698 176.341 19.1604 176.341 21.2551C176.341 24.6813 176.51 29.3203 177.132 32.3659C178.055 36.8957 182.383 41.1788 187.304 41.8551C192.225 42.5313 196.194 42.6898 201.544 42.6898C206.896 42.6898 210.892 42.5313 215.812 41.8551C220.733 41.1788 225.061 36.8957 225.983 32.3659C226.605 29.3203 226.776 24.6813 226.776 21.2551C226.776 19.1604 226.557 13.1698 225.97 10.3633ZM213.113 28.2456C212.943 30.231 211.713 31.2756 209.837 31.4229C207.655 31.5969 203.339 31.7018 201.352 31.7018H201.36H201.343H201.352C199.365 31.7018 195.588 31.5747 193.402 31.4295C191.094 31.2756 189.983 29.952 189.816 28.2936C189.601 26.1856 189.425 23.3589 189.425 20.8411C189.425 18.4062 189.655 14.7122 189.988 13.7212C190.449 12.3519 191.541 11.4524 193.404 11.3151C195.637 11.151 199.704 11.0339 201.685 11.0316C201.68 11.0316 207.617 11.0908 209.844 11.3128C211.51 11.4781 212.722 12.5427 213.002 13.7212C213.344 15.1642 213.449 18.7967 213.449 21.2317C213.449 23.7483 213.295 26.1343 213.113 28.2456Z" fill="#0A3282"></path>
</g>
<defs>
<clipPath id="clip0_549_809">
<rect width="226.8" height="42.8" fill="white"></rect>
</clipPath>
</defs>
</svg>
