<svg width="440" height="83" viewBox="0 0 440 83" fill="none" xmlns="http://www.w3.org/2000/svg">
<g clip-path="url(#clip0_15092_3216)">
<path d="M319.68 23.0833C319.68 20.0358 322.973 17.5687 327.04 17.5687C331.108 17.5687 334.401 20.0358 334.401 23.0833C334.401 26.1309 331.108 28.5979 327.04 28.5979C322.973 28.5979 319.68 26.1309 319.68 23.0833ZM86.5006 14.7117C82.8341 13.5144 76.3037 11.5916 70.6033 10.8116C69.372 10.6392 68.4781 10.5213 67.2104 10.4669C65.8514 10.4125 65.9244 10.4578 65.9608 12.2083V50.5565C65.9426 51.3728 66.125 51.4182 67.5934 51.273C74.7623 50.747 90.8603 46.8287 97.0715 43.7268C98.2389 43.0919 99.5432 42.6837 98.1112 44.3979C96.9894 45.7222 95.5118 46.9557 94.7366 47.5997C69.6182 67.7987 36.0268 62.8192 19.0349 55.7174C-1.22211 47.4727 -10.7076 22.3396 18.3053 6.92051C35.3792 -2.38536 72.4821 -3.11096 89.6381 9.69595C92.7027 11.9816 94.1529 13.6142 94.6454 15.8001C94.992 18.0132 94.5633 17.4236 93.4597 17.0971C92.7665 16.8704 91.1339 16.308 90.5411 16.0813C88.8264 15.4464 88.1059 15.2287 86.5097 14.7117M104.842 10.8841C104.924 10.1676 105.709 9.80479 106.402 9.75944C108.682 9.60525 111.455 9.38756 113.279 9.52361C114.902 9.50548 114.82 9.93177 114.802 11.0383C114.802 11.0383 114.802 31.8359 115.067 40.9332C115.24 43.4002 116.343 42.0397 116.845 41.4955C118.323 39.6724 122.181 36.4254 125.482 33.5683C128.775 30.7112 131.511 32.4618 132.578 34.3665C133.271 35.5819 135.661 39.7359 137.348 42.7744C139.346 46.0668 140.732 45.3322 142.465 44.0351C153.638 35.9537 160.706 32.099 167.611 31.9266C171.688 32.099 170.821 34.6567 168.651 35.2191C164.309 36.6521 161.774 39.4457 160.989 42.847C160.396 45.5861 161.664 48.4341 165.55 47.2187C167.912 46.4841 169.955 44.2256 170.21 38.7473C170.931 35.1284 174.807 36.0263 175.719 37.0149C177.233 38.6566 179.842 41.9309 181.146 43.7902C182.487 46.0396 183.49 45.3049 184.831 44.0079C187.521 41.3232 191.872 37.2689 195.11 34.1307C197.928 31.4006 201.111 31.7452 203.355 34.7383C205.179 37.16 206.483 38.8743 208.389 41.3685C210.077 43.5726 210.56 43.0556 211.901 41.3685C213.287 39.4638 216.242 35.6091 217.537 34.049C220.602 30.7929 223.639 32.0355 225.171 34.176C227.26 36.8154 229.039 39.2008 231.073 41.8402C232.03 43.1826 232.422 43.4002 233.635 41.7132C234.183 40.9513 238.278 35.736 239.755 34.176C242.099 31.3189 245.091 31.6636 246.961 34.0853C248.493 36.0807 253.3 40.8878 255.853 43.7902C257.194 45.3049 257.678 45.568 260.104 43.9626C265.22 40.4978 268.695 33.1329 268.695 33.1329C268.96 32.5706 269.562 31.9629 270.255 32.0083C272.508 31.7906 274.204 31.7089 276.001 31.9901C277.15 32.099 277.542 32.879 277.524 33.5048L277.588 41.7313C277.588 41.7313 277.46 42.4479 277.944 41.7676C280.707 37.7677 284.529 34.7746 289.007 33.2055C298.803 29.7952 310.568 35.6635 304.312 46.2936C303.007 48.4613 304.403 48.026 305.096 48.026C311.088 47.7629 318.029 42.3118 320.473 38.4933V34.1216C320.455 33.142 321.55 32.2713 323.009 32.0808C325.006 31.8178 328.345 31.7089 330.862 31.9538C334.182 32.1715 334.164 32.4346 334.091 34.3755C334.109 36.4163 334.045 42.8198 334.154 45.6133C334.136 48.6246 336.453 48.4523 338.879 47.2641C343.093 45.5045 348.948 41.2234 352.159 37.4956C356.409 32.2985 361.179 30.2215 366.214 30.5661C371.458 30.3484 370.163 33.2055 367.354 34.0037C365.092 34.8109 364.262 35.9447 363.614 36.8154C361.699 39.4457 361.143 42.7109 362.328 45.6859C363.842 49.4681 367.025 49.0055 368.403 46.8922C369.807 44.7426 370.683 41.4139 369.552 38.8834C367.208 34.6204 369.962 34.9651 372.89 34.9016C379.357 34.5569 386.206 32.9515 391.852 31.7362C396.54 31.0831 396.759 32.3892 397.406 33.5139C398.474 35.3551 399.276 37.4956 400.143 39.2734C401.1 41.4411 401.967 40.9241 403.308 39.2734C404.694 37.7133 407.257 35.2009 408.643 33.7678C411.945 30.8654 415.091 31.8541 416.715 33.7225C418.667 35.9719 421.895 40.1713 423.829 42.6021C425.525 44.7245 427.386 45.1598 429.557 44.1621C430.815 43.6905 432.941 42.339 434.674 41.042C437.93 38.6566 441.222 39.609 439.535 42.8198C436.844 46.6292 433.725 49.7039 429.903 52.2163C423.92 55.8534 419.406 57.3228 416.149 52.951C414.626 51.3456 412.766 48.9239 410.248 45.5408C409.336 43.8991 408.078 44.0714 406.819 45.6315C405.451 47.3366 402.478 50.8286 400.444 52.9963C397.707 56.5065 393.877 57.0779 391.423 52.434C389.426 48.6609 387.082 43.3821 385.002 37.9673L378.974 38.9196C388.039 59.4996 352.204 62.0573 350.262 46.9829C350.262 46.4931 350.216 46.2845 349.678 46.8106C342.883 53.9124 337.73 54.9555 332.166 55.7264C321.696 56.4883 320.428 52.2617 320.346 47.0464C320.373 46.6292 320.328 46.4115 319.808 46.9648C305.725 59.6447 291.816 55.5088 287.128 52.8694C285.085 51.7447 284.264 49.5769 287.046 49.7946C296.586 52.1347 298.456 32.6794 285.395 43.0828C276.238 51.8807 277.497 65.7398 278.236 80.0342C278.254 81.5489 277.98 81.8935 276.931 82.2473C274.715 82.9819 272.982 83.1543 270.465 82.8549C269.462 82.737 269.051 82.5919 268.723 81.5126C267.209 74.1023 267.382 55.1913 267.437 45.7312C264.628 48.6337 262.192 50.6472 258.964 52.7515C253.564 55.8081 249.159 57.2956 245.492 52.5973C245.492 52.5973 242.264 48.806 240.868 47.0283C239.436 45.2324 238.807 44.9512 237.484 46.9829C236.18 48.8423 234.493 50.7107 232.623 53.0961C229.714 57.0325 226.111 56.2162 224.159 53.2231C222.809 51.6177 220.73 48.8513 219.079 46.5113C218.085 44.9059 217.154 45.3775 216.215 46.6382C214.737 48.6337 212.786 50.756 210.998 52.7877C207.149 57.1504 203.984 56.5155 201.075 52.6608C199.251 50.1937 198.293 48.9783 195.912 45.5136C194.873 44.1258 194.088 44.8242 193.176 45.5952C192.738 45.9761 187.448 50.4477 184.758 52.5701C179.203 57.5495 176.339 57.2502 172.135 51.0554C171.442 49.7583 170.894 50.6019 170.484 51.1007C169.49 52.3161 167.711 53.3047 165.276 54.5201C153.784 59.0279 147.792 52.1619 148.403 47.8899C148.558 46.6292 147.518 47.6541 147.126 48.0441C146.779 48.3888 142.502 52.0984 140.249 53.2231C133.199 57.1232 129.797 55.4543 128.036 53.2412C126.823 52.0259 124.908 48.2981 123.85 46.8922C122.746 45.4229 122.135 45.4229 120.876 47.0917C120.101 48.1167 119.098 49.0872 116.945 51.7265C111.893 58.1572 105.982 56.1074 104.897 48.162C103.356 40.1894 103.538 19.8635 104.824 10.8751M35.6072 51.5361C36.5193 51.5451 36.8567 51.527 36.8294 50.7107V12.0451C36.8659 10.2946 36.9388 10.1585 35.5798 10.3036C2.77275 13.6958 -3.35635 46.9829 35.5981 51.5451" fill="#000"/>
<path d="M422.233 28.87C422.726 28.87 423.172 28.8337 423.172 28.2441C423.172 27.7725 422.735 27.6818 422.333 27.6818H421.531V28.87H422.233ZM421.531 31.0286H420.947V27.192H422.415C423.327 27.192 423.784 27.5276 423.784 28.2895C423.784 28.9788 423.355 29.2781 422.78 29.3416L423.875 31.0377H423.218L422.196 29.3779H421.522V31.0377L421.531 31.0286ZM422.242 31.8812C423.756 31.8812 424.951 30.7021 424.951 29.0967C424.951 27.4913 423.756 26.3303 422.242 26.3303C420.728 26.3303 419.506 27.5185 419.506 29.0967C419.506 30.6749 420.701 31.8812 422.242 31.8812ZM418.84 29.0967C418.84 27.1829 420.4 25.7771 422.242 25.7771C424.084 25.7771 425.626 27.1829 425.626 29.0967C425.626 31.0105 424.066 32.4345 422.242 32.4345C420.418 32.4345 418.84 31.0196 418.84 29.0967Z" fill="#000"/>
</g>
<defs>
<clipPath id="clip0_15092_3216">
<rect width="440" height="83" fill="white"/>
</clipPath>
</defs>
</svg>
