<?xml version="1.0" standalone="no"?>
<!DOCTYPE svg PUBLIC "-//W3C//DTD SVG 20010904//EN"
 "http://www.w3.org/TR/2001/REC-SVG-20010904/DTD/svg10.dtd">
<svg version="1.0" xmlns="http://www.w3.org/2000/svg"
 width="192.000000pt" height="192.000000pt" viewBox="0 0 192.000000 192.000000"
 preserveAspectRatio="xMidYMid meet">

<g transform="translate(0.000000,192.000000) scale(0.100000,-0.100000)"
fill="#000000" stroke="none">
<path d="M605 1402 c-33 -10 -74 -26 -91 -35 -53 -28 -128 -92 -161 -140 l-33
-45 67 -37 c62 -34 67 -35 76 -18 18 33 84 90 133 114 40 20 64 24 136 24 47
0 89 -3 92 -6 4 -3 -8 -28 -27 -56 -99 -146 -98 -361 3 -509 17 -26 28 -49 25
-53 -4 -3 -46 -6 -93 -6 -106 1 -162 24 -234 97 l-47 49 -61 -31 c-33 -17 -60
-34 -60 -39 0 -23 84 -112 140 -150 86 -57 154 -76 270 -75 79 0 106 4 158 26
l62 26 63 -26 c51 -22 78 -26 157 -26 116 -1 184 18 270 75 56 38 140 127 140
150 0 5 -27 22 -60 39 l-61 31 -47 -49 c-72 -73 -128 -96 -234 -97 -47 0 -89
3 -93 6 -3 4 8 27 25 53 101 148 102 363 3 509 -19 28 -31 53 -27 56 3 3 45 6
92 6 72 0 96 -4 136 -24 49 -24 115 -81 133 -114 9 -17 14 -16 76 18 l67 37
-33 45 c-35 50 -110 114 -167 143 -111 57 -264 64 -378 17 l-62 -25 -62 26
c-84 33 -208 39 -293 14z m377 -259 c69 -78 85 -223 36 -323 -15 -30 -34 -64
-42 -74 -16 -20 -16 -20 -32 0 -8 10 -27 44 -42 74 -37 75 -38 192 -3 260 24
47 49 80 61 80 4 0 14 -8 22 -17z"/>
</g>
</svg>
