<svg id="logoHeader" viewBox="0 0 160 49" xmlns="http://www.w3.org/2000/svg">
       <path d="M137.7,14.8c5.2,0,10.5-2.9,10.5-6.5l-8.1-2L140,6.8c1.7,0.5,2.4,1.7,2.4,3.1c0,2-1.8,4.3-4.6,4.4V14.8z M140.4,19.4	c6.2,0,7.7,6.4,7.7,12.4c0,0.3-0.3,0.5-0.6,0.5h-15.1c-0.3,0-0.5-0.2-0.5-0.5C131.9,25.4,134.4,19.4,140.4,19.4z M141.5,46.4	c-6.8,0-9.6-5.6-9.6-12c0-0.3,0.3-0.5,0.6-0.5h22.2c0.3,0,0.5-0.2,0.5-0.5c0-8.6-6.3-15.7-14.8-15.7c-8.5,0-15.5,7-15.5,15.1 c0,8.1,7.3,15.1,15.7,15.1c4.3,0,8.4-1.8,11.3-4.9l-0.5-0.3C148.5,45.2,144.5,46.4,141.5,46.4z"/>
		<path d="M107.4,46.4c-6.3,0-8.5-6.9-8.5-13.5c0-6.6,2.2-13.5,8.5-13.5c6.3,0,8.5,6.9,8.5,13.5C115.8,39.5,113.7,46.4,107.4,46.4z	 M107.4,48c8.5,0,15.5-7,15.5-15.1c0-8.1-7-15.1-15.5-15.1c-8.5,0-15.5,7-15.5,15.1C91.8,41,98.9,48,107.4,48z"/>
		<path d="M82,43.3c0,1.2-0.9,1.8-1.6,2.2c-0.7,0.4-1.4,0.8-1.4,1.4h12.5c0-0.4-0.5-0.7-0.9-0.9c-1-0.4-1.7-0.8-1.7-2V1.2h-0.6	c-2.2,2.4-5.8,5-9.5,5.6v0.5h2.6c0.5,0,0.6,0.3,0.6,0.9V43.3L82,43.3z"/>
		<path d="M75.1,44V25.8c0-4.9-4-7.9-9.7-7.9c-4,0-6.7,1.5-8.3,3.7V1.2h-0.6c-2.2,2.4-6,5-9.6,5.6v0.5h2.6c0.6,0,0.7,0.3,0.7,0.9v35.3	c0,1.2-0.9,1.8-1.6,2.2c-0.7,0.4-1.4,0.8-1.4,1.4h12.5c0-0.4-0.5-0.7-0.9-0.9c-1-0.4-1.7-0.8-1.7-2V25.8c0-3.1,2.6-6,6.5-6	c3.3,0,4.7,2.2,4.7,5.3v19.1c0,1.2-0.7,1.6-1.5,1.9c-0.5,0.2-1,0.4-1,0.9h12c0-0.4-0.5-0.7-0.9-0.9C75.8,45.7,75.1,45.3,75.1,44	L75.1,44z"/>
		<path d="M42,43.4c0.3-0.3,0.6-0.5,0.7-0.8l3.2-9.7l-0.5-0.3c-1.3,2.6-7.2,13.5-17,13.5c-9.8,0-14.9-10.1-14.9-21.6	S19.2,2.8,28.4,2.8c10.3,0,15.3,12.6,15.7,13.9l0.5-0.3L44,7.9C43.9,7,43.5,6.5,42.9,6c-4.9-3.7-9.7-5-14.5-5	C15.3,1,4.8,11.4,4.8,24.5C4.8,37.6,15.5,48,28.4,48C34.5,48,39.3,45.8,42,43.4z"/>
    </svg>