<?xml version="1.0" encoding="utf-8"?>
<!-- Generator: Adobe Illustrator 16.0.0, SVG Export Plug-In . SVG Version: 6.00 Build 0)  -->
<!DOCTYPE svg PUBLIC "-//W3C//DTD SVG 1.1//EN" "http://www.w3.org/Graphics/SVG/1.1/DTD/svg11.dtd">
<svg version="1.1" id="Layer_1" xmlns="http://www.w3.org/2000/svg" xmlns:xlink="http://www.w3.org/1999/xlink" x="0px" y="0px"
	  viewBox="0 0 159 18" enable-background="new 0 0 159 18" xml:space="preserve">
<g>
	<g>
		<path fill="#231F20" d="M58.562,3.077C55.404,1.229,51.191,0.21,46.698,0.21c-4.497,0-8.71,1.018-11.865,2.866
			c-2.311,1.367-3.636,3.522-3.636,5.912c0,2.39,1.325,4.545,3.636,5.918c3.15,1.85,7.364,2.867,11.865,2.867
			c4.497,0,8.709-1.018,11.864-2.867c2.311-1.369,3.637-3.525,3.637-5.918C62.199,6.596,60.873,4.441,58.562,3.077z M46.698,17.121
			c-2.875,0-7.74-1.713-7.74-8.133c0-5.612,3.886-8.125,7.74-8.125c5.166,0,8.25,3.039,8.25,8.125
			C54.948,14.462,52.25,17.121,46.698,17.121z"/>
		<polygon fill="#231F20" points="158.4,1.117 158.4,0.463 145.57,0.463 145.57,1.117 148.363,1.117 148.363,8.236 137.324,8.236 
			137.324,1.114 140.119,1.117 140.119,0.517 140.117,0.463 127.297,0.463 127.297,1.117 130.09,1.117 130.09,16.883 
			127.297,16.883 127.297,17.534 140.119,17.534 140.119,16.883 137.324,16.883 137.324,8.889 148.363,8.889 148.363,16.883 
			145.57,16.883 145.57,17.534 158.346,17.534 158.4,17.532 158.4,16.883 155.602,16.883 155.602,1.117 		"/>
		<path fill="#231F20" d="M78.11,0.228L78.093,0.21h-0.386L64.093,16.883h-3.075v0.651h7.688v-0.651l-3.765-0.006l3.432-4.171
			l12.283-0.003l3.833,4.18h-3.67l-0.006,0.651h16.109v-0.651l-3.563-0.004L78.11,0.228z M80.047,12.053L68.88,12.055l5.191-6.402
			L80.047,12.053z"/>
	</g>
	<path fill="#231F20" d="M26.048,10.923l-0.013,0.037c-0.005,0.016-0.523,1.559-1.955,3.082c-1.32,1.405-3.71,3.079-7.602,3.079
		c-2.624,0-4.753-0.967-6.159-2.797c-1.105-1.436-1.738-3.376-1.738-5.322c0-5.287,4.069-8.139,7.897-8.139
		c2.595,0,4.949,0.818,6.805,2.367c1.552,1.294,2.439,2.817,2.752,3.807l0.012,0.039h0.52V0.463h-0.479l-3.21,1.726
		c-0.143-0.098-0.826-0.542-1.95-0.981C19.759,0.753,17.86,0.21,15.444,0.21c-3.88,0-7.475,0.739-10.122,2.083
		C2.233,3.861,0.6,6.177,0.6,8.988c0,5.76,5.439,8.802,15.732,8.802c2.554,0,4.769-0.657,6.585-1.957l3.144,1.699l0.506,0.006
		v-6.617L26.048,10.923z"/>
	<path fill="#231F20" d="M112.313,0.863c2.597,0,4.948,0.818,6.804,2.367c1.552,1.294,2.439,2.817,2.754,3.807l0.012,0.039h0.52
		V0.463h-0.48l-3.209,1.726c-0.144-0.098-0.826-0.542-1.951-0.981c-1.168-0.454-3.066-0.997-5.482-0.997
		c-3.881,0-7.476,0.739-10.123,2.083c-3.09,1.567-4.722,3.884-4.722,6.695c0,5.76,5.44,8.802,15.733,8.802
		c2.554,0,4.77-0.657,6.584-1.957l3.143,1.699l0.508,0.006v-6.615h-0.52l-0.012,0.037c-0.006,0.016-0.523,1.559-1.955,3.082
		c-1.319,1.405-3.711,3.079-7.603,3.079c-2.624,0-4.753-0.967-6.16-2.797c-1.104-1.436-1.737-3.376-1.737-5.322
		C104.416,3.715,108.485,0.863,112.313,0.863z"/>
</g>
</svg>
