<svg viewBox="0 0 133 24" id="logo" xmlns="http://www.w3.org/2000/svg"><path d="M128.355 14.973l.002 4.536c-.994.697-1.996.769-2.704.182-.771-.639-.939-1.847-.424-2.963l3.126-1.755zm3.923 4.84l-.24-.043c-.192-.037-.534-.496-.534-1.282l-.001-5.886c0-1.7-.548-3.035-1.54-3.758-.909-.66-2.158-.76-3.613-.288-1.714.557-4.328 2.84-4.741 3.347l-.093.114.035.144c.038.148.232.45.365.564l.084.07 2.86-.001s-.007-.68-.007-.801c0-1.173.773-1.732 1.418-1.854.652-.123 1.1-.06 1.41.197.441.367.666 1.189.666 2.443l-.004.748-6.037 2.68-.117.053-.04.123c-.558 1.687-.437 2.986.356 3.859 1.25 1.377 4.297 1.568 8.736.567.338-.088 1.04-.161 1.04-.161-.003 0-.003-.835-.003-.835zm-21.913-1.543c-.73 1.24-2.22 1.954-3.392 1.629-1.174-.326-1.81-1.57-1.792-3.502l.002-5.366.13-.065c.708-.363 2.027-1.036 3.788-.14.95.483 1.657 1.385 1.996 2.545.454 1.555.186 3.34-.732 4.9zm3.509-6.924c-.889-1.595-2.063-2.578-3.49-2.925-1.978-.48-3.96.383-5.186 1.116l.01-7.69-.377-.242-4.209.844v.692s.723.57.798.645c.52.55.515 1.34.513 1.862l-.007 14.467v.18l.159.083c2.399 1.239 5.568 1.423 7.887.458 2.593-1.079 3.694-2.908 4.16-4.253.705-2.03.378-4.095-.258-5.237zm2.401 9.853l.003-8.947c.002-.523.004-1.316-.517-1.869-.076-.076-.799-.646-.799-.646v-.692l4.213-.843.377.242-.008 9.957c.026 1.09.385 1.7 1.095 1.868l.227.055v.873l-4.59.002zm-.224-16.982a1.708 1.708 0 013.417 0 1.708 1.708 0 01-3.417 0zM52.48 20.049c-2.571 0-3.292-2.022-3.295-5.281-.002-2.399.72-5.284 3.295-5.284 2.574 0 3.296 2.885 3.294 5.284-.003 3.26-.723 5.281-3.294 5.281zm6.933-5.262c0-1.947-.626-3.606-1.823-4.804-1.24-1.238-3.007-1.892-5.113-1.89-3.96.003-6.944 2.88-6.941 6.694.001 4.06 2.726 6.686 6.94 6.69 2.024.001 3.768-.67 5.043-1.944 1.223-1.222 1.893-2.908 1.894-4.746zm41.095 5.482c-.726-.171-1.107-.8-1.134-1.861l-.006-6.072c0-1.393-.727-4.031-3.476-4.031-2.041 0-3.43 1.213-4.097 1.876-.441-.935-1.301-1.876-2.978-1.876-1.29 0-2.512.49-3.643 1.46v-1.27l-.374-.242-4.219.844v.692s.725.571.798.645c.535.566.536 1.404.536 1.902l.004 8.863 4.59-.002v-.873l-.227-.055c-.72-.17-1.082-.78-1.108-1.868l-.004-7.084c.806-.68 1.617-.823 2.475-.749.696.061 1.412.545 1.432 3.06l-.003 7.571 4.585-.002v-.873l-.227-.055c-.732-.173-1.1-.784-1.127-1.868l-.002-6.064c0-.16-.032-.668-.088-.994.826-.707 1.625-.851 2.504-.775.697.061 1.414.545 1.433 3.06V21.2l4.581-.002v-.873l-.225-.055zm-20.944 0c-.755-.178-1.137-.805-1.137-1.861l.006-9.913-.377-.242-4.218.844v.692s.725.571.798.645c.536.567.536 1.405.537 1.902l-.002 5.91c-1.378 1.048-2.654 1.418-3.516 1.007-.7-.334-1.096-1.159-1.115-2.324V8.495l-.376-.242-4.218.844v.692s.723.57.797.645c.543.574.54 1.419.537 1.922v5.04c.036.968.084 1.301.188 1.728.263 1.083.896 1.839 1.832 2.187 1.49.555 3.608.016 5.87-1.481v1.369l4.621-.002v-.873l-.227-.055zm-18.637 1.056L60.93 5.69c0-.501-.001-1.338-.535-1.905a33.655 33.655 0 00-.788-.645v-.692l4.208-.844.376.242s-.015 16.545-.01 16.766c.054 1.607 1.153 1.717 1.153 1.717v.995h-4.406zm-16.68-4.818c.098.145.603.922.603.922-.28 1.181-1.006 2.698-1.006 2.698l-.11.043c-2.757 1.089-7.004 1.998-11.582.149-2.742-1.109-4.687-3.256-5.477-6.043a9.876 9.876 0 011.536-8.486c1.966-2.669 5.147-4.136 9.463-4.364 1.625-.086 4.979.357 6.794 1.384l.15.084s.068 4.526.023 4.722l-.05.22-1.343.049-.071-.41c-.227-1.312-.827-4.835-5.737-4.581-2.105.11-3.798 1.165-5.062 2.828-1.539 2.024-2.01 4.83-1.326 7.902.667 2.991 2.938 4.912 4.68 5.586.734.284 3.054.808 4.816.006 1.536-.697 2.993-1.82 3.699-2.71zm-27.096 3.288a1.648 1.648 0 000-2.33l-.541-.541a1.647 1.647 0 00-2.33 0l-3.722 3.723a1.647 1.647 0 000 2.33l.541.54a1.645 1.645 0 002.33 0l3.722-3.722zM13.8 16.44a1.647 1.647 0 000-2.329l-.541-.541a1.646 1.646 0 00-2.33 0l-3.723 3.723a1.647 1.647 0 000 2.33l.541.54a1.645 1.645 0 002.33 0l3.723-3.723zm3.348-9.736a1.647 1.647 0 000-2.33l-.542-.54a1.646 1.646 0 00-2.329 0l-3.723 3.723a1.646 1.646 0 000 2.328l.541.543a1.648 1.648 0 002.33 0l3.723-3.724zm-3.353-3.353a1.646 1.646 0 000-2.329l-.54-.54a1.647 1.647 0 00-2.33 0L7.202 4.204a1.648 1.648 0 000 2.33l.54.54a1.648 1.648 0 002.33 0l3.723-3.723zm6.19 3.69a1.65 1.65 0 00-2.33 0l-.54.542a1.646 1.646 0 000 2.329l3.723 3.726a1.647 1.647 0 002.33 0l.54-.543a1.648 1.648 0 000-2.33l-3.723-3.724zm-3.352 3.353a1.648 1.648 0 00-2.33 0l-.54.541a1.65 1.65 0 000 2.332l3.723 3.723a1.648 1.648 0 002.329 0l.54-.54a1.648 1.648 0 000-2.33l-3.722-3.726zM6.705 7.111a1.648 1.648 0 00-2.33 0l-.54.54a1.648 1.648 0 000 2.331l3.723 3.726a1.647 1.647 0 002.33 0l.54-.542a1.65 1.65 0 000-2.332L6.706 7.111zm.37 7.079a1.647 1.647 0 010 2.329l-.54.54a1.646 1.646 0 01-2.329 0L.482 13.336a1.65 1.65 0 010-2.33l.542-.541a1.648 1.648 0 012.329 0l3.723 3.726z"></path></svg>