<svg viewBox="0 0 366.929 269.953" id="icon-dg-logo-compact" xmlns="http://www.w3.org/2000/svg"><defs><clipPath clipPathUnits="userSpaceOnUse" id="aza"><path d="M0 202.465h275.197V0H0z"></path></clipPath></defs><g clip-path="url(#aza)" transform="matrix(1.33333 0 0 -1.33333 0 269.953)"><path d="M61.405 31.02c52.847 0 82.953 25.76 82.953 70.696 0 43.507-32.028 70.698-82.953 70.698H35.994V31.02zM6.968 197.03H66.22c65.658 0 107.295-36.924 107.295-95.6 0-56.672-41.637-95.026-103.772-95.026H6.968z" fill="#231f20"></path><path d="M273.274 103.256h-87.799V81.464h57.423c-4.298-30.066-29.796-49.64-61.89-49.64-40.406 0-68.202 27.88-68.202 68.605 0 40.727 29.516 71.066 69.348 71.066.697 0 1.388-.007 2.07-.02.034 0 .068-.004.102-.004 28.046-.068 46.087-17.185 53.815-26.472 2.877-3.457 4.336-5.837 4.336-5.837l21.298 11.051s-1.66 3.626-5.29 8.856c-3.825 5.508-9.842 12.793-18.413 19.501-12.489 9.773-30.402 18.314-54.89 18.314-.999.02-2.008.031-3.028.031-56.166 0-99.15-42.639-99.15-98.125 0-26.24 8.596-47.286 25.79-63.96 18.053-17.767 44.99-28.426 71.353-28.426 27.51 0 56.447 11.753 73.067 31.16 14.041 16.126 21.786 31.9 20.06 65.692" fill="#231f20"></path></g></svg>