<svg viewBox="0 0 603 157" fill="none" xmlns="http://www.w3.org/2000/svg">
<g clip-path="url(#clip0_741_49215)">
<path fill-rule="evenodd" clip-rule="evenodd" d="M329.33 156.8C322.24 155.95 315.74 153.97 308.83 150.54C300.07 146.2 292.17 140.47 285.47 133.61C268.12 115.83 260.04 89.47 264.79 66.1C268.79 46.45 279.51 27.69 293.32 16.17C303.69 7.53 318.54 1.33 331 0.44C336.84 0.03 343.9 1.64 356.96 6.38C367.46 10.19 369.29 10.56 371.8 9.34C373.75 8.4 376.46 5.4 377.7 2.83C378.23 1.73 378.66 0.64 378.66 0.41C378.66 0.18 379.04 0 379.5 0H380.33V31.5V63H379.5C378.91 63 378.63 62.78 378.52 62.25C373.78 39.36 364.06 20.24 352.12 10.35C348.54 7.38 344.62 4.99 341.83 4.05C335.65 1.99 326.64 2.39 320.76 4.99C315.65 7.25 308.59 13.56 305.4 18.72C301.53 24.99 299.16 33.05 298.02 43.83C296.94 54.15 296.33 80.73 296.97 90C299.14 121.29 302.31 134.22 310.04 143.34C313.69 147.63 320.35 151.8 325.33 152.89C328.82 153.66 337.73 153.65 341.95 152.87C351 151.2 357.83 147.5 364.41 140.71C372.85 132 377.73 120.27 379.87 103.58C380.44 99.1 380.47 99 381.27 99H382.08L381.85 102.08C380.81 115.92 377.48 126.69 371.46 135.74C368.85 139.66 364.22 144.61 360.62 147.32C355.22 151.39 347.95 154.83 342.2 156.04C339.27 156.65 331.79 157.09 329.33 156.8ZM464.27 156.64C455.43 155.54 445.53 151.52 436 145.16C422.96 136.47 414.32 126.67 407.84 113.27C402.57 102.36 400 91.14 400 79.09C400 73.44 400.61 68.69 402.15 62.44C408.21 37.86 423.44 17.32 442.86 7.57C451.95 3 464.35 -0.1 471.32 0.43C475.32 0.74 481.34 2.16 486.96 4.12C489.82 5.11 494.78 6.84 497.98 7.96C504.32 10.18 505.92 10.4 508.16 9.37C510.15 8.47 513.37 4.84 514.51 2.21C515.18 0.67 515.66 0 516.07 0C516.63 0 516.66 1.53 516.66 31.5V63H515.83C515.25 63 515 62.81 515 62.39C515 61.24 512.64 52.23 511.14 47.63C506.13 32.29 499.37 20.53 490.94 12.5C485.86 7.64 481.18 4.74 476.33 3.43C473.2 2.59 465.41 2.6 462 3.46C453.27 5.65 444.41 13.17 440.06 22.07C435.48 31.44 434.15 40.39 433.31 67.5C432.84 82.86 433.37 93.6 435.52 111.83C437.49 128.54 441.73 139.12 449.18 145.95C455.48 151.71 462.49 154.06 471.86 153.54C480.81 153.04 487.03 151.19 493.08 147.24C505.92 138.86 513.58 124.88 516.15 105.16C516.99 98.74 516.92 99 517.84 99C518.29 99 518.66 99.05 518.66 99.12C518.66 99.18 518.43 101.52 518.15 104.31C517.03 115.53 514.99 122.93 510.82 130.93C508.37 135.64 505.74 139.24 501.99 142.99C495.48 149.51 486.83 154.29 478.16 156.17C475.24 156.8 467.65 157.06 464.27 156.64ZM193.66 156.09C190 155.87 184.15 154.94 180.53 154C175.92 152.81 172.78 151.49 168.49 148.95C156.06 141.59 150.75 134.02 148.77 120.87C148.27 117.54 148.2 111.41 148.09 61.08L147.96 5H137.98H128V4.16V3.33H163.66H199.33V4.16V5H189.15H178.98L179.09 65.25C179.19 120.75 179.25 125.72 179.78 128.33C181.07 134.69 182.87 138.91 185.88 142.69C189.49 147.22 196.21 151.46 201.4 152.49C204.73 153.15 212.2 153.15 216.33 152.49C230.95 150.15 239.73 143.28 243.78 131C246.31 123.36 246.14 127.94 246.25 63.08L246.35 5H236.34H226.33V4.16V3.33H247.33H268.33V4.16V5H258.33H248.33V60.94C248.33 97.91 248.21 118.11 247.97 120.52C246.24 138.38 238.09 148.97 222.64 153.44C215.12 155.62 203.45 156.69 193.66 156.09ZM0 152.16V151.33H10.16H20.33V78.16V5H10.16H0V3.97V2.94L35.25 3.09C75.18 3.26 76.32 3.32 86.5 5.88C100.33 9.34 111.55 17.88 119.46 30.97C124.7 39.63 126.07 51.4 123.12 62.41C118.85 78.37 106.55 88.2 85.44 92.49C78.63 93.87 72.67 94.33 61.5 94.33H51.33V122.83V151.33H61.5H71.66V152.16V153H35.83H0V152.16ZM72.4 90.9C78.58 89.26 83.61 85.82 87.2 80.79C91.23 75.15 93.23 65.99 93.57 51.63C93.92 37.14 92.23 25.44 88.76 18.33C86.91 14.52 83.37 11.18 78.91 9.01C72.78 6.04 67.27 5 57.58 5L51.33 4.99V48.53V92.07L60.25 91.91C68.5 91.77 69.4 91.7 72.4 90.9ZM531.33 152.16V151.33H541.33H551.33V78.16V5H541.33H531.33V4V3H567H602.66V4V5H592.66H582.66V78.16V151.33H592.66H602.66V152.16V153H567H531.33V152.16Z" fill="black"></path>
</g>
<defs>
<clipPath id="clip0_741_49215">
<rect width="602.667" height="156.895" fill="white"></rect>
</clipPath>
</defs>
</svg>
