<svg viewBox="0 0 82 24" xmlns="http://www.w3.org/2000/svg" class="logo-svg"> <path fill-rule="evenodd" clip-rule="evenodd" d="M78.756 23.9518C78.2121 23.9518 77.7711 23.5084 77.7711 22.9616V0.990445C77.7711 0.443333 78.2121 0 78.756 0H80.9236C81.4675 0 81.9085 0.443333 81.9085 0.990445V22.9616C81.9085 23.5084 81.4675 23.9518 80.9236 23.9518H78.756Z" fill="currentColor"></path> <path fill-rule="evenodd" clip-rule="evenodd" d="M64.6913 20.3618H61.8655V3.62201H63.7443C68.4017 3.62201 71.1822 6.79267 71.1822 12.1042C71.1822 17.8 67.3865 20.3618 64.6913 20.3618ZM63.8126 0.000228882H58.7135C58.17 0.000228882 57.7286 0.443562 57.7286 0.990451V22.9616C57.7286 23.5085 58.17 23.9518 58.7135 23.9518H63.8126C73.1769 23.9518 75.1427 17.4993 75.1427 12.0865C75.1427 4.74445 70.6952 0.000228882 63.8126 0.000228882Z" fill="currentColor"></path> <path fill-rule="evenodd" clip-rule="evenodd" d="M41.6824 7.85133L41.6826 22.9616C41.6826 23.5084 41.2416 23.9518 40.6977 23.9518H38.5281C37.9844 23.9518 37.5435 23.5084 37.5435 22.9616V0.990445C37.5435 0.443333 37.9844 0 38.5281 0H40.6811C41.3875 0 41.7619 0.112 42.0477 0.64L50.4267 15.8691L50.4263 0.990445C50.4263 0.443333 50.8672 0 51.4114 0H53.5483C54.0922 0 54.5334 0.443333 54.5334 0.990445V22.9616C54.5334 23.5084 54.0922 23.9518 53.5483 23.9518H51.4766C50.7702 23.9518 50.3956 23.84 50.1098 23.312L41.6824 7.85133Z" fill="currentColor"></path> <path fill-rule="evenodd" clip-rule="evenodd" d="M34.7585 2.60867C34.7585 3.15556 34.3175 3.59889 33.7736 3.59889H22.7295V9.82311H32.1997C32.7436 9.82311 33.1846 10.2669 33.1846 10.8133V12.4142C33.1846 12.9611 32.7436 13.4044 32.1997 13.4044L22.7297 13.4042V20.2584H33.7345C34.2786 20.2584 34.7194 20.7018 34.7194 21.2487V22.9616C34.7194 23.5084 34.2786 23.9518 33.7345 23.9518H19.3991C18.8551 23.9518 18.4142 23.5084 18.4142 22.9616V0.990445C18.4142 0.443333 18.8551 0 19.3991 0H33.7736C34.3175 0 34.7585 0.443333 34.7585 0.990445V2.60867Z" fill="currentColor"></path> <path fill-rule="evenodd" clip-rule="evenodd" d="M0 0.990512C0 0.443623 0.440943 0.000289917 0.984884 0.000289917H15.2798C15.8238 0.000289917 16.2647 0.443623 16.2647 0.990512V2.58451C16.2647 3.1314 15.8238 3.57496 15.2798 3.57496L4.07392 3.57451V9.77118L11.6363 9.7714C12.18 9.7714 12.6211 10.2147 12.6211 10.7614V12.485C12.6211 13.0318 12.18 13.4756 11.6363 13.4756H4.07392V22.9616C4.07392 23.5085 3.6332 23.9518 3.08903 23.9518H0.984884C0.440943 23.9518 0 23.5085 0 22.9616V0.990512Z" fill="currentColor"></path> 
            </svg>