<svg viewBox="0 0 222 26" id="r23-frg-logo" xmlns="http://www.w3.org/2000/svg"> <path fill="currentColor" d="M107.236 25.5893C107.321 24.2863 107.066 23.486 106.51 22.0981L104.772 17.6614H96.0332L94.2699 22.0981C93.668 23.6064 93.4662 24.3677 93.5441 25.5893H87.8186C88.6613 24.7643 89.2349 23.4117 90.1591 21.1243L98.5153 0.414272H102.463L110.82 21.1208C111.744 23.4081 112.317 24.7643 113.16 25.5857H107.233L107.236 25.5893ZM97.4354 13.8728H103.373L100.406 6.25303L97.4354 13.8728ZM157.43 25.5893C157.515 24.2863 157.261 23.486 156.705 22.0981L154.966 17.6614H146.192L144.429 22.0981C143.827 23.6064 143.625 24.3677 143.703 25.5893H137.977C138.82 24.7643 139.394 23.4117 140.318 21.1243L148.674 0.414272H152.587L160.978 21.1208C161.902 23.4081 162.476 24.7643 163.319 25.5857H157.427L157.43 25.5893ZM147.594 13.8728H153.567L150.6 6.25303L147.594 13.8728ZM192.261 25.5893C191.475 24.8492 191.178 24.5341 191.11 22.8522L190.367 3.26461C190.367 2.01117 190.636 1.3632 191.227 0.410731H186.454L179.001 15.2785L171.548 0.407191H166.775C167.366 1.35966 167.631 2.00763 167.635 3.26107L166.891 22.8452C166.828 24.5235 166.53 24.8422 165.741 25.5822H171.916C171.186 24.8457 170.956 24.4916 171.041 22.8487L171.572 9.76195L177.517 21.6236H180.481L186.426 9.76195L186.957 22.8487C187.042 24.4881 186.83 24.8209 186.083 25.5822H192.258L192.261 25.5893ZM130.719 21.2624C129.975 21.6165 128.552 21.8254 127.783 21.8254C124.083 21.8254 121.962 20.0833 120.836 18.621C119.413 16.7762 118.907 14.5739 118.907 13.1257C118.907 10.9375 119.657 8.76699 120.971 7.16655C122.536 5.25807 124.791 4.24894 127.497 4.24894C130.202 4.24894 132.627 4.89337 134.925 6.47256V1.58273C133.658 0.970176 130.577 0 127.394 0C123.733 0 120.525 1.27468 118.114 3.68242C116.156 5.64047 114.877 8.06591 114.41 10.7003C113.974 13.1717 114.254 15.7176 115.228 18.0651C116.18 20.3701 117.742 22.3211 119.735 23.7127C121.881 25.2104 124.487 26 127.274 26C130.06 26 133.151 25.2706 135.548 24.049C135.166 23.047 135.099 22.2291 135.092 20.788V15.6255C135.092 14.1136 135.35 13.8268 136.041 13.1611H129.717C130.443 13.8622 130.715 14.1596 130.715 15.7494V21.266L130.719 21.2624ZM209.168 25.9858C201.853 25.9858 196.241 19.9736 196.241 13.0018C196.241 5.22266 202.653 0.0106224 209.168 0.0106224C216.608 0.0106224 221.99 6.13972 221.99 12.9982C221.99 19.8567 216.331 25.9823 209.168 25.9823V25.9858ZM209.168 4.13564C204.463 4.13564 200.759 8.14381 200.759 13.0018C200.759 17.8597 204.438 21.8679 209.168 21.8679C213.899 21.8679 217.578 17.8597 217.578 13.0018C217.578 8.14381 213.899 4.13564 209.168 4.13564ZM12.2759 11.0402H5.34659V4.33038H12.5556C13.9896 4.34809 14.4995 4.69862 15.4449 5.23682L15.2502 0.410731H0C0.775432 1.15784 1.06578 1.46943 1.06578 3.15484V22.8452C1.06578 24.5306 0.775432 24.8457 0 25.5893H6.41237C5.63693 24.8422 5.34659 24.5306 5.34659 22.8452V14.9988H12.2794C13.6391 14.9988 13.8976 15.2325 14.496 15.8556V10.1833C13.8976 10.8065 13.6391 11.0402 12.2794 11.0402H12.2759ZM26.74 21.6802V14.7828H33.7508C35.1069 14.7828 35.3689 15.0129 35.9638 15.629V9.98856C35.3725 10.6047 35.1069 10.8348 33.7508 10.8348H26.74V4.33038H33.8428C35.2698 4.34809 35.7832 4.69508 36.725 5.22974L36.5268 0.410731H21.4536C22.222 1.15076 22.5088 1.46589 22.5088 3.14776V22.8487C22.5088 24.5306 22.222 24.8492 21.4536 25.5857H36.8171L37.9395 20.657C37.0189 21.181 36.2966 21.6767 34.3952 21.6767H26.74V21.6802ZM62.4382 24.2544C60.6431 22.2043 57.6971 17.0949 55.9551 15.3529C55.7284 15.1262 55.5372 14.9598 55.3071 14.7757C60.5333 13.0867 60.5899 9.00776 60.5899 7.89241C60.5899 2.8822 57.1271 0.414272 52.524 0.414272H43.9305C44.6989 1.1543 44.9857 1.46943 44.9857 3.1513V22.8522C44.9857 24.5341 44.6989 24.8528 43.9305 25.5893H50.2225C49.4542 24.8528 49.1674 24.5341 49.1674 22.8522V15.3068C49.8047 15.3068 50.5695 15.4095 51.476 16.2982C52.4922 17.2967 56.5959 23.486 56.5959 23.4896C56.603 23.5002 57.467 24.6828 57.7361 25.5893H63.766C63.3447 25.2281 62.8985 24.7784 62.4382 24.2544ZM51.4512 11.6067C50.4137 11.6067 49.9003 11.5465 49.1638 11.4651V4.23124C49.7233 4.23124 50.3748 4.18167 51.1821 4.18167C53.3172 4.18167 56.2914 4.5145 56.2737 7.89596C56.2737 11.3093 53.4163 11.6102 51.4512 11.6102V11.6067ZM85.7862 24.2544C83.991 22.2043 81.0451 17.0949 79.303 15.3529C79.0764 15.1262 78.8852 14.9598 78.655 14.7757C83.8812 13.0867 83.9379 9.00776 83.9379 7.89241C83.9379 2.8822 80.475 0.414272 75.872 0.414272H67.2785C68.0468 1.1543 68.3336 1.46943 68.3336 3.1513V22.8522C68.3336 24.5341 68.0468 24.8528 67.2785 25.5893H73.5705C72.8021 24.8528 72.5153 24.5341 72.5153 22.8522V15.3068C73.1527 15.3068 73.9175 15.4095 74.8239 16.2982C75.8401 17.2967 79.9439 23.486 79.9439 23.4896C79.951 23.5002 80.8149 24.6828 81.084 25.5893H87.114C86.6926 25.2281 86.2465 24.7784 85.7862 24.2544ZM74.7991 11.6067C73.7617 11.6067 73.2483 11.5465 72.5118 11.4651V4.23124C73.0712 4.23124 73.7227 4.18167 74.53 4.18167C76.6651 4.18167 79.6394 4.5145 79.6217 7.89596C79.6217 11.3093 76.7643 11.6102 74.7991 11.6102V11.6067Z"/> </svg>