<svg viewBox="0 0 123 96" fill="none" xmlns="http://www.w3.org/2000/svg">
<path fill-rule="evenodd" clip-rule="evenodd" d="M54.2983 0L31 73.7582L54.2983 56.3473L77.5968 73.7582L68.6979 45.5863L92 28.1719H63.2009L54.2983 0Z" fill="black"></path>
<g clip-path="url(#clip0_884_2928)">
<path d="M116.137 83.2087V95.7913H123V94.6253H118.143V89.9957H122.648V88.8638H118.143V84.3726H123V83.2067H116.137V83.2087ZM112.934 92.9115C112.934 91.6091 112.442 90.6479 110.928 89.6204C110.188 89.1067 109.414 88.5909 108.604 88.0431C107.548 87.3226 107.055 86.8771 107.055 85.9861C107.055 84.9566 107.653 84.1338 108.921 84.1338C110.19 84.1338 110.823 84.9225 110.823 86.3273V87.2524H112.864V86.6343C112.864 84.0275 110.858 83 108.921 83C106.845 83 105.051 84.2683 105.051 86.2911C105.051 87.5594 105.685 88.4163 106.917 89.2732C107.587 89.7187 108.606 90.4051 109.206 90.8165C110.225 91.5028 110.965 92.0165 110.965 93.0801C110.965 94.2802 110.155 94.8983 108.923 94.8983C107.657 94.8983 106.987 94.1096 106.987 92.739V91.4024H104.946V92.4319C104.946 94.9685 106.987 95.998 108.923 95.998C110.965 95.998 112.934 94.8662 112.934 92.9115ZM99.6668 92.741C99.6668 94.0775 99.0324 94.8662 97.8006 94.8662C96.5689 94.8662 95.9344 94.0775 95.9344 92.741V86.261C95.9344 84.9245 96.5689 84.1358 97.8006 84.1358C99.0324 84.1358 99.6668 84.9245 99.6668 86.261V92.741ZM101.778 92.4319V86.5681C101.778 84.0315 99.7718 83.002 97.8006 83.002C95.8294 83.002 93.8232 84.0315 93.8232 86.5681V92.4319C93.8232 94.9685 95.8294 95.998 97.8006 95.998C99.7718 95.998 101.778 94.9685 101.778 92.4319ZM79.3964 89.0023H75.419V90.0318H77.2852V92.741C77.2852 94.0775 76.6507 94.8662 75.419 94.8662C74.1872 94.8662 73.5528 94.0775 73.5528 92.741V86.261C73.5528 84.9245 74.1872 84.1358 75.419 84.1358C76.6507 84.1358 77.2852 84.9245 77.2852 86.261V86.9132H79.3964V86.5701C79.3964 84.0335 77.3902 83.004 75.419 83.004C73.4478 83.004 71.4415 84.0335 71.4415 86.5701V92.4339C71.4415 94.9705 73.4478 96 75.419 96C77.3902 96 79.3964 94.9705 79.3964 92.4339V89.0023ZM88.476 92.741C88.476 94.0775 87.8415 94.8662 86.6098 94.8662C85.378 94.8662 84.7436 94.0775 84.7436 92.741V86.261C84.7436 84.9245 85.378 84.1358 86.6098 84.1358C87.8415 84.1358 88.476 84.9245 88.476 86.261V92.741ZM90.5872 92.4319V86.5681C90.5872 84.0315 88.581 83.002 86.6098 83.002C84.6386 83.002 82.6324 84.0315 82.6324 86.5681V92.4319C82.6324 94.9685 84.6386 95.998 86.6098 95.998C88.581 95.998 90.5872 94.9685 90.5872 92.4319ZM36.003 84.3064C37.1997 84.3064 37.8691 85.0951 37.8691 86.3975V92.6045C37.8691 93.9069 37.1997 94.6956 36.003 94.6956H34.1018V84.3064H36.003ZM36.003 95.7913C37.9742 95.7913 39.9804 94.7618 39.9804 92.2252V86.7728C39.9804 84.2362 37.9742 83.2067 36.003 83.2067H31.9905V95.7893H36.003V95.7913ZM61.5875 83.2087H60.4258V92.9457L55.3938 83.2087H53.2475V95.7913H54.4442V85.7453L59.6184 95.7913H61.5896V83.2087H61.5875ZM7.95488 89.0023H3.97744V90.0318H5.8436V92.741C5.8436 94.0775 5.20919 94.8662 3.97744 94.8662C2.74569 94.8662 2.11127 94.0775 2.11127 92.741V86.261C2.11127 84.9245 2.74569 84.1358 3.97744 84.1358C5.20919 84.1358 5.8436 84.9245 5.8436 86.261V86.9132H7.95488V86.5701C7.95488 84.0335 5.94865 83.004 3.97744 83.004C2.00623 83.004 0 84.0335 0 86.5701V92.4339C0 94.9705 2.00623 96 3.97744 96C5.94865 96 7.95488 94.9705 7.95488 92.4339V89.0023ZM17.0344 92.741C17.0344 94.0775 16.4 94.8662 15.1682 94.8662C13.9365 94.8662 13.3021 94.0775 13.3021 92.741V86.261C13.3021 84.9245 13.9365 84.1358 15.1682 84.1358C16.4 84.1358 17.0344 84.9245 17.0344 86.261V92.741ZM19.1457 92.4319V86.5681C19.1457 84.0315 17.1395 83.002 15.1682 83.002C13.197 83.002 11.1908 84.0315 11.1908 86.5681V92.4319C11.1908 94.9685 13.197 95.998 15.1682 95.998C17.1395 95.998 19.1457 94.9685 19.1457 92.4319ZM43.2184 83.2087V95.7913H50.0816V94.6253H45.2246V89.9957H49.7294V88.8638H45.2246V84.3726H50.0816V83.2067H43.2184V83.2087ZM22.3837 83.2087V95.7913H29.3519V94.6253H24.4949V83.2067H22.3837V83.2087Z" fill="black"></path>
</g>
<defs>
<clipPath id="clip0_884_2928">
<rect width="123" height="13" fill="white" transform="translate(0 83)"></rect>
</clipPath>
</defs>
</svg>
