<svg viewBox="0 0 155 30" fill="none" xmlns="http://www.w3.org/2000/svg">
<g clip-path="url(#clip0_941_10955)">
<path d="M54.8424 24.2127V26.7227H58.0924C59.1664 26.7227 59.6234 26.2157 59.6234 25.4507C59.6234 24.7607 59.1414 24.2127 58.0934 24.2127H54.8404H54.8424ZM54.2764 23.6797H58.0934C59.4734 23.6797 60.2054 24.4617 60.2054 25.4507C60.2054 26.4737 59.5154 27.2557 58.0934 27.2557H54.8404V29.9157H54.2754L54.2764 23.6797ZM70.0284 27.6627L68.2584 24.0877L66.4864 27.6627H70.0284ZM67.8504 23.6797H68.6814L71.7914 29.9167H71.1434L70.2944 28.1947H66.2204L65.3724 29.9167H64.7394L67.8504 23.6797ZM77.4744 24.2127V26.6397H80.6924C81.7654 26.6397 82.2224 26.1497 82.2224 25.4097C82.2224 24.7447 81.7404 24.2127 80.6924 24.2127H77.4744ZM76.9084 23.6797H80.6924C82.0724 23.6797 82.8044 24.4447 82.8044 25.4097C82.8044 26.4077 82.1144 27.1727 80.7094 27.1727L83.1624 29.9167H82.4134L79.9774 27.1727H77.4744V29.9167H76.9084V23.6797ZM88.4034 23.6797H88.9684V29.9167H88.4034V23.6797ZM99.3234 28.2287C99.3234 26.1987 94.4414 27.9537 94.4414 25.3347C94.4414 24.2787 95.3314 23.5967 96.8874 23.5967C97.8774 23.5967 98.9494 23.9287 99.7644 24.5367L99.4314 24.9857C98.6744 24.4537 97.8264 24.1287 96.8874 24.1287C95.6974 24.1287 95.0074 24.5687 95.0074 25.3087C95.0074 27.3137 99.8884 25.5917 99.8884 28.2037C99.8884 29.3097 98.9654 29.9997 97.2534 29.9997C96.2134 29.9997 95.0654 29.6837 94.2094 29.0597L94.5414 28.6107C95.3394 29.1607 96.2554 29.4677 97.2534 29.4677C98.6004 29.4677 99.3234 28.9947 99.3234 28.2287Z" fill="#111111"></path>
<path fill-rule="evenodd" clip-rule="evenodd" d="M39.397 0C46.059 0 50.731 3.515 50.731 7.917C50.731 12.321 46.183 15.835 39.397 15.835C32.643 15.835 28.097 12.321 28.097 7.917C28.097 3.514 32.726 0 39.397 0ZM20.46 15.467C17.703 15.473 15.097 15.835 11.58 15.835C4.881 15.835 0 12.512 0 8.033C0 3.26 5.244 0 11.975 0C15.309 0 18.391 0.939 20.237 2.75L18.542 3.708C17.236 2.243 15.721 1.008 12.87 1.008C7.598 1.008 5.375 3.63 5.375 8.033C5.375 11.777 7.395 14.827 12.506 14.827C13.898 14.827 15.409 14.192 15.847 13.236L15.853 8.241H12.211V6.934H20.459L20.46 15.467ZM113.273 7.797C117.96 7.797 119.591 6.817 119.591 4.486C119.591 2.742 118.369 1.417 113.389 1.417H109.429V7.797H113.273ZM104.498 15.414V0.42L117.837 0.423C122.954 0.423 124.757 2.563 124.757 4.813C124.757 7.346 122.141 8.478 117.921 8.759L117.77 8.769L124.788 15.414H118.613L111.963 8.888H109.429V15.414H104.498ZM84.698 4.286L80.087 11.394H89.054L84.698 4.286ZM97.286 15.414H91.506L89.823 12.674L79.273 12.679L77.526 15.414H75.588L85.652 0.186H87.498L97.286 15.414ZM72.395 0.42H74.495L66.926 8.557V15.414H61.753V8.851L53.846 0.421H60.006L66.109 7.165L72.396 0.42H72.395ZM138.369 14.377H140.588C146.71 14.377 148.854 12.027 148.854 8.046C148.854 4.201 146.817 1.43 140.849 1.43H138.369V14.377ZM133.203 0.42H141.611C150.822 0.42 154.164 3.339 154.164 8C154.164 12.774 150.806 15.414 142.61 15.414H133.203V0.42ZM39.397 14.827C44.159 14.827 45.451 10.87 45.451 7.917C45.451 4.963 43.883 1.007 39.397 1.007C35.084 1.007 33.378 4.962 33.378 7.917C33.378 10.869 34.624 14.827 39.397 14.827Z" fill="#111111"></path>
</g>
<defs>
<clipPath id="clip0_941_10955">
<rect width="155" height="30" fill="white"></rect>
</clipPath>
</defs>
</svg>
