<svg viewBox="0 0 337.39 69.62" xmlns="http://www.w3.org/2000/svg"><path d="m41.42 35.46 1.1.07c4.33.27 5.79 1 6.27 1.44s1.21 1.53 1.21 6.15v15.53a2.17 2.17 0 0 1 -.5 1.6c-.2.19-1 .75-3.89 1.7a24.63 24.63 0 0 1 -4.31 1 29.83 29.83 0 0 1 -4 .32 22 22 0 0 1 -16.66-7.2c-4.5-4.8-6.78-11.61-6.78-20.24 0-10.51 2.28-18.12 6.77-22.61a21.61 21.61 0 0 1 15.68-6.78c5.87 0 10.5 1.88 14.13 5.72a36.51 36.51 0 0 1 6 10.23l.3.72h4.26l-.9-22.87h-4.1l-.3.73a5.28 5.28 0 0 1 -1.21 1.91 3.18 3.18 0 0 1 -2.17.5 46.4 46.4 0 0 1 -6-1.53 41.63 41.63 0 0 0 -11.39-1.61c-10.75 0-19.5 3.73-26 11.1a35.27 35.27 0 0 0 -8.93 24.11c0 10.63 3.78 19.23 11.22 25.55 6.73 5.71 15.09 8.61 24.85 8.61a51.46 51.46 0 0 0 16.54-2.91c7.64-2.6 9.2-4.15 9.2-5.68v-19.19c0-2.73.53-4.58 1.56-5.37.33-.27 1.32-.74 4.15-.93l1.1-.08v-4.08h-27.2z"/><path d="m121.68 5.43 1.06.1c3.2.32 5.45 1.07 6.5 2.19.59.63 1.58 2.65 1.58 9.16v25.38c0 6-.72 10.47-2.16 13.27-2.53 4.95-7.44 7.36-15 7.36-6.85 0-11.35-2.34-13.75-7.15-1.31-2.68-2-6.53-2-11.43v-31.19c0-4.22.8-5.57 1.28-6s2-1.27 6.58-1.58l1.09-.08v-4.08h-30v4.07l1.14.09c4.45.34 6 1.16 6.46 1.62s1.26 1.78 1.26 6v30.43c0 6.21 1.09 11.31 3.24 15.14 4 7.22 11.6 10.89 22.55 10.89s18.72-3.72 22.74-11c2.14-3.93 3.23-9.42 3.23-16.32v-25.42c0-6.3.93-8.36 1.48-9s2.33-1.85 6.62-2.32l1-.11v-4h-24.9z"/><path d="m212.21 50.11c-2.38 5.26-5 8.59-7.91 9.91s-7.73 2.06-14.14 2.06c-7.44 0-9.91-.26-10.67-.48-.24-.07-1-.28-1-2.3v-23h13.87c4.94 0 6.53.92 7 1.46.68.72 1.66 2.51 2.51 6.92l.19 1h4.43v-24.88h-4.44l-.18 1c-.81 4.38-1.79 6.17-2.46 6.9-.51.55-2.11 1.47-7.09 1.47h-13.81v-20.62a4.18 4.18 0 0 1 .24-1.86s.33-.25 1.73-.25h13.28c6.75 0 9.34.9 10.33 1.66s2.32 2.66 3.27 7.63l.19.95h4.65l-.4-16.3h-54.11v4.08l1.09.08c4.34.3 5.77 1.15 6.24 1.63s1.24 1.86 1.24 5.95v43.37c0 4.47-.83 5.65-1.18 5.95-.5.42-2 1.18-6.34 1.65l-1.05.11v4h54.77l5.06-18.82h-5z"/><path d="m261.17 30.41-8.56-5.29a28.44 28.44 0 0 1 -6.81-5.43 8.35 8.35 0 0 1 -2-5.66 6.7 6.7 0 0 1 2.53-5.63 9.67 9.67 0 0 1 6.24-2.1 16.92 16.92 0 0 1 9.72 3.5c3.26 2.3 5.67 6.48 7.18 12.42l.23.89h4.55l-2.38-23.11h-4l-.22.9a5.12 5.12 0 0 1 -.84 2 2.18 2.18 0 0 1 -1.55.41 34.9 34.9 0 0 1 -5-1.57 26.11 26.11 0 0 0 -8.4-1.74c-5.69 0-10.34 1.77-13.86 5.25a17.83 17.83 0 0 0 -5.25 13.11 16.11 16.11 0 0 0 4.45 11 30.84 30.84 0 0 0 6.24 5l8.31 5.19c4.69 2.93 7.78 5.13 9.19 6.54a10.27 10.27 0 0 1 3.09 7.46 9.12 9.12 0 0 1 -3 7.35 10.67 10.67 0 0 1 -7.29 2.67 16.9 16.9 0 0 1 -13.5-6.4 34.28 34.28 0 0 1 -5.56-10.17l-.28-.77h-4.4l3.23 23.11h4.17l.15-1a5.47 5.47 0 0 1 .65-1.84c.17-.3.6-.45 1.26-.46a39.51 39.51 0 0 1 5.28 1.65 29.86 29.86 0 0 0 9.84 1.78c6.27 0 11.5-1.83 15.56-5.44a17.61 17.61 0 0 0 6.18-13.68 16.94 16.94 0 0 0 -3.5-10.63c-2.28-2.81-6.2-5.96-11.65-9.31z"/><path d="m333.88 39.77c-2.27-2.86-6.19-6-11.64-9.36l-8.56-5.29a28.44 28.44 0 0 1 -6.81-5.43 8.31 8.31 0 0 1 -2-5.66 6.73 6.73 0 0 1 2.53-5.63 9.69 9.69 0 0 1 6.25-2.1 17 17 0 0 1 9.72 3.5c3.25 2.3 5.67 6.48 7.18 12.42l.23.89h4.54l-2.38-23.11h-4l-.22.9a5.28 5.28 0 0 1 -.84 2 2.21 2.21 0 0 1 -1.56.41 35.43 35.43 0 0 1 -5-1.57 26.11 26.11 0 0 0 -8.39-1.74c-5.69 0-10.34 1.77-13.83 5.25a17.86 17.86 0 0 0 -5.24 13.11 16.11 16.11 0 0 0 4.45 11 30.75 30.75 0 0 0 6.23 5l8.32 5.19c4.69 2.93 7.78 5.13 9.19 6.54a10.31 10.31 0 0 1 3.09 7.46 9.12 9.12 0 0 1 -3 7.35 10.67 10.67 0 0 1 -7.29 2.67 16.94 16.94 0 0 1 -13.51-6.4 34.28 34.28 0 0 1 -5.59-10.17l-.28-.77h-4.41l3.24 23.11h4.16l.16-1a5.24 5.24 0 0 1 .64-1.84c.18-.3.61-.45 1.27-.46a40.75 40.75 0 0 1 5.28 1.65 29.77 29.77 0 0 0 9.84 1.78c6.26 0 11.5-1.83 15.56-5.44a17.61 17.61 0 0 0 6.18-13.68 16.89 16.89 0 0 0 -3.51-10.58z"/></svg>