<svg viewBox="0 0 90 34" fill="none" xmlns="http://www.w3.org/2000/svg">
<g clip-path="url(#clip0_397_36131)">
<path d="M64.6123 29.0945C65.7555 29.0945 65.9634 30.1041 65.9634 31.0246C65.9634 31.9451 65.7555 32.9398 64.6123 32.9398C63.4692 32.9398 63.2613 31.9302 63.2613 31.0246C63.2613 30.1189 63.4692 29.0945 64.6123 29.0945ZM64.6123 33.7415C66.3642 33.7415 67.1511 32.5538 67.1511 31.0246C67.1511 29.4954 66.3642 28.2928 64.6123 28.2928C62.8604 28.2928 62.0736 29.4805 62.0736 31.0246C62.0736 32.5686 62.8604 33.7415 64.6123 33.7415ZM52.4678 30.5495H53.4477C53.8486 30.5495 54.2197 30.2971 54.2197 29.8962C54.2197 29.4954 53.9525 29.2133 53.4922 29.2133H52.4678V30.5346V30.5495ZM52.4678 32.821H53.4626C53.9228 32.821 54.3682 32.628 54.3682 32.0638C54.3682 31.4997 53.9525 31.3363 53.4626 31.3363H52.4678V32.821ZM53.6556 33.6079H51.3543V28.4264H53.5962C54.68 28.4264 55.3926 28.857 55.3926 29.7775C55.3926 30.4159 54.8284 30.8613 54.4127 30.9058C55.0214 30.9503 55.6302 31.3957 55.6302 32.1826C55.6302 33.1179 54.6948 33.6079 53.6556 33.6079ZM36.1217 29.1094C37.2352 29.1094 37.4431 30.1189 37.4431 31.0097C37.4431 31.9005 37.2352 32.9101 36.1217 32.9101C35.0082 32.9101 34.8004 31.9005 34.8004 31.0097C34.8004 30.1189 35.0082 29.1094 36.1217 29.1094ZM36.1217 33.7118C37.8588 33.7118 38.6457 32.5389 38.6457 31.0097C38.6457 29.4805 37.8588 28.3076 36.1217 28.3076C34.3847 28.3076 33.5978 29.4805 33.5978 31.0097C33.5978 32.5389 34.3847 33.7118 36.1217 33.7118ZM88.6044 29.8962H87.5058C87.5058 29.3914 87.2088 29.0054 86.6001 29.0054C85.9914 29.0054 85.7242 29.3172 85.7242 29.6735C85.7242 30.0595 85.9914 30.208 86.6001 30.4159C86.8674 30.4901 87.1198 30.5643 87.4019 30.6386C88.2036 30.8613 88.7974 31.3066 88.7974 32.1084C88.7974 33.1328 87.8176 33.7266 86.7338 33.7266C85.3382 33.7266 84.5068 33.0882 84.5068 31.9451H85.6054C85.6054 32.5241 85.9023 32.9992 86.7338 32.9992C87.0604 32.9992 87.6097 32.821 87.6097 32.2568C87.6097 31.8411 87.3722 31.663 86.6595 31.47C86.4665 31.4106 86.0805 31.2918 85.8578 31.2324C85.1303 31.0246 84.6107 30.6237 84.6107 29.8962C84.6107 28.8718 85.65 28.3076 86.6001 28.3076C87.5503 28.3076 88.5747 28.8718 88.5747 29.8962M77.6773 29.8962C77.6773 28.8718 76.6678 28.3076 75.7176 28.3076C74.7674 28.3076 73.7281 28.8867 73.7281 29.8962C73.7281 30.6237 74.2478 31.0246 74.9753 31.2324C75.198 31.2918 75.584 31.4106 75.777 31.47C76.4748 31.663 76.7272 31.8411 76.7272 32.2568C76.7272 32.821 76.1778 32.9992 75.8512 32.9992C75.0198 32.9992 74.7229 32.5241 74.7229 31.9451H73.6242C73.6242 33.0734 74.4556 33.7266 75.8661 33.7266C76.935 33.7266 77.9149 33.1328 77.9149 32.1084C77.9149 31.3066 77.3062 30.8613 76.5193 30.6386C76.2521 30.5495 75.9848 30.4901 75.7176 30.4159C75.094 30.2228 74.8416 30.0744 74.8416 29.6735C74.8416 29.3172 75.1089 29.0054 75.7176 29.0054C76.3263 29.0054 76.6232 29.3914 76.6232 29.8962H77.707H77.6773ZM26.2042 31.6927H25.1947V30.8464H27.3029V33.2664C26.9169 33.4446 26.2191 33.6673 25.1798 33.6673C23.9475 33.6673 22.552 33.0437 22.552 31.0246C22.552 29.0054 24.0069 28.3819 25.061 28.3819C26.4121 28.3819 27.3029 29.0351 27.3029 30.0298H26.1745C26.1745 29.5696 25.7737 29.1687 25.1056 29.1687C24.1257 29.1687 23.7248 29.8814 23.7248 31.0246C23.7248 32.1678 24.1702 32.8804 25.2243 32.8804C25.6549 32.8804 25.9221 32.821 26.2042 32.7319V31.7075V31.6927ZM15.1881 28.471V31.2324C15.1881 32.0935 15.1584 32.8655 14.0746 32.8655C12.9908 32.8655 12.9611 32.0935 12.9611 31.2324V28.471H11.8327V31.6481C11.8327 32.9992 12.8274 33.6524 14.0746 33.6524C15.3217 33.6524 16.3312 32.9992 16.3312 31.6481V28.471H15.1881ZM2.18245 33.5485H1.0838V28.471H2.18245V30.4752H4.29066V28.471H5.40416V33.5485H4.30551V31.3215H2.18245V33.5485ZM7.25998 11.2044H9.97691C12.5454 11.2044 14.5942 9.12585 14.4903 6.40893C14.3715 3.55838 12.3375 1.9698 9.82844 1.9698H7.25998V11.1895V11.2044ZM7.25998 23.0816H10.2887C13.3768 23.0816 15.8116 20.528 15.6483 17.2321C15.5147 14.4855 13.7182 12.0803 10.3035 12.0803H7.25998V23.0816ZM2.03398 22.1612V2.84575C2.03398 2.11826 1.24711 1.98464 0.757176 1.98464H0.133619V1.12354H13.065C16.3312 1.1087 19.7757 2.62305 19.9241 5.87445C20.0726 8.918 17.0439 11.0559 14.4754 11.4716C16.0937 11.6052 21.3049 12.496 21.2455 17.5736C21.2009 22.0127 16.5688 24.017 12.2484 24.017H0V23.1559H0.56417C1.3065 23.1707 2.06368 22.8292 2.06368 22.1612M89.9703 16.5788C90.2079 19.1918 89.0498 24.0764 81.6414 24.3733C78.3603 24.5069 74.2478 23.4825 72.6147 22.7253V16.4452H73.4312C73.6094 17.2172 75.1534 23.0223 80.5576 23.3043C83.6902 23.4528 86.0954 22.1315 86.1399 19.5185C86.2141 16.4898 82.8588 15.4505 79.8301 14.2331C76.4154 12.8672 73.1194 11.5162 72.6443 7.81935C72.1247 3.52869 76.1184 0.589065 80.6912 0.782071C83.2151 0.885997 85.739 1.49471 87.6839 2.29642V7.59665H86.8822C86.422 4.71642 84.6849 1.98464 80.7506 1.7471C78.4494 1.59863 76.356 2.45973 76.356 4.96881C76.356 7.47788 80.5279 8.48745 83.5566 9.67518C86.6298 10.9074 89.6288 12.5703 89.9852 16.6085M69.289 16.6085C68.9327 12.5703 65.9337 10.8926 62.8604 9.67518C59.8317 8.48745 55.6599 7.44819 55.6599 4.96881C55.6599 2.48943 57.7532 1.61348 60.0544 1.7471C63.9888 1.98464 65.7258 4.71642 66.1861 7.59665H67.0026V2.29642C65.0726 1.50955 62.5338 0.885997 60.0099 0.782071C55.4371 0.603912 51.4434 3.52869 51.9927 7.8342C52.453 11.531 55.7489 12.882 59.1636 14.2479C62.1923 15.4505 65.5477 16.5046 65.4734 19.5333C65.4141 22.1463 63.0238 23.4677 59.8763 23.3192C54.4573 23.0519 52.9132 17.2321 52.7499 16.4601H51.9334V22.7402C53.5665 23.4973 57.679 24.5218 60.9601 24.3881C68.3685 24.0912 69.5266 19.2067 69.289 16.5937M42.7285 12.6296C42.7285 17.6033 41.0954 23.6161 36.3741 23.6755C31.6678 23.7349 30.0198 17.5884 30.0198 12.6296C30.0198 7.64119 31.8459 1.50955 36.3741 1.5244C40.6796 1.5244 42.7285 7.62635 42.7285 12.6296ZM48.4296 12.6296C48.4296 5.97838 43.0254 0.574219 36.3741 0.574219C29.7229 0.574219 24.3187 5.96353 24.3187 12.6296C24.3187 19.2958 29.708 24.6702 36.3741 24.6702C43.0403 24.6702 48.4296 19.2809 48.4296 12.6296Z" fill="black"></path>
</g>
<defs>
<clipPath id="clip0_397_36131">
<rect width="90" height="33.1524" fill="white" transform="translate(0 0.588867)"></rect>
</clipPath>
</defs>
</svg>
