<svg fill="none" viewBox="0 0 18 24" id="icon-logo-black" xmlns="http://www.w3.org/2000/svg"><g fill="#212121"><path d="M6.471 18.79v-1.375l.001-6.638c.002-.728.013-1.456.032-2.184.01-.934.257-1.847.715-2.644.441-.755 1.064-1.284 1.815-1.653a6.692 6.692 0 012.197-.618 7.751 7.751 0 012.168.044c.643.105 1.289.226 1.871.545 1.42.775 2.336 1.972 2.614 3.673.08.566.118 1.138.113 1.71.003.318.005.636-.003.953-.005.191-.06.236-.237.237-.541.005-1.083.012-1.625.016-.186.002-.277-.082-.288-.281-.013-.251-.017-.502-.02-.753-.008-.556 0-1.113-.02-1.669-.036-1.13-.414-2.107-1.206-2.881-.537-.5-1.2-.821-1.908-.924a3.458 3.458 0 00-2.07.345c-.921.505-1.568 1.265-1.824 2.347-.071.359-.108.725-.109 1.092-.02.549-.016 1.099-.016 1.648.002 1.537.014 3.073.009 4.61 0 .522-.024 1.045-.073 1.565-.12 1.19-.683 2.077-1.684 2.638a4.603 4.603 0 01-.452.196zM6.582 20.048c.928-.193.928-.193 2.06-.723.014.198.025.393.044.589.135 1.413.805 2.437 1.996 3.073.301.16.632.212.965.245.446.05.896.044 1.34-.02.904-.14 1.58-.649 2.086-1.44a4.309 4.309 0 00.696-2.187c.026-.657.037-1.315.053-1.973.004-.176-.003-.35.005-.526.009-.21.107-.31.306-.322.093-.006.187-.007.28-.007.424 0 .847.002 1.27.003.226.001.319.077.317.315-.004.585-.009 1.17-.04 1.755a6.135 6.135 0 01-.278 1.584c-.506 1.551-1.499 2.599-2.942 3.162-.846.33-1.726.44-2.622.422a7.48 7.48 0 01-2.788-.563 4.649 4.649 0 01-2.265-1.997 4.292 4.292 0 01-.483-1.39zm2.384-16V.334c.006-.238.09-.33.315-.332.576-.003 1.152-.003 1.728 0 .218.001.295.086.31.317.002.043.002.086.002.129v2.968a7.32 7.32 0 00-2.355.632z"/><path d="M10.143 13.83a.472.472 0 00-.344.147.534.534 0 00-.148.361.536.536 0 00.145.36.475.475 0 00.342.143.472.472 0 00.347-.144.52.52 0 00.007-.72.485.485 0 00-.35-.147z"/><path d="M11.322 4.792v-.12c-.45.13-.868.361-1.227.677-.48.44-.86.956-1.042 1.613-.12.435-.135.887-.137 1.337-.006.874.003 1.748.003 2.623 0 1.285-.002 2.57-.006 3.855.003.476-.029.953-.096 1.424-.068.506-.24.99-.506 1.417a3.35 3.35 0 01-1.027 1.052c-.743.5-1.551.57-2.386.314-.989-.302-1.698-.943-2.056-1.985a7.908 7.908 0 01-.36-1.86c-.048-.53-.078-1.062-.117-1.593-.015-.212-.094-.299-.295-.302-.572-.01-1.145-.014-1.718-.02a.383.383 0 00-.083.008c-.174.037-.276.174-.269.417.012.41.023.821.07 1.227a5.453 5.453 0 001.79 3.508c1.491 1.36 3.232 1.733 5.126 1.326 1.387-.298 2.49-1.116 3.372-2.275.486-.64.815-1.364.879-2.193.05-.642.079-1.288.08-1.932.01-2.84.005-5.679.005-8.518zM9.715 6.501a.321.321 0 01.128-.047l.012-.002.016.111-.013.001a.195.195 0 00-.143.054.22.22 0 00-.067.144c0 .069.052.198.233.198h.752v-.056h.049v.222h-.051v-.05h-.658a.44.44 0 01-.26-.054.313.313 0 01-.093-.114.335.335 0 01.095-.407zm.967 1.79v.15h-.05v-.05h-.98v.05h-.05v-.22h.04l.008.005.001.006.001.045h.83l-.58-.245.55-.246h-.8v.052h-.05v-.18h.05v.058h.98V7.66h.05v.135l-.565.257zm0 .926v.152h-.05v-.05h-.98v.05h-.05v-.221h.05v.056h.83l-.58-.244.55-.247h-.8v.052h-.05v-.18h.05v.058h.98v-.057h.05v.134l-.565.258zm-.498.675l.448.189v-.053h.05v.176h-.05v-.05l-.535-.228h-.445v.08h-.05v-.269h.05v.072h.447l.533-.278V9.48h.05v.224h-.05v-.05zm.448-2.39V7.45h-.98v.05h-.05v-.217h.05v.053h.98v-.053h.05v.218zm-.49 7.45a.556.556 0 01-.33-.09.609.609 0 01-.227-.271.655.655 0 01.109-.684.574.574 0 01.297-.178.549.549 0 01.34.03.59.59 0 01.266.228c.065.103.1.223.1.347a.627.627 0 01-.157.43.554.554 0 01-.398.188zm0-1.319a.556.556 0 01-.33-.09.609.609 0 01-.227-.271.655.655 0 01.109-.684.573.573 0 01.297-.178.55.55 0 01.34.03c.108.047.2.126.266.228.065.103.1.223.1.347a.627.627 0 01-.157.431.554.554 0 01-.398.187zm.194-1.467v-.336h-.684v.05h-.05v-.22h.05v.055h.98v-.056h.05v.222h-.05v-.05h-.236v.335h.236v-.056h.05v.223h-.05v-.051h-.98v.052h-.05v-.224h.05v.056zm.361-.72v.052h-.229v-.052h.095a.446.446 0 00.073-.25.528.528 0 00-.153-.353.467.467 0 00-.342-.138.452.452 0 00-.345.143.51.51 0 00-.145.362.513.513 0 00.109.321l.006.01-.037.037-.007-.01a.542.542 0 01-.134-.357.623.623 0 01.155-.432.526.526 0 01.8 0 .596.596 0 01.154.432.664.664 0 01-.043.236z"/><path d="M10.142 12.51a.448.448 0 00-.346.14.508.508 0 00-.146.362.534.534 0 00.142.363.473.473 0 00.345.145.472.472 0 00.347-.144.52.52 0 00.007-.72.485.485 0 00-.35-.146z"/></g></svg>