<svg role="img"  viewBox="0 0 107 55" xmlns="http://www.w3.org/2000/svg" aria-hidden="true"><title>Kenzo Logo</title><path d="M107 0H0v54.227H107V0Z" fill="#fff"></path><path d="M37.358 36.522a.104.104 0 0 0-.09-.05h-.39a.105.105 0 0 0-.092.052l-1.881 3.24c-.042.07.01.16.09.16h4.187a.105.105 0 0 0 .09-.16l-1.914-3.242ZM58.423 36.522h-3.807a.1.1 0 0 0-.1.1v2.082a.1.1 0 0 0 .1.1h3.418c.56 0 .938-.07 1.129-.211.19-.14.287-.478.287-1.01 0-.392-.074-.668-.219-.825-.145-.158-.415-.236-.808-.236ZM18.524 36.549h-3.99a.106.106 0 0 0-.105.105v2.182c0 .059.047.106.105.106h3.585c.588 0 .983-.074 1.183-.22.2-.148.3-.501.3-1.06 0-.411-.077-.7-.23-.864-.153-.166-.434-.25-.848-.25Z" fill="#E52729"></path><path d="M95.096 6.01H11.904a5.725 5.725 0 0 0-5.725 5.724v30.762a5.725 5.725 0 0 0 5.725 5.724h83.19a5.725 5.725 0 0 0 5.725-5.724V11.734a5.722 5.722 0 0 0-5.723-5.725ZM20.272 38.516c-.047.259-.14.459-.277.6-.138.142-.31.246-.518.314-.205.068-.515.102-.926.102h-4.016a.106.106 0 0 0-.106.105v2.093a.105.105 0 0 1-.106.106h-.504a.106.106 0 0 1-.106-.106v-5.677c0-.058.048-.105.106-.105h4.775c.642 0 1.093.119 1.355.356.263.238.393.678.393 1.32.002.336-.023.634-.07.892Zm20.857 3.318h-.573a.104.104 0 0 1-.091-.05l-.72-1.222a.104.104 0 0 0-.09-.05h-5.124a.105.105 0 0 0-.09.052l-.708 1.22a.105.105 0 0 1-.09.052h-.593a.105.105 0 0 1-.091-.158L36.313 36a.104.104 0 0 1 .09-.05h1.344c.038 0 .072.018.09.05l3.383 5.678c.041.067-.01.156-.09.156Zm18.96-3.437c-.045.248-.133.438-.265.572a1.205 1.205 0 0 1-.493.298c-.138.046-.425.074-.696.09a.1.1 0 0 0-.08.154l1.42 2.169a.1.1 0 0 1-.084.154h-.44a.097.097 0 0 1-.082-.045l-1.557-2.378a.101.101 0 0 0-.083-.045H54.62a.1.1 0 0 0-.1.1v2.268a.1.1 0 0 1-.1.1h-.481a.1.1 0 0 1-.1-.1V36.05a.1.1 0 0 1 .1-.1h4.556c.611 0 1.042.113 1.29.341.25.227.376.648.376 1.259a5.082 5.082 0 0 1-.071.85Zm13.384 3.333a.106.106 0 0 1-.106.106h-.504a.105.105 0 0 1-.105-.106v-5.677c0-.058.047-.105.105-.105h.504c.059 0 .106.047.106.105v5.677Zm18.8-.7c-.113.24-.306.423-.576.544a3.003 3.003 0 0 1-.955.23c-.366.034-.664.051-1.098.051h-.351c-.434 0-.75-.004-.963-.013-.215-.01-.547-.044-.987-.102-.453-.06-.783-.225-.978-.485-.122-.163-.203-.397-.249-.704a.103.103 0 0 1 .102-.117h.584c.049 0 .092.036.1.083.01.07.026.13.045.18.047.13.177.23.385.292.219.068.519.113.889.134.368.02.742.032 1.106.032.589 0 .989-.027 1.389-.078.394-.05.664-.143.804-.279.138-.134.208-.358.208-.67 0-.392-.087-.642-.261-.744-.183-.107-.5-.16-.942-.16h-1.202l-1.527-.041c-.542 0-.966-.106-1.264-.318-.304-.213-.457-.579-.457-1.083 0-.392.064-.727.192-.99.13-.27.353-.467.663-.582.3-.111.66-.185 1.066-.217.404-.032.86-.047 1.36-.047.422 0 .614.003.8.013.182.01.48.036.905.081.429.045.763.202.993.466.104.121.185.27.242.45.02.066-.027.135-.097.135h-.628a.103.103 0 0 1-.089-.053.461.461 0 0 0-.196-.184c-.115-.059-.329-.108-.634-.148a9.919 9.919 0 0 0-1.206-.058h-.138c-.374 0-.868.017-1.267.05-.394.035-.683.091-.858.169-.168.073-.278.175-.323.3-.05.132-.074.294-.074.483 0 .332.09.56.263.676.18.12.453.18.804.18h1.966c.227 0 .33.005.52.008.184.006.462.029.828.068.377.042.685.176.917.402.234.229.353.617.353 1.157.004.357-.053.655-.164.89Z" fill="#E52629"></path><path d="M19.302 38.721c-.2.147-.595.22-1.183.22h-3.584a.105.105 0 0 1-.106-.105v-2.182c0-.058.047-.105.106-.105h3.99c.41 0 .694.083.847.247.153.164.23.453.23.864 0 .56-.1.914-.3 1.061Zm-.706-2.772h-4.775a.105.105 0 0 0-.105.105v5.677c0 .059.047.106.105.106h.504a.105.105 0 0 0 .106-.106v-2.093c0-.058.047-.105.106-.105h4.016c.411 0 .72-.034.926-.102.206-.068.378-.172.518-.314.137-.141.23-.341.277-.6.047-.258.07-.557.07-.89 0-.642-.13-1.082-.393-1.32-.262-.24-.715-.358-1.355-.358ZM59.165 38.593c-.19.14-.566.211-1.129.211h-3.418a.1.1 0 0 1-.1-.1v-2.082a.1.1 0 0 1 .1-.1h3.807c.393 0 .663.08.808.236.145.157.219.432.219.825-.002.532-.096.87-.287 1.01Zm-5.23 3.242h.481a.1.1 0 0 0 .1-.1v-2.268a.1.1 0 0 1 .1-.1h3.109c.034 0 .066.017.083.045l1.557 2.378c.019.028.05.045.083.045h.442a.1.1 0 0 0 .083-.155l-1.42-2.168a.1.1 0 0 1 .08-.155c.27-.013.558-.043.696-.089.196-.064.36-.164.493-.298.132-.134.22-.324.266-.572.045-.247.068-.53.068-.85 0-.612-.125-1.031-.376-1.26-.249-.226-.68-.341-1.29-.341h-4.557a.1.1 0 0 0-.1.1v5.686a.103.103 0 0 0 .102.102ZM34.905 39.763l1.881-3.24a.106.106 0 0 1 .091-.054h.39c.038 0 .072.02.091.051l1.914 3.24a.105.105 0 0 1-.09.16h-4.187c-.08.001-.13-.087-.09-.157ZM36.315 36 32.96 41.68c-.042.07.01.158.09.158h.593c.038 0 .072-.02.09-.053l.708-1.219a.105.105 0 0 1 .091-.053h5.124c.038 0 .072.019.09.051l.72 1.221a.104.104 0 0 0 .09.051h.574a.105.105 0 0 0 .09-.158l-3.381-5.678a.104.104 0 0 0-.09-.05h-1.343c-.04 0-.073.02-.092.052ZM72.863 41.835h.504a.106.106 0 0 0 .106-.105v-5.678a.105.105 0 0 0-.106-.105h-.504a.105.105 0 0 0-.105.105v5.678c0 .058.047.105.105.105ZM91.169 38.587a11.67 11.67 0 0 0-.829-.068 14.57 14.57 0 0 0-.519-.007h-1.964c-.353 0-.623-.06-.805-.182-.173-.115-.262-.343-.262-.675 0-.189.025-.351.074-.483.047-.125.155-.225.323-.3.175-.078.464-.135.858-.169.397-.034.893-.05 1.267-.05h.138c.49 0 .896.02 1.206.058.305.04.517.089.634.147.08.04.145.1.196.185a.103.103 0 0 0 .089.053h.628c.07 0 .117-.068.096-.136a1.25 1.25 0 0 0-.241-.449c-.23-.264-.563-.42-.993-.466a18.831 18.831 0 0 0-.906-.081c-.185-.01-.377-.014-.8-.014-.498 0-.957.015-1.359.048a3.912 3.912 0 0 0-1.066.217c-.31.115-.534.31-.663.581-.128.264-.192.598-.192.99 0 .505.153.87.456 1.084.297.21.723.317 1.265.317l1.527.042h1.202c.444 0 .76.054.942.16.173.102.26.351.26.744 0 .311-.07.536-.207.67-.14.134-.41.228-.804.28-.402.05-.802.077-1.39.077-.366 0-.737-.012-1.105-.032a3.875 3.875 0 0 1-.89-.135c-.207-.064-.337-.162-.384-.292a1.076 1.076 0 0 1-.046-.18.1.1 0 0 0-.1-.082h-.583a.103.103 0 0 0-.102.117c.045.307.129.54.25.704.194.26.524.424.977.485.44.058.772.092.987.102.213.009.528.013.963.013h.35c.435 0 .733-.017 1.1-.051.369-.034.69-.112.954-.23.27-.121.463-.304.576-.544.111-.236.168-.534.168-.885 0-.54-.12-.929-.353-1.157-.236-.229-.546-.364-.923-.406Z" fill="#44883F"></path><path d="M85.796 32.325c-5.104 0-9.256-4.153-9.256-9.256 0-5.103 4.152-9.255 9.255-9.255 5.104 0 9.256 4.152 9.256 9.255 0 5.104-4.152 9.256-9.255 9.256Zm0-14.554a5.303 5.303 0 0 0-5.298 5.298 5.303 5.303 0 0 0 5.297 5.298 5.303 5.303 0 0 0 5.298-5.298 5.303 5.303 0 0 0-5.297-5.298ZM29.596 31.819c0 .106.085.19.19.19h3.558a.19.19 0 0 0 .19-.19V14.33a.19.19 0 0 0-.19-.191h-3.558a.19.19 0 0 0-.19.19V31.82ZM34.407 14.14a.19.19 0 0 0-.191.19v3.558c0 .106.085.19.19.19h7.633a.19.19 0 0 0 .19-.19v-3.557a.19.19 0 0 0-.19-.191h-7.632ZM34.407 21.082a.19.19 0 0 0-.191.19v3.558c0 .106.085.19.19.19h6.32a.19.19 0 0 0 .19-.19v-3.558a.19.19 0 0 0-.19-.19h-6.32ZM34.407 28.073a.19.19 0 0 0-.191.19v3.558c0 .105.085.19.19.19h7.633a.19.19 0 0 0 .19-.19v-3.558a.19.19 0 0 0-.19-.19h-7.632ZM60.084 14.14h-3.558a.19.19 0 0 0-.19.19v15.673L48.358 15a.192.192 0 0 0-.259-.08l-.619.329v-.92a.19.19 0 0 0-.19-.19h-3.558a.19.19 0 0 0-.19.19v17.49c0 .105.084.19.19.19h3.558a.19.19 0 0 0 .19-.19V16.145l7.978 15.005a.192.192 0 0 0 .259.08l.619-.33v.92c0 .105.085.19.19.19h3.558a.19.19 0 0 0 .19-.19V14.33a.19.19 0 0 0-.19-.19ZM75.872 17.888v-3.557a.19.19 0 0 0-.19-.191H61.778a.19.19 0 0 0-.19.19v3.558c0 .106.084.19.19.19h9.163l-7.978 7.979a.193.193 0 0 0 0 .27l1.746 1.745h-2.931a.19.19 0 0 0-.19.191v3.558c0 .105.084.19.19.19H75.68a.19.19 0 0 0 .19-.19v-3.558a.19.19 0 0 0-.19-.19h-9.163l7.978-7.978a.193.193 0 0 0 0-.27l-1.746-1.746h2.931c.104 0 .19-.085.19-.19ZM13.716 31.819c0 .106.084.19.19.19h3.558a.19.19 0 0 0 .19-.19V14.33a.19.19 0 0 0-.19-.191h-3.558a.19.19 0 0 0-.19.19V31.82ZM28.227 29.822l-6.747-6.747 6.738-6.738a.193.193 0 0 0 0-.27l-2.516-2.516a.193.193 0 0 0-.27 0l-7.066 7.066a.193.193 0 0 0 0 .27l2.185 2.186-2.185 2.186a.192.192 0 0 0 0 .27l7.076 7.075a.193.193 0 0 0 .27 0l2.515-2.516a.185.185 0 0 0 0-.266Z" fill="#fff"></path></svg>