<svg fill="none" id="icon-anagram_redesign" viewBox="0 0 466 466" xmlns="http://www.w3.org/2000/svg"><title>anagram_redesign</title><path d="M57.32 463.577C26.458 456.07 2.94 428.251.526 396.347c-2.308-30.34 11.64-58.212 37.888-75.742 11.825-7.904 30.78-14.718 40.936-14.718 3.395 0 6.177-.452 6.177-.982 0-1.778-7.343-15.409-8.271-15.409-.503 0-9.2 2.467-19.302 5.463-22.537 6.709-34.998 7.081-43.403 1.352-9.412-6.391-13.23-12.862-14-23.603-.902-12.677 4.429-22.197 15.856-28.324 15.669-8.407 39.106-2.121 58.62 15.752l10.395 9.52 50.587-14.162c57.613-16.123 65.408-17.052 75.881-9.068 8.51 6.496 12.646 14.639 12.646 24.849s-4.136 18.378-11.666 23.735l-5.62 4.004-6.231-6.047c-3.42-3.316-6.23-6.525-6.23-7.107 0-.582 2.438-1.99 5.435-3.129 10.659-4.032 10.684-17.955 0-23.921-4.161-2.333-8.802-1.379-54.405 11.272-27.414 7.612-50.136 14.108-50.482 14.454-.346.346 1.882 5.278 4.959 10.954 4.666 8.62 6.389 10.317 10.499 10.317 8.907 0 31.788 7.399 46.636 15.063 21.025 10.874 42.898 33.043 53.344 54.101 8.882 17.875 12.646 31.347 14.292 51.131 1.033 12.252.664 15.144-2.836 22.356-5.754 11.908-14.184 16.655-29.245 16.496-21.343-.239-36.534-10.077-52.046-33.761-11.374-17.345-17.287-31.348-44.754-105.815-2.095-5.701-5.039-6.127-20.046-2.97-23.542 4.96-42.977 19.466-52.815 39.463-5.328 10.82-5.966 13.79-5.966 27.634 0 12.41.823 17.185 4.11 23.841 6.682 13.526 15.907 22.861 29.137 29.357 10.525 5.199 14 5.994 25.85 5.94 10.553-.026 15.43-.954 21.263-4.057 7.238-3.845 7.954-3.899 16.943-1.221 5.223 1.539 9.094 3.685 8.697 4.827-1.22 3.659-21.396 13.631-31.842 15.726-12.646 2.678-22.404 2.547-34.201-.344l.002.003zm146.643-19.174c6.231-6.232 6.708-12.279 2.572-32.009-3.261-15.488-12.54-34.715-23.358-48.4-14.794-18.696-42.395-35.882-62.81-39.17l-7.133-1.141 11.72 31.612c22.325 60.254 37.252 84.572 56.129 91.494 11.399 4.19 16.888 3.606 22.88-2.388v.002zM49.02 280.243c7.581-2.095 14.45-4.455 15.245-5.224 2.572-2.414-11.958-12.783-22.007-15.727-11.215-3.288-19.276-2.069-23.173 3.475-3.764 5.383-3.42 10.82 1.034 16.496 4.72 5.968 10.26 6.153 28.898.982l.003-.002zm211.787 183.97c-8.166-2.493-16.492-11.51-18.958-20.5-4.454-16.336 3.818-53.306 16.889-75.608 9.492-16.204 32.637-38.083 49.739-47.046 14.689-7.691 37.649-15.142 46.662-15.142 4.056 0 5.912-1.777 10.684-10.13 3.182-5.57 5.407-10.502 4.958-10.954-.448-.451-23.278-7.055-50.692-14.664-45.495-12.624-50.241-13.606-54.379-11.298-10.367 5.835-10.233 20.076.238 24.028 2.864 1.088 5.197 2.439 5.197 3.024s-2.784 3.765-6.177 7.055c-6.045 5.861-6.284 5.914-10.896 2.891-7.821-5.119-12.064-13.844-12.038-24.77 0-11.564 4.348-19.917 13.176-25.274 11.851-7.24 14.635-6.896 72.089 9.043l53.98 14.983 9.253-8.99c11.692-11.376 25.771-18.324 39.875-19.678 9.174-.875 12.223-.372 19.089 3.183 15.325 7.904 21.291 28.27 12.248 41.688-10.579 15.726-23.704 17.927-53.343 8.989-9.915-2.995-18.507-5.437-19.064-5.463-1.087-.025-8.987 13.367-8.987 15.25 0 .61 2.785 1.113 6.177 1.113 9.836 0 28.635 6.63 40.432 14.241 13.999 9.069 23.278 19.838 31.206 36.334 11.771 24.505 9.835 54.365-4.984 75.9-11.056 16.071-28.317 27.714-46.983 31.666-13.017 2.757-21.209 2.572-34.096-.769-10.366-2.678-29.96-12.916-29.96-15.647 0-.716 4.216-2.547 9.387-4.057 8.961-2.627 9.73-2.573 16.835 1.192 5.7 3.024 10.659 3.952 21.13 3.978 11.851.026 15.325-.769 25.85-5.94 14.689-7.24 25.268-18.591 30.65-32.884 11.189-29.783-5.408-66.06-37.065-81.02-10.738-5.091-30.224-9.573-34.44-7.955-1.564.61-5.886 9.122-9.65 18.963-28.555 74.946-37.093 92.635-52.098 107.805-13.602 13.71-36.827 21.084-51.939 16.47l.005-.007zm23.543-17.345c11.427-3.898 24.629-18.273 34.28-37.367 4.241-8.407 13.602-30.868 20.786-49.885 14.82-39.249 14.954-38.4-4.771-31.796-38.019 12.728-66.841 45.694-75.166 85.977-4.136 20.076-3.818 24.372 2.439 30.63 6.045 6.019 10.499 6.496 22.429 2.439l.003.002zM445.311 280.11c7.741-7.266 3.923-20.102-6.681-22.436-7.903-1.749-23.412 3.501-31.868 10.741-8.141 6.975-8.644 6.391 10.022 11.882 16.041 4.747 23.332 4.693 28.53-.185l-.003-.002zM22.772 223.674c-18.427-4.136-28.66-27.369-19.01-43.201 10.818-17.742 23.994-19.36 61.644-7.584 12.594 3.924 12.143 4.083 17.42-5.701 3.553-6.576 3.446-6.922-2.334-6.948-23.809-.105-57.533-21.666-70.022-44.791C-19.224 60.391 19.141-3.097 80.015.429c13.866.796 31.232 7.107 40.963 14.852 3.102 2.493 3.261 3.157.953 4.668-6.176 4.083-16.066 4.111-27.2.054-27.415-9.997-58.967 3.421-72.408 30.788-4.323 8.78-5.038 12.518-5.038 25.752 0 13.234.795 17.158 4.905 25.911 5.859 12.49 18.85 25.882 31.921 32.884 9.572 5.119 33.725 11.297 37.914 9.679 1.246-.477 5.648-9.733 9.81-20.553 29.006-75.768 36.642-91.44 51.859-106.664C164.778 6.715 175.939 1.57 190.867.642c10.153-.636 13.255-.08 19.381 3.447 8.748 5.04 15.484 17.132 15.458 27.768-.026 20.05-7.902 48.107-18.507 66.168-7.82 13.313-30.542 35.961-44.011 43.891-12.832 7.558-35.077 15.621-47.99 17.37-9.199 1.247-9.704 1.644-15.22 11.244-3.127 5.462-5.407 10.21-5.037 10.528.343.318 23.093 6.788 50.533 14.426 54.644 15.17 56.42 15.303 61.669 4.349 3.077-6.391-.105-13.869-7.371-17.37-6.257-2.996-6.231-3.978.292-10.21 6.284-6.019 10.525-5.329 17.34 2.757 12.407 14.773 8.379 37.739-8.141 46.277-9.704 5.011-21.529 3.236-72.381-10.954-26.911-7.504-50.27-13.657-51.887-13.657-1.618 0-3.843 1.67-4.93 3.714-3.182 5.94-22.484 19.173-31.153 21.348-12.807 3.262-18.427 3.66-26.142 1.936h.002zm18.453-16.972c9.04-2.678 24.286-12.252 24.286-15.25 0-.849-8.192-3.739-18.189-6.445-19.117-5.144-23.093-4.801-28.634 2.388-5.09 6.604-.636 17.345 8.59 20.712 4.081 1.539 4.11 1.511 13.945-1.405h.002zm94.467-70.305c20.999-7.85 44.86-27.926 56.977-47.895 9.438-15.567 15.138-34.343 15.458-50.813.239-12.942-.133-14.585-4.03-17.742-5.992-4.88-15.935-4.404-27.389 1.326-17.26 8.591-29.96 30.55-51.833 89.557l-11.72 31.586 6.523-1.22c3.553-.69 10.791-2.837 16.014-4.801v.002zm290.053 87.49c-11.666-1.831-25.268-9.202-34.998-18.909-4.561-4.562-9.279-8.273-10.525-8.273-1.246 0-24.26 6.152-51.17 13.656-53.238 14.852-63.604 16.258-73.812 10.026-17.87-10.9-17.87-40.868-.025-50.893 4.64-2.598 5.169-2.467 10.42 2.572 6.787 6.525 6.84 7.453.556 10.477-7.264 3.475-10.446 10.979-7.371 17.37 5.248 10.954 7.025 10.82 61.697-4.296 27.442-7.584 50.162-14.082 50.508-14.4.343-.318-1.698-4.907-4.562-10.156l-5.197-9.574-14.581-3.103c-45.47-9.708-79.035-36.783-96.242-77.678-5.833-13.896-10.923-42.353-9.466-53.04 3.077-22.464 22.166-32.435 47.644-24.849 26.247 7.797 42.262 31.984 69.015 104.225 6.761 18.245 13.283 34.556 14.501 36.225 1.99 2.732 3.475 2.811 14.292.77 36.216-6.843 60.661-31.93 62.677-64.286 1.033-16.788-3.713-30.206-15.192-42.988-16.386-18.22-40.539-24.531-63.233-16.522-10.712 3.765-12.566 3.952-20.204 1.803-4.641-1.3-8.113-3.262-7.769-4.375.344-1.113 6.895-5.224 14.556-9.15 18.189-9.31 35.978-10.9 55.572-4.933 44.621 13.552 66.017 64.445 44.967 107.008-8.167 16.521-21.317 30.181-37.145 38.613-12.143 6.471-26.832 11.085-35.237 11.139-6.045.025-6.097.502-1.061 8.909 2.174 3.634 4.056 6.763 4.161 6.948.106.213 8.379-2.07 18.348-5.065 22.509-6.763 36.191-7.374 44.808-2.042 13.415 8.302 18.056 26.811 10.233 40.735-6.866 12.066-18.878 16.76-36.165 14.056zm16.571-17.237c9.597-4.96 9.492-18.696-.184-23.682-5.197-2.677-6.628-2.546-23.622 2.175-9.969 2.757-18.11 5.57-18.11 6.258 0 2.626 14.105 11.774 22.748 14.772 11.241 3.898 12.515 3.924 19.168.477zm-91.257-69.589c-1.061-2.757-6.469-17.291-12.01-32.302-12.407-33.522-23.65-57.204-32.77-69.084-12.435-16.203-34.652-24.08-43.852-15.513-5.62 5.224-6.602 11.218-4.215 25.618 4.428 26.785 15.43 47.603 35.209 66.54 13.363 12.782 25.055 20.022 41.439 25.618s18.637 5.463 16.199-.875v-.002z" fill="#000"></path></svg>