<svg viewBox="0 0 52 20" fill="none" xmlns="http://www.w3.org/2000/svg">
<g clip-path="url(#clip0_283_14071)">
<path d="M49.51 14.3C49.18 14.39 48.89 14.56 48.54 14.6C48.54 14.6 47.97 14.41 47.82 14.23L46.98 14.13C45.2 13.44 43.47 12.51 41.84 11.49C41.75 11.44 41.64 11.46 41.59 11.47C40.07 12.13 37.95 12.04 36.58 11.16C36.46 10.55 36.3 9.96996 36.05 9.43996C35.79 8.87996 35.38 8.40996 35.01 7.92996H35C35.83 7.23996 36.84 7.07996 38.38 7.75996C39.84 8.39996 41.12 8.56996 41.95 8.27996C42.4 8.11996 43.13 6.97996 43.25 6.64996C42.17 7.02996 41.45 6.67996 39.89 6.12996C37.27 5.19996 35.77 6.24996 34.38 7.41996C33.65 6.87996 32.84 6.54996 31.97 6.38996C30.69 6.14996 29.52 6.49996 28.39 6.81996C27.54 7.02996 26.55 7.18996 25.71 7.18996C24.39 8.38996 23.57 9.11996 22.95 9.70996C21.84 10.77 21.1 11.62 20.96 13.22C23.31 13.78 25.33 14.13 28.19 13.61C28.65 13.53 29.66 13.23 30.1 13C30.48 13.37 30.65 13.45 31.14 13.65C31.66 13.87 32.1 14.01 32.61 14.11C35.09 14.56 37.9 14.41 40.2 13.7C41.78 14.92 43.29 16.41 44.84 17.72C45.06 17.77 45.33 17.66 45.55 17.72C45.84 18.06 46.16 18.37 46.49 18.69C47.06 18.88 47.7 18.95 48.32 19.02L48.36 18.98C48.46 18.16 47.7 17.41 47.02 16.85C46.68 16.89 46.36 16.98 45.98 16.95C45.87 16.97 45.48 16.63 45.39 16.41C45.15 16.32 44.88 16.3 44.65 16.18C43.67 15.31 42.67 14.31 41.69 13.41C41.85 13.3 42.02 13.21 42.2 13.17C43.95 14.06 45.84 14.7 47.6 15.61C47.8 15.61 48.02 15.46 48.26 15.46C48.68 15.75 49.02 16.07 49.5 16.23C50.1 16.26 50.7 16.22 51.27 16.14V16.12C51.34 15.48 50.27 14.7 49.53 14.3M3.98001 7.18996C4.82001 7.08996 5.59001 7.02996 6.43001 6.94996C6.96001 6.78996 7.33001 6.44996 7.74001 5.93996L7.85001 5.86996C9.39001 5.88996 10.78 6.39996 11.82 7.38996C12.08 7.56996 12.36 7.90996 12.57 8.11996C9.79001 8.47996 5.36001 7.54996 3.98001 7.19996M4.53001 4.80996C4.67001 4.80996 4.79001 4.88996 4.79001 4.99996C4.79001 5.10996 4.68001 5.20996 4.54001 5.20996C4.40001 5.20996 4.28001 5.12996 4.28001 5.01996C4.28001 4.90996 4.38001 4.81996 4.52001 4.80996M24.79 7.49996C25.71 6.73996 26.41 5.73996 26.44 4.52996C26.47 3.56996 26.12 2.43996 24.96 1.91996C24.59 1.74996 23.99 1.67996 23.38 1.72996C22.35 1.80996 21.41 1.93996 20.4 2.01996C20.38 2.01996 20.36 2.00996 20.35 1.99996C20.44 1.73996 20.47 1.49996 20.47 1.27996C20.47 0.439961 19.9 0.0399606 19.26 0.0199606C18.37 -3.93583e-05 17.69 0.679961 17.49 1.77996L16.55 2.02996L16.65 2.17996L17.61 2.44996C17.64 2.66996 17.81 3.16996 17.99 3.48996C18.05 3.56996 18.22 3.77996 18.57 3.74996H18.58C18.79 3.73996 19.05 3.69996 19.29 3.66996C19.52 3.63996 19.8 3.60996 19.91 3.63996C19.95 3.64996 19.98 3.67996 20 3.70996C20 3.70996 20 3.70996 20 3.71996C20.01 3.71996 20.02 3.73996 20.02 3.74996V3.75996C19.83 3.99996 19.59 4.29996 19.28 4.62996C19.03 4.89996 18.76 5.14996 18.5 5.38996C17.18 4.69996 16.28 4.24996 15.28 3.91996C13.06 3.24996 10.51 3.11996 8.04001 3.44996C8.13001 3.13996 8.19001 2.51996 8.07001 2.28996C7.91001 2.39996 7.55001 2.85996 7.41001 2.98996C7.26001 3.13996 7.08001 3.34996 6.86001 3.40996C6.88001 3.12996 6.91001 2.59996 6.76001 2.42996C6.38001 2.95996 5.83001 3.59996 5.32001 3.97996C4.85001 4.05996 4.52001 4.16996 4.06001 4.36996C3.93001 4.42996 3.84001 4.56996 3.71001 4.65996C2.62001 5.39996 2.41001 5.44996 1.77001 5.81996C1.39001 6.00996 0.99001 6.22996 0.59001 6.36996C0.49001 6.67996 0.52001 7.21996 0.59001 7.55996L0.66001 7.62996C1.09001 7.57996 1.39001 7.43996 1.90001 7.36996L1.92001 7.40996C1.76001 7.58996 1.53001 7.71996 1.42001 7.91996C1.53001 8.01996 2.17001 8.07996 2.56001 8.01996C2.84001 7.77996 3.09001 7.51996 3.30001 7.27996C3.60001 7.39996 3.66001 7.41996 3.65001 7.42996C3.69001 7.43996 3.79001 7.46996 3.94001 7.51996C6.89001 8.44996 11.76 9.25996 15.09 8.45996C16.04 8.22996 16.95 7.80996 17.79 7.41996C19.45 6.54996 20.84 5.63996 22.06 4.24996L22.16 4.26996C22.5 4.34996 22.98 4.39996 23.27 4.59996C23.56 4.86996 23.35 5.42996 23.25 5.77996C23.1 6.16996 22.9 6.52996 22.67 6.85996C21.12 6.56996 20.86 6.45996 20.27 6.29996C18.43 7.90996 15.98 8.71996 14.77 8.99996C14.28 9.11996 13.8 9.21996 13.28 9.24996C13.4 9.62996 13.59 10.23 13.66 10.65C11.31 11.13 7.79001 11.25 7.79001 11.25C7.76001 11.25 7.73001 11.27 7.70001 11.27C6.10001 12.05 4.55001 12.92 2.93001 13.7L2.51001 13.81C2.20001 13.85 2.30001 14.25 2.15001 14.47L1.09001 15C0.69001 15.44 0.30001 15.88 0.0100098 16.37L0.0400098 16.41C0.41001 16.66 1.56001 16.31 2.24001 16.05C2.38001 15.69 2.56001 15.36 2.76001 15.05C2.79001 14.94 3.51001 14.97 3.93001 14.84C5.17001 14.01 6.46001 13.15 7.75001 12.41C8.48001 12.41 9.92001 12.34 10.59 12.41C10.08 12.6 8.86001 12.72 8.26001 12.82C8.19001 12.84 8.14001 12.88 8.10001 12.9L4.81001 16.01C4.63001 16.05 4.48001 16.15 4.31001 16.22C4.21001 16.42 4.23001 16.66 4.13001 16.86L3.13001 17.45L2.53001 18.31C2.39001 18.51 2.19001 18.73 2.21001 18.95C2.93001 19.21 3.69001 18.7 4.36001 18.42C4.50001 18.09 4.64001 17.71 4.81001 17.38C4.79001 17.29 5.78001 17.08 5.78001 17.08C6.30001 16.67 7.19001 15.56 8.45001 14.2L17.48 14.03C17.66 14.02 17.9 13.97 18.11 13.86C18.53 13.56 19.02 13.27 19.46 12.97C19.57 13.05 20.3 13.15 20.44 13.15C20.6 11.94 21.02 11.22 21.73 10.45C22.8 9.45996 23.69 8.43996 24.83 7.51996" fill="#111111"></path>
</g>
<defs>
<clipPath id="clip0_283_14071">
<rect width="51.26" height="19.03" fill="white"></rect>
</clipPath>
</defs>
</svg>
