<svg viewBox="0 0 38 34" fill="none" xmlns="http://www.w3.org/2000/svg">
<g clip-path="url(#clip0_561_5456)">
<path d="M21.4599 7.74343L23.3119 6.56443L25.0789 7.74343L24.4899 5.72343L26.0899 4.46043H24.0699L23.2279 2.44043L22.4699 4.46043H20.4499L22.0499 5.72343L21.4599 7.74343ZM12.2869 17.7574L14.1379 16.5794L15.9059 17.7574L15.3159 15.7374L16.9159 14.4754H14.8959L14.0539 12.4554L13.2969 14.4754H11.2769L12.8769 15.7384L12.2869 17.7574Z" fill="#9D5248"></path>
<path d="M29.3711 0H7.99512V0.42C7.99512 0.42 8.16312 0.59 8.24812 0.59C8.47505 0.70087 8.67078 0.866541 8.81761 1.07204C8.96445 1.27754 9.05776 1.51639 9.08912 1.767V17.842C9.07555 18.1808 9.10376 18.5201 9.17312 18.852C9.31998 19.5278 9.70913 20.1265 10.2671 20.535C10.7721 20.927 11.3961 21.135 12.0351 21.124H17.3371C17.6153 21.1348 17.8858 21.2181 18.1219 21.3656C18.358 21.5131 18.5515 21.7197 18.6831 21.965L18.7671 22.134L18.8521 22.049C18.9663 21.8075 19.1442 21.6016 19.3665 21.4535C19.5888 21.3053 19.8472 21.2205 20.1141 21.208H25.4161C26.0553 21.2192 26.6789 21.0109 27.1831 20.618C27.4654 20.441 27.7081 20.2077 27.8963 19.9328C28.0845 19.6579 28.2142 19.3472 28.2771 19.02C28.3471 18.688 28.3751 18.349 28.3611 18.01V2.02C28.3942 1.78017 28.4893 1.55312 28.6369 1.36127C28.7846 1.16941 28.9798 1.01938 29.2031 0.926C29.2871 0.926 29.4561 0.673 29.4561 0.673L29.3711 0ZM10.5201 3.871C10.4361 3.703 10.6041 3.535 10.7721 3.451C10.891 3.46343 11.0104 3.43331 11.1091 3.366C11.0251 3.114 11.0251 2.777 11.2771 2.693H11.5301C11.4988 2.62293 11.4901 2.54486 11.5052 2.46961C11.5202 2.39436 11.5583 2.32565 11.6141 2.273C11.7821 2.188 12.1191 2.188 12.1191 1.851C12.2031 1.767 12.2871 1.683 12.3711 1.683C12.6241 1.599 12.8761 1.936 12.8761 1.515C13.1291 1.095 13.7181 1.515 14.0551 1.347C14.3071 1.431 14.3071 1.683 14.4751 1.851C14.5668 1.74431 14.6858 1.66452 14.8193 1.62014C14.9528 1.57575 15.0958 1.56845 15.2331 1.599C15.4011 1.683 15.5691 1.683 15.6531 1.936C15.6531 2.02 15.6531 2.02 15.7381 2.104C15.9061 2.02 15.9901 1.936 16.1581 2.02C16.2706 2.0683 16.3643 2.15189 16.4251 2.25815C16.4859 2.3644 16.5105 2.48755 16.4951 2.609C16.6631 2.609 16.7481 2.525 16.9151 2.693C16.8321 2.693 16.5791 2.861 16.8321 2.946C16.9161 2.946 16.9161 3.114 16.9161 3.114C17.0001 3.198 17.1681 3.198 17.1681 3.366C17.2531 3.619 17.0001 3.787 17.1681 4.04C17.1681 4.124 17.0841 4.208 17.1681 4.292C17.2531 4.292 17.3371 4.376 17.5051 4.376C17.5815 4.50217 17.6113 4.65116 17.5891 4.797C17.6731 5.134 17.0001 5.05 17.3371 5.387C17.3371 5.554 17.2531 5.639 17.0841 5.723C17.0001 5.807 16.9161 5.639 16.8321 5.723C16.8475 5.84445 16.8229 5.9676 16.7621 6.07385C16.7013 6.18011 16.6076 6.2637 16.4951 6.312C16.3271 6.312 16.0751 6.396 15.9061 6.312L15.6531 5.975C15.5681 6.06347 15.4599 6.12623 15.3409 6.15611C15.2219 6.186 15.0969 6.1818 14.9801 6.144C14.5601 5.975 14.9801 5.386 14.5601 5.218C14.2231 5.134 13.8861 5.47 13.7181 5.723H13.6341C13.377 5.32014 13.1516 4.89786 12.9601 4.46C12.8761 4.46 12.8761 4.46 12.8761 4.545C13.0151 5.032 13.2431 5.488 13.5501 5.891C13.6341 5.975 13.6341 6.059 13.8021 5.975C13.8701 5.83743 13.9645 5.7146 14.08 5.61353C14.1955 5.51247 14.3297 5.43515 14.4751 5.386C14.5451 5.574 14.5731 5.776 14.5601 5.976C14.4247 6.13769 14.3248 6.32599 14.2667 6.52874C14.2087 6.73148 14.1938 6.94415 14.2231 7.153V7.995C14.1913 8.69292 14.3357 9.38762 14.6431 10.015C14.3911 10.183 14.0551 10.015 13.8861 9.931C13.6341 9.931 13.5501 10.099 13.2971 10.099C13.2131 10.015 13.1291 10.099 13.0451 10.015C13.6341 9.51 13.3811 8.668 13.4651 7.911C13.3957 7.66466 13.3673 7.40856 13.3811 7.153C13.4223 6.91142 13.4057 6.66353 13.3327 6.42959C13.2597 6.19565 13.1324 5.98231 12.9611 5.807C12.7706 5.46367 12.6289 5.09546 12.5401 4.713C12.5401 4.629 12.4561 4.629 12.3711 4.629C12.2871 4.713 12.2871 4.965 12.1191 5.049C11.8661 5.218 11.6991 4.713 11.4461 5.049C11.3611 5.049 11.1931 4.965 11.1931 4.881C11.1931 4.85872 11.1843 4.83736 11.1685 4.8216C11.1528 4.80585 11.1314 4.797 11.1091 4.797C11.0251 4.797 11.0251 4.797 11.0251 4.881C11.0235 4.96774 11.0462 5.05319 11.0908 5.12763C11.1353 5.20206 11.1999 5.26248 11.2771 5.302H11.6141C11.6981 5.05 11.8661 5.302 11.9511 5.302H12.4561C12.5961 5.737 12.8261 6.138 13.1291 6.48C13.1291 6.564 13.1291 6.733 13.0451 6.733C12.7921 6.48 12.7921 6.901 12.6241 6.901C12.4561 6.901 12.3711 6.901 12.2871 6.817L12.1191 6.564C11.9511 6.564 11.7821 6.649 11.6991 6.48V6.228C11.553 6.25039 11.4036 6.22066 11.2771 6.144C11.1091 6.059 11.2771 5.639 10.9411 5.639C10.8503 5.58598 10.7727 5.51294 10.7143 5.42543C10.6559 5.33792 10.6182 5.23825 10.6041 5.134C10.6041 4.965 10.6881 4.713 10.4361 4.629C10.3817 4.57863 10.3398 4.51618 10.3138 4.44667C10.2879 4.37716 10.2787 4.30254 10.2868 4.2288C10.295 4.15507 10.3204 4.08428 10.3609 4.02214C10.4014 3.95999 10.4559 3.90822 10.5201 3.871ZM18.8521 21.124C18.0101 20.619 17.6731 20.282 16.9161 20.366H11.5301C11.1291 20.2894 10.7551 20.1094 10.445 19.8438C10.1349 19.5783 9.89953 19.2364 9.76212 18.852L9.67812 18.767L9.59412 18.178V10.941H18.8521V21.124ZM19.2721 16.579C19.3161 16.179 19.4011 15.784 19.5251 15.401C19.5451 15.259 19.5731 15.119 19.6091 14.981C19.4653 14.7561 19.4058 14.4876 19.4411 14.223C19.4451 14.0416 19.5036 13.8656 19.6091 13.718C19.6871 13.478 19.8001 13.251 19.9461 13.045C20.1981 12.54 20.2821 12.119 20.5351 11.614C20.7031 11.361 21.2081 11.445 21.4601 11.53C21.5451 11.53 21.6291 11.698 21.6291 11.698C21.7971 11.698 21.8811 11.95 21.8811 12.203C21.9161 12.494 21.8571 12.789 21.7131 13.045V13.465C21.5451 13.465 21.2931 13.465 21.2081 13.213C21.0401 13.129 20.7881 13.213 20.6181 13.045C19.9461 13.045 19.8621 13.634 19.6931 14.139C19.6931 14.223 19.6091 14.307 19.6091 14.391C19.5251 14.475 19.6091 14.644 19.6091 14.728C19.8611 14.812 19.6931 15.148 19.6931 15.317C19.6091 15.822 19.6091 16.327 19.2731 16.579C19.3571 16.579 19.2731 16.747 19.2731 16.579H19.2721ZM22.2181 14.644C22.1723 14.6495 22.1258 14.6447 22.082 14.63C22.0383 14.6153 21.9983 14.5911 21.9651 14.559C22.0501 14.475 21.9651 14.307 21.9651 14.223C21.9651 14.139 21.9651 14.139 22.0501 14.139C22.0501 13.97 22.0501 13.718 22.3861 13.802C22.4279 13.8641 22.4502 13.9372 22.4502 14.012C22.4502 14.0868 22.4279 14.1599 22.3861 14.222C22.3021 14.392 22.3021 14.559 22.2181 14.644ZM22.1341 15.401H22.0501C22.0379 15.2964 22.0465 15.1905 22.0753 15.0893C22.1041 14.988 22.1527 14.8935 22.2181 14.811C22.2489 14.9094 22.2573 15.0134 22.2428 15.1155C22.2282 15.2176 22.1911 15.3151 22.1341 15.401ZM21.8811 15.149C21.8811 15.233 21.7971 15.317 21.7971 15.401C21.7971 15.485 21.7971 15.485 21.7131 15.569H21.6291V15.485C21.6291 15.233 21.6291 14.98 21.7971 14.896C21.9651 14.812 21.8811 15.064 21.8811 15.148V15.149ZM20.1981 14.559C20.1141 14.475 20.1981 14.391 20.1981 14.223V14.055L20.4511 13.465C20.5351 13.381 20.6191 13.297 20.7031 13.381C20.7871 13.465 20.7031 13.549 20.7031 13.718L20.5351 14.307L20.4511 14.559C20.3661 14.559 20.1981 14.644 20.1981 14.559ZM20.2821 15.233V15.401C20.2602 15.7353 20.1436 16.0564 19.9461 16.327H19.8611C19.8767 16.0123 19.9335 15.7009 20.0301 15.401C20.1141 15.233 20.1141 15.064 20.1981 14.896C20.1981 14.812 20.2821 14.896 20.3661 14.896C20.3661 14.98 20.2821 15.148 20.2821 15.233ZM20.3661 15.822L20.4511 15.485L20.5351 14.98C20.5683 14.9482 20.6081 14.9242 20.6517 14.9096C20.6952 14.8951 20.7415 14.8905 20.7871 14.896C20.7871 15.064 20.7031 15.233 20.7031 15.401C20.6086 15.5846 20.5515 15.7852 20.5351 15.991C20.4511 15.991 20.4511 16.074 20.3661 15.991V15.822ZM20.7871 14.559V14.223C20.8031 13.963 20.8601 13.707 20.9561 13.465C21.0018 13.4597 21.0481 13.4645 21.0917 13.4792C21.1352 13.4939 21.175 13.5181 21.2081 13.55C21.2081 13.802 21.1241 13.97 21.1241 14.223C21.1241 14.391 21.0401 14.475 21.0401 14.559C20.8711 14.644 20.7871 14.644 20.7871 14.559ZM21.0401 15.401C21.1331 15.248 21.1901 15.075 21.2081 14.896L21.2921 14.812C21.3761 14.812 21.4601 14.812 21.4601 14.896C21.4601 15.064 21.3761 15.233 21.3761 15.401C21.3728 15.5567 21.3131 15.706 21.2081 15.821H21.1241C20.9561 15.738 20.9561 15.569 21.0401 15.401ZM21.3761 14.559V13.97L21.4601 13.718C21.5788 13.7053 21.6982 13.735 21.7971 13.802C21.819 13.9475 21.7893 14.0961 21.7131 14.222C21.7131 14.307 21.6291 14.475 21.6291 14.559C21.6144 14.5787 21.5953 14.5946 21.5734 14.6056C21.5514 14.6166 21.5272 14.6223 21.5026 14.6223C21.4781 14.6223 21.4538 14.6166 21.4319 14.6056C21.4099 14.5946 21.3908 14.5787 21.3761 14.559ZM21.3761 17.337C21.2644 17.5987 21.0912 17.8296 20.8711 18.01H20.7871C20.8771 17.757 21.0201 17.528 21.2081 17.337C21.2921 17.253 21.3761 17.253 21.3761 17.337ZM21.7131 17.589C21.7103 17.6326 21.6917 17.6737 21.6608 17.7047C21.6299 17.7356 21.5887 17.7542 21.5451 17.757H21.4601C21.4529 17.6786 21.4644 17.5996 21.4938 17.5265C21.5232 17.4535 21.5696 17.3885 21.6291 17.337L21.7131 17.253C21.7131 17.253 21.7971 17.337 21.7131 17.337C21.7971 17.421 21.7131 17.505 21.7131 17.589ZM21.7971 17C21.7131 17 21.6291 17.084 21.5451 17C21.5451 16.747 21.7971 16.58 21.9651 16.41C22.1341 16.41 22.3021 16.243 22.3861 16.41H22.4701C22.4701 16.327 22.3861 16.243 22.3021 16.158C22.0837 16.1499 21.8672 16.2003 21.6748 16.3041C21.4825 16.4078 21.3213 16.5611 21.2081 16.748L21.0401 17.337L20.1981 18.515C20.1141 18.767 20.4511 18.683 20.5351 18.852C20.4183 18.8139 20.2932 18.8094 20.174 18.8391C20.0548 18.8688 19.9463 18.9315 19.8611 19.02C19.7771 18.936 19.7771 18.683 19.6091 18.683C19.6931 18.599 19.8611 18.683 19.9461 18.599C20.2821 18.179 20.5351 17.757 20.8711 17.337C21.1311 16.93 21.4131 16.537 21.7131 16.158C21.8047 16.0515 21.9235 15.9718 22.0568 15.9274C22.1901 15.883 22.3329 15.8756 22.4701 15.906C22.6391 15.906 22.7231 16.074 22.8071 16.158C22.8653 16.3551 22.8804 16.5624 22.8514 16.7658C22.8224 16.9692 22.75 17.164 22.6391 17.337C22.6391 17.421 22.5551 17.421 22.5551 17.505V17.168C22.4701 17 22.3861 17 22.2181 17.084C22.0501 17.084 21.9641 17 21.7971 17ZM22.8911 12.455C23.0601 12.371 23.2281 12.455 23.3961 12.371C23.5561 12.44 23.7281 12.469 23.9011 12.455C23.9011 12.624 23.5641 12.54 23.5641 12.792V13.297C23.5532 13.2858 23.5402 13.2768 23.5257 13.2707C23.5113 13.2646 23.4958 13.2614 23.4801 13.2614C23.4644 13.2614 23.4489 13.2646 23.4345 13.2707C23.4201 13.2768 23.407 13.2858 23.3961 13.297C23.3121 13.297 23.3961 13.381 23.3121 13.381C23.2281 13.381 23.1441 13.213 23.0591 13.297C23.0591 13.297 22.9751 13.381 22.9751 13.297V13.045C22.8911 12.876 22.6391 12.876 22.4701 12.876C22.6391 12.708 22.8071 12.624 22.8911 12.456V12.455ZM22.7231 11.614C22.8071 11.614 22.8071 11.53 22.7231 11.614C22.7396 11.597 22.7608 11.5853 22.784 11.5805C22.8071 11.5757 22.8312 11.5779 22.8531 11.587C22.8674 11.5934 22.8804 11.6026 22.8911 11.614H23.0601C23.1441 11.53 23.0601 11.194 23.3121 11.277C23.3961 11.361 23.3121 11.614 23.4801 11.614H23.5641C23.6491 11.614 23.8171 11.445 23.9011 11.614C23.9011 11.698 23.8171 11.782 23.7331 11.95C23.4259 11.9079 23.1143 11.9079 22.8071 11.95C22.8071 11.866 22.7231 11.698 22.7231 11.614ZM22.1331 17.337C22.1331 17.253 22.2181 17.253 22.3021 17.253V17.337C22.3021 17.421 22.2181 17.505 22.2181 17.589C22.2018 17.6063 22.1806 17.6181 22.1574 17.6229C22.1341 17.6278 22.1099 17.6253 22.0881 17.616C22.0738 17.6096 22.0608 17.6005 22.0501 17.589C22.0444 17.5434 22.049 17.4971 22.0636 17.4535C22.0781 17.4099 22.1022 17.3701 22.1341 17.337H22.1331ZM24.7431 18.683C24.7431 18.683 24.3221 18.346 24.0691 18.094C23.9851 18.01 23.9851 18.094 23.9851 18.178C24.1891 18.548 24.4451 18.888 24.7431 19.188L24.8271 19.272C24.7431 19.272 24.6581 19.272 24.6581 19.188C24.4793 19.0931 24.3331 18.9468 24.2381 18.768C24.0691 18.599 24.0691 18.262 23.8171 18.178L23.7331 18.262C23.7751 18.57 23.7751 18.881 23.7331 19.188C23.739 19.2338 23.7344 19.2803 23.7199 19.3241C23.7054 19.3678 23.6812 19.4078 23.6491 19.441C23.5641 19.525 23.4801 19.356 23.3961 19.272V19.188C23.3961 18.852 23.3121 18.515 23.3121 18.262C23.3121 18.178 23.2281 18.262 23.1441 18.262C23.0271 18.622 22.8571 18.962 22.6391 19.272C22.5107 19.3748 22.3691 19.4599 22.2181 19.525C22.2181 19.441 22.3021 19.356 22.3861 19.272C22.5861 18.982 22.7561 18.672 22.8911 18.347C22.8911 18.262 22.8911 18.178 22.8071 18.178C22.6391 18.262 22.5551 18.515 22.3871 18.599C22.3469 18.6502 22.2958 18.6919 22.2375 18.721C22.1793 18.75 22.1152 18.7657 22.0501 18.767C22.1341 18.515 22.3021 18.347 22.3861 18.094C22.4937 17.8248 22.6352 17.5704 22.8071 17.337C23.0601 16.916 23.2271 16.495 22.8911 16.074C22.7481 15.8971 22.6346 15.6982 22.5551 15.485C22.471 15.0968 22.471 14.6952 22.5551 14.307C22.5551 14.223 22.6391 14.055 22.6391 13.97C22.7231 13.802 22.8071 13.465 23.1441 13.55C23.2281 13.634 23.3121 13.718 23.3961 13.634C23.3961 13.549 23.4801 13.549 23.5641 13.549C23.6491 13.634 23.6491 13.718 23.7331 13.718C23.7331 13.634 23.6491 13.718 23.7331 13.718C23.9011 13.886 23.8171 14.138 23.8171 14.391C23.8171 14.728 23.9851 15.064 23.9851 15.317C23.9851 15.401 24.0691 15.485 23.9851 15.569C23.9011 15.822 23.8171 16.159 23.7331 16.411C23.7141 16.804 23.8331 17.191 24.0691 17.505C24.0691 17.505 23.9851 17.505 24.0691 17.589L24.7431 18.683ZM24.5741 17.337V17.505C24.5305 17.5022 24.4894 17.4836 24.4585 17.4527C24.4275 17.4217 24.4089 17.3806 24.4061 17.337V17.084C24.5741 17.084 24.5741 17.253 24.5741 17.337ZM24.9951 17.673C24.9067 17.5804 24.8481 17.4633 24.8271 17.337V17.084C24.8383 17.0839 24.8494 17.0861 24.8597 17.0904C24.87 17.0947 24.8793 17.101 24.8871 17.109C24.9026 17.1251 24.9112 17.1466 24.9111 17.169V17.337C24.9951 17.505 25.0791 17.589 24.9951 17.673ZM25.6681 17.926C25.5001 18.01 25.4161 17.757 25.3321 17.673C25.3108 17.5466 25.2519 17.4295 25.1631 17.337C25.1631 17.253 25.1631 17.168 25.2481 17.168L25.4161 17.337C25.4811 17.487 25.5661 17.629 25.6681 17.757V17.926ZM26.5101 18.767C26.4662 18.6691 26.3955 18.5856 26.3061 18.5261C26.2168 18.4666 26.1124 18.4337 26.0051 18.431C26.0891 18.346 26.1731 18.178 26.0891 18.094L25.5841 17.337L25.0791 16.495C24.8271 16.327 24.6591 16.075 24.4061 16.243C24.3221 16.243 24.3221 16.327 24.3221 16.411C24.4061 16.495 24.5741 16.411 24.6591 16.411C24.7571 16.4548 24.8407 16.5255 24.9002 16.6149C24.9596 16.7043 24.9926 16.8087 24.9951 16.916C24.9327 16.8751 24.8597 16.8533 24.7851 16.8533C24.7105 16.8533 24.6375 16.8751 24.5751 16.916C24.4061 16.832 24.2381 17.084 24.1541 16.832C24.1541 16.579 23.9851 16.242 24.1541 16.074C24.3781 15.931 24.6461 15.871 24.9111 15.906C25.0791 15.99 25.1631 16.158 25.3311 16.326L25.9211 17.336L26.4261 18.178C26.5101 18.346 26.7621 18.262 26.8461 18.431C26.6781 18.431 26.5941 18.599 26.5101 18.767ZM26.2571 15.233C26.2571 15.317 26.3421 15.401 26.3421 15.485C26.4471 15.695 26.5041 15.925 26.5101 16.158C26.5101 16.243 26.4261 16.243 26.4261 16.158C26.2647 15.9618 26.1495 15.7318 26.0891 15.485C25.9899 15.2955 25.9056 15.0986 25.8371 14.896C25.8371 14.812 25.8371 14.728 25.9211 14.728C26.0891 14.728 26.1721 14.98 26.2571 15.233ZM26.0051 13.465L26.0891 13.381C26.4261 13.465 26.4261 13.886 26.5941 14.223V14.307C26.5913 14.3506 26.5727 14.3917 26.5418 14.4227C26.5109 14.4536 26.4697 14.4722 26.4261 14.475C26.3421 14.475 26.3421 14.475 26.2581 14.391V14.307C26.2581 13.97 26.0051 13.717 26.0051 13.465ZM25.9211 14.475H25.7531C25.721 14.442 25.6967 14.4023 25.682 14.3586C25.6673 14.315 25.6626 14.2687 25.6681 14.223C25.5841 14.055 25.5841 13.886 25.5001 13.718C25.5001 13.634 25.5001 13.634 25.5841 13.55C25.8371 13.55 25.8371 13.886 26.0051 14.139V14.307C25.999 14.3715 25.9691 14.4314 25.9211 14.475ZM25.7531 15.149C25.7531 15.233 25.8371 15.317 25.8371 15.401C25.8371 15.485 25.9211 15.653 25.9211 15.738C25.7531 15.738 25.7531 15.569 25.6681 15.485V15.401C25.5841 15.149 25.4161 14.981 25.5001 14.811C25.5841 14.896 25.6681 15.064 25.7531 15.149ZM25.3321 14.559C25.0791 14.644 24.9951 14.475 24.9951 14.223C24.9951 14.139 24.9951 13.97 24.9111 13.97C24.9111 13.886 24.9951 13.718 25.0791 13.718C25.4161 13.718 25.3321 14.055 25.4161 14.223C25.4161 14.2453 25.425 14.2666 25.4407 14.2824C25.4565 14.2982 25.4778 14.307 25.5001 14.307C25.5001 14.391 25.5001 14.559 25.3321 14.559ZM25.4161 15.485C25.4161 15.569 25.3321 15.485 25.3321 15.485C25.2386 15.3315 25.1808 15.1589 25.1631 14.98C25.3321 14.98 25.4161 15.233 25.4161 15.485ZM24.9961 15.065C24.9961 15.149 25.0791 15.233 25.0791 15.401C24.9858 15.2475 24.9284 15.0748 24.9111 14.896C24.9111 14.812 24.9951 14.98 24.9951 15.064L24.9961 15.065ZM24.7431 14.728C24.4901 14.728 24.4901 14.475 24.4901 14.223C24.4957 14.1772 24.4911 14.1308 24.4766 14.087C24.4621 14.0433 24.438 14.0033 24.4061 13.97C24.4061 13.886 24.4061 13.886 24.4901 13.802C24.6591 13.718 24.7431 13.886 24.7431 13.97C24.7431 14.055 24.7431 14.139 24.8271 14.139C24.8271 14.391 24.9111 14.644 24.7431 14.728ZM24.4901 14.812C24.6591 14.812 24.6591 14.98 24.7431 15.064C24.7431 15.149 24.8271 15.317 24.7431 15.401V15.485C24.6591 15.569 24.6591 15.485 24.5741 15.401C24.5741 15.317 24.5741 15.317 24.4901 15.317C24.4901 15.149 24.4061 14.98 24.4901 14.812ZM26.8471 16.158C26.7002 15.9225 26.5868 15.6678 26.5101 15.401C26.4261 15.233 26.3421 14.981 26.2571 14.811C26.3421 14.811 26.2571 14.728 26.3421 14.644C26.3857 14.647 26.4267 14.6657 26.4575 14.6966C26.4884 14.7275 26.5071 14.7684 26.5101 14.812C26.6051 14.995 26.6621 15.195 26.6781 15.401C26.7637 15.5051 26.8236 15.6278 26.8529 15.7593C26.8823 15.8908 26.8803 16.0274 26.8471 16.158C26.9311 16.243 26.9311 16.158 26.8471 16.158ZM27.0151 15.401C26.9097 15.2219 26.8518 15.0188 26.8471 14.811C26.7621 14.559 27.0991 14.475 27.0151 14.223C26.9228 13.811 26.7186 13.4325 26.4251 13.129C26.0891 12.96 26.0051 13.381 25.6681 13.297C25.5001 13.634 25.0791 13.381 24.8271 13.634V13.044C24.6587 12.5822 24.6587 12.0758 24.8271 11.614L25.0791 11.445C25.2445 11.3665 25.4301 11.3406 25.6107 11.3708C25.7913 11.401 25.9583 11.4859 26.0891 11.614C26.3641 12.066 26.5891 12.545 26.7621 13.044C26.8471 13.129 26.8471 13.213 26.9311 13.381C27.0641 13.674 27.1501 13.987 27.1831 14.307V14.644C27.0151 14.896 27.2671 15.149 27.3521 15.317V15.485C27.4751 15.811 27.5601 16.15 27.6041 16.495C27.2969 16.2018 27.0913 15.8188 27.0151 15.401ZM28.1091 2.356V10.941H18.8521V0.84H28.1931C27.7731 0.84 28.1091 1.851 28.1091 2.356Z" fill="#9D5248"></path>
<path d="M23.1438 12.7919L23.2278 12.7079C23.2278 12.6239 23.1438 12.6239 23.0588 12.6239C23.0365 12.6239 23.0151 12.6328 22.9994 12.6485C22.9836 12.6643 22.9748 12.6857 22.9748 12.7079C22.9748 12.7919 23.0588 12.7919 23.1438 12.7919ZM15.0648 2.77693C15.0648 2.77693 14.9798 2.69293 14.9798 2.77693C14.9382 2.8232 14.9152 2.88321 14.9152 2.94543C14.9152 3.00765 14.9382 3.06767 14.9798 3.11393C14.9673 2.99508 14.9975 2.87567 15.0648 2.77693ZM15.4848 2.69293C15.5698 2.60893 15.5698 2.52493 15.5698 2.35593C15.5667 2.31222 15.5479 2.27109 15.5168 2.2402C15.4857 2.2093 15.4445 2.19073 15.4008 2.18793C15.3168 2.27193 15.4848 2.44093 15.4008 2.52493C15.3168 2.69293 15.2328 2.69293 15.1488 2.77693C15.2328 2.86093 15.4008 2.69293 15.4848 2.69293ZM16.0738 4.29193C16.3268 4.62893 16.6638 4.12393 16.9998 4.29193C16.9998 4.20793 16.9158 4.20793 16.8318 4.20793C16.6628 4.03993 16.4948 4.29193 16.3268 4.20793C16.2428 4.20793 16.2428 4.12393 16.1578 4.03993C16.0668 4.08293 15.9808 4.13993 15.9058 4.20793C15.8218 4.29193 15.6528 4.29193 15.5688 4.37593C15.7378 4.54493 15.9058 4.37593 16.0738 4.29193ZM11.9498 3.70293C12.1188 3.70293 12.3708 3.78693 12.5398 3.61893C12.7078 3.44993 12.7918 3.78693 13.0448 3.70293C13.3808 3.70293 13.2128 3.28293 13.5498 3.36593C13.6424 3.34976 13.7294 3.3105 13.8028 3.25177C13.8762 3.19304 13.9337 3.11674 13.9698 3.02993C13.8858 2.69293 14.1388 2.60893 14.1388 2.35593C14.1388 2.27193 14.0548 2.10393 13.8858 2.18793V2.27193C13.9698 2.35593 13.8858 2.52493 13.8858 2.60893C13.6338 2.69293 13.8018 2.94593 13.7178 3.11393C13.6338 3.53393 13.1278 3.11393 13.1278 3.44993C13.0448 3.53493 12.9598 3.70293 12.7918 3.61893C12.5398 3.28193 12.4558 3.78693 12.1188 3.61893C12.0348 3.61893 11.9508 3.53493 11.8668 3.44993C11.7818 3.36593 11.8668 3.11393 11.6978 3.19793C11.6138 3.28193 11.6138 3.28193 11.6138 3.36593C11.6978 3.53493 11.7818 3.70293 11.9508 3.70293H11.9498ZM14.4748 4.79693C14.4748 4.37693 14.9798 4.62893 15.1488 4.20693C15.2155 4.10834 15.2453 3.98933 15.2328 3.87093C15.1488 3.61893 15.3168 3.45093 15.3168 3.19793C15.3168 3.11393 15.2328 3.02993 15.0638 3.11393C15.1227 3.2159 15.1521 3.33222 15.1488 3.44993C14.8958 3.70293 15.2328 4.03993 14.9798 4.29193C14.8118 4.45993 14.3908 4.29193 14.3908 4.62893C14.3068 4.71293 14.3068 4.88093 14.1388 4.88093C14.2572 4.89342 14.3762 4.86366 14.4748 4.79693Z" fill="#9D5248"></path>
<path d="M34.757 16.9164C35.1532 16.6933 35.5973 16.5692 36.0517 16.5546C36.5061 16.5399 36.9573 16.6352 37.367 16.8324C37.282 16.3274 37.03 15.6534 36.188 15.6534C36.3151 15.3614 36.3807 15.0463 36.3807 14.7279C36.3807 14.4094 36.3151 14.0943 36.188 13.8024C35.936 14.0554 35.936 14.8124 35.683 14.9804C34.084 15.7384 35.431 12.9604 35.431 12.6244C35.5302 12.3059 35.5435 11.967 35.4696 11.6417C35.3956 11.3165 35.2371 11.0166 35.01 10.7724C34.926 10.9414 34.926 11.6144 34.59 11.8664C34 11.7824 34.42 9.84635 34 9.67835C34.084 10.1834 33.748 10.3514 33.663 10.6884C33.4971 10.4942 33.3863 10.2592 33.342 10.0077C33.2977 9.75625 33.3215 9.4975 33.411 9.25835C33.55 8.98635 33.719 8.73235 33.916 8.50035C33.411 8.33235 32.99 8.66835 32.486 8.83735C32.45 8.35847 32.2402 7.90926 31.896 7.57435C31.9293 7.77447 31.8984 7.98 31.8077 8.16145C31.717 8.34291 31.5711 8.49096 31.391 8.58435C31.1862 8.37855 31.0394 8.12223 30.9657 7.84141C30.8919 7.56058 30.8938 7.26524 30.971 6.98535C30.8923 7.0054 30.8185 7.04129 30.7542 7.09083C30.6898 7.14038 30.6363 7.20252 30.5968 7.27348C30.5573 7.34443 30.5327 7.4227 30.5244 7.50349C30.5162 7.58428 30.5246 7.6659 30.549 7.74335L30.381 7.65835C30.129 10.0994 31.811 11.1084 31.644 11.3614C31.1244 11.3934 30.6132 11.5072 30.129 11.6984C30.129 11.7824 31.98 12.6244 32.653 13.8024C33.579 15.2324 32.822 15.8224 32.485 15.9064C31.475 15.9904 31.644 14.8124 32.485 15.2334C32.065 14.1394 30.97 14.0554 30.886 14.4754C30.8088 14.4067 30.747 14.3224 30.7046 14.2281C30.6623 14.1339 30.6404 14.0317 30.6404 13.9284C30.6404 13.825 30.6623 13.7228 30.7046 13.6286C30.747 13.5343 30.8088 13.45 30.886 13.3814C30.045 13.4654 30.045 14.3914 29.96 14.6444C29.7042 14.5928 29.4385 14.6317 29.2083 14.7545C28.9781 14.8773 28.7977 15.0762 28.698 15.3174C29.54 14.7274 33.074 17.4214 30.886 18.7674C30.045 18.5154 30.886 17.8424 30.802 17.7574C29.708 17.8424 30.044 18.9364 29.624 18.7674C29.303 18.693 28.992 18.5801 28.698 18.4314C28.955 18.8944 29.236 19.3434 29.54 19.7774C29.203 20.1144 28.782 20.8714 29.119 21.2074C29.035 20.8714 30.129 20.1984 30.044 21.3774C29.876 22.2174 28.109 22.3874 28.698 20.7034C28.193 20.7874 27.856 21.2934 27.604 21.7134C27.352 21.7134 26.846 21.2934 26.678 21.2934C26.678 21.3764 27.856 22.8914 26.678 24.1534C26.6017 23.9348 26.4674 23.7411 26.2895 23.5929C26.1116 23.4448 25.8968 23.3478 25.668 23.3124C24.743 23.3124 24.658 23.7324 24.658 23.7324C24.911 23.6484 25.248 23.5644 25.332 23.7324C25.668 24.8274 24.827 24.9114 24.069 24.5744C24.069 24.5744 23.396 24.3224 23.48 24.4904C24.154 24.9104 23.733 26.3424 22.723 25.0804C22.259 25.6861 21.9941 26.4208 21.965 27.1834C21.1399 28.2329 20.1777 29.1669 19.104 29.9604C18.767 29.2874 19.609 29.0354 19.861 29.0354C19.777 28.6144 19.104 28.7824 19.104 28.7824C19.104 28.6144 19.609 28.1094 19.861 28.2774C19.525 27.8574 18.851 28.1094 18.767 28.1094C18.852 27.5194 19.609 26.8474 19.861 26.5944C19.9118 26.6094 19.9589 26.6347 19.9995 26.6687C20.0401 26.7027 20.0732 26.7447 20.0969 26.792C20.1207 26.8394 20.1344 26.8911 20.1373 26.9439C20.1403 26.9968 20.1323 27.0497 20.114 27.0994C20.451 27.0994 20.451 26.5944 20.451 26.5944C20.5616 26.5975 20.6715 26.5766 20.7732 26.5331C20.8749 26.4896 20.9659 26.4245 21.04 26.3424C22.723 24.6583 22.639 24.0694 22.555 23.8174C22.504 23.6828 22.4251 23.5607 22.3234 23.459C22.2217 23.3573 22.0995 23.2783 21.965 23.2274C21.208 23.1444 19.861 24.4904 19.609 25.7534C19.441 25.7534 19.189 25.8374 19.189 26.0894C19.272 26.0894 19.525 26.0054 19.609 26.1734C19.609 26.1734 18.936 26.9314 18.683 27.1834C18.5781 26.6288 18.5502 26.0625 18.6 25.5004C18.684 25.4164 18.853 25.7534 18.937 25.7534C19.189 25.7534 19.021 25.2474 19.021 25.0794C19.189 24.8274 19.441 24.3224 19.441 24.3224C19.862 22.2184 18.6 22.0494 18.431 22.0494C18.263 22.0494 16.833 22.1344 17.421 24.3224C17.421 24.3224 17.674 24.8274 17.843 25.0794C17.843 25.2474 17.59 25.7534 17.927 25.7534C18.011 25.7534 18.179 25.4164 18.263 25.5004C18.313 26.0624 18.284 26.6294 18.179 27.1834C17.8412 26.8749 17.5316 26.5369 17.254 26.1734C17.338 26.0054 17.506 26.0894 17.674 26.0894C17.59 25.7534 17.422 25.7534 17.254 25.7534C17.001 24.4064 15.654 23.0594 14.897 23.2284C14.7555 23.266 14.6265 23.3402 14.5229 23.4436C14.4193 23.547 14.3448 23.676 14.307 23.8174C14.224 23.9854 14.14 24.6583 15.823 26.3424C15.991 26.4264 16.243 26.5104 16.412 26.5944C16.412 26.5944 16.412 27.0994 16.748 27.0994C16.58 26.6794 16.833 26.5944 17.001 26.5944C17.519 26.9684 17.903 27.4994 18.095 28.1094C17.9137 28.0401 17.7176 28.0192 17.5258 28.0486C17.334 28.0781 17.1531 28.1569 17.001 28.2774C17.254 28.1094 17.758 28.6144 17.758 28.7824C17.758 28.7824 17.169 28.6144 17.001 29.0354C17.338 29.0354 18.095 29.2874 17.758 29.9604C16.7034 29.1446 15.7438 28.2132 14.897 27.1834C14.8456 26.4252 14.5834 25.6965 14.14 25.0794C13.214 26.3424 12.793 24.9114 13.382 24.4904C13.55 24.2384 12.793 24.5744 12.793 24.5744C12.12 24.9114 11.278 24.8274 11.531 23.7334C11.615 23.5644 12.036 23.6484 12.204 23.7334C12.204 23.7334 12.12 23.3124 11.194 23.3124C10.9615 23.3373 10.7416 23.4305 10.5619 23.5802C10.3821 23.7298 10.2507 23.9292 10.184 24.1534C9.09 22.8914 10.184 21.3764 10.184 21.2934C10.1 21.2934 9.511 21.6294 9.258 21.7134C9.16806 21.4708 9.02209 21.2528 8.83198 21.0773C8.64187 20.9018 8.413 20.7737 8.164 20.7034C8.669 22.4704 6.902 22.2184 6.818 21.3764C6.734 20.1984 7.828 20.8714 7.744 21.2084C8.08 20.8714 7.659 20.1144 7.323 19.7784C7.491 19.5254 8.164 18.4314 8.164 18.4314C7.876 18.5934 7.564 18.7074 7.239 18.7674C7.2832 18.6513 7.30012 18.5266 7.28844 18.4029C7.27676 18.2793 7.2368 18.16 7.17166 18.0542C7.10651 17.9485 7.01791 17.8591 6.91272 17.7931C6.80752 17.727 6.68855 17.6861 6.565 17.6734C6.397 17.7574 7.239 18.4314 6.481 18.6834C4.293 17.3374 7.828 14.6434 8.669 15.2334C8.56949 14.992 8.38918 14.7929 8.15894 14.6699C7.92871 14.5469 7.66288 14.5079 7.407 14.5594C7.239 14.3074 7.239 13.4654 6.397 13.3814C6.53332 13.5309 6.60889 13.726 6.60889 13.9284C6.60889 14.1307 6.53332 14.3258 6.397 14.4754C6.313 14.1394 5.219 14.1394 4.798 15.2334C5.64 14.8124 5.808 15.9904 4.798 15.9064C4.461 15.8224 3.704 15.2334 4.63 13.8024C5.303 12.6244 7.154 11.7824 7.154 11.6984C6.6702 11.5071 6.15925 11.3934 5.64 11.3614C5.555 11.1094 7.239 10.0994 6.986 7.65835L6.818 7.74335C6.84258 7.66597 6.85109 7.58438 6.843 7.50359C6.83492 7.42281 6.81042 7.34452 6.771 7.27354C6.73157 7.20257 6.67806 7.14039 6.61375 7.09083C6.54944 7.04128 6.47568 7.00538 6.397 6.98535C6.397 7.15335 6.565 8.16335 5.977 8.58535C5.78467 8.50679 5.62738 8.36112 5.53433 8.17538C5.44127 7.98963 5.41877 7.77643 5.471 7.57535C5.14397 7.92167 4.9374 8.36426 4.882 8.83735C4.462 8.66835 4.041 8.33235 3.452 8.50035C3.62 8.75235 3.872 8.92035 3.956 9.25735C4.04569 9.49663 4.06961 9.75558 4.0253 10.0072C3.98098 10.2589 3.87003 10.4941 3.704 10.6884C3.62 10.3514 3.367 10.2684 3.367 9.67835C2.947 9.84735 3.451 11.7824 2.778 11.8664C2.51982 11.5588 2.37198 11.1737 2.358 10.7724C2.15674 11.0315 2.01475 11.3317 1.94201 11.6516C1.86927 11.9716 1.86756 12.3036 1.937 12.6244C2.021 12.9604 3.283 15.7384 1.684 14.9804C1.432 14.7284 1.432 14.0554 1.179 13.8024C1.05191 14.0943 0.986314 14.4094 0.986314 14.7279C0.986314 15.0463 1.05191 15.3614 1.179 15.6534C0.877174 15.6851 0.595404 15.8196 0.380802 16.0342C0.1662 16.2488 0.0317737 16.5305 0 16.8324C0.403678 16.6151 0.85762 16.5085 1.31581 16.5232C1.77399 16.538 2.22013 16.6736 2.609 16.9164C2.777 17.0004 4.124 18.3464 2.609 18.7674C2.104 18.7674 1.767 18.0104 1.767 18.0104C1.66004 18.5443 1.75602 19.0989 2.03618 19.5658C2.31634 20.0328 2.76055 20.3785 3.282 20.5354C3.619 20.7874 3.955 21.1244 3.872 21.5454C3.535 22.2184 3.114 21.0404 3.114 21.0404C2.97766 21.2511 2.89825 21.4937 2.88353 21.7443C2.86881 21.9949 2.91927 22.245 3.03 22.4704C3.03 22.4704 2.02 23.1444 3.03 24.4064C4.713 20.9564 6.901 23.1444 6.396 23.8164C6.144 24.2384 5.554 24.1544 5.134 24.1544C5.169 24.4524 5.32 24.7244 5.554 24.9114C5.4117 25.0849 5.31428 25.2908 5.27034 25.5109C5.22639 25.7309 5.23726 25.9585 5.302 26.1734C5.54345 25.7652 5.91651 25.4514 6.35991 25.2833C6.8033 25.1152 7.29068 25.1029 7.742 25.2484C7.911 25.3324 8.668 25.8374 7.574 26.3424C7.481 26.4954 7.424 26.6684 7.406 26.8474C8.5 26.0894 10.772 26.2574 11.277 26.9314C11.53 27.7724 10.688 27.7724 10.52 27.9414C10.702 28.1557 10.954 28.2986 11.2314 28.3448C11.5087 28.3909 11.7934 28.3373 12.035 28.1934C12.203 28.4464 11.95 28.6984 11.95 28.9514C12.1591 28.9573 12.3667 28.9148 12.5567 28.8272C12.7466 28.7396 12.9138 28.6092 13.045 28.4464C13.2557 28.6848 13.5148 28.8756 13.805 29.0061C14.0952 29.1367 14.4098 29.2039 14.728 29.2034C14.812 29.0354 14.644 28.8664 14.728 28.6984C15.233 28.5304 16.663 30.2134 17.168 31.2234C17.0677 31.2043 16.9642 31.2115 16.8676 31.2444C16.771 31.2773 16.6846 31.3347 16.6168 31.4109C16.5489 31.4872 16.5021 31.5798 16.4807 31.6796C16.4594 31.7794 16.4643 31.883 16.495 31.9804C17.168 31.3074 17.421 32.2334 17.673 32.4854C17.926 32.8224 17.337 32.6543 17.253 32.9063C17.4595 33.0033 17.6331 33.1586 17.7525 33.3529C17.8719 33.5473 17.9318 33.7723 17.925 34.0004H20.029C20.022 33.7722 20.082 33.547 20.2016 33.3525C20.3212 33.1581 20.4952 33.003 20.702 32.9063C20.702 32.5693 20.112 32.8224 20.282 32.4864C20.534 32.2334 20.786 31.3074 21.459 31.9804C21.484 31.8834 21.4848 31.7819 21.4613 31.6846C21.4379 31.5873 21.3908 31.4973 21.3243 31.4225C21.2578 31.3477 21.1739 31.2904 21.08 31.2556C20.9861 31.2209 20.8852 31.2098 20.786 31.2234C21.206 30.2134 22.722 28.5304 23.226 28.6984C23.311 28.8664 23.143 29.0354 23.226 29.2034C23.8612 29.1662 24.4606 28.8968 24.91 28.4464C25.0411 28.6091 25.2081 28.7393 25.3979 28.8269C25.5876 28.9145 25.7951 28.9571 26.004 28.9514C26.004 28.6984 25.752 28.4464 25.92 28.1934C26.34 28.3614 27.014 28.6134 27.435 27.9414C27.266 27.8574 26.425 27.7724 26.677 26.9314C27.182 26.1734 29.37 26.0894 30.548 26.8474C30.5595 26.756 30.5503 26.6632 30.5212 26.5758C30.4922 26.4884 30.4439 26.4087 30.38 26.3424C29.286 25.8374 29.96 25.3324 30.212 25.2474C30.6634 25.102 31.1509 25.1144 31.5943 25.2827C32.0377 25.451 32.4107 25.7651 32.652 26.1734C32.7005 25.9571 32.7032 25.733 32.6598 25.5156C32.6163 25.2983 32.5279 25.0924 32.4 24.9114C32.5363 24.8397 32.6486 24.7297 32.7232 24.5951C32.7978 24.4604 32.8315 24.3069 32.82 24.1534C32.4 24.2384 31.727 24.2384 31.558 23.8174C31.053 23.0594 33.242 20.9564 34.925 24.4064C35.935 23.1444 34.925 22.4704 34.925 22.4704C35.037 22.2454 35.0882 21.995 35.0734 21.7442C35.0587 21.4933 34.9786 21.2507 34.841 21.0404C34.841 21.0404 34.42 22.2184 34.083 21.5454C33.999 21.1244 34.336 20.7874 34.673 20.5354C35.1987 20.3852 35.6476 20.0408 35.9287 19.5719C36.2099 19.103 36.3022 18.5448 36.187 18.0104C36.187 18.0104 35.85 18.8514 35.345 18.7674C33.242 18.3474 34.589 17.0004 34.757 16.9164Z" fill="#9D5248"></path>
</g>
<defs>
<clipPath id="clip0_561_5456">
<rect width="38" height="34" fill="white"></rect>
</clipPath>
</defs>
</svg>
