<svg  viewBox="0 0 305 88" fill="none" xmlns="http://www.w3.org/2000/svg">
<path d="M122.775 61.1175V68.0226C122.729 68.792 122.806 69.5637 123.004 70.3086C123.12 70.5436 123.302 70.7398 123.527 70.8734C123.752 71.007 124.012 71.0723 124.273 71.0612L124.664 71.103C124.699 71.1012 124.734 71.1072 124.766 71.1205C124.799 71.1338 124.828 71.1542 124.851 71.1801C124.875 71.2061 124.893 71.2369 124.903 71.2704C124.913 71.304 124.916 71.3394 124.911 71.3741C124.911 71.5443 124.797 71.6316 124.563 71.6316C124.509 71.6316 124.42 71.6219 124.298 71.6083C124.103 71.5942 123.903 71.5856 123.694 71.5856L122.277 71.5313L121.922 71.5368C121.329 71.5509 120.737 71.5967 120.148 71.6739C119.958 71.7025 119.765 71.7195 119.573 71.7249C119.377 71.7249 119.277 71.6474 119.272 71.5004C119.269 71.4677 119.273 71.4349 119.283 71.4037C119.293 71.3725 119.309 71.3436 119.331 71.3187C119.352 71.2938 119.378 71.2734 119.407 71.2586C119.437 71.2438 119.469 71.235 119.501 71.2326C119.699 71.2023 119.888 71.126 120.051 71.0098C120.214 70.8936 120.348 70.7407 120.441 70.5635C120.638 69.9681 120.718 69.3406 120.678 68.715V61.6955C120.722 61.1558 120.581 60.6171 120.279 60.168C120.104 59.9871 119.896 59.8425 119.665 59.7425C119.435 59.6425 119.187 59.589 118.936 59.5852C118.709 59.5532 118.595 59.4572 118.595 59.2918C118.595 59.108 118.728 59.0158 118.988 59.0158C119.056 59.0158 119.198 59.0294 119.419 59.044C120.088 59.089 120.863 59.108 121.747 59.108C122.168 59.108 122.513 59.0982 122.789 59.0803L123.802 59.0158C124.143 58.9882 124.452 58.9795 124.734 58.9795C126.456 58.9795 127.713 59.3422 128.505 60.0677C128.842 60.3633 129.111 60.7283 129.294 61.1378C129.477 61.5473 129.569 61.9916 129.563 62.4399C129.571 62.9195 129.476 63.3952 129.284 63.8349C129.093 64.2746 128.809 64.6679 128.452 64.9884C127.714 65.6807 126.734 66.055 125.723 66.0305C125.205 66.0366 124.688 65.9747 124.186 65.8462C123.744 65.722 123.525 65.5707 123.525 65.4048C123.525 65.2389 123.6 65.1619 123.753 65.1619C123.803 65.1644 123.852 65.1739 123.899 65.1901C124.214 65.2844 124.541 65.3322 124.869 65.3321C125.204 65.3444 125.538 65.2876 125.85 65.1653C126.161 65.043 126.445 64.8579 126.682 64.6213C126.918 64.3817 127.102 64.0966 127.225 63.7834C127.347 63.4702 127.404 63.1355 127.393 62.7994C127.426 61.9695 127.131 61.16 126.572 60.5454C126.302 60.2593 125.974 60.0339 125.61 59.8843C125.246 59.7347 124.854 59.6643 124.461 59.6779C123.994 59.6273 123.522 59.7305 123.119 59.9717C122.985 60.1286 122.886 60.3114 122.826 60.5087C122.767 60.706 122.75 60.9135 122.775 61.118" fill="#1A1818"/>
<path d="M139.609 65.7808L138.421 63.0035C138.137 62.3387 137.933 62.0085 137.81 62.0085C137.74 62.0085 137.605 62.2189 137.412 62.6505L137.239 63.0355L136.178 65.4538L136.078 65.6837C136.039 65.7571 136.016 65.8385 136.013 65.9217C136.013 66.124 136.23 66.2297 136.668 66.2297H139.353C139.586 66.2297 139.7 66.1657 139.7 66.0362C139.693 65.982 139.677 65.9294 139.653 65.8805L139.609 65.7808ZM139.269 60.0875L143.412 69.6229C143.572 70.0336 143.824 70.4024 144.147 70.7014C144.463 70.9523 144.839 71.1155 145.238 71.1742C145.349 71.1916 145.4 71.2827 145.4 71.4399C145.4 71.6096 145.329 71.6926 145.191 71.6882C145.11 71.6779 144.993 71.6606 144.841 71.6275C144.09 71.5018 143.329 71.4499 142.568 71.4724C141.85 71.4445 141.13 71.4905 140.421 71.6096C140.344 71.6348 140.263 71.6488 140.182 71.6514C140.147 71.6558 140.111 71.6521 140.077 71.6404C140.044 71.6287 140.013 71.6095 139.989 71.5842C139.964 71.5588 139.945 71.5281 139.934 71.4943C139.923 71.4605 139.92 71.4247 139.925 71.3895C139.925 71.3022 139.994 71.2387 140.127 71.1916C140.411 71.1167 140.666 70.9584 140.859 70.7372C141.037 70.5483 141.14 70.3006 141.148 70.041C141.004 69.2547 140.738 68.4959 140.359 67.7918C140.196 67.4372 140.017 67.2317 139.82 67.1819C139.125 67.1057 138.426 67.0796 137.728 67.1038H136.496L135.68 67.2551C135.454 67.3566 135.199 67.7559 134.914 68.4528L134.635 69.1577C134.551 69.3504 134.507 69.5581 134.506 69.7683C134.506 70.5387 135.046 70.9796 136.119 71.1037C136.353 71.1308 136.465 71.223 136.461 71.3694C136.447 71.5288 136.338 71.608 136.127 71.608C135.97 71.6042 135.813 71.589 135.658 71.5624C135.301 71.4898 134.938 71.4515 134.574 71.448C134.284 71.448 133.82 71.4752 133.175 71.5348C132.696 71.589 132.399 71.608 132.283 71.608C132.112 71.608 132.024 71.5348 132.024 71.3835C132.024 71.2594 132.112 71.1666 132.281 71.1037C132.601 71.004 132.879 70.8045 133.076 70.5344C133.418 69.9785 133.713 69.395 133.958 68.7901L136.452 63.0507C136.654 62.592 136.792 62.2748 136.873 62.1099L137.722 60.3705L138.156 59.5127V59.5398C138.352 59.0724 138.481 58.8376 138.549 58.8376C138.647 58.8376 138.814 59.0898 139.05 59.5968L139.269 60.0875Z" fill="#1A1818"/>
<path d="M154.145 60.8826V64.0362C154.111 64.2925 154.164 64.553 154.297 64.7752C154.509 64.9098 154.762 64.9651 155.012 64.9314C155.687 64.9479 156.362 64.9279 157.035 64.8712C157.309 64.8223 157.562 64.6947 157.765 64.5041C157.991 64.2932 158.169 64.0351 158.285 63.748C158.401 63.4609 158.452 63.1519 158.436 62.8427C158.448 62.4227 158.375 62.0046 158.219 61.6141C158.064 61.2236 157.831 60.8689 157.534 60.5719C157.231 60.2751 156.871 60.0428 156.475 59.889C156.08 59.7352 155.657 59.6632 155.233 59.6772C155.082 59.6596 154.928 59.6732 154.781 59.7172C154.635 59.7612 154.499 59.8347 154.382 59.9332C154.194 60.212 154.11 60.5481 154.145 60.8826V60.8826ZM154.145 68.0003C154.088 68.7973 154.197 69.5974 154.466 70.3498C154.597 70.5666 154.782 70.7454 155.003 70.8684C155.225 70.9914 155.474 71.0543 155.727 71.0509C155.986 71.0801 156.116 71.1756 156.116 71.355C156.116 71.5242 156.015 71.6072 155.802 71.6072C155.735 71.6072 155.61 71.5985 155.427 71.5844C154.904 71.5383 154.396 71.5204 153.908 71.5204C153.497 71.5204 153.132 71.5285 152.816 71.5524L152.05 71.6251L151.435 71.6755C151.316 71.6907 151.197 71.6999 151.077 71.7031C150.857 71.7031 150.747 71.6158 150.747 71.4515C150.741 71.3927 150.757 71.3339 150.791 71.2857C150.825 71.2376 150.876 71.2035 150.933 71.1897C151.267 71.1127 151.568 70.9331 151.794 70.6762C151.975 70.3804 152.059 70.0353 152.034 69.6893V68.8218L152.045 68.4688V61.8787C152.093 61.373 151.998 60.864 151.769 60.4103C151.589 60.1935 151.366 60.0163 151.114 59.8901C150.862 59.7639 150.587 59.6914 150.305 59.6772C150.053 59.6393 149.929 59.5303 149.929 59.3557C149.929 59.1811 150.014 59.0889 150.181 59.0889C150.292 59.0921 150.402 59.103 150.512 59.1215C151.026 59.1754 151.542 59.2015 152.058 59.1996C152.672 59.1996 153.414 59.1627 154.289 59.0982C155.32 59.0201 156.032 58.9794 156.421 58.9794C157.462 58.9418 158.483 59.2771 159.299 59.925C159.659 60.2074 159.949 60.5692 160.147 60.982C160.344 61.3949 160.444 61.8478 160.438 62.3054C160.442 62.8928 160.266 63.4674 159.934 63.9521C159.588 64.4527 159.104 64.8421 158.541 65.0729C158.419 65.1244 158.362 65.1813 158.369 65.2561C158.381 65.3349 158.412 65.4095 158.46 65.473C158.514 65.5592 158.597 65.7024 158.706 65.8992L159.52 67.3404L160.463 69.0029C160.687 69.4387 160.98 69.8354 161.331 70.1779C161.575 70.3946 161.892 70.5109 162.218 70.5032C162.35 70.506 162.481 70.4938 162.61 70.4669C162.676 70.4493 162.744 70.4396 162.813 70.4381C162.921 70.4381 162.98 70.5075 162.98 70.6501C162.98 70.8242 162.73 71.0259 162.226 71.2509C161.812 71.4553 161.36 71.5709 160.899 71.5904C160.559 71.576 160.227 71.4857 159.927 71.3262C159.626 71.1667 159.366 70.942 159.164 70.6686C158.352 69.5888 157.662 68.4226 157.106 67.1913C156.912 66.7197 156.637 66.2859 156.292 65.9101C155.987 65.7033 155.621 65.6076 155.254 65.639H154.686L154.278 65.7111C154.184 65.7577 154.14 65.909 154.14 66.1524L154.145 68.0003Z" fill="#1A1818"/>
<path d="M171.718 68.7167L171.79 69.6298C171.839 70.041 172.03 70.4224 172.329 70.7083C172.64 70.9675 173.036 71.1017 173.44 71.0846C173.742 71.0846 173.892 71.1757 173.892 71.3589C173.892 71.5422 173.695 71.63 173.296 71.63C173.121 71.63 172.879 71.6121 172.563 71.5834C171.922 71.5024 171.277 71.4566 170.63 71.4462C170.146 71.4369 169.662 71.4694 169.184 71.5433C168.968 71.5882 168.749 71.6172 168.528 71.63C168.468 71.6348 168.407 71.6166 168.359 71.579C168.312 71.5415 168.28 71.4873 168.27 71.4273L168.251 71.3541L168.522 71.1372C168.867 71.0455 169.173 70.8439 169.393 70.563C169.568 70.2102 169.643 69.8165 169.61 69.4243L169.618 68.6169V61.3577C169.656 60.9396 169.551 60.5211 169.322 60.1697C169.034 59.8872 168.654 59.7176 168.251 59.692C168.047 59.6721 167.846 59.6243 167.655 59.5499C167.61 59.5284 167.573 59.4935 167.549 59.4499C167.525 59.4064 167.515 59.3565 167.52 59.307C167.52 59.1324 167.594 59.0511 167.737 59.0549C167.903 59.0707 168.067 59.0949 168.231 59.1275C168.597 59.1862 168.968 59.2107 169.339 59.2007C169.68 59.2007 170.108 59.1823 170.613 59.1416L171.277 59.0874C171.908 59.0413 172.39 59.0186 172.726 59.0186C172.927 59.0186 173.03 59.0966 173.03 59.2441C173.038 59.3207 173.021 59.3978 172.982 59.4643C172.918 59.5188 172.837 59.5494 172.753 59.551C172.435 59.562 172.132 59.6913 171.904 59.9138C171.743 60.2355 171.676 60.5966 171.712 60.9548L171.718 68.7167Z" fill="#1A1818"/>
<path d="M182.804 58.8369C183.381 58.8386 183.952 58.949 184.488 59.1622L185.095 59.4192C185.279 59.506 185.476 59.5619 185.678 59.5846C185.77 59.5827 185.861 59.5609 185.944 59.5206L186.291 59.3455C186.337 59.3231 186.388 59.3107 186.439 59.3091C186.568 59.3091 186.632 59.4056 186.632 59.6084L186.611 60.3513C186.612 60.4614 186.619 60.5715 186.632 60.6809L186.757 61.5713L186.849 62.4014C186.86 62.4624 186.867 62.5242 186.869 62.5863C186.869 62.8471 186.79 62.9756 186.637 62.9756C186.524 62.9756 186.444 62.8672 186.393 62.6356C186.211 61.7719 185.739 60.9963 185.056 60.438C184.441 59.8583 183.632 59.5278 182.787 59.5108C182.254 59.5037 181.74 59.7031 181.351 60.0671C181.158 60.226 181.003 60.4257 180.897 60.6517C180.791 60.8778 180.736 61.1247 180.737 61.3744C180.735 61.6019 180.782 61.8271 180.876 62.0345C180.97 62.2418 181.107 62.4264 181.279 62.5755C181.952 63.0262 182.681 63.3874 183.448 63.6501C184.894 64.2375 185.854 64.8174 186.329 65.3896C186.889 66.0885 187.184 66.963 187.161 67.8583C187.164 68.3737 187.064 68.8844 186.867 69.3604C186.669 69.8364 186.378 70.268 186.011 70.6296C185.668 71.0032 185.251 71.3013 184.787 71.5051C184.323 71.7089 183.821 71.8138 183.315 71.8133C182.631 71.7596 181.957 71.611 181.314 71.3719C181.006 71.2642 180.692 71.1737 180.373 71.1008C180.2 71.0839 180.033 71.0283 179.885 70.9381C179.813 70.7927 179.774 70.6331 179.771 70.4707C179.712 70.0508 179.62 69.6363 179.495 69.2312C179.327 68.7165 179.21 68.1863 179.146 67.6485C179.146 67.3551 179.247 67.2071 179.441 67.2071C179.526 67.2071 179.585 67.2808 179.624 67.4278C179.896 68.4267 180.433 69.3336 181.178 70.0521C181.472 70.3713 181.825 70.6293 182.219 70.8112C182.613 70.9931 183.038 71.0954 183.472 71.1122C183.779 71.1103 184.084 71.047 184.366 70.926C184.649 70.8049 184.905 70.6286 185.118 70.4073C185.347 70.2034 185.53 69.9538 185.655 69.6747C185.781 69.3956 185.847 69.0932 185.848 68.7871C185.865 68.361 185.729 67.9429 185.465 67.6083C185.099 67.2231 184.651 66.9252 184.155 66.7365L182.763 66.1129C181.774 65.7379 180.866 65.1754 180.089 64.4564C179.6 63.8738 179.348 63.1279 179.385 62.3678C179.373 61.9031 179.453 61.4407 179.622 61.0075C179.791 60.5744 180.044 60.1791 180.367 59.8448C180.68 59.5142 181.059 59.253 181.479 59.0782C181.9 58.9035 182.352 58.819 182.807 58.8304" fill="#1A1818"/>
<path d="M29.3258 19.8237L37.0996 36.8077C37.4394 37.5519 37.7237 37.9183 37.9525 37.9067C38.1764 37.8959 38.4123 37.6356 38.652 37.127L45.8038 21.8842C46.2039 20.9394 46.6873 20.0321 47.2483 19.1731C47.3803 18.9971 47.5526 18.8554 47.7507 18.7599C47.9489 18.6644 48.1671 18.6179 48.387 18.6243C48.5643 18.6243 48.8424 18.6476 49.2236 18.6786C49.6017 18.7202 49.9819 18.7405 50.3623 18.7393C51.0042 18.7319 51.6452 18.6884 52.2823 18.6091C52.6748 18.5734 52.9671 18.5549 53.1569 18.5549C53.6015 18.5549 53.8216 18.7333 53.8216 19.0868C53.8216 19.3764 53.6525 19.5363 53.312 19.5662C52.1256 19.6491 51.2954 20.0542 50.8177 20.7536C50.3444 21.4645 50.1091 22.6579 50.1091 24.3431L50.1291 25.632L50.5781 37.4301L50.5992 38.199C50.5992 39.9493 50.9047 41.2441 51.5156 42.0835C52.1265 42.9228 53.1336 43.4193 54.5368 43.5729C54.6088 43.5725 54.6801 43.5867 54.7464 43.6149C54.8126 43.643 54.8724 43.6844 54.922 43.7365C54.9717 43.7886 55.0101 43.8504 55.0349 43.9179C55.0598 43.9855 55.0706 44.0574 55.0666 44.1293C55.0666 44.4839 54.6328 44.6552 53.775 44.6552C53.3676 44.6422 52.9612 44.6085 52.5572 44.5544C51.0113 44.383 49.9133 44.3001 49.2702 44.3001C48.1575 44.2877 47.0452 44.3511 45.941 44.4898C45.3758 44.5856 44.8052 44.6466 44.2325 44.6726C44.167 44.6815 44.1003 44.6751 44.0378 44.6537C43.9752 44.6324 43.9185 44.5967 43.8722 44.5496C43.8259 44.5025 43.7912 44.4452 43.7709 44.3823C43.7506 44.3194 43.7453 44.2526 43.7553 44.1873C43.7553 43.9454 43.9402 43.7687 44.3095 43.6619C44.9199 43.5356 45.4644 43.1937 45.8434 42.6989C46.1802 42.0994 46.3363 41.4153 46.2929 40.729C46.2929 40.3104 46.2886 40.0143 46.2718 39.8435L45.7117 27.2711C45.7003 26.9279 45.6157 26.7625 45.4649 26.7625C45.2757 26.7625 45.0154 27.1057 44.6879 27.803L37.5534 42.9375L37.2899 43.5052C36.9261 44.2914 36.6241 44.6872 36.3844 44.698C36.11 44.7089 35.6437 44.0186 34.9893 42.617L34.0263 40.6487L27.9426 27.1057L27.8097 26.8227C27.7875 26.7814 27.7544 26.747 27.7141 26.723C27.6738 26.699 27.6278 26.6865 27.5809 26.6866C27.3792 26.6866 27.2794 26.9463 27.2794 27.4668L27.2594 28.0758L27.0159 37.647L26.9964 38.4061L27.1683 40.1857C27.5215 42.0473 28.5126 43.186 30.1418 43.6017C30.7112 43.7378 30.9947 43.9563 30.9947 44.2523C30.9947 44.5836 30.7724 44.749 30.33 44.749C29.9224 44.7444 29.5155 44.7148 29.1116 44.6606L27.7609 44.4709C27.2686 44.4165 26.7733 44.3931 26.278 44.4009C25.3741 44.3801 24.4701 44.439 23.5766 44.5771C23.2634 44.6477 22.9443 44.6894 22.6234 44.7018C22.2335 44.7018 22.0356 44.5392 22.0356 44.1992C22.0356 43.9682 22.1858 43.7974 22.4922 43.696C23.4079 43.4148 24.1761 42.7845 24.6307 41.9414C25.1331 40.8498 25.3643 39.653 25.3047 38.4528L25.822 26.0094L25.8762 24.7444C25.952 23.4592 25.5582 22.1902 24.7679 21.1738C24.3908 20.7415 23.921 20.3999 23.3934 20.1746C22.8658 19.9493 22.2942 19.846 21.7211 19.8725C21.2418 19.8725 21 19.6947 21 19.3303C21 18.9659 21.2711 18.7745 21.8133 18.7745C21.9272 18.7745 22.0718 18.7805 22.2471 18.7924L23.3473 18.8694C23.549 18.8813 23.8092 18.8868 24.1237 18.8868C24.7061 18.8869 25.288 18.8507 25.8659 18.7783C26.7291 18.6775 27.2849 18.6308 27.5365 18.6308C27.9216 18.6157 28.3017 18.723 28.6221 18.9373C28.9425 19.1517 29.1867 19.462 29.3198 19.8237" fill="#1A1818"/>
<path d="M64.9838 36.6355C64.4143 36.6092 63.8453 36.6982 63.3112 36.8974C62.777 37.0965 62.2885 37.4016 61.8752 37.7942C61.4368 38.1215 61.0767 38.5422 60.8208 39.0258C60.565 39.5094 60.4199 40.0439 60.3961 40.5905C60.3961 42.263 61.0648 43.1004 62.4023 43.1026C63.171 43.1213 63.9285 42.916 64.5825 42.5116C64.7626 42.3935 64.9173 42.2406 65.0375 42.0619C65.1577 41.8832 65.241 41.6823 65.2825 41.471C65.4362 40.6609 65.4997 39.8362 65.4718 39.0121L65.4913 37.5513V37.1501L65.3791 36.7304C65.257 36.6648 65.1201 36.6321 64.9816 36.6355H64.9838ZM65.3612 35.5299C65.4888 35.045 65.5587 34.5467 65.5694 34.0453C65.6177 32.9401 65.2969 31.8503 64.6574 30.9476C64.3945 30.5713 64.0435 30.2652 63.635 30.0559C63.2264 29.8466 62.7729 29.7406 62.3139 29.7472C61.099 29.7472 60.4909 30.2502 60.4899 31.2562C60.4897 31.4375 60.5018 31.6187 60.5262 31.7984L60.5842 32.1595C60.5842 33.0104 59.6039 33.4359 57.6432 33.4359C57.1335 33.4359 56.8928 33.219 56.9166 32.7733C56.9277 32.6314 56.9598 32.492 57.0121 32.3596C57.0495 32.2175 57.0874 32.0581 57.1243 31.8634C57.2547 31.1181 57.6693 30.4525 58.2809 30.0069C59.7061 29.0236 61.4078 28.5205 63.1386 28.5705C65.3238 28.5705 66.9605 29.0752 68.0489 30.0844C68.8829 30.8526 69.3 32.19 69.3004 34.0968C69.3004 35.0544 69.263 36.2598 69.1865 37.721C69.1117 39.3813 69.071 40.4864 69.071 41.0481C69.071 42.3494 69.5914 43.0001 70.6321 43.0001C70.9113 43.0155 71.1906 42.9691 71.4497 42.864C71.5863 42.793 71.7345 42.747 71.8873 42.7284C71.9238 42.724 71.9607 42.728 71.9954 42.7401C72.03 42.7523 72.0614 42.7722 72.0871 42.7984C72.1128 42.8246 72.1321 42.8564 72.1435 42.8913C72.1549 42.9262 72.1582 42.9632 72.153 42.9995C72.153 43.3189 71.9058 43.6144 71.4123 43.898L70.669 44.2824L70.0232 44.662C69.5626 44.9089 69.0469 45.0346 68.5245 45.0274C67.4057 45.0274 66.4678 44.3065 65.7109 42.8645C63.3613 44.3719 61.4093 45.1245 59.8549 45.1223C59.3932 45.149 58.931 45.0797 58.4973 44.9189C58.0637 44.7581 57.668 44.5093 57.3352 44.1881C57.0186 43.8389 56.7748 43.4301 56.6182 42.9855C56.4616 42.5409 56.3953 42.0695 56.4232 41.599C56.3789 40.6937 56.6033 39.7955 57.0681 39.0174C57.533 38.2393 58.2175 37.6161 59.0356 37.226C60.1103 36.6816 62.219 36.1157 65.3617 35.5283" fill="#1A1818"/>
<path d="M79.184 29.3879V40.1298C79.184 41.4122 79.377 42.3047 79.7641 42.8133C80.1513 43.3219 80.8665 43.6055 81.9178 43.6646C82.3397 43.6933 82.5479 43.8424 82.5479 44.1076C82.5479 44.4383 82.0458 44.6102 81.0427 44.6102C80.9163 44.6102 80.6431 44.5869 80.2261 44.5511L78.7968 44.4096C78.0106 44.3386 77.489 44.3011 77.239 44.3011C76.3256 44.3227 75.4152 44.4133 74.5154 44.5722C74.3034 44.6189 74.0877 44.6468 73.8707 44.6557C73.5996 44.6557 73.4717 44.5256 73.4717 44.2832C73.4718 44.2024 73.495 44.1233 73.5385 44.0552C73.582 43.9871 73.644 43.9329 73.7173 43.8988L74.3636 43.5789C74.7132 43.3476 74.9668 42.997 75.0772 42.5926C75.2718 42.0724 75.3708 41.5213 75.3694 40.9659L75.3526 40.1667V33.7452C75.4009 33.0484 75.2943 32.3495 75.0403 31.6989C74.9262 31.5068 74.7595 31.3513 74.56 31.2507C74.3605 31.1502 74.1364 31.1087 73.9141 31.1312H73.4803C73.3923 31.1418 73.3031 31.1342 73.2181 31.109C73.1331 31.0837 73.0543 31.0412 72.9864 30.9842C72.9444 30.9003 72.9257 30.8067 72.9322 30.7131C72.9322 30.3878 73.3204 30.1514 74.0941 29.98C75.7253 29.7004 77.2774 29.0737 78.6455 28.1424C78.7378 28.0698 78.8476 28.0228 78.9638 28.0063C79.1357 28.0183 79.223 28.1424 79.223 28.3664L79.2051 28.5383C79.1921 28.6511 79.1861 28.9395 79.1861 29.3895" fill="#1A1818"/>
<path d="M89.7058 28.5718C90.6625 28.5874 91.6125 28.7344 92.5291 29.0088C93.047 29.1628 93.3267 29.4057 93.3647 29.7473L93.4026 30.5878L93.4975 31.7806L93.5349 32.4248C93.5575 32.4974 93.5701 32.5727 93.5724 32.6487C93.5724 32.8922 93.4395 33.0169 93.1727 33.0169C92.9694 33.0169 92.6397 32.5956 92.1794 31.7698C91.2853 30.1502 90.158 29.3455 88.7981 29.3455C88.1533 29.3366 87.5275 29.5638 87.0386 29.9843C86.811 30.166 86.6268 30.3962 86.4992 30.658C86.3717 30.9199 86.304 31.2069 86.3012 31.4981C86.3012 32.55 87.0386 33.3894 88.5178 33.9994L89.8191 34.5367C90.6056 34.8415 91.367 35.2074 92.0964 35.6309C92.5455 35.9263 92.9371 36.3007 93.2525 36.736C93.8879 37.6181 94.2136 38.6858 94.1786 39.7724C94.1941 40.4729 94.0695 41.1695 93.8123 41.8213C93.555 42.473 93.1702 43.0669 92.6804 43.5679C92.2131 44.0697 91.6454 44.4674 91.0141 44.7351C90.3828 45.0028 89.7022 45.1344 89.0166 45.1214C88.0495 45.0958 87.0884 44.9611 86.1515 44.7196L84.8421 44.4013L83.9881 44.2652C83.9256 44.2578 83.8652 44.2381 83.8104 44.2072C83.7556 44.1764 83.7074 44.135 83.6686 44.0855C83.6298 44.036 83.6012 43.9793 83.5843 43.9186C83.5675 43.858 83.5629 43.7947 83.5706 43.7322C83.5706 43.6325 83.5755 43.479 83.589 43.2594C83.617 43.0139 83.6303 42.7669 83.6286 42.5198L83.5706 40.4464L83.5532 39.5176C83.5324 39.3326 83.5612 39.1455 83.6367 38.9753C83.692 38.9031 83.8397 38.8669 84.0797 38.8669C84.2793 38.8669 84.4175 39.0377 84.4913 39.3815C84.7421 40.3984 85.1672 41.3643 85.7476 42.2363C86.0615 42.8276 86.5297 43.3229 87.1025 43.6695C87.6754 44.016 88.3314 44.201 89.0009 44.2045C89.7037 44.2268 90.3871 43.9723 90.9041 43.4958C91.1506 43.2708 91.346 42.9955 91.4769 42.6885C91.6079 42.3815 91.6714 42.0499 91.6632 41.7163C91.6802 41.3685 91.624 41.021 91.4982 40.6963C91.3723 40.3717 91.1798 40.077 90.9328 39.8315C90.1005 39.1722 89.1601 38.6622 88.1534 38.3241C86.5224 37.6849 85.3881 37.0174 84.758 36.3017C84.0908 35.4885 83.7524 34.4549 83.8097 33.4046C83.7827 32.7337 83.9127 32.0657 84.1892 31.4539C84.4658 30.842 84.8813 30.3032 85.4027 29.8801C86.6375 28.949 88.1616 28.4842 89.7058 28.568" fill="#1A1818"/>
<path d="M104.525 29.6063C103.947 29.593 103.375 29.7284 102.864 29.9995C102.353 30.2707 101.921 30.6685 101.608 31.1549C100.829 32.4093 100.453 33.8723 100.531 35.3468C100.467 37.5213 101.047 39.6662 102.197 41.5129C103.306 43.2336 104.644 44.0928 106.209 44.0906C106.776 44.1004 107.337 43.9723 107.844 43.7173C108.35 43.4622 108.787 43.088 109.117 42.6267C109.904 41.529 110.3 40.1986 110.241 38.849C110.314 36.5525 109.736 34.282 108.575 32.2995C107.466 30.5077 106.117 29.6108 104.526 29.609L104.525 29.6063ZM105.513 28.5745C106.602 28.5376 107.687 28.7195 108.704 29.1094C109.721 29.4993 110.649 30.0892 111.434 30.8442C112.203 31.5946 112.808 32.4966 113.21 33.493C113.612 34.4894 113.802 35.5585 113.769 36.6324C113.795 37.7638 113.583 38.8879 113.146 39.9319C112.71 40.9758 112.058 41.9162 111.234 42.6917C110.397 43.4966 109.408 44.1265 108.324 44.5446C107.241 44.9627 106.085 45.1607 104.925 45.1268C103.839 45.1598 102.758 44.9773 101.743 44.5897C100.729 44.2022 99.8014 43.6173 99.0144 42.869C98.2428 42.1443 97.6334 41.2645 97.226 40.2875C96.8187 39.3105 96.6226 38.2583 96.6509 37.2001C96.634 36.0587 96.8559 34.9263 97.3023 33.8757C97.7488 32.825 98.4099 31.8793 99.2432 31.0991C100.065 30.2786 101.044 29.6322 102.122 29.1985C103.199 28.7647 104.353 28.5525 105.514 28.5745" fill="#1A1818"/>
<path d="M133.705 36.6006V40.4427C133.681 41.0037 133.726 41.5655 133.839 42.1155C133.953 42.4513 134.164 42.7457 134.446 42.9613C134.955 43.342 135.562 43.5696 136.195 43.6174C136.588 43.6699 136.784 43.8233 136.785 44.0778C136.785 44.4622 136.334 44.658 135.437 44.658C135.163 44.6513 134.89 44.6254 134.619 44.5804L133.389 44.4405C132.954 44.3891 132.517 44.3596 132.079 44.3521C131.112 44.3308 130.145 44.4058 129.192 44.5761C128.942 44.6265 128.688 44.6544 128.433 44.6596C128.376 44.6672 128.319 44.6616 128.264 44.6431C128.21 44.6246 128.161 44.5938 128.121 44.5531C128.08 44.5123 128.05 44.4628 128.032 44.4084C128.014 44.3539 128.009 44.2961 128.017 44.2394C128.017 44.0328 128.162 43.8793 128.451 43.7611C128.689 43.6991 128.912 43.5875 129.104 43.4336C129.296 43.2797 129.454 43.087 129.567 42.8681C129.797 42.2099 129.894 41.5124 129.851 40.8163V36.3343C129.927 34.8981 129.568 33.4724 128.821 32.2433C128.523 31.7707 128.107 31.3835 127.614 31.1193C127.122 30.8551 126.569 30.723 126.011 30.7359C125.076 30.6911 124.16 31.001 123.444 31.6035C123.124 31.888 122.871 32.2396 122.702 32.6332C122.533 33.0268 122.454 33.4528 122.468 33.8808V40.2004C122.395 41.1008 122.625 41.9999 123.122 42.7542C123.406 43.052 123.747 43.2889 124.125 43.4504C124.504 43.612 124.911 43.6948 125.322 43.6939C125.676 43.7297 125.855 43.8723 125.855 44.1277C125.855 44.4828 125.633 44.6601 125.191 44.6601C124.772 44.6601 124.27 44.6243 123.689 44.5652C122.261 44.3939 121.273 44.3055 120.727 44.3055C119.875 44.3134 119.025 44.3805 118.183 44.5061C117.875 44.5621 117.564 44.5983 117.252 44.6146C116.936 44.6146 116.779 44.4855 116.779 44.2128C116.783 44.1204 116.816 44.0316 116.874 43.9593C116.931 43.8871 117.011 43.8351 117.1 43.811C117.581 43.682 118.011 43.4074 118.331 43.0248C118.546 42.5321 118.636 41.994 118.593 41.4583L118.611 40.8315V34.1416L118.593 33.402C118.639 32.7609 118.545 32.1173 118.317 31.5162C118.218 31.3392 118.069 31.1951 117.889 31.1016C117.709 31.0081 117.505 30.9694 117.304 30.9902H116.43C116.376 30.9959 116.322 30.9885 116.273 30.9688C116.223 30.949 116.178 30.9175 116.143 30.8769C116.109 30.8385 116.084 30.7936 116.067 30.745C116.051 30.6963 116.045 30.6449 116.05 30.5939C116.041 30.4909 116.064 30.3879 116.115 30.2982C116.166 30.2085 116.244 30.1364 116.336 30.0912C116.882 29.8868 117.443 29.7248 118.013 29.6065C119.433 29.3108 120.784 28.7513 121.997 27.957C122.063 27.8909 122.151 27.851 122.244 27.8448C122.394 27.8329 122.468 27.9532 122.468 28.2054L122.414 29.1635L122.392 30.2387L122.505 30.9658C122.559 31.1144 122.643 31.1968 122.755 31.2082C122.854 31.2261 123.058 31.0542 123.359 30.6942C123.91 30.0075 124.614 29.4583 125.414 29.0899C126.213 28.7215 127.088 28.544 127.968 28.5714C130.028 28.5714 131.5 29.1922 132.381 30.4339C133.263 31.6756 133.706 33.7311 133.71 36.6006" fill="#1A1818"/>
<path d="M155.527 19.8237L163.301 36.8077C163.643 37.5521 163.925 37.9192 164.152 37.9067C164.378 37.8943 164.614 37.6356 164.857 37.127L172.006 21.8842C172.404 20.9382 172.887 20.0307 173.451 19.1731C173.583 18.9968 173.756 18.8549 173.955 18.7594C174.153 18.6639 174.372 18.6175 174.592 18.6243C174.769 18.6243 175.05 18.6476 175.425 18.6786C175.805 18.7203 176.187 18.7406 176.57 18.7393C177.211 18.7319 177.851 18.6885 178.488 18.6091C178.879 18.5734 179.171 18.5549 179.365 18.5549C179.806 18.5549 180.027 18.7333 180.027 19.0868C180.027 19.3764 179.856 19.5363 179.516 19.5662C178.328 19.6491 177.5 20.0542 177.021 20.7536C176.552 21.4645 176.313 22.6579 176.313 24.3431L176.33 25.632L176.784 37.4301L176.802 38.199C176.802 39.9493 177.109 41.2441 177.724 42.0835C178.338 42.9228 179.344 43.4193 180.741 43.5729C180.813 43.572 180.884 43.586 180.951 43.614C181.017 43.6421 181.077 43.6835 181.126 43.7358C181.176 43.788 181.214 43.85 181.238 43.9177C181.263 43.9854 181.273 44.0574 181.268 44.1293C181.268 44.4839 180.838 44.6552 179.981 44.6552C179.573 44.6422 179.166 44.6085 178.761 44.5544C177.215 44.383 176.119 44.2983 175.473 44.3001C174.363 44.2877 173.254 44.3511 172.152 44.4898C171.585 44.5855 171.012 44.6465 170.438 44.6726C170.372 44.6814 170.306 44.6749 170.243 44.6535C170.181 44.6322 170.124 44.5965 170.078 44.5493C170.032 44.5022 169.997 44.4449 169.977 44.3821C169.957 44.3192 169.952 44.2525 169.962 44.1873C169.962 43.9454 170.144 43.7687 170.514 43.6619C171.126 43.5371 171.672 43.1951 172.051 42.6989C172.387 42.0991 172.542 41.4149 172.497 40.729C172.497 40.3104 172.488 40.0143 172.476 39.8435L171.918 27.2684C171.906 26.9252 171.82 26.7598 171.667 26.7598C171.476 26.7598 171.216 27.103 170.889 27.8003L163.754 42.9347L163.491 43.5025C163.122 44.2887 162.823 44.6845 162.586 44.6953C162.309 44.7062 161.848 44.0159 161.193 42.6143L160.225 40.646L154.148 27.1057L154.015 26.8227C153.992 26.7816 153.959 26.7474 153.918 26.7234C153.877 26.6995 153.831 26.6868 153.784 26.6866C153.582 26.6866 153.481 26.9467 153.481 27.4668L153.464 28.0758L153.219 37.647L153.201 38.4061L153.373 40.1857C153.721 42.0471 154.715 43.1825 156.343 43.6017C156.914 43.7378 157.201 43.9563 157.201 44.2523C157.201 44.5836 156.976 44.749 156.53 44.749C156.122 44.7441 155.715 44.7146 155.311 44.6606L153.964 44.4709C153.471 44.4165 152.976 44.3931 152.481 44.4009C151.576 44.3801 150.672 44.4391 149.778 44.5771C149.466 44.6476 149.149 44.6894 148.83 44.7018C148.437 44.7018 148.239 44.5392 148.239 44.1992C148.239 43.9682 148.389 43.7974 148.694 43.696C149.61 43.4145 150.38 42.7844 150.837 41.9414C151.334 40.8482 151.563 39.6522 151.505 38.4528L152.025 26.0094L152.081 24.7444C152.156 23.4593 151.762 22.1909 150.973 21.1738C150.596 20.7414 150.126 20.3998 149.598 20.1745C149.07 19.9491 148.499 19.8459 147.925 19.8725C147.444 19.8725 147.203 19.6947 147.203 19.3303C147.203 18.9659 147.474 18.7745 148.019 18.7745C148.132 18.7745 148.273 18.7805 148.457 18.7924L149.553 18.8694C149.761 18.8813 150.016 18.8868 150.334 18.8868C150.917 18.8866 151.5 18.8503 152.078 18.7783C152.935 18.6775 153.494 18.6308 153.747 18.6308C154.132 18.6158 154.512 18.7232 154.831 18.9376C155.151 19.1519 155.395 19.4622 155.527 19.8237" fill="#1A1818"/>
<path d="M191.182 36.6357C190.613 36.6104 190.045 36.7 189.512 36.899C188.979 37.0981 188.491 37.4027 188.079 37.7944C187.64 38.1215 187.28 38.5421 187.024 39.0258C186.768 39.5094 186.623 40.044 186.599 40.5907C186.599 42.2634 187.272 43.1028 188.605 43.1028C189.373 43.1208 190.13 42.9155 190.783 42.5118C190.964 42.3942 191.119 42.2414 191.239 42.0627C191.359 41.8839 191.442 41.6828 191.483 41.4712C191.64 40.6614 191.704 39.8365 191.676 39.0123L191.696 37.5515V37.1503L191.581 36.7306C191.457 36.6647 191.319 36.632 191.179 36.6357H191.182ZM191.559 35.5301C191.686 35.0451 191.758 34.5469 191.771 34.0455C191.821 32.9409 191.502 31.8511 190.864 30.9478C190.601 30.5712 190.249 30.2649 189.84 30.0556C189.431 29.8463 188.977 29.7405 188.518 29.7474C187.304 29.7474 186.692 30.25 186.692 31.2564C186.69 31.4381 186.705 31.6196 186.737 31.7986L186.791 32.1597C186.791 33.0106 185.811 33.4361 183.851 33.4361C183.342 33.4361 183.097 33.2192 183.123 32.7735C183.134 32.6314 183.168 32.492 183.221 32.3598C183.253 32.2177 183.297 32.0583 183.333 31.8636C183.46 31.1174 183.875 30.4508 184.488 30.0071C185.912 29.0242 187.612 28.521 189.342 28.5707C191.533 28.5707 193.166 29.0728 194.253 30.0846C195.09 30.8528 195.508 32.1902 195.507 34.097C195.507 35.0546 195.469 36.26 195.399 37.7212C195.319 39.3815 195.277 40.4866 195.277 41.0483C195.277 42.3496 195.804 43.0003 196.84 43.0003C197.119 43.0149 197.398 42.9685 197.657 42.8642C197.792 42.7936 197.939 42.7477 198.091 42.7286C198.127 42.724 198.164 42.7278 198.199 42.7398C198.234 42.7518 198.266 42.7717 198.292 42.7979C198.318 42.8241 198.337 42.856 198.349 42.891C198.361 42.926 198.364 42.9632 198.359 42.9997C198.359 43.3191 198.108 43.6146 197.62 43.8982L196.879 44.2826L196.232 44.6622C195.77 44.9088 195.253 45.0345 194.729 45.0276C193.613 45.0276 192.679 44.307 191.918 42.8647C189.566 44.3721 187.614 45.1247 186.062 45.1225C185.6 45.1488 185.137 45.0794 184.702 44.9186C184.268 44.7579 183.871 44.5093 183.537 44.1883C183.221 43.8389 182.977 43.43 182.821 42.9854C182.665 42.5409 182.599 42.0696 182.627 41.5992C182.582 40.6934 182.807 39.7948 183.272 39.0165C183.738 38.2383 184.423 37.6153 185.242 37.2262C186.312 36.6818 188.42 36.1159 191.568 35.5285" fill="#1A1818"/>
<path d="M205.383 35.0686V40.39C205.383 42.387 206.318 43.505 208.182 43.7588C208.572 43.813 208.771 43.9654 208.771 44.2202C208.771 44.5396 208.623 44.699 208.331 44.699C208.154 44.6951 207.977 44.677 207.803 44.6447C206.509 44.4438 205.2 44.3451 203.89 44.3498C203.185 44.3498 202.543 44.3731 201.977 44.4262L200.8 44.5455C200.579 44.5713 200.357 44.5828 200.135 44.5802C199.776 44.5802 199.603 44.4143 199.603 44.0836C199.603 43.8526 199.759 43.6997 200.072 43.6167C201.074 43.3798 201.571 42.4406 201.571 40.802L201.552 40.0104V33.2424C201.615 32.6179 201.493 31.9888 201.201 31.433C200.783 31.0667 200.239 30.8762 199.683 30.9011C199.393 30.8718 199.249 30.7357 199.249 30.4928C199.249 30.2033 199.417 30.0379 199.761 29.9783C201.329 29.7711 202.845 29.2747 204.233 28.5143L204.971 28.0805C205.051 28.0176 205.148 27.9825 205.249 27.9807C205.441 27.9807 205.535 28.1282 205.535 28.3999C205.535 28.4882 205.527 28.671 205.515 28.9497L205.46 30.0189L205.384 31.2015L205.402 31.4092C205.456 31.5859 205.543 31.6868 205.692 31.6976C205.81 31.7101 206.09 31.4027 206.517 30.7818C206.961 30.1926 207.49 29.6727 208.086 29.2392C208.494 28.8415 208.996 28.5548 209.546 28.4064C209.98 28.4064 210.627 28.7366 211.482 29.3927C212.337 30.0487 212.783 30.5394 212.791 30.8767C212.638 31.3421 212.432 31.7884 212.177 32.2068C211.654 33.1893 211.188 33.674 210.793 33.674C210.623 33.6703 210.462 33.6025 210.34 33.4842L209.818 33.0109C209.229 32.4322 208.435 32.1093 207.609 32.1124C206.127 32.1124 205.386 33.0976 205.386 35.0681" fill="#1A1818"/>
<path d="M221.193 29.3702C220.747 29.3546 220.304 29.4503 219.905 29.6485C219.505 29.8467 219.161 30.1412 218.903 30.5056C218.3 31.4194 218.006 32.5029 218.066 33.5962C218.015 34.8245 218.33 36.04 218.971 37.0892C219.194 37.498 219.521 37.8406 219.919 38.0825C220.316 38.3243 220.771 38.4568 221.236 38.4664C221.672 38.4755 222.104 38.3786 222.494 38.184C222.884 37.9895 223.221 37.7031 223.476 37.3495C224.074 36.4835 224.369 35.4448 224.317 34.3938C224.317 31.0407 223.276 29.3657 221.193 29.3686V29.3702ZM218.545 45.6666C218.318 45.661 218.091 45.7046 217.882 45.7944C217.672 45.8843 217.484 46.0182 217.331 46.1871C217.009 46.5351 216.835 46.9955 216.847 47.47C216.843 47.9282 216.966 48.3786 217.2 48.7724C217.434 49.1662 217.771 49.4885 218.176 49.7045C219.282 50.3119 220.536 50.5989 221.797 50.533C222.92 50.5801 224.036 50.3354 225.036 49.8227C225.399 49.6546 225.706 49.3885 225.925 49.0544C226.144 48.7204 226.265 48.3317 226.274 47.9325C226.304 47.6597 226.246 47.3846 226.109 47.1468C225.972 46.909 225.763 46.7209 225.512 46.6095C224.368 46.278 223.186 46.0948 221.996 46.0646C220.908 45.9946 220.069 45.9019 219.495 45.8043L218.999 45.7051C218.849 45.6812 218.698 45.6688 218.547 45.6682L218.545 45.6666ZM226.205 30.1206C226.936 30.0825 227.642 29.8412 228.244 29.4239C228.718 29.0208 229.016 28.4473 229.072 27.827C229.099 27.5667 229.223 27.4431 229.452 27.4431C229.66 27.4431 229.777 27.6085 229.777 27.9403C229.739 28.618 229.661 29.2927 229.543 29.9612C229.446 30.6699 229.387 31.1318 229.375 31.3444C229.37 31.5854 229.274 31.8156 229.106 31.9885C228.732 32.2514 228.329 32.4716 227.906 32.6452C227.91 32.8438 227.93 33.0417 227.968 33.2367C228.022 33.8397 228.06 34.2182 228.06 34.3542C228.05 35.0511 227.864 35.7341 227.521 36.3404C227.177 36.9468 226.687 37.4571 226.095 37.8245C224.669 38.7934 222.973 39.2841 221.25 39.2256C220.605 39.2199 219.962 39.1565 219.329 39.0363C219.11 38.9878 218.887 38.9622 218.664 38.9599C218.474 38.9572 218.286 38.9973 218.113 39.077C217.941 39.1568 217.788 39.2743 217.668 39.4207C217.398 39.7432 217.256 40.1533 217.268 40.5735C217.268 41.6673 218.219 42.2132 220.121 42.211C223.808 42.211 226.262 42.4425 227.468 42.9023C228.041 43.1052 228.531 43.493 228.859 44.0048C229.188 44.5165 229.337 45.1231 229.283 45.7289C229.281 46.5092 229.094 47.2778 228.738 47.9722C228.382 48.6665 227.868 49.267 227.236 49.7246C225.875 50.8122 223.843 51.3561 221.138 51.3561C218.791 51.3561 216.998 51.0741 215.759 50.5102C214.52 49.9436 213.905 49.1335 213.905 48.0637C213.913 47.4985 214.121 46.9544 214.49 46.5265C214.829 46.0752 215.321 45.7623 215.873 45.646C216.47 45.5213 216.769 45.409 216.783 45.3098L216.63 45.0604L216.069 44.4927C215.525 43.9453 215.22 43.2055 215.22 42.4344C215.219 41.895 215.333 41.3615 215.555 40.8701C215.777 40.3786 216.103 39.9406 216.509 39.5856L217.112 39.0179C217.163 38.9721 217.205 38.9166 217.234 38.8546C217.264 38.7926 217.28 38.7253 217.283 38.6568C217.283 38.4795 217.023 38.2317 216.506 37.9183C215.864 37.509 215.354 36.9243 215.035 36.2336C214.641 35.5337 214.423 34.749 214.398 33.9465C214.39 33.1981 214.559 32.4584 214.892 31.7882C215.225 31.1179 215.712 30.5362 216.314 30.0908C217.717 29.0388 219.441 28.5026 221.194 28.5726C222.987 28.5387 224.743 29.0815 226.205 30.1211" fill="#1A1818"/>
<path d="M237.47 29.3879V40.1298C237.47 41.4122 237.666 42.3047 238.053 42.8133C238.441 43.3219 239.154 43.6055 240.204 43.6646C240.623 43.6933 240.831 43.8424 240.831 44.1076C240.831 44.4383 240.334 44.6102 239.326 44.6102C239.2 44.6102 238.927 44.5869 238.512 44.5511L237.085 44.4096C236.296 44.3386 235.783 44.3011 235.527 44.3011C234.614 44.3224 233.704 44.413 232.804 44.5722C232.592 44.6189 232.375 44.6468 232.157 44.6557C231.891 44.6557 231.759 44.5256 231.759 44.2832C231.759 44.2022 231.783 44.123 231.826 44.0549C231.87 43.9868 231.933 43.9327 232.006 43.8988L232.652 43.5789C233.001 43.348 233.253 42.9971 233.361 42.5926C233.56 42.0733 233.66 41.5218 233.657 40.9659L233.639 40.1667V33.7452C233.688 33.0484 233.582 32.3493 233.327 31.6989C233.214 31.5072 233.048 31.352 232.849 31.2514C232.65 31.1509 232.427 31.1091 232.205 31.1312H231.765C231.677 31.142 231.588 31.1345 231.504 31.1092C231.419 31.0839 231.341 31.0413 231.274 30.9842C231.23 30.901 231.211 30.8068 231.22 30.7131C231.22 30.3878 231.609 30.1514 232.378 29.98C234.011 29.7013 235.564 29.0746 236.933 28.1424C237.025 28.069 237.136 28.022 237.253 28.0063C237.423 28.0183 237.51 28.1424 237.51 28.3664L237.488 28.5383C237.479 28.6511 237.474 28.9395 237.474 29.3895" fill="#1A1818"/>
<path d="M248.91 29.4876C248.46 29.5019 248.021 29.6245 247.628 29.8448C247.236 30.0651 246.903 30.3767 246.657 30.7532C246.007 31.611 245.665 32.663 245.687 33.7392C245.687 34.1068 245.779 34.3242 245.961 34.3953C246.45 34.5038 246.952 34.5438 247.452 34.514C247.868 34.514 248.305 34.5021 248.779 34.4717C249.914 34.4251 250.568 34.3953 250.747 34.3953C251.862 34.3953 252.415 34.0574 252.415 33.378C252.421 32.3711 252.038 31.4007 251.345 30.6697C251.049 30.3083 250.677 30.0155 250.257 29.8115C249.837 29.6074 249.377 29.4969 248.91 29.4876V29.4876ZM249.441 28.5252C250.402 28.5225 251.353 28.7276 252.228 29.1264C253.103 29.5251 253.881 30.1082 254.51 30.8356C255.698 32.1481 256.292 33.4527 256.293 34.7493C256.293 35.2465 255.955 35.4949 255.267 35.4949L254.4 35.4537H253.966L252.807 35.4764L249.215 35.5307L247.342 35.5485L246.697 35.5307C246.455 35.5007 246.208 35.5462 245.992 35.6608C245.832 35.8605 245.756 36.1151 245.781 36.37C245.766 38.0034 246.351 39.5856 247.425 40.8162C247.869 41.4054 248.441 41.8859 249.098 42.2217C249.755 42.5575 250.48 42.7397 251.218 42.7546C251.921 42.7886 252.624 42.6829 253.285 42.4436C253.947 42.2043 254.555 41.8362 255.074 41.3606L255.683 40.7642C255.723 40.7184 255.771 40.6811 255.826 40.6546C255.88 40.6282 255.94 40.613 256 40.6102C256.055 40.602 256.112 40.6067 256.165 40.6239C256.218 40.641 256.266 40.6702 256.306 40.7091C256.346 40.748 256.377 40.7956 256.396 40.8483C256.414 40.9009 256.42 40.9571 256.414 41.0125C256.414 41.3731 255.926 41.9939 254.944 42.856C253.445 44.28 251.467 45.0898 249.4 45.1252C248.397 45.1592 247.398 44.9743 246.474 44.5834C245.55 44.1926 244.721 43.6052 244.047 42.862C242.629 41.2598 241.888 39.1706 241.978 37.0331C241.939 34.8339 242.728 32.7003 244.189 31.0557C244.82 30.2684 245.619 29.6325 246.527 29.1948C247.436 28.7572 248.432 28.5289 249.44 28.5268" fill="#1A1818"/>
<path d="M264.443 22.6492V39.3978L264.457 40.0192C264.457 41.2733 264.633 42.142 264.991 42.6262C265.349 43.1104 266.037 43.4482 267.075 43.6195C267.274 43.6327 267.469 43.6869 267.647 43.7789C267.72 43.8864 267.75 44.0168 267.733 44.1455C267.733 44.4529 267.606 44.6118 267.354 44.6118C267.132 44.6034 266.91 44.5837 266.69 44.5527C265.447 44.4054 264.196 44.3385 262.944 44.3526C261.781 44.3211 260.617 44.3864 259.465 44.5478C259.323 44.5818 259.177 44.6032 259.031 44.6118C258.764 44.6118 258.634 44.4491 258.634 44.1341C258.634 43.9682 258.791 43.8201 259.11 43.6959C260.069 43.305 260.548 42.4722 260.548 41.2066L260.589 40.1141L260.606 39.6V24.3094C260.606 22.6779 260.473 21.5663 260.198 20.9753C260.07 20.6879 259.855 20.4476 259.584 20.2876C259.313 20.1276 258.998 20.0559 258.685 20.0823C258.324 20.0823 258.137 19.9115 258.137 19.5797C258.13 19.5003 258.146 19.4205 258.184 19.3502C258.221 19.2799 258.279 19.2221 258.349 19.1838C258.719 19.0492 259.102 18.9483 259.49 18.8824C260.855 18.6332 262.17 18.1636 263.383 17.4921L264.028 17.1126C264.131 17.05 264.247 17.0118 264.368 17.0009C264.556 16.9884 264.651 17.1126 264.651 17.3804C264.651 17.5171 264.637 17.8364 264.611 18.3277C264.498 20.0297 264.444 21.4785 264.444 22.6492" fill="#1A1818"/>
<path d="M277.585 36.6356C277.016 36.6101 276.447 36.6995 275.912 36.8986C275.378 37.0977 274.889 37.4023 274.475 37.7944C274.038 38.1222 273.678 38.5431 273.423 39.0266C273.167 39.5101 273.022 40.0443 272.998 40.5906C272.998 42.2632 273.667 43.1005 275.004 43.1027C275.774 43.122 276.532 42.9166 277.186 42.5117C277.367 42.3945 277.523 42.2419 277.643 42.063C277.764 41.8842 277.847 41.6829 277.887 41.4712C278.044 40.6614 278.109 39.8365 278.08 39.0122L278.099 37.5514V37.1502L277.984 36.7305C277.861 36.6654 277.724 36.6327 277.585 36.6356V36.6356ZM277.965 35.5301C278.093 35.0451 278.163 34.5468 278.175 34.0455C278.224 32.94 277.903 31.8499 277.262 30.9478C276.999 30.5713 276.648 30.2651 276.24 30.0558C275.831 29.8465 275.378 29.7405 274.919 29.7473C273.702 29.7473 273.094 30.2503 273.095 31.2563C273.093 31.4378 273.105 31.6191 273.133 31.7985L273.187 32.1596C273.187 33.0104 272.204 33.436 270.251 33.436C269.739 33.436 269.497 33.2191 269.519 32.7734C269.532 32.6315 269.565 32.4921 269.618 32.3597C269.65 32.2176 269.692 32.0582 269.73 31.8636C269.858 31.1175 270.273 30.4511 270.886 30.007C272.311 29.0246 274.012 28.5215 275.742 28.5707C277.929 28.5707 279.569 29.0728 280.652 30.0845C281.488 30.8527 281.903 32.1902 281.899 34.097C281.899 35.0545 281.863 36.2599 281.79 37.7212C281.71 39.3814 281.669 40.4865 281.669 41.0482C281.669 42.3495 282.195 43.0002 283.233 43.0002C283.512 43.0146 283.791 42.9682 284.051 42.8641C284.186 42.793 284.333 42.7471 284.485 42.7286C284.521 42.7237 284.558 42.7273 284.593 42.7392C284.628 42.7512 284.66 42.7711 284.686 42.7973C284.712 42.8236 284.732 42.8555 284.743 42.8907C284.755 42.9258 284.758 42.9631 284.753 42.9997C284.753 43.319 284.508 43.6146 284.012 43.8981L283.273 44.2826L282.623 44.6621C282.161 44.9091 281.644 45.0348 281.121 45.0276C280.007 45.0276 279.069 44.3066 278.308 42.8647C275.958 44.372 274.006 45.1246 272.452 45.1225C271.989 45.1485 271.527 45.079 271.093 44.9182C270.659 44.7575 270.263 44.509 269.929 44.1882C269.613 43.8386 269.37 43.4296 269.214 42.9851C269.058 42.5406 268.992 42.0694 269.02 41.5991C268.975 40.6936 269.199 39.7951 269.665 39.0169C270.13 38.2387 270.815 37.6156 271.633 37.2261C272.703 36.6817 274.811 36.1158 277.957 35.5284" fill="#1A1818"/>
<path d="M74.9475 22.0873C74.9475 21.6107 75.0889 21.1449 75.3537 20.7487C75.6185 20.3524 75.9949 20.0437 76.4352 19.8614C76.8755 19.6791 77.36 19.6315 77.8274 19.7247C78.2948 19.8178 78.724 20.0475 79.0608 20.3846C79.3977 20.7217 79.6269 21.1512 79.7196 21.6187C79.8124 22.0861 79.7643 22.5706 79.5817 23.0107C79.399 23.4509 79.0899 23.827 78.6934 24.0914C78.297 24.3559 77.831 24.4968 77.3544 24.4964C76.716 24.4955 76.1039 24.2414 75.6527 23.7897C75.2014 23.338 74.9478 22.7258 74.9475 22.0873Z" fill="#1A1818"/>
<path d="M232.94 21.8473C232.94 21.3709 233.082 20.9052 233.346 20.5091C233.611 20.113 233.987 19.8043 234.427 19.622C234.868 19.4398 235.352 19.3921 235.819 19.485C236.286 19.5779 236.716 19.8073 237.053 20.1441C237.389 20.481 237.619 20.9101 237.712 21.3773C237.805 21.8446 237.757 22.3289 237.575 22.7691C237.393 23.2093 237.084 23.5856 236.688 23.8504C236.292 24.1152 235.827 24.2567 235.35 24.2569C234.711 24.2563 234.099 24.0023 233.647 23.5505C233.195 23.0988 232.941 22.4862 232.94 21.8473" fill="#1A1818"/>
</svg>
