<svg xmlns="http://www.w3.org/2000/svg" viewBox="0 0 190 16"><path d="M98.375.007c3.578 0 6.597 1.523 6.57 5.557 0 2.206-.781 3.242-2.582 3.965l-.119.047c-.1.038-.204.076-.31.113l-.064.022v.139c.365.24.683.546.938.903l.04.056L106.286 16h-6.625l-2.516-5.128h-.112V16h-5.62L91.409.007h6.967zM57.896.005l5.646 15.994h-6.097l-.532-2.002h-4.33l-.474 2.002h-6.097L51.519.005h6.377zm82.708 0l5.172 8.857h.167a22.378 22.378 0 01-.469-4.062V.005h5.479v15.994h-5.506l-5.06-8.406h-.168c.206 1.052.327 2.119.364 3.19v5.19h-5.507V.006h5.528zm49.396 0v15.994h-5.759V.005H190zM18.875 0l2.597 15.994h-5.566l-.783-8.744h-.113a10.093 10.093 0 01-.392 1.579l-2.292 7.165H8.972l-2.067-6.77a11.94 11.94 0 01-.364-2.003h-.196c-.02.244-.038.487-.054.729l-.031.481c-.016.24-.033.476-.054.71l-.699 6.825H0L2.571.005h5.927l2.18 8.377h.14c.091-.712.224-1.418.397-2.115L13.004 0h5.871zm36.028 5.308h-.226l-1.063 4.88h2.351l-.535-2.396-.213-.973-.123-.567-.093-.442-.058-.285-.027-.144-.013-.073zm42.613-.931h-.483V7.09h.477l.122-.002.091-.002.091-.004.06-.003.09-.007.059-.005.058-.006.058-.007.057-.008.057-.01.028-.004.055-.011.027-.006.054-.013.027-.007.052-.014c.485-.145.833-.475.833-1.222 0-.804-.364-1.147-.887-1.288l-.054-.014-.027-.006-.055-.012-.028-.005-.057-.01-.029-.005-.058-.008-.03-.003-.058-.007-.06-.006-.061-.005-.061-.004-.094-.004-.062-.002-.096-.002-.096-.001z" fill="#b22335" fill-rule="evenodd"></path></svg>