<svg version="1.0" xmlns="http://www.w3.org/2000/svg" viewBox="0 0 1292.000000 1292.000000" preserveAspectRatio="xMidYMid meet">
<metadata>
Created by potrace 1.11, written by Peter Selinger 2001-2013
</metadata>
<g transform="translate(0.000000,1292.000000) scale(0.100000,-0.100000)" fill="#000000" stroke="none">
<path d="M5020 9197 c-3 -3 -23 -8 -45 -11 -22 -4 -60 -16 -85 -28 -93 -45
-141 -110 -189 -258 -12 -36 -26 -74 -31 -85 -13 -30 -110 -302 -110 -310 0
-4 -6 -21 -14 -38 -16 -37 -45 -119 -47 -129 0 -4 -12 -36 -25 -70 -14 -35
-27 -70 -29 -78 -2 -8 -18 -53 -35 -100 -37 -103 -41 -114 -42 -120 -1 -3 -14
-35 -29 -72 -15 -38 -25 -68 -22 -68 3 0 1 -6 -4 -12 -6 -7 -30 -69 -53 -138
-24 -69 -46 -129 -50 -135 -4 -5 -21 -50 -38 -100 -17 -49 -38 -110 -47 -135
-8 -25 -22 -61 -30 -80 -7 -19 -55 -147 -105 -285 -51 -137 -96 -262 -102
-277 -5 -15 -9 -30 -8 -34 1 -4 -2 -10 -7 -13 -4 -3 -14 -24 -21 -46 -19 -54
-92 -255 -103 -280 -5 -11 -59 -157 -120 -325 -107 -292 -143 -373 -171 -382
-22 -8 -47 3 -53 23 -4 10 -10 19 -14 19 -4 0 -25 37 -46 83 -21 45 -57 123
-80 172 -24 50 -52 110 -63 135 -11 25 -41 90 -67 145 -46 98 -67 145 -70 155
0 3 -13 31 -28 63 -15 31 -39 83 -53 115 -14 31 -35 77 -46 102 -12 25 -31 68
-43 95 -13 28 -37 80 -54 118 -17 37 -31 69 -31 72 0 2 -18 43 -41 92 -23 48
-68 149 -101 223 -33 74 -71 159 -84 188 -48 105 -74 162 -179 397 -118 264
-134 299 -207 460 -143 313 -195 427 -256 555 -20 41 -36 77 -37 80 0 3 -17
39 -36 80 -39 81 -106 152 -175 185 -48 23 -69 23 -730 29 -567 5 -623 2 -682
-35 -34 -21 -49 -83 -27 -112 14 -19 113 -58 206 -82 35 -9 71 -19 79 -22 8
-3 22 -7 31 -9 44 -9 223 -60 254 -73 141 -58 189 -93 200 -146 6 -31 17 -123
17 -140 -1 -30 -13 -163 -16 -182 -3 -12 -8 -53 -11 -90 -4 -37 -8 -79 -10
-93 -5 -36 -17 -151 -29 -295 -13 -142 -16 -171 -20 -215 -4 -41 -8 -86 -21
-240 -3 -30 -7 -86 -10 -125 -2 -38 -7 -93 -10 -122 -3 -29 -7 -85 -10 -125
-3 -40 -7 -109 -10 -153 -3 -44 -7 -118 -10 -165 -3 -47 -7 -105 -9 -130 -3
-25 -8 -101 -11 -170 -3 -69 -7 -161 -10 -205 -14 -242 -29 -610 -40 -1045 -7
-237 -16 -656 -15 -680 0 -8 0 -28 0 -45 1 -65 -40 -246 -62 -278 -54 -77
-111 -119 -216 -157 -42 -15 -80 -28 -85 -28 -4 0 -33 -6 -65 -13 -31 -6 -64
-13 -72 -14 -8 -2 -15 -4 -15 -5 0 -1 -9 -3 -20 -5 -183 -26 -281 -91 -261
-171 9 -34 53 -74 82 -74 12 0 26 -5 29 -10 6 -10 229 -8 610 5 142 5 373 6
995 3 244 -1 338 3 366 16 23 10 45 56 50 101 2 22 -52 85 -73 85 -7 0 -13 5
-13 11 0 5 -4 8 -9 4 -5 -3 -12 -1 -16 5 -6 9 -65 28 -115 36 -14 2 -45 9 -70
14 -25 5 -58 12 -75 15 -100 16 -168 38 -217 71 -21 13 -41 24 -46 24 -15 0
-83 74 -102 110 -38 75 -53 154 -66 350 -3 41 -7 95 -9 120 -42 454 -52 1575
-20 2300 3 58 7 155 10 215 3 61 8 151 10 200 12 220 13 238 27 246 16 11 30
11 43 1 9 -6 75 -135 75 -147 0 -2 23 -51 50 -110 28 -59 50 -108 50 -110 0
-2 23 -51 50 -110 28 -59 50 -108 50 -110 0 -4 13 -32 98 -215 28 -61 55 -122
57 -130 3 -9 22 -53 55 -125 58 -127 141 -318 232 -530 33 -77 68 -158 78
-180 39 -89 50 -114 85 -200 21 -49 45 -108 55 -130 10 -22 30 -69 45 -105 15
-36 34 -80 41 -97 8 -18 20 -48 28 -65 32 -76 66 -167 66 -177 0 -6 5 -11 10
-11 6 0 10 -7 10 -15 0 -8 4 -23 9 -33 18 -33 171 -417 346 -862 55 -141 122
-286 150 -324 20 -26 84 -29 120 -6 39 26 77 85 115 182 18 46 39 97 45 113 7
17 34 86 60 155 26 69 53 139 60 155 21 48 47 123 47 132 0 4 4 13 8 18 5 6
21 44 35 85 15 41 33 89 40 105 8 17 44 111 81 210 37 99 72 191 77 205 6 14
11 27 11 30 1 5 22 60 36 95 12 31 23 59 24 65 2 10 89 237 103 269 8 18 16
39 17 45 3 17 39 110 47 121 4 6 11 26 17 45 12 42 207 562 227 607 8 17 15
36 15 41 0 9 82 231 110 297 5 11 25 65 45 120 21 55 41 109 46 120 4 11 22
58 39 105 17 47 36 96 42 110 7 14 12 27 13 30 1 7 52 143 88 235 34 88 82
170 99 170 6 0 14 -10 19 -22 5 -14 5 -23 -2 -23 -6 0 -5 -8 2 -21 6 -12 13
-58 14 -103 28 -655 37 -1090 37 -1821 0 -752 -11 -1359 -27 -1435 -3 -14 -8
-38 -11 -55 -6 -37 -42 -111 -63 -129 -19 -17 -116 -67 -140 -71 -9 -2 -16 -4
-16 -5 0 -3 -71 -17 -183 -36 -86 -14 -156 -61 -184 -123 -23 -52 -18 -84 19
-108 25 -17 89 -18 983 -20 525 -1 1005 -3 1065 -4 111 -3 137 3 177 39 20 17
33 71 24 99 -9 30 -106 75 -280 132 -212 70 -272 106 -330 196 -54 84 -48 -20
-61 995 -3 278 -8 656 -10 840 -5 416 -15 1149 -20 1540 -6 435 -7 1036 -1
1107 6 83 31 121 120 179 53 36 126 59 242 79 55 10 104 18 109 19 6 2 28 6
50 11 62 12 119 43 137 73 18 31 16 53 -7 88 -34 52 -49 54 -450 48 -508 -8
-589 -8 -750 1 -77 4 -142 5 -145 2z"></path>
<path d="M11498 9195 c-2 -3 -13 -6 -24 -8 -94 -17 -188 -85 -228 -166 -13
-25 -42 -100 -65 -166 -23 -66 -51 -142 -61 -170 -10 -27 -39 -108 -65 -180
-25 -71 -49 -137 -52 -145 -3 -8 -7 -17 -7 -20 -1 -3 -9 -25 -18 -50 -9 -25
-37 -103 -63 -175 -52 -144 -123 -342 -132 -365 -4 -8 -5 -18 -5 -22 1 -5 -3
-8 -10 -8 -6 0 -9 -3 -5 -6 3 -4 -1 -23 -9 -43 -9 -20 -24 -61 -34 -91 -10
-30 -23 -68 -30 -85 -22 -53 -73 -191 -76 -205 0 -3 -4 -12 -7 -20 -8 -19
-117 -312 -121 -325 -2 -5 -6 -19 -10 -30 -11 -28 -17 -50 -16 -53 0 -1 -7
-16 -15 -32 -8 -16 -16 -33 -17 -37 0 -5 -4 -17 -9 -28 -12 -32 -22 -59 -25
-70 -1 -5 -14 -41 -28 -80 -29 -75 -34 -91 -37 -103 -1 -4 -15 -37 -30 -74
-15 -38 -25 -68 -22 -68 3 0 1 -6 -4 -12 -5 -7 -20 -42 -33 -78 -12 -36 -29
-79 -36 -97 -8 -17 -14 -36 -14 -43 0 -6 -5 -21 -12 -33 -7 -12 -13 -30 -15
-40 -2 -10 -9 -30 -17 -45 -7 -15 -21 -52 -31 -82 -10 -30 -22 -61 -28 -67 -5
-7 -7 -13 -4 -13 4 0 -3 -21 -14 -47 -12 -27 -27 -68 -35 -93 -8 -25 -27 -66
-44 -92 -46 -74 -81 -55 -144 77 -69 144 -100 210 -101 215 -1 3 -11 25 -22
50 -41 88 -105 226 -125 270 -11 25 -31 69 -44 98 -61 133 -78 170 -99 217
-13 28 -32 70 -43 95 -11 25 -52 116 -91 202 -39 86 -98 219 -132 295 -34 76
-79 176 -100 221 -22 46 -39 86 -39 88 0 2 -16 39 -36 82 -19 42 -41 91 -49
107 -40 90 -57 127 -90 200 -35 76 -57 124 -60 135 -1 3 -18 40 -38 83 -20 43
-37 80 -37 82 0 2 -17 41 -39 87 -21 45 -50 108 -63 138 -14 30 -36 78 -48
105 -13 28 -35 77 -51 110 -15 33 -41 89 -57 125 -17 36 -53 114 -81 173 -28
60 -51 112 -51 117 0 18 -107 118 -150 140 -57 29 -95 31 -775 33 -577 2 -604
0 -656 -42 -29 -23 -33 -96 -7 -115 24 -17 178 -67 343 -112 243 -65 364 -116
400 -170 35 -52 39 -216 10 -424 -3 -19 -8 -64 -11 -100 -3 -36 -8 -76 -9 -90
-3 -25 -12 -115 -20 -200 -3 -25 -8 -76 -11 -115 -4 -38 -8 -83 -9 -100 -2
-16 -6 -59 -9 -95 -3 -36 -8 -99 -11 -140 -4 -41 -8 -97 -10 -125 -6 -82 -16
-208 -20 -242 -2 -17 -7 -80 -10 -140 -4 -59 -8 -130 -11 -158 -2 -27 -6 -97
-9 -155 -3 -58 -8 -130 -11 -160 -3 -30 -5 -61 -5 -67 1 -7 1 -19 2 -25 0 -7
-2 -51 -5 -98 -8 -107 -14 -246 -32 -690 -8 -198 -11 -303 -18 -745 -6 -345
-11 -459 -20 -473 -4 -6 -16 -86 -21 -135 -1 -10 -19 -42 -40 -71 -68 -95
-187 -155 -375 -191 -135 -26 -225 -48 -234 -56 -6 -5 -17 -9 -25 -9 -9 0 -28
-11 -43 -24 -81 -72 -61 -149 49 -181 55 -16 129 -16 648 1 88 3 309 5 490 4
864 -4 834 -6 870 36 13 15 25 43 27 63 9 70 -81 128 -249 162 -54 11 -114 22
-133 25 -112 16 -244 77 -306 141 -50 51 -92 157 -99 248 -8 97 -15 185 -21
250 -13 160 -20 282 -31 580 -10 244 -9 1240 0 1500 14 357 16 409 21 505 3
52 8 149 12 215 9 171 9 168 20 189 16 27 46 16 67 -24 19 -38 137 -295 172
-375 7 -16 29 -64 48 -105 19 -41 44 -97 57 -125 12 -27 39 -86 59 -129 20
-44 35 -83 34 -88 -2 -4 2 -8 7 -8 5 0 9 -3 8 -7 -1 -5 8 -29 20 -55 29 -64
42 -93 167 -378 59 -135 115 -263 125 -285 10 -22 30 -69 45 -105 15 -36 35
-83 45 -105 10 -22 55 -128 100 -235 78 -184 90 -214 124 -292 8 -18 35 -85
60 -148 26 -63 51 -124 56 -135 14 -29 182 -446 241 -600 28 -71 55 -141 61
-155 15 -36 23 -56 53 -135 54 -142 126 -281 155 -299 38 -22 72 -20 106 6 53
41 76 84 153 288 28 74 58 149 65 165 8 17 31 75 51 130 20 55 41 109 45 120
13 28 52 128 55 140 1 6 6 19 10 30 5 11 17 43 27 70 10 28 22 59 27 70 5 11
18 45 29 75 11 30 36 93 54 140 18 47 33 87 33 90 2 5 8 23 30 80 16 41 28 73
30 80 1 3 5 14 9 25 5 11 21 54 36 95 16 41 46 122 68 180 22 58 95 251 161
430 67 179 124 332 128 340 3 8 7 20 9 25 3 10 79 215 94 250 29 74 86 224
110 290 12 33 25 69 30 80 5 11 43 112 85 225 42 113 80 214 85 225 6 11 17
40 25 64 17 51 83 161 95 161 11 0 24 -39 16 -47 -3 -3 -1 -13 4 -23 11 -20
19 -200 37 -775 10 -322 10 -1999 0 -2305 -10 -339 -21 -388 -98 -463 -27 -26
-52 -46 -56 -45 -5 1 -21 -5 -38 -13 -27 -14 -89 -30 -165 -43 -96 -16 -151
-30 -161 -42 -6 -8 -17 -14 -24 -14 -19 0 -73 -69 -81 -102 -7 -34 11 -83 34
-95 10 -4 460 -9 1002 -10 542 -1 1017 -3 1055 -4 115 -4 162 14 185 70 16 40
7 75 -28 99 -27 20 -172 84 -172 77 0 -2 -57 16 -127 41 -182 62 -260 121
-308 228 -24 54 -22 0 -31 746 -6 521 -20 1651 -30 2415 -7 563 -9 1124 -4
1240 2 44 10 93 17 108 20 41 79 94 132 121 45 23 183 59 271 71 25 3 80 15
123 27 94 25 132 60 124 115 -6 37 -23 57 -64 78 -23 12 -90 13 -398 9 -487
-7 -581 -7 -761 0 -84 2 -154 3 -156 1z"></path>
</g>
</svg>
