<?xml version="1.0" encoding="utf-8"?>
<!-- Generator: Adobe Illustrator 23.0.0, SVG Export Plug-In . SVG Version: 6.00 Build 0)  -->
<svg version="1.1" id="Layer_1" xmlns="http://www.w3.org/2000/svg" xmlns:xlink="http://www.w3.org/1999/xlink" x="0px" y="0px"
	 viewBox="0 0 1000 1000" style="enable-background:new 0 0 1000 1000;" xml:space="preserve">
<g>
<svg viewBox="0 0 101 64" focusable="false" class="chakra-icon css-hxklep">
<path fill-rule="evenodd" clip-rule="evenodd" fill="currentColor" d="M45.8603 7.85041C45.7049 7.53188 45.6388 7.10848 45.5456 6.3044L45.0562 2.02764C44.9863 1.39059 44.9435 1.02545 44.9979 0.753536C45.0562 0.574852 45.1727 0.43113 45.3708 0.252446V0.209717H45.3087H44.9901H43.1839C43.1839 0.209717 42.6401 1.44108 42.1817 2.51707C42.0807 2.74626 41.9797 2.98709 41.8787 3.23958C41.7505 3.54645 41.6495 3.79894 41.599 3.94654C41.5835 3.98927 41.5718 4.02424 41.5641 4.05143H41.4747C41.4747 4.04754 41.4553 4.01258 41.4242 3.94654C41.3427 3.77563 41.1717 3.41438 40.9659 2.98321C40.8571 2.73849 40.7444 2.50153 40.6357 2.27235L39.7928 0.504932C39.7112 0.334017 39.6607 0.225255 39.6529 0.209717H37.7262H37.4543H37.4194V0.256328C37.567 0.411706 37.6641 0.543781 37.7262 0.691389C37.8078 0.974953 37.7884 1.30901 37.7418 1.84118L37.3456 6.43647C37.2912 7.04244 37.2329 7.49692 37.0698 7.86983C36.9727 8.02132 36.8484 8.14951 36.6697 8.30877V8.32819H37.0775H39.0741H39.4665V8.30877C39.2917 8.14951 39.1674 7.97859 39.078 7.78437C39.0042 7.50081 39.0159 7.10071 39.0625 6.37044L39.0975 5.79165C39.1324 5.22064 39.1557 4.71955 39.1557 4.12911V4.0592V3.97762L39.1596 3.57364H39.28L39.4237 3.97762L39.4859 4.14854C39.6762 4.69624 39.851 5.12742 40.1152 5.69843L40.2822 6.07133L41.3116 8.51076H41.3504L42.069 6.73946L42.3565 6.06745L42.5196 5.69843C42.7449 5.17792 42.9508 4.63797 43.1295 4.09804L43.1645 3.99704L43.2965 3.59307H43.4169L43.4325 3.99704L43.4364 4.14077C43.4597 4.6807 43.4946 5.27114 43.5374 5.90042L43.5646 6.24614C43.6189 7.0036 43.65 7.4542 43.5917 7.78049C43.5024 7.97471 43.3781 8.14562 43.2033 8.30488V8.32431H43.5956H45.8603H46.272V8.30488C46.0856 8.13785 45.9574 8.00578 45.8603 7.85041Z"></path>
<path fill-rule="evenodd" clip-rule="evenodd" fill="currentColor" d="M63.4958 7.85041C63.3404 7.53188 63.2743 7.10848 63.1811 6.3044L62.6917 2.02764C62.6218 1.39059 62.579 1.02545 62.6334 0.753536C62.6917 0.574852 62.8082 0.43113 63.0063 0.252446V0.209717H62.9442H62.6256H60.8194C60.8194 0.209717 60.2756 1.44108 59.8172 2.51707C59.7162 2.74626 59.6152 2.98709 59.5142 3.23958C59.386 3.54645 59.285 3.79894 59.2345 3.94654C59.219 3.98927 59.2073 4.02424 59.1996 4.05143H59.1102C59.1102 4.04754 59.0908 4.01258 59.0597 3.94654C58.9782 3.77563 58.8072 3.41438 58.6014 2.98321C58.4926 2.73849 58.38 2.50153 58.2712 2.27235L57.4283 0.504932C57.3467 0.334017 57.2962 0.225255 57.2884 0.209717H55.3617H55.0898H55.0549V0.256328C55.2025 0.411706 55.2996 0.543781 55.3617 0.691389C55.4433 0.974953 55.4239 1.30901 55.3773 1.84118L54.9811 6.43647C54.9267 7.04244 54.8684 7.49692 54.7053 7.86983C54.6082 8.02132 54.4839 8.14951 54.3052 8.30877V8.32819H54.7169H56.7135H57.1059V8.30877C56.9311 8.14951 56.8068 7.97859 56.7174 7.78437C56.6436 7.50081 56.6553 7.10071 56.7019 6.37044L56.7368 5.79165C56.7718 5.22064 56.7951 4.71955 56.7951 4.12911V4.0592V3.97762L56.799 3.57364H56.9194L57.0631 3.97762L57.1253 4.14854C57.3156 4.69624 57.4904 5.12742 57.7546 5.69843L57.9216 6.07133L58.951 8.51076H58.9898L59.7084 6.73946L59.9959 6.06745L60.159 5.69843C60.3843 5.17792 60.5863 4.63797 60.7689 4.09804L60.8038 3.99704L60.9359 3.59307H61.0563L61.0719 3.99704L61.0757 4.14077C61.0991 4.6807 61.134 5.27114 61.1767 5.90042L61.2039 6.24614C61.2583 7.0036 61.2894 7.4542 61.2311 7.78049C61.1418 7.97471 61.0175 8.14562 60.8427 8.30488V8.32431H61.2272H63.4919H63.8997V8.30488C63.7211 8.13785 63.5929 8.00578 63.4958 7.85041Z"></path>
<path fill-rule="evenodd" clip-rule="evenodd" fill="currentColor" d="M51.0889 6.98422C49.7605 6.98422 48.836 5.89269 48.836 4.32726C48.836 2.94052 49.5391 1.54212 51.1123 1.54212C51.9591 1.54212 52.6777 1.90726 53.439 2.72299L53.4701 2.75795V0.516631L53.4585 0.512743C52.6116 0.167028 51.7998 0 50.9763 0C48.5796 0 46.6257 1.98494 46.6257 4.42049C46.6257 6.77446 48.467 8.55353 50.9064 8.55353C51.792 8.55353 52.7398 8.27385 53.5051 7.79218L53.5128 7.78829V5.53921L53.4818 5.57805C52.7631 6.46759 51.893 6.98422 51.0889 6.98422Z"></path>
<path fill-rule="evenodd" clip-rule="evenodd" fill="currentColor" d="M49.7989 35.4611C49.7328 35.4494 49.6668 35.4339 49.6008 35.4183C49.4648 35.3873 49.3366 35.3523 49.2046 35.3096C48.5986 35.1192 48.0587 34.8396 47.6042 34.4783L46.8156 33.8529L46.4816 35.799C45.1648 43.327 43.9256 44.2943 42.9895 44.2943C41.8047 44.2943 39.5129 42.9464 37.4852 41.7539C34.7739 40.1574 31.9693 38.5103 29.6892 38.5103C28.2946 38.5103 27.1176 39.058 26.1893 40.1418C23.6139 43.1406 23.1944 50.3307 24.9501 61.514L25.1327 62.6832L25.3735 64L34.7234 62.5822L34.401 61.2576L34.0902 60.0029C31.779 50.6453 32.3888 48.0311 32.956 47.3086C33.0686 47.1649 33.1968 47.0755 33.4842 47.0755C34.3738 47.0755 36.3044 48.505 37.862 49.6587C40.0761 51.3018 42.368 52.9993 44.3179 52.9993C47.0604 52.9993 48.1364 50.6065 49.0065 48.1554C49.9659 45.4441 50.5874 41.5791 50.8555 36.6652L50.9137 35.6126L50.3505 35.5543C50.1834 35.531 50.0164 35.5038 49.7989 35.4611Z"></path>
<path fill-rule="evenodd" clip-rule="evenodd" fill="currentColor" d="M71.2409 38.9648C68.9219 38.9648 66.4903 40.2933 64.1363 41.5791C62.2679 42.6007 60.5043 43.564 59.3118 43.564C57.4551 43.564 56.2198 41.2489 55.1749 35.8262L54.8525 34.1598L54.1067 34.6687C53.3686 35.1697 52.4713 35.4805 51.508 35.5621L50.9292 35.6126L50.9914 36.6653C51.6478 47.9224 53.1006 51.7213 56.7481 51.7213C58.2669 51.7213 60.2752 50.6997 62.0348 49.7053L62.1863 49.6199C64.2917 48.4506 65.4531 47.8058 66.4864 47.8058C67.0846 47.8058 67.3176 48.0156 67.4614 48.2176C67.9042 48.8313 68.6461 51.1231 65.9542 59.1367L65.5269 60.4108L65.0569 61.782L74.2863 63.631L74.4844 63.6738L74.803 62.2754L75.0555 61.1372C77.425 50.3851 77.4094 43.7077 75.005 40.7284C74.061 39.5553 72.7947 38.9648 71.2409 38.9648Z"></path>
<path fill-rule="evenodd" clip-rule="evenodd" fill="currentColor" d="M50.7272 27.5756L50.7077 27.5601C50.529 27.5756 50.3504 27.5989 50.1794 27.6339"></path>
<path fill-rule="evenodd" clip-rule="evenodd" fill="currentColor" d="M51.4963 27.5834C51.6556 27.5951 51.811 27.6223 51.9625 27.6456C51.8149 27.6106 51.6634 27.5873 51.508 27.5718C51.5041 27.5757 51.5002 27.5795 51.4963 27.5834Z"></path>
<path fill-rule="evenodd" clip-rule="evenodd" fill="currentColor" d="M57.5637 18.6764C56.7247 14.8735 53.6637 13.2576 50.7349 13.3819C50.7349 13.3819 47.9886 13.3858 46.0774 15.5921C44.0536 17.9306 43.6807 22.2539 45.6191 25.3615C46.3144 26.4763 47.2428 27.4746 48.1517 28.2981C48.3226 28.201 48.5052 28.1156 48.6917 28.034C48.7422 28.0107 48.7965 27.9951 48.8509 27.9718C48.9675 27.9252 49.0879 27.8864 49.2083 27.8475C49.3287 27.8087 49.4491 27.7776 49.5734 27.7465C49.6628 27.7232 49.7521 27.7038 49.8414 27.6883C49.9541 27.665 50.0667 27.6455 50.1833 27.63C50.362 27.6067 50.5445 27.5834 50.731 27.5756L50.7116 27.5601C50.7465 27.5562 50.7776 27.5484 50.8087 27.5484L50.1677 26.8842C50.1677 26.8842 48.9364 25.5363 48.715 23.9359C48.4897 22.3355 48.7655 20.9488 49.7482 20.0709C50.731 19.193 51.873 19.5465 52.4324 20.0864C52.9917 20.6225 53.4579 21.4032 53.5006 22.9376C53.5394 24.4758 52.9878 25.7616 52.009 26.8803C51.7293 27.1988 51.5389 27.4125 51.403 27.5562C51.4418 27.5601 51.4768 27.5679 51.5118 27.5717C51.5079 27.5756 51.504 27.5795 51.5001 27.5834C51.6594 27.595 51.8147 27.6222 51.9662 27.6455C52.0944 27.665 52.2265 27.6922 52.3508 27.7193C52.4052 27.731 52.4634 27.7465 52.5178 27.7621C52.6654 27.8009 52.813 27.8398 52.9529 27.8903C53.0888 27.9369 53.2209 27.9874 53.353 28.0417C53.3841 28.0534 53.4151 28.0651 53.4423 28.0767C53.6288 28.1622 53.8075 28.2554 53.9784 28.3564C54.8912 27.4202 55.8235 26.387 56.3323 25.5868C57.1442 24.2972 58.3018 22.0131 57.5637 18.6764Z"></path>
<path fill-rule="evenodd" clip-rule="evenodd" fill="currentColor" d="M47.1147 31.4951C47.1147 33.1809 48.8122 34.5444 50.9059 34.5444C52.9997 34.5444 54.6972 33.1809 54.6972 31.4951C54.6972 29.8092 52.9997 28.4458 50.9059 28.4458C48.8122 28.4458 47.1147 29.8131 47.1147 31.4951Z"></path>
<path fill-rule="evenodd" clip-rule="evenodd" fill="currentColor" d="M6.63503 13.681L7.45077 14.0034L7.38085 13.1294C6.76711 5.44989 3.44591 3.51544 1.0026 2.7269L0.443236 2.54822L0.303402 3.11923C-0.51233 6.46762 -0.0772779 11.0163 6.63503 13.681Z"></path>
<path fill-rule="evenodd" clip-rule="evenodd" fill="currentColor" d="M14.6061 21.5664L13.4796 20.9216C11.988 20.067 10.811 18.9133 9.56408 17.6897C7.68012 15.8369 5.73014 13.9179 2.55267 13.0206L1.95446 12.8497L1.86512 13.4674C1.42617 16.5516 2.21472 19.1503 4.0909 20.7895C5.40384 21.9354 7.19846 22.5414 9.28828 22.5414C10.5313 22.5414 11.8986 22.3316 13.3631 21.916L14.6061 21.5664Z"></path>
<path fill-rule="evenodd" clip-rule="evenodd" fill="currentColor" d="M36.5959 29.0439L37.4388 28.3641L36.39 28.0883C30.9945 26.6822 28.3803 26.2122 22.8877 29.7742L22.2817 30.1665L22.8256 30.6404C24.3405 31.965 26.1079 32.637 28.0851 32.637C30.7343 32.6448 33.6748 31.3979 36.5959 29.0439Z"></path>
<path fill-rule="evenodd" clip-rule="evenodd" fill="currentColor" d="M18.5022 21.648L20.3395 22.0209L18.9916 20.7196C18.2186 19.9738 17.5388 18.6298 16.7464 17.0682C15.0411 13.7082 12.9241 9.53243 8.40262 8.79827L7.66846 8.67786L7.77722 9.4159C8.76775 16.1981 12.4774 20.4244 18.5022 21.648Z"></path>
<path fill-rule="evenodd" clip-rule="evenodd" fill="currentColor" d="M27.576 26.3442L26.465 25.9208C25.5522 25.5712 24.7015 25.2333 23.8819 24.907C18.5175 22.7744 15.2779 21.4848 10.1349 23.6174L9.62988 23.8271L9.83963 24.3321C10.5388 26.018 12.1276 27.3736 14.3067 28.1505C15.6779 28.6361 17.1851 28.8847 18.7816 28.8847C21.4269 28.8847 24.1771 28.1855 26.5272 26.9153L27.576 26.3442Z"></path>
<path fill-rule="evenodd" clip-rule="evenodd" fill="currentColor" d="M56.4492 27.0202L56.0452 27.7699L56.8881 27.8903C57.3698 27.9602 57.8437 27.9952 58.302 27.9952C63.1226 27.9952 65.6009 24.1729 67.0925 21.8694C67.4033 21.3878 67.6752 20.9721 67.9238 20.6458L68.553 19.8262L67.5276 19.6941C61.328 18.9017 59.0284 22.2307 56.4492 27.0202Z"></path>
<path fill-rule="evenodd" clip-rule="evenodd" fill="currentColor" d="M65.29 26.387L66.335 26.3209C73.9485 25.8432 75.9528 22.1724 77.5649 19.2241C78.0155 18.3967 78.4427 17.6159 78.9477 17.041L79.713 16.167L78.5515 16.1321C73.5251 16.0039 70.0679 18.5288 65.8339 25.4897L65.29 26.387Z"></path>
<path fill-rule="evenodd" clip-rule="evenodd" fill="currentColor" d="M77.0601 22.8755L78.0933 22.6657C84.8328 21.2906 87.6762 18.6143 89.3621 12.0612L89.5213 11.4397L88.8843 11.3814C83.5005 10.8881 79.7131 16.8352 77.4835 21.9083L77.0601 22.8755Z"></path>
<path fill-rule="evenodd" clip-rule="evenodd" fill="currentColor" d="M37.5861 23.2911L37.59 23.2989C39.7653 26.9502 40.4994 28.1816 45.4055 28.2632L46.6835 28.2826L45.8755 27.2921C45.355 26.655 44.9316 25.9092 44.4849 25.1246C43.1059 22.7007 41.5521 19.9388 36.6344 20.0087L35.574 20.0243L36.1411 20.9177C36.7082 21.815 37.1744 22.5997 37.5861 23.2911Z"></path>
<path fill-rule="evenodd" clip-rule="evenodd" fill="currentColor" d="M29.2231 25.4858L30.571 25.7267L29.7552 24.6235C29.2542 23.9437 28.7531 23.2251 28.2636 22.5259C25.5523 18.6376 22.7438 14.6133 17.9776 14.6133C17.9077 14.6133 17.8339 14.6133 17.7601 14.6172L16.9055 14.6405L17.2862 15.4057C20.083 21.0343 21.6212 24.1379 29.2231 25.4858Z"></path>
<path fill-rule="evenodd" clip-rule="evenodd" fill="currentColor" d="M28.7804 21.1896L28.7843 21.1974C30.6371 23.9243 32.556 26.7483 37.6718 27.4863L38.6274 27.6261L38.2506 26.7366C34.9566 18.9172 31.5072 17.3829 27.0324 17.445L25.7971 17.4567L26.64 18.3617C27.448 19.2319 28.1239 20.2302 28.7804 21.1896Z"></path>
<path fill-rule="evenodd" clip-rule="evenodd" fill="currentColor" d="M86.3594 24.4448C82.5216 23.4076 79.2082 22.5064 73.3349 25.7189L72.3677 26.2471L73.3737 26.6977C77.1222 28.368 80.1909 29.176 82.7547 29.176C85.6369 29.176 87.851 28.0923 89.3271 25.9519L89.7894 25.2838L88.997 25.109C88.0647 24.907 87.1985 24.6739 86.3594 24.4448Z"></path>
<path fill-rule="evenodd" clip-rule="evenodd" fill="currentColor" d="M90.5544 17.954L90.5428 17.9578C88.2587 19.2824 86.099 20.5332 84.1607 22.0248L83.3799 22.623L84.3005 22.9688C86.0601 23.6252 87.7227 23.9593 89.2376 23.9593C91.0749 23.9593 92.6948 23.4815 94.0504 22.5415C96.3966 20.9139 97.6863 18.0627 97.6863 14.5123V13.4713L96.8278 14.0656C94.6603 15.5728 92.5743 16.7847 90.5544 17.954Z"></path>
<path fill-rule="evenodd" clip-rule="evenodd" fill="currentColor" d="M88.9968 16.8314L90.0922 16.4041C97.5931 13.4791 101.272 8.97314 100.452 3.71362L100.363 3.14648L99.8033 3.26302C95.1575 4.21471 92.0383 7.93988 89.3775 15.7165L88.9968 16.8314Z"></path>
<path fill-rule="evenodd" clip-rule="evenodd" fill="currentColor" d="M75.9567 28.8342C72.2665 27.5212 69.0813 26.3909 63.2197 28.1544L62.2952 28.4341L63.0099 29.0828C67.2983 32.9672 70.9458 33.783 73.2493 33.783C73.8203 33.783 74.3758 33.7325 74.9002 33.6353C76.9395 33.2586 78.6137 32.136 79.375 30.6327L79.6741 30.0461L79.0449 29.8597C77.9339 29.5373 76.9278 29.1799 75.9567 28.8342Z"></path>
<path fill-rule="evenodd" clip-rule="evenodd" fill="currentColor" d="M39.6258 34.9056C37.4427 35.1853 35.0849 34.4939 33.0727 33.5344L32.5017 33.2625L32.9912 32.8624C37.4388 29.3276 38.6275 27.867 46.6838 29.4752C46.6877 29.4752 45.4408 34.1559 39.6258 34.9056Z"></path>
<path fill-rule="evenodd" clip-rule="evenodd" fill="currentColor" d="M61.9688 34.8357C63.9499 34.96 65.558 34.152 66.5369 33.4567L67.0419 33.0954L66.5058 32.7847C65.997 32.4895 65.4803 32.0777 64.9326 31.6427C63.0487 30.1355 60.6986 28.2593 56.2936 29.1877L55.7265 29.3081L55.4391 29.3858L55.1516 29.4557C55.1516 29.4557 57.02 34.5249 61.9688 34.8357Z"></path>
</svg>
</g>
</svg>
