<svg viewBox="0 0 135 22" fill="none" xmlns="http://www.w3.org/2000/svg">
<g clip-path="url(#clip0_736_48820)">
<path d="M82.1 0.400391C86.8 0.400391 90.6 4.10039 90.6 8.90039V20.1004H84.8V8.80039C84.8 7.40039 83.7 6.20039 82.2 6.20039C80.7 6.20039 79.6 7.30039 79.6 8.80039V20.0004H73.8V8.80039C73.6 4.10039 77.4 0.400391 82.1 0.400391Z" fill="black"></path>
<path d="M93.2 0.400391C97.9 0.400391 101.7 4.20039 101.7 8.90039V20.1004H95.9V8.80039C95.9 7.40039 94.7 6.20039 93.3 6.20039C93.2 6.20039 93.1 6.20039 92.9 6.20039C92.4 4.20039 91.4 2.40039 90 1.00039C91 0.600391 92.1 0.400391 93.2 0.400391Z" fill="black"></path>
<path d="M112.8 2H107V20.1H112.8V2Z" fill="black"></path>
<path d="M125.4 15.6V21.7C121.3 21.1 118.1 17.6 118.1 13.3V2H123.9V13.3C124 14.3 124.6 15.1 125.4 15.6Z" fill="black"></path>
<path d="M127.7 21.6V15.6C128.6 15.2 129.1 14.3 129.1 13.3V2H135V13.3C135 17.5 131.9 21.1 127.7 21.6Z" fill="black"></path>
<path d="M8.5 0.400391C13.2 0.400391 16.9 4.10039 16.9 8.90039V20.1004H11V8.80039C11 7.40039 9.8 6.20039 8.4 6.20039C7 6.30039 5.9 7.40039 5.9 8.80039V20.0004H0V8.80039C0 4.10039 3.8 0.400391 8.5 0.400391Z" fill="black"></path>
<path d="M19.5999 0.400391C24.2999 0.400391 28.0999 4.20039 28.0999 8.90039V20.1004H22.1999V8.80039C22.1999 7.40039 20.9999 6.20039 19.5999 6.20039C19.4999 6.20039 19.3999 6.20039 19.2999 6.20039C18.7999 4.20039 17.7999 2.40039 16.3999 1.00039C17.3999 0.600391 18.4999 0.400391 19.5999 0.400391Z" fill="black"></path>
<path d="M39.0998 2H33.2998V20.1H39.0998V2Z" fill="black"></path>
<path d="M51.8 15.6V21.7C47.7 21.1 44.5 17.6 44.5 13.3V2H50.3V13.3C50.3 14.3 50.9 15.1 51.8 15.6Z" fill="black"></path>
<path d="M54.1001 21.6V15.6C54.9001 15.2 55.5001 14.3 55.5001 13.3V2H61.3001V13.3C61.3001 17.5 58.2001 21.1 54.1001 21.6Z" fill="black"></path>
</g>
<defs>
<clipPath id="clip0_736_48820">
<rect width="135" height="22" fill="white"></rect>
</clipPath>
</defs>
</svg>
