<svg viewBox="0 0 337 78" fill="none" xmlns="http://www.w3.org/2000/svg">
<path d="M128.64 2.23C127.22 0.79 125.33 0 123.32 0H7.53C5.52 0 3.63 0.79 2.21 2.23C0.78 3.67 0 5.59 0 7.63V60.05C0 62.09 0.78 64 2.21 65.44C3.63 66.88 5.52 67.67 7.54 67.67H123.33C127.48 67.67 130.86 64.25 130.86 60.05V7.63C130.86 5.59 130.08 3.68 128.65 2.24" fill="white"></path>
<path d="M128.64 2.23C127.22 0.79 125.33 0 123.32 0H90.95L109.57 31.46L111.27 31.67L112.26 33.11V34.47L113.47 34.68L114.54 36.19V37.48L115.75 37.69C115.75 37.69 116.96 38.98 116.96 39.05C116.96 38.98 116.96 41.99 116.96 41.99C116.96 41.99 119.58 44.43 121.92 45.36C123.55 46 123.77 48.66 124.69 50.1C125.97 52.11 127.67 52.97 127.32 54.12C126.47 57.21 123.35 62.38 120.44 62.67C120.44 62.67 113.2 62.67 108.95 62.67V67.64H123.32C127.47 67.64 130.85 64.22 130.85 60.02V7.63C130.85 5.59 130.07 3.68 128.64 2.24" fill="#E6003E"></path>
<path d="M15.57 56.88C12.71 56.88 10.4 54.54 10.4 51.65C10.4 48.76 12.71 46.41 15.57 46.41C18.43 46.41 20.74 48.75 20.74 51.64C20.74 54.53 18.43 56.88 15.57 56.88ZM79.91 0H7.53C5.52 0 3.63 0.79 2.2 2.23C0.78 3.67 0 5.59 0 7.62V60.04C0 62.08 0.78 63.99 2.21 65.43C3.63 66.87 5.52 67.66 7.54 67.66H54.56C53.38 65.67 52.06 63.41 51.65 62.72H46.05C46.05 48.65 50.79 40.82 56.39 39.3C57.17 39.16 56.81 35.28 55.82 34.13C55.82 34.13 53.13 34.2 52.56 34.06C51.85 33.85 52.35 33.13 52.35 33.13L54.97 27.38L54.61 25.8H44.89C44.75 25.8 52.9 20.13 52.9 20.13C53.32 5.19 68.43 4.03 77.58 10.21C82.97 13.87 83.4 21.05 82.98 26.08C82.91 26.37 81.56 26.15 81.56 26.15C81.56 26.15 80.64 31.61 83.05 31.61H93.69C98.02 31.46 102.2 34.4 102.2 34.4L103.26 30.67L79.91 0Z" fill="#004187"></path>
<path d="M127.25 74.4001V73.6201H127.98C128.29 73.6201 128.71 73.6201 128.71 73.9701C128.71 74.3201 128.5 74.4001 128.14 74.4001H127.25ZM128.5 74.9801C129.06 74.9401 129.36 74.6201 129.36 74.0301C129.36 73.1801 128.86 73.0501 128.13 73.0501H126.58V76.2601H127.25V74.9801H127.8L128.54 76.2601H129.27L128.5 74.9801ZM127.86 77.7601C129.55 77.7601 130.89 76.3901 130.89 74.6601C130.89 72.9301 129.55 71.5601 127.86 71.5601C126.17 71.5601 124.82 72.9301 124.82 74.6601C124.82 76.3901 126.16 77.7601 127.86 77.7601ZM127.86 72.2401C129.17 72.2401 130.23 73.2701 130.23 74.6601C130.23 76.0501 129.17 77.0901 127.86 77.0901C126.55 77.0901 125.49 76.0401 125.49 74.6601C125.49 73.2801 126.55 72.2401 127.86 72.2401Z" fill="#E6003E"></path>
<path d="M331.571 69.3012H330.384V72.5499H329.583V69.3012H328.396V68.604H331.585V69.3012H331.571ZM336.97 72.5499H336.169V69.4051H336.154L335.012 72.5499H334.241L333.128 69.4051H333.113V72.5499H332.312V68.604H333.707L334.627 71.1852H334.641L335.606 68.604H337V72.5499H336.97Z" fill="#004187"></path>
<path d="M323.278 31.5331C326.853 29.6195 330.25 24.116 330.25 19.0871C330.25 8.70311 321.454 0.366211 309.008 0.366211H278.019V68.3223H309.616C322.151 68.3223 333.024 61.721 333.024 48.1328C333.024 39.9442 329.464 34.5 323.278 31.5331ZM291.77 26.9048V13.2276H309.66C311.482 13.2276 313.229 13.9512 314.517 15.2393C315.805 16.5273 316.529 18.2743 316.529 20.0959C316.529 21.9175 315.805 23.6644 314.517 24.9525C313.229 26.2405 311.482 26.9642 309.66 26.9642L291.77 26.9048ZM291.77 55.4758V39.425H310.447C312.583 39.425 314.632 40.2737 316.142 41.7843C317.653 43.2949 318.502 45.3437 318.502 47.48C318.502 49.6164 317.653 51.6652 316.142 53.1758C314.632 54.6864 312.583 55.5351 310.447 55.5351L291.77 55.4758Z" fill="#004187"></path>
<path d="M197.839 0.425293L175.78 37.2738L153.737 0.425293H140V68.322H153.929V27.7946L171.968 57.9528H179.593L197.646 27.7946V68.322H211.561V0.425293H197.839Z" fill="#004187"></path>
<path d="M236.809 0.424805H222.894V68.3215H267.916V54.5701H236.809V0.424805Z" fill="#004187"></path>
</svg>
