<svg viewBox="0 0 60 60" version="1.1" xmlns="http://www.w3.org/2000/svg" xmlns:xlink="http://www.w3.org/1999/xlink">
    <title>Logo / Snowcap</title>
    <g id="Logo-/-Snowcap" stroke="none" stroke-width="1" fill="none" fill-rule="evenodd">
        <g id="Snowcap" fill="#000000">
            <path d="M29.9991276,0 C46.5681798,0 60,13.4300753 60,29.9991276 C60,46.5681798 46.5681798,60 29.9991276,60 C13.4300753,60 0,46.5681798 0,29.9991276 C0,13.4300753 13.4300753,0 29.9991276,0 Z M30,5.80645161 C24.2289627,5.80645161 24.0748606,12.4870918 20.9928184,14.278948 C17.9125078,16.0725489 12.0929889,12.8657021 9.20660446,17.9045344 C6.32022005,22.9398771 11.9856368,26.4136704 11.9856368,29.9991276 C11.9856368,33.5863296 6.32022005,37.0601229 9.20660446,42.0972104 C10.8859554,45.0268644 13.5582087,45.1670256 16.1061814,45.1251796 L16.5821971,45.1158371 C18.2412454,45.0801296 19.8166998,45.0362226 20.9928184,45.721052 C24.0748606,47.5129082 24.2289627,54.1935484 30,54.1935484 C33.3587019,54.1935484 34.8148293,51.9320689 36.0523412,49.6877388 L36.2822239,49.2676842 C37.0807247,47.8020906 37.8304019,46.4052153 39.0071816,45.721052 C40.1285538,45.0688335 41.6112196,45.0776005 43.1829286,45.1107599 L43.6568404,45.1208029 C46.2750525,45.1730616 49.0615649,45.118416 50.7933955,42.0972104 C53.67978,37.0601229 48.0143632,33.5863296 48.0143632,29.9991276 C48.0143632,26.4136704 53.67978,22.9398771 50.7933955,17.9045344 C49.0615649,14.881235 46.2750525,14.8263801 43.6568404,14.8788063 L43.1829286,14.8888836 C41.6112196,14.9221688 40.1285538,14.9311665 39.0071816,14.278948 C37.8304019,13.5947847 37.0807247,12.1979094 36.2822239,10.7323158 L36.0523412,10.3122612 C34.8148293,8.06793112 33.3587019,5.80645161 30,5.80645161 Z" id="Combined-Shape"></path>
        </g>
    </g>
</svg>