<svg  viewBox="0 0 152 40" fill="none" xmlns="http://www.w3.org/2000/svg">
<g id="Device=Desktop, Color=Black">
<g id="Vector">
<path d="M110.153 0.475458H104.666V39.4955H110.153V0.475458Z" fill="black"/>
<path d="M56.2733 8.22426V11.898L61.5057 11.8818V7.31741C60.956 1.41478 56.8624 0 53.8334 0C50.8044 0 46.0035 1.53538 46.0035 8.18483C46.0035 14.8343 46.0498 16.0728 52.022 20.2244C55.7631 22.8243 56.7442 24.4733 56.8624 26.7161C56.8624 26.7161 56.9506 30.0281 56.8624 31.6562C56.5748 36.9094 51.3216 35.6315 51.3147 32.0505C51.31 30.0837 51.3147 26.3218 51.3147 26.3218H46.0035V32.0111C46.0035 36.9697 49.3085 39.9199 54.1071 39.9988C56.8624 40.0428 62.2131 38.9365 62.329 32.1294V25.2596C62.0623 20.222 58.9846 18.3341 56.6236 16.5645C54.2625 14.7949 51.3193 13.5726 51.1941 10.859V8.18483C51.1616 3.30269 56.2571 3.38155 56.271 8.22426" fill="black"/>
<path d="M0 39.5117V0.494012H6.07426L11.4667 22.1169L16.8614 0.494012H22.9356V39.5117H17.4435V15.4605L13.3128 39.5117H9.57178L5.4898 15.4605V39.5117H0Z" fill="black"/>
<path d="M84.6802 39.5001H90.17V22.1772H95.6969V39.5001H101.187V0.470819H95.6969V17.3067H90.17V0.470819H84.6802V39.5001Z" fill="black"/>
<path d="M113.797 0.470819H119.458L125.593 20.6836V0.482416H131.083V39.5001H126.467L119.3 15.9336V39.5001H113.797V0.470819Z" fill="black"/>
<path d="M139.866 29.8054C139.866 33.449 141.457 34.6644 142.807 34.6644C144.157 34.6644 145.745 33.4606 145.745 29.8054V10.1864C145.745 6.51725 144.154 5.32745 142.807 5.32745C141.459 5.32745 139.866 6.51725 139.866 10.1864V29.8054ZM134.376 10.1864C134.376 6.49406 136.125 0.00695792 142.807 0.00695792C149.489 0.00695792 151.212 6.27604 151.212 10.1864V29.8054C151.212 33.7042 149.414 39.9964 142.807 39.9964C136.199 39.9964 134.376 33.7042 134.376 29.8054V10.1864Z" fill="black"/>
<path d="M31.6075 29.8054C31.6075 33.449 33.1986 34.6644 34.5461 34.6644C35.8936 34.6644 37.487 33.4606 37.487 29.8054V10.1864C37.487 6.51725 35.8959 5.32745 34.5461 5.32745C33.1962 5.32745 31.6075 6.51725 31.6075 10.1864V29.8054ZM26.1177 10.1864C26.1177 6.49406 27.8665 0.00695792 34.5461 0.00695792C41.2257 0.00695792 42.9536 6.27604 42.9536 10.1864V29.8054C42.9536 33.7042 41.1561 39.9964 34.5461 39.9964C27.936 39.9964 26.1154 33.7042 26.1154 29.8054V10.1864H26.1177Z" fill="black"/>
<path d="M81.6164 26.2661V29.8077C81.6187 34.4835 80.1506 39.9988 73.5406 39.9988C66.9305 39.9988 65.1099 33.7065 65.1099 29.8077V10.1887C65.1099 6.49406 66.8587 0.00695792 73.5406 0.00695792C80.2225 0.00695792 81.3265 5.42486 81.3265 10.1864V13.3198H76.333V10.1864C76.333 6.8953 75.3009 5.32745 73.5499 5.32745C72.2371 5.32745 70.6113 6.35954 70.6113 10.1864V29.8054C70.6113 32.8043 71.7292 34.6644 73.5499 34.6644C75.0945 34.6644 76.333 33.5001 76.333 29.8054V26.2685L81.6141 26.2638L81.6164 26.2661Z" fill="black"/>
</g>
</g>
</svg>
