<svg id="logo-omega" viewBox="0 0 72.7 36.4" preserveAspectRatio="xMinYMid meet" xmlns="http://www.w3.org/2000/svg">
            <title>OMEGA</title>
            <path class="st0" d="M7.4,21.8c-4,0-7.2,3.3-7.1,7.3c0,0,0,0,0,0c0,4,3.1,7.2,7.1,7.3c0,0,0,0,0,0c4-0.2,7.1-3.6,6.9-7.7
    C14.1,25,11.2,22,7.4,21.8z M12.4,29.1L12.4,29.1c0.1,2.8-2.1,5.2-4.9,5.2c0,0,0,0-0.1,0c-2.9,0-5.2-2.4-5.2-5.2s2.4-5.2,5.2-5.2
    C10.2,23.9,12.5,26.2,12.4,29.1C12.4,29,12.4,29,12.4,29.1z"></path>
            <polygon class="st0" points="23.3,31.3 19.3,21.7 14.9,36 17.1,36 17.1,36.1 19.6,27.6 23.3,36.5 27,27.6 29.6,36.1 31.7,36.1
    27.3,21.7"></polygon>
            <path class="st0" d="M65,21.3L57.7,36H60l0,0l1.5-2.9h7.2l1.4,2.9h2.3L65,21.3z M62.4,31.2l2.5-5.3l2.6,5.3H62.4z"></path>
            <path class="st0" d="M57.9,28.6h-6.9v2h4.8c-0.6,2.2-2.6,3.7-4.9,3.7c-2.9,0-5.2-2.3-5.2-5.2c0-2.9,2.3-5.2,5.2-5.2l0,0
    c1.7,0,3.2,0.9,4.2,2.2l1.6-1.2c-1.3-1.9-3.5-3.1-5.8-3.1c-3.8,0-7,3.1-7.1,6.9c-0.1,3.9,3,7.2,6.9,7.3c3.9,0.1,7.2-3,7.3-6.9
    C57.9,28.9,57.9,28.8,57.9,28.6z"></path>
            <path class="st0" d="M28.6,8.7c0-3.7,2.6-7.4,6.7-7.4c4.2,0,6.7,3.5,6.7,7.4c0,3.8-2,6.8-4.9,9l0.1,0.3h6.6l1.4-2.8h-0.7l-0.9,1.4
    h-3.4c2.6-1.7,4.2-4.6,4.3-7.7c0-5.3-4.6-8.4-9.3-8.4s-9.3,3.1-9.3,8.4c0.1,3.1,1.7,6,4.3,7.7h-3.4l-0.9-1.4h-0.7l1.4,2.8h6.6
    l0.2-0.3C30.6,15.5,28.6,12.4,28.6,8.7z"></path>
            <polygon class="st0" points="33.4,36 41.7,36 41.7,34 35.5,34 35.5,30.1 41.5,30.1 41.5,28.1 35.5,28.1 35.5,24.1 41.7,24.1
    41.7,22.1 33.4,22.1"></polygon>
        </svg>