<?xml version="1.0" encoding="utf-8"?>
<!-- Generator: Adobe Illustrator 23.0.1, SVG Export Plug-In . SVG Version: 6.00 Build 0)  -->
<svg version="1.1" id="Layer_1" xmlns="http://www.w3.org/2000/svg" xmlns:xlink="http://www.w3.org/1999/xlink" x="0px" y="0px"
	 viewBox="0 0 1000 1000" style="enable-background:new 0 0 1000 1000;" xml:space="preserve">
<style type="text/css">
	.st0{fill:#A7915A;}
</style>
<path class="st0" d="M244.5,49.9c4.2-16.4,13.2-31.1,25.3-42.7c13.2,9,26.4,17.9,40.1,26.9c43.8-16.9,91.8-16.4,135.1,1.6
	c13.7-9.5,28-18.5,41.7-27.4c20.6,35.4,31.7,75.4,33.2,116.1c1.1,29-7.4,57.5-16.9,84.4c57.5,23.7,110.3,57.5,156.2,99.7
	c19.5,17.9,36.9,37.5,53.3,58c23.7,28.5,43.3,59.6,59.1,93.4c21.1,46.4,39.6,93.9,54.9,142.5c4.2,11.1,6.9,23.2,9,34.8
	c1.6,11.1,2.1,22.2,1.6,33.2c-21.1-9.5-41.2-21.1-61.2-31.7c4.7,15.3,11.6,29.5,13.7,45.4c-23.7,14.2-52.2,15.8-79.1,15.8
	c-16.9,0-33.2-6.9-45.4-19c-10-9.5-16.4-21.6-25.9-32.2C626,633,612.3,617.7,597,603.4c-2.6,11.6-4.7,22.7-7.4,34.3
	c-10.6,0.5-21.1,1.1-31.7,1.6c-12.7,30.6-22.7,61.7-33.8,92.9c23.7,0.5,48,0,71.8,0c3.2,9.5,6.9,19.5,10.6,29
	c-91.3,0.5-182,0-273.3,0.5c-35.4,0-70.7,0-106.1-0.5c4.2-9.5,9-19,13.2-28.5c36.4-0.5,72.3,0,108.7,0c16.4-29,32.7-58,48.5-87.6
	c1.6-3.7,3.2-7.4,4.2-11.1c-6.3-2.6-13.2-4.7-19.5-7.4c-3.2-1.1-6.3-3.7-5.8-7.4c0.5-10,3.2-20,4.2-29.5c3.7-23.7,7.4-47.5,8.4-71.8
	c1.1-13.7,2.1-29.5-6.3-41.2c-10.6-14.2-23.7-25.9-34.3-40.1c-23.7-31.7-44.3-66-60.7-102.4c-26.4-54.9-43.8-113.4-51.7-173.6
	C232.9,123.8,232.9,85.3,244.5,49.9 M251.4,104.3c-3.2,29-2.6,59.1,7.4,86.5c9,24.3,25.9,44.8,48,58c16.9,9.5,35.9,14.8,54.9,15.8
	c15.3,1.1,31.1,0,46.4-3.2c13.7-2.6,26.4-7.9,38.5-14.8c20-12.1,35.9-30.1,45.9-51.2c8.4-19.5,12.1-40.6,11.6-61.7
	c0-35.4-7.9-70.2-22.7-102.4c-11.6,6.9-23.7,13.2-35.4,20c-29-13.2-61.7-15.3-93.4-12.7c-17.4,1.6-34.8,4.7-51.2,10
	c-9-5.8-17.9-12.1-26.9-17.9C261.9,53.6,254.6,78.4,251.4,104.3 M262.5,221.4c10,38.5,24.8,76,42.7,111.9
	c26.9,51.2,61.2,98.1,101.3,139.3c18.5,18.5,38,34.8,59.1,50.1c6.3,4.2,11.6,9.5,16.4,15.3c5.3,10,9.5,21.1,12.7,32.2
	c5.8,18.5,12.1,36.9,17.9,55.4c21.1,0,42.7,0,64.4,0c0-22.7,0-45.4,0-68.1c29.5,32.7,61.7,62.8,90.2,96c7.9,9.5,17.4,17.4,29,22.2
	c20.6,6.3,42.2,6.3,62.8,0.5c3.2-0.5,6.3-2.1,9-4.7c-2.1-9-5.3-17.9-9-26.9c-2.1-6.9-5.3-13.7-8.4-20c-3.7-3.2-7.9-6.3-12.7-9
	c-31.7-20-62.8-40.6-93.4-62.3c-48.5-33.8-96-69.1-138.2-110.8c-18.5-20-36.9-41.2-45.4-67.5c-10.6-30.1-7.4-63.3,0.5-93.9
	c5.8-19,14.2-37.5,24.8-54.9c-6.3,6.3-12.7,12.7-20,17.9c-13.7,11.1-29,20-44.8,26.4c-19,7.4-39.6,10-60.1,8.4
	c-31.1-2.6-60.1-16.4-81.3-39C273,235.1,268.3,228.3,262.5,221.4 M508.9,239.9c-24.8,30.6-36.9,69.1-33.8,108.2
	c1.6,22.7,13.2,43.3,26.4,61.2c18.5,24.3,41.7,43.8,64.4,63.3c28,24.8,57.5,48,88.6,69.1c52.2,36.4,106.6,69.1,163,98.7
	c-14.2-48.5-31.1-96-51.2-141.9C741,439.9,708.8,382.3,662.4,338c-17.4-18.5-37.5-34.8-59.6-48C573.2,270,541.6,253.1,508.9,239.9
	 M406,501.1c-3.7,28-6.9,55.9-11.1,83.9c-1.6,10.6-4.2,21.1-5.3,32.2c15.8,4.2,31.1,7.4,46.4,12.1c6.3,2.1,12.7,3.7,19.5,4.7
	c2.1-6.9,3.2-13.7,4.2-21.1c2.6-19,6.3-38,10.6-56.5c-9.5-7.9-17.9-16.4-27.4-24.3C430.8,521.6,419.2,511.1,406,501.1 M478.8,592.9
	c-5.3,16.9-8.4,34.8-13.2,52.2c-7.9-0.5-16.4-2.1-24.3-2.1s-10.6,7.9-13.7,13.2c-13.7,24.8-26.9,50.1-39,76c32.7,0,66,0,98.7,0
	c8.4-19,16.4-38.5,24.3-58c4.7-11.1,9-22.2,12.1-33.8c-8.4,0-16.9,1.1-25.3,1.1C493,624.5,486.7,608.7,478.8,592.9 M296.2,81.1
	c14.8-3.2,30.6-2.1,45.4,2.1c7.9,24.8,15.3,50.1,23.2,74.9c2.6,7.9,4.7,16.4,7.9,24.3c10.6-32.7,20.6-66,30.1-99.2
	c15.3-4.7,32.2-5.3,48-1.6c21.6,8.4,28.5,38,16.4,56.5c-7.4,11.1-19.5,17.9-33.2,17.9c-13.2,1.1-25.3-7.4-33.2-17.9
	c-8.4,25.9-16.4,52.2-27.4,77.6l-2.1,0.5c-4.2-9-7.4-18.5-10.6-28c-5.8-16.4-11.6-33.2-16.4-49.6c-7.4,9-17.4,17.4-29.5,17.4
	c-17.9,1.1-34.3-9.5-39.6-26.4C267.7,111.7,275.7,86.9,296.2,81.1 M304.2,91.6c-13.2,2.6-22.2,15.8-19.5,29.5
	c2.6,13.2,15.8,22.2,29.5,19.5c12.1-2.6,20.6-13.7,19.5-26.4c-1.1-13.7-13.7-23.7-27.4-22.7C305.7,91.6,305.2,91.6,304.2,91.6
	 M428.7,91.6c-13.2,3.2-21.6,16.4-18.5,30.1c2.6,10.6,11.6,18.5,22.7,19c13.7,0.5,25.3-10.6,25.9-24.3c0-1.6,0-2.6,0-4.2
	c-2.1-13.7-15.3-23.2-29.5-21.1C429.2,91.6,429.2,91.6,428.7,91.6 M302.6,99.5c9-3.7,19,0.5,22.7,9.5c3.7,9-0.5,19-9.5,22.7
	c-4.7,2.1-10,1.6-14.8-0.5C288.3,125.4,289.4,104.3,302.6,99.5 M427.1,99.5c9-3.7,19.5,0,23.2,9c1.1,2.1,1.6,4.2,1.6,6.9
	c1.6,14.2-17.4,23.2-28,14.8c-7.9-6.3-9-17.4-2.6-25.3C422.9,102.7,425,101.1,427.1,99.5 M238.2,773.8c21.1-3.2,42.7,2.1,60.7,13.7
	c39,25.3,49.6,77.6,24.3,116.1c-0.5,0.5-1.1,1.1-1.1,1.6c-12.1,16.9-30.1,29-50.7,34.3c-22.2,5.8-45.9,2.1-66-9
	c-21.6-13.2-36.9-34.8-41.2-60.1c-3.2-17.9,0-36.4,9-52.8C186.5,793.4,210.8,777,238.2,773.8 M243,816.6
	c-15.8,4.2-28,17.4-30.6,33.8c-3.2,19,6.3,37.5,23.7,45.4c14.2,5.8,30.6,2.1,40.6-9.5c10.6-12.1,13.7-28.5,8.4-43.8
	C279.9,826.1,261.4,812.9,243,816.6 M598.6,773.8c21.1-3.2,42.7,1.6,61.2,13.7c39,25.3,49.6,77.6,24.3,116.6
	c-0.5,1.1-1.1,2.1-2.1,2.6c-11.6,16.4-29,28-48.5,32.7c-22.7,6.3-47,3.2-67.5-9c-24.3-14.2-40.1-40.1-41.7-68.1
	c-1.6-22.7,6.3-44.8,21.6-61.7C559.5,786,578.5,775.9,598.6,773.8 M603.3,817.1c-14.8,3.7-25.9,15.3-29.5,30.1
	c-4.7,17.4,2.6,36.4,17.4,46.4c12.1,7.9,27.4,7.4,39-0.5c14.2-10,21.1-28,16.9-45.4C643.9,827.7,623.4,812.4,603.3,817.1
	 M322.6,775.9c20.6-0.5,40.6,0,61.2,0c3.2-0.5,4.2,2.6,5.3,4.7c13.2,30.6,26.4,61.2,39.6,91.8c0,1.6,2.6,4.7,3.7,1.6
	c10.6-23.7,20.6-48,31.1-71.8c4.2-8.4,6.9-17.9,11.6-26.4c21.1-1.1,42.7,0,63.8-0.5c-14.8,32.2-31.7,63.3-47,95.5
	c-12.7,24.8-24.8,50.1-37.5,75.4c-7.9,15.3-14.8,31.1-23.2,46.4h-1.6c-28.5-57.5-57-115-85.5-172.5C337.4,805,329,790.7,322.6,775.9
	 M162.8,956.9c74.9-0.5,149.3,0,224.2-0.5c4.2,11.6,9,22.7,12.7,34.3c-50.7,0.5-101.3,0-152,0c-28,0-56.5,0.5-84.4-0.5
	C162.8,979.1,162.8,968,162.8,956.9 M471.9,961.7c1.1-2.1,1.6-5.8,4.7-5.3c74.9-0.5,149.3,0,224.2,0c0,11.6,0,22.7,0,34.3
	c-79.7,0-159.9,0-239.5,0C464.6,981.2,468.2,971.7,471.9,961.7L471.9,961.7z"/>
</svg>
