<svg viewBox="0 0 235 126" fill="none" xmlns="http://www.w3.org/2000/svg">
<g clip-path="url(#clip0_128_10983)">
<path d="M31.7 87.4H19.8L17.4 93.7H13.9L24.4 67.2H27.6L37.9 93.7H34.2L31.7 87.4ZM20.9 84.5H30.6L25.7 71.8L20.9 84.5Z" fill="black"></path>
<path d="M3.4 70V79.6H8C8 79.6 8.8 79.6 9.3 79.6C10.7 79.6 11.7 79.3 12.5 78.5C13.4 77.7 13.8 76.3 13.8 74.9C13.8 73.5 13.4 72.2 12.5 71.2C11.6 70.2 9.9 70.1 9.6 70.1C9.3 70.1 9.1 70.1 9.1 70.1H3.4V70ZM0 67.2H9.1C10.5 67.2 12.9 67.5 14.6 68.9C16.9 70.7 17.3 73.2 17.3 74.8C17.3 76.4 16.9 78.6 15.3 80.1C13.2 82.1 11.1 82.4 8 82.4H3.4V93.7H0V67.2Z" fill="black"></path>
<path d="M121.3 67.2H124.7V78.6H136.6V67.2H139.9V93.7H136.6V81.5H124.7V93.7H121.3V67.2Z" fill="black"></path>
<path d="M148.4 67.2H145V93.7H148.4V67.2Z" fill="black"></path>
<path d="M153.3 67.2H156.7V90.8H168.2V93.7H153.3V67.2Z" fill="black"></path>
<path d="M52.5 67.2V70.1H44.4V93.7H41.1V70.1H33V67.2H52.5Z" fill="black"></path>
<path d="M69.7 67.2L68 70.1H58V78.4H67.4V81.4H58V90.8H67.8L69.5 93.7H54.6V67.2H69.7Z" fill="black"></path>
<path d="M75.7 79.6L87.1 67.2H91.3L82.6 76.7L91.5 93.7H87.7L80.3 79.1L75.7 84V93.7H72.4V67.2H75.7V79.6Z" fill="black"></path>
<path d="M123.3 123.4H129.7L130.8 125.4H121V107.9H132.3L137.4 122.4L142.6 107.9H144.9L138.3 125.4H136.2L130.6 109.9H123.3V115.3H129.4V117.3H123.3V123.4Z" fill="black"></path>
<path d="M104.8 70V79.6H109.5C109.5 79.6 110.3 79.6 110.8 79.6C112.2 79.6 113.2 79.3 114 78.5C114.9 77.7 115.3 76.3 115.3 74.9C115.3 73.5 114.9 72.2 114 71.2C113.1 70.2 111.4 70.1 111.1 70.1C110.8 70.1 110.6 70.1 110.6 70.1H104.8V70ZM101.5 67.2H110.6C112 67.2 114.4 67.5 116.1 68.9C118.4 70.7 118.8 73.2 118.8 74.8C118.8 76.4 118.4 78.6 116.8 80.1C114.7 82.1 112.6 82.4 109.5 82.4H104.8V93.7H101.4V67.2H101.5Z" fill="black"></path>
<path d="M173.8 67.2H170.4V93.7H173.8V67.2Z" fill="black"></path>
<path d="M182.1 70V79.6H186.8C186.8 79.6 187.6 79.6 188.1 79.6C189.5 79.6 190.5 79.3 191.3 78.5C192.2 77.7 192.6 76.3 192.6 74.9C192.6 73.5 192.2 72.2 191.3 71.2C190.4 70.2 188.7 70.1 188.4 70.1C188.1 70.1 187.9 70.1 187.9 70.1H182.1V70ZM178.7 67.2H187.8C189.2 67.2 191.6 67.5 193.3 68.9C195.6 70.7 196 73.2 196 74.8C196 76.4 195.6 78.6 194 80.1C191.9 82.1 189.8 82.4 186.7 82.4H182V93.7H178.6L178.7 67.2Z" fill="black"></path>
<path d="M202.3 70V79.6H207C207 79.6 207.8 79.6 208.3 79.6C209.7 79.6 210.7 79.3 211.5 78.5C212.4 77.7 212.8 76.3 212.8 74.9C212.8 73.5 212.4 72.2 211.5 71.2C210.6 70.2 208.9 70.1 208.6 70.1C208.3 70.1 208.1 70.1 208.1 70.1H202.3V70ZM198.9 67.2H208C209.4 67.2 211.8 67.5 213.5 68.9C215.8 70.7 216.2 73.2 216.2 74.8C216.2 76.4 215.8 78.6 214.2 80.1C212.1 82.1 210 82.4 206.9 82.4H202.2V93.7H198.8L198.9 67.2Z" fill="black"></path>
<path d="M234.2 67.2L232.5 70.1H222.5V78.4H231.8V81.4H222.5V90.8H232.3L233.9 93.7H219.1V67.2H234.2Z" fill="black"></path>
<path d="M91.1 116.5V122.8C89.7 124.2 87.9 125.7 84.3 125.7C80.3 125.7 76.6 122.3 76.6 116.9C76.6 111.8 80 107.7 84.8 107.7C88.6 107.7 90.5 110.1 91.2 111.1L89.6 112.6C89.6 112.6 88 109.6 84.8 109.6C81.6 109.6 79.1 112.5 79.1 117C79.1 121.3 81.8 123.9 84.7 123.9C87.2 123.9 88.9 122.2 89 122.1V118.5H83.7V116.6H91.1V116.5Z" fill="black"></path>
<path d="M104 107.9L102.9 109.9H96.3V115.3H102.5V117.3H96.3V123.4H102.7L103.8 125.4H94.1V107.9H104Z" fill="black"></path>
<path d="M115.9 107.9H118V125.4H115.8L107.9 111.1V125.4H105.8V107.9H108.6L115.9 121.1V107.9Z" fill="black"></path>
<path d="M156.2 107.9L155.2 109.9H148.6V115.3H154.7V117.3H148.6V123.4H155L156.1 125.4H146.4V107.9H156.2Z" fill="black"></path>
<path d="M127.1 26.9001C128.9 26.9001 130.7 25.8001 130.7 24.4001C130.7 23.9001 130.3 22.9001 128.8 22.9001C126.9 22.9001 125.3 24.9001 123.6 24.9001C122.1 24.9001 121.9 23.7001 121.9 23.7001C122.8 23.7001 123.1 23.7001 124.2 23.1001C125.2 22.6001 126.6 21.1001 127.6 20.1001C128.5 19.1001 130 17.8001 131.8 17.8001C133.6 17.8001 135.4 18.9001 135.4 21.0001C135.4 23.8001 133.2 24.6001 133.2 25.6001C133.2 25.9001 133.3 26.3001 133.9 26.3001C134.8 26.3001 136.5 25.0001 138.2 25.0001C140.5 25.0001 142.5 27.6001 142.5 27.6001C142.5 27.6001 140.5 30.2001 138.2 30.2001C136.5 30.2001 134.8 28.9001 133.9 28.9001C133.3 28.9001 133.2 29.3001 133.2 29.6001C133.2 30.6001 135.4 31.5001 135.4 34.2001C135.4 36.3001 133.6 37.4001 131.8 37.4001C130 37.4001 128.5 36.1001 127.6 35.1001C126.7 34.1001 125.3 32.6001 124.2 32.1001C123.1 31.6001 122.8 31.5001 121.9 31.5001C121.9 31.5001 122.1 30.3001 123.6 30.3001C125.3 30.3001 126.9 32.3001 128.8 32.3001C130.3 32.3001 130.7 31.3001 130.7 30.8001C130.7 29.3001 128.9 28.3001 127.1 28.3001H117.1V38.3001C117.1 40.1001 118.2 41.9001 119.6 41.9001C120.1 41.9001 121.1 41.5001 121.1 40.0001C121.1 38.1001 119.1 36.5001 119.1 34.8001C119.1 33.3001 120.3 33.1001 120.3 33.1001C120.3 34.0001 120.3 34.3001 120.9 35.4001C121.4 36.4001 122.9 37.8001 123.9 38.8001C124.9 39.7001 126.2 41.2001 126.2 43.0001C126.2 44.8001 125.1 46.6001 123 46.6001C120.2 46.6001 119.4 44.4001 118.4 44.4001C118.1 44.4001 117.7 44.5001 117.7 45.1001C117.7 46.0001 119 47.7001 119 49.4001C119 51.7001 116.4 53.7001 116.4 53.7001C116.4 53.7001 113.8 51.7001 113.8 49.4001C113.8 47.7001 115.1 46.0001 115.1 45.1001C115.1 44.5001 114.7 44.4001 114.4 44.4001C113.4 44.4001 112.5 46.6001 109.8 46.6001C107.7 46.6001 106.6 44.8001 106.6 43.0001C106.6 41.2001 107.9 39.7001 108.9 38.8001C109.9 37.9001 111.4 36.5001 111.9 35.4001C112.4 34.3001 112.5 34.0001 112.5 33.1001C112.5 33.1001 113.7 33.3001 113.7 34.8001C113.7 36.5001 111.7 38.1001 111.7 40.0001C111.7 41.5001 112.7 41.9001 113.2 41.9001C114.7 41.9001 115.7 40.1001 115.7 38.3001V28.3001H105.7C103.9 28.3001 102.1 29.4001 102.1 30.8001C102.1 31.3001 102.5 32.3001 104 32.3001C105.9 32.3001 107.5 30.3001 109.2 30.3001C110.7 30.3001 110.9 31.5001 110.9 31.5001C110 31.5001 109.7 31.5001 108.6 32.1001C107.6 32.6001 106.2 34.1001 105.2 35.1001C104.3 36.1001 102.8 37.4001 101 37.4001C99.2 37.4001 97.4 36.3001 97.4 34.2001C97.4 31.4001 99.6 30.6001 99.6 29.6001C99.6 29.3001 99.5 28.9001 98.9 28.9001C98 28.9001 96.3 30.2001 94.6 30.2001C92.3 30.2001 90.3 27.6001 90.3 27.6001C90.3 27.6001 92.3 25.0001 94.6 25.0001C96.3 25.0001 98 26.3001 98.9 26.3001C99.5 26.3001 99.6 25.9001 99.6 25.6001C99.6 24.6001 97.4 23.7001 97.4 21.0001C97.4 18.9001 99.2 17.8001 101 17.8001C102.8 17.8001 104.3 19.1001 105.2 20.1001C106.1 21.1001 107.5 22.6001 108.6 23.1001C109.7 23.6001 110 23.7001 110.9 23.7001C110.9 23.7001 110.7 24.9001 109.2 24.9001C107.5 24.9001 105.9 22.9001 104 22.9001C102.5 22.9001 102.1 23.9001 102.1 24.4001C102.1 25.9001 103.9 26.9001 105.7 26.9001H115.7V17.0001C115.7 15.2001 114.6 13.4001 113.2 13.4001C112.7 13.4001 111.7 13.8001 111.7 15.3001C111.7 17.2001 113.7 18.8001 113.7 20.5001C113.7 22.0001 112.5 22.2001 112.5 22.2001C112.5 21.3001 112.5 21.0001 111.9 19.9001C111.4 18.9001 109.9 17.5001 108.9 16.5001C107.9 15.6001 106.6 14.1001 106.6 12.3001C106.6 10.5001 107.7 8.7001 109.8 8.7001C112.6 8.7001 113.4 10.9001 114.4 10.9001C114.7 10.9001 115.1 10.8001 115.1 10.2001C115.1 9.3001 113.8 7.6001 113.8 5.9001C113.8 3.6001 116.4 1.6001 116.4 1.6001C116.4 1.6001 119 3.6001 119 5.9001C119 7.6001 117.7 9.3001 117.7 10.2001C117.7 10.8001 118.1 10.9001 118.4 10.9001C119.4 10.9001 120.3 8.7001 123 8.7001C125.1 8.7001 126.2 10.5001 126.2 12.3001C126.2 14.1001 124.9 15.6001 123.9 16.5001C122.9 17.4001 121.4 18.8001 120.9 19.9001C120.4 21.0001 120.3 21.3001 120.3 22.2001C120.3 22.2001 119.1 22.0001 119.1 20.5001C119.1 18.8001 121.1 17.2001 121.1 15.3001C121.1 13.8001 120.1 13.4001 119.6 13.4001C118.1 13.4001 117.1 15.2001 117.1 17.0001V27.0001H127.1V26.9001Z" fill="#C0AF9F"></path>
</g>
<defs>
<clipPath id="clip0_128_10983">
<rect width="234.2" height="125.4" fill="white"></rect>
</clipPath>
</defs>
</svg>
