<svg viewBox="0 0 397 254" fill="none" xmlns="http://www.w3.org/2000/svg">
<mask id="mask0_318_17635" style="mask-type:luminance" maskUnits="userSpaceOnUse" x="0" y="230" width="397" height="24">
<path d="M397 230.329H0V253.974H397V230.329Z" fill="white"></path>
</mask>
<g mask="url(#mask0_318_17635)">
<path d="M6.07415 242.732V248.969C6.07415 250.293 6.23697 251.178 6.51307 251.454C7.00863 251.95 7.6741 252.226 8.33248 252.12H9.16077V252.728H0V252.12H0.828293C1.59995 252.176 2.32205 251.844 2.76098 251.235C2.98044 250.902 3.09371 250.13 3.09371 248.913V235.108C3.09371 233.784 2.93088 232.899 2.65478 232.623C2.15922 232.127 1.49376 231.908 0.835372 231.957H0V231.405H7.83692C9.38024 231.349 10.874 231.568 12.3678 232.014C13.4721 232.403 14.4137 233.118 15.1287 234.003C15.8438 234.945 16.2898 236.099 16.2331 237.317C16.2898 238.917 15.6809 240.467 14.5199 241.571C13.3589 242.676 11.7589 243.228 9.66341 243.228C9.11122 243.228 8.55902 243.171 8.00683 243.115C7.398 243.001 6.78917 242.895 6.07415 242.725M6.07415 241.84C6.62634 241.954 7.1219 242.003 7.5679 242.06C7.95727 242.116 8.28293 242.116 8.67229 242.116C9.77668 242.116 10.7678 241.677 11.4899 240.849C12.3182 239.964 12.7571 238.754 12.7076 237.536C12.7076 236.651 12.5447 235.773 12.1554 234.945C11.8226 234.173 11.2704 233.564 10.5554 233.175C9.8404 232.786 9.01211 232.566 8.18381 232.566C7.46879 232.566 6.80333 232.68 6.13786 232.842L6.08123 241.84H6.07415Z" fill="#040000"></path>
<path d="M38.4279 241.295H48.3674V235.164C48.4241 234.449 48.3108 233.727 48.148 233.012C48.0347 232.736 47.7586 232.46 47.4825 232.347C47.0436 232.071 46.5409 231.957 46.0454 231.957H45.2737V231.349H54.4416V231.957H53.6699C53.1743 231.957 52.6788 232.071 52.2328 232.29C51.9 232.453 51.6806 232.729 51.5673 233.062C51.4045 233.727 51.3479 234.442 51.4045 235.157V248.962C51.3479 249.677 51.4045 250.399 51.624 251.114C51.7372 251.39 52.0133 251.667 52.2823 251.78C52.7213 251.999 53.2239 252.169 53.7195 252.169H54.4911V252.778H45.3233V252.169H46.0949C46.8099 252.226 47.532 251.95 47.971 251.398C48.2471 251.065 48.3603 250.237 48.3603 248.969V242.456H38.4208V248.969C38.3642 249.684 38.4775 250.406 38.6403 251.121C38.7536 251.398 39.0297 251.674 39.3058 251.787C39.7447 252.006 40.2473 252.176 40.7429 252.176H41.5145V252.785H32.3467V252.176H33.1183C33.8334 252.233 34.5555 251.957 35.051 251.405C35.3271 251.072 35.4404 250.244 35.4404 248.976V235.172C35.497 234.457 35.4404 233.734 35.2209 233.019C35.1077 232.743 34.8316 232.467 34.5555 232.354C34.1165 232.134 33.621 231.965 33.1183 231.965H32.3467V231.412H41.5145V232.021H40.7429C40.2473 232.021 39.7518 232.134 39.3058 232.354C38.973 232.517 38.7536 232.793 38.6403 233.126C38.4775 233.791 38.4208 234.506 38.4208 235.221V241.295H38.4279Z" fill="#040000"></path>
<path d="M80.6698 252.169V252.778H71.5586V252.169H72.3302C73.0453 252.226 73.7674 251.95 74.2629 251.398C74.539 251.065 74.6523 250.237 74.6523 248.969V235.164C74.7089 234.449 74.5957 233.727 74.4328 233.012C74.3196 232.736 74.0435 232.46 73.7674 232.347C73.3284 232.127 72.8258 231.957 72.3302 231.957H71.5586V231.405H80.6698V232.014H79.8982C79.1831 231.957 78.461 232.234 78.0221 232.786C77.746 233.118 77.6327 233.947 77.6327 235.214V249.019C77.5761 249.734 77.6327 250.456 77.8522 251.171C77.9655 251.447 78.2416 251.723 78.5177 251.836C78.9566 252.056 79.4592 252.226 79.9548 252.226L80.6698 252.169Z" fill="#040000"></path>
<path d="M115.565 246.817L116.06 246.93L114.241 252.728H97.6748V252.12H98.4465C99.2181 252.176 99.9402 251.844 100.379 251.235C100.599 250.902 100.712 250.13 100.712 248.913V235.108C100.712 233.784 100.549 232.956 100.273 232.623C99.7774 232.127 99.1119 231.908 98.4535 231.957H97.7385V231.405H107.402V232.014C106.574 231.957 105.802 232.071 105.03 232.347C104.641 232.51 104.315 232.786 104.089 233.175C103.869 233.947 103.813 234.775 103.869 235.603V249.019C103.813 249.628 103.926 250.237 104.089 250.838C104.202 251.058 104.421 251.228 104.698 251.334C105.526 251.497 106.354 251.553 107.126 251.497H108.669C109.83 251.553 110.984 251.44 112.096 251.114C112.811 250.838 113.419 250.399 113.915 249.847C114.687 248.856 115.239 247.858 115.572 246.81" fill="#040000"></path>
<path d="M141.185 252.169V252.778H132.018V252.169H132.789C133.504 252.226 134.226 251.95 134.722 251.398C134.998 251.065 135.111 250.237 135.111 248.969V235.164C135.168 234.449 135.111 233.727 134.892 233.012C134.779 232.736 134.502 232.46 134.226 232.347C133.787 232.127 133.285 231.957 132.789 231.957H132.018V231.405H141.185V232.014H140.414C139.699 231.957 138.977 232.234 138.481 232.786C138.205 233.118 138.092 233.947 138.092 235.214V249.019C138.035 249.734 138.092 250.456 138.311 251.171C138.424 251.447 138.701 251.723 138.977 251.836C139.416 252.056 139.918 252.226 140.414 252.226L141.185 252.169Z" fill="#040000"></path>
<path d="M164.207 242.732V248.969C164.207 250.293 164.37 251.178 164.646 251.454C165.085 251.95 165.807 252.169 166.466 252.12H167.294V252.728H158.126V252.12H158.954C159.726 252.176 160.448 251.844 160.887 251.235C161.106 250.902 161.22 250.13 161.22 248.913V235.108C161.22 233.784 161.106 232.899 160.781 232.623C160.285 232.127 159.62 231.908 158.961 231.957H158.133V231.405H165.97C167.513 231.349 169.007 231.568 170.501 232.014C171.605 232.403 172.547 233.118 173.262 234.003C174.033 234.945 174.423 236.099 174.366 237.317C174.423 238.917 173.814 240.467 172.653 241.571C171.492 242.676 169.892 243.228 167.796 243.228C167.244 243.228 166.692 243.171 166.14 243.115C165.531 243.001 164.873 242.895 164.207 242.725M164.207 241.84C164.759 241.954 165.255 242.003 165.701 242.06C166.09 242.116 166.416 242.116 166.805 242.116C167.91 242.116 168.901 241.677 169.623 240.849C170.451 239.964 170.89 238.754 170.841 237.536C170.841 236.651 170.678 235.773 170.288 234.945C169.956 234.173 169.403 233.564 168.688 233.175C167.973 232.786 167.145 232.566 166.317 232.566C165.602 232.566 164.936 232.68 164.271 232.842L164.214 241.84H164.207Z" fill="#040000"></path>
<path d="M196.568 242.732V248.969C196.568 250.293 196.73 251.178 197.006 251.454C197.445 251.95 198.168 252.169 198.826 252.12H199.654V252.728H190.486V252.12H191.315C192.086 252.176 192.808 251.844 193.247 251.235C193.467 250.902 193.58 250.13 193.58 248.913V235.108C193.58 233.784 193.467 232.899 193.141 232.623C192.646 232.127 191.98 231.908 191.322 231.957H190.493V231.405H198.33C199.874 231.349 201.367 231.568 202.861 232.014C203.966 232.403 204.907 233.118 205.679 234.003C206.394 234.945 206.84 236.099 206.783 237.317C206.84 238.917 206.231 240.467 205.07 241.571C203.909 242.676 202.309 243.228 200.213 243.228C199.661 243.228 199.109 243.171 198.557 243.115C197.891 243.001 197.233 242.895 196.568 242.725M196.568 241.84C197.12 241.954 197.615 242.003 198.061 242.06C198.451 242.116 198.776 242.116 199.166 242.116C200.27 242.116 201.261 241.677 201.983 240.849C202.812 239.964 203.251 238.754 203.201 237.536C203.201 236.651 203.038 235.773 202.649 234.945C202.316 234.173 201.764 233.564 201.049 233.175C200.334 232.786 199.506 232.566 198.677 232.566C197.962 232.566 197.297 232.68 196.631 232.842L196.575 241.84H196.568Z" fill="#040000"></path>
<path d="M252.608 242.732V248.969C252.608 250.293 252.77 251.178 253.047 251.454C253.542 251.95 254.208 252.169 254.866 252.12H255.694V252.728H246.526V252.12H247.355C248.126 252.176 248.848 251.844 249.287 251.235C249.507 250.902 249.62 250.13 249.62 248.913V235.108C249.62 233.784 249.457 232.899 249.181 232.623C248.686 232.127 248.02 231.908 247.362 231.957H246.533V231.405H254.37C255.914 231.349 257.407 231.568 258.901 232.014C260.006 232.403 260.947 233.118 261.662 234.003C262.434 234.945 262.823 236.099 262.823 237.317C262.88 238.917 262.271 240.467 261.11 241.571C259.949 242.676 258.349 243.228 256.253 243.228C255.701 243.228 255.149 243.171 254.597 243.115C253.931 243.001 253.273 242.895 252.608 242.725M252.608 241.84C253.16 241.954 253.655 242.003 254.101 242.06C254.491 242.116 254.816 242.116 255.206 242.116C256.31 242.116 257.301 241.677 258.023 240.849C258.852 239.964 259.291 238.754 259.241 237.536C259.241 236.651 259.078 235.773 258.689 234.945C258.356 234.173 257.804 233.564 257.089 233.175C256.374 232.786 255.546 232.566 254.717 232.566C254.002 232.566 253.337 232.68 252.671 232.842L252.615 241.84H252.608Z" fill="#040000"></path>
<path d="M296.84 246.817L297.335 246.93L295.516 252.728H278.95V252.12H279.778C280.55 252.176 281.272 251.844 281.711 251.235C281.931 250.902 282.044 250.13 282.044 248.913V235.108C282.044 233.784 281.881 232.956 281.605 232.623C281.109 232.127 280.444 231.908 279.786 231.957H278.957V231.405H288.621V232.014C287.792 231.957 287.021 232.071 286.249 232.347C285.86 232.51 285.534 232.786 285.308 233.175C285.088 233.947 284.975 234.775 285.031 235.603V249.019C284.975 249.628 285.088 250.237 285.308 250.838C285.421 251.058 285.64 251.228 285.916 251.334C286.745 251.497 287.573 251.553 288.401 251.497H290.001C291.162 251.553 292.323 251.44 293.421 251.114C294.136 250.838 294.744 250.399 295.24 249.847C295.905 248.856 296.458 247.858 296.84 246.81" fill="#040000"></path>
<path d="M319.197 232.516V240.962H323.891C325.108 240.962 325.937 240.799 326.319 240.41C326.871 239.914 327.147 239.086 327.26 237.868H327.813V245.323H327.26C327.204 244.657 327.041 243.942 326.821 243.333C326.602 242.944 326.269 242.668 325.88 242.448C325.271 242.229 324.556 242.116 323.891 242.116H319.197V249.181C319.14 249.733 319.197 250.342 319.31 250.894C319.423 251.114 319.53 251.284 319.749 251.39C320.139 251.553 320.521 251.609 320.967 251.553H324.613C325.498 251.609 326.383 251.496 327.26 251.276C327.869 251.057 328.421 250.724 328.804 250.285C329.632 249.4 330.297 248.409 330.793 247.362H331.459L329.639 252.721H313.187V252.112H313.958C314.454 252.112 314.949 251.999 315.395 251.779C315.728 251.616 315.947 251.34 316.061 251.007C316.224 250.342 316.28 249.627 316.224 248.962V235.1C316.224 233.72 316.11 232.891 315.834 232.615C315.339 232.12 314.617 231.9 313.958 232.006H313.187V231.397H329.639L329.859 236.091H329.25C329.136 235.263 328.917 234.491 328.535 233.769C328.259 233.33 327.82 232.997 327.317 232.828C326.602 232.608 325.823 232.551 325.108 232.608L319.204 232.495L319.197 232.516Z" fill="#040000"></path>
<path d="M357.737 252.169V252.778H348.569V252.169H349.341C350.056 252.226 350.778 251.95 351.274 251.398C351.55 251.065 351.663 250.237 351.663 248.969V235.164C351.72 234.449 351.606 233.727 351.444 233.012C351.33 232.736 351.054 232.46 350.778 232.347C350.339 232.127 349.837 231.957 349.341 231.957H348.569V231.405H357.737V232.014H356.966C356.251 231.957 355.528 232.234 355.089 232.786C354.813 233.118 354.7 233.947 354.7 235.214V249.019C354.643 249.734 354.7 250.456 354.92 251.171C355.033 251.447 355.309 251.723 355.585 251.836C356.024 252.056 356.527 252.226 357.022 252.226L357.737 252.169Z" fill="#040000"></path>
<path d="M373.751 231.355H379.549L392.632 247.369V235.058C392.632 233.734 392.469 232.906 392.193 232.573C391.698 232.078 391.032 231.858 390.374 231.908H389.659V231.299H397V231.908H396.228C395.513 231.794 394.735 232.127 394.296 232.679C394.076 233.012 393.963 233.784 393.963 235.001V253.004H393.411L379.33 235.886V249.026C379.33 250.35 379.493 251.178 379.769 251.454C380.264 251.95 380.93 252.169 381.588 252.119H382.36V252.728H374.905V252.119H375.62C376.335 252.176 377.114 251.9 377.553 251.291C377.772 250.958 377.886 250.187 377.886 248.969V234.116C377.447 233.564 377.001 233.125 376.505 232.679C376.066 232.403 375.62 232.184 375.125 232.014C374.686 231.901 374.183 231.851 373.744 231.901V231.348L373.751 231.355Z" fill="#040000"></path>
</g>
<path d="M149.277 184.915H145.228L91.8135 92.4148L145.129 0H251.865L305.187 92.4148L251.865 184.83H149.277V184.922V184.915ZM243.674 170.685L288.798 92.4148L243.674 14.2367H153.334L108.209 92.5069L153.334 170.685H243.674Z" fill="black"></path>
<path d="M163.867 102.771C161.616 103.041 159.365 103.225 157.022 103.225C148.462 103.225 141.886 100.973 137.206 96.5557C132.52 92.1453 130.183 86.3755 130.183 79.2607C130.091 74.3051 131.713 69.5336 134.87 65.6611C137.843 61.9657 141.808 59.1764 146.218 57.5552C150.721 55.934 156.845 55.127 164.681 55.127H196.567V57.5552H193.325C189.99 57.5552 187.562 58.4543 185.849 60.3445C184.681 61.6967 184.136 65.116 184.136 70.5247V126.82C184.136 131.776 184.589 134.926 185.396 136.278C187.017 138.622 189.629 139.882 193.325 139.882H196.567V142.225H159.188V139.882H162.522C165.765 139.882 168.285 138.891 169.906 137C171.074 135.74 171.711 132.314 171.711 126.82V101.419C168.922 102.049 166.31 102.502 163.874 102.771M171.711 61.5197C168.922 60.7976 166.126 60.3516 163.336 60.2595C160.002 60.1675 156.668 61.0666 153.701 62.6878C150.82 64.309 148.569 66.8292 147.216 69.8946C145.687 73.137 144.873 76.7404 144.873 80.4359C144.873 85.9295 146.494 90.432 149.737 93.8585C152.618 97.1929 156.76 99.0831 161.177 99.0831C162.706 99.0831 164.15 98.9911 165.68 98.8141C167.393 98.6371 169.46 98.276 171.711 97.915V61.5267V61.5197Z" fill="black"></path>
<path d="M225.296 101.42V126.821C225.296 132.314 225.926 135.741 227.094 137.001C228.715 138.891 231.15 139.79 234.478 139.79H237.812V142.133H200.433V139.79H203.675C207.371 139.79 209.983 138.622 211.604 136.187C212.418 134.834 212.864 131.684 212.864 126.729V70.5249C212.864 65.0313 212.234 61.6969 211.059 60.3447C209.346 58.4545 206.918 57.5554 203.583 57.5554H200.341V55.1201H232.319C240.063 55.1201 246.279 55.9342 250.69 57.5554C255.192 59.1766 259.157 61.9659 262.13 65.6614C265.195 69.4418 266.817 74.3054 266.725 79.1689C266.725 86.2837 264.381 92.0464 259.61 96.464C254.838 100.874 248.353 103.126 239.794 103.126C237.543 103.126 235.292 102.949 232.949 102.673C230.697 102.496 228.085 101.951 225.296 101.412M225.296 97.809C227.547 98.1701 229.621 98.5312 231.327 98.7081C232.857 98.8922 234.301 98.9772 235.83 98.9772C240.24 98.9772 244.389 97.1719 247.27 93.8446C250.605 90.4252 252.134 85.9156 252.134 80.422C252.134 76.8186 251.412 73.2151 249.791 69.8807C248.438 66.8153 246.095 64.2951 243.306 62.6739C240.332 61.0527 237.09 60.1536 233.671 60.2456C230.789 60.3377 228 60.7837 225.204 61.5058V97.802H225.296V97.809Z" fill="black"></path>
</svg>
