<svg viewBox="0 0 120 37" fill="none" xmlns="http://www.w3.org/2000/svg">
<path d="M119.6 0H0V36.49H119.6V0Z" fill="#D71A18"></path>
<path d="M14.1798 15.0901C14.1798 16.2101 13.2698 17.1201 12.1498 17.1201H10.1198V10.1401H12.1498C13.2698 10.1401 14.1798 11.0501 14.1798 12.1701V15.1001V15.0901ZM12.1498 6.08008H6.06982V30.4101H10.1198V21.1701H12.1498C15.5098 21.1701 18.2298 18.4501 18.2298 15.1001V12.1701C18.2298 8.81008 15.5098 6.09008 12.1498 6.09008" fill="white"></path>
<path d="M42.5602 15.0901C42.5602 16.2101 41.6502 17.1201 40.5302 17.1201H38.5002V10.1401H40.5302C41.6502 10.1401 42.5602 11.0501 42.5602 12.1701V15.1001V15.0901ZM40.5302 6.08008H34.4502V30.4101H38.5002V21.1701H40.5302C43.8902 21.1701 46.6102 18.4501 46.6102 15.1001V12.1701C46.6102 8.81008 43.8902 6.09008 40.5302 6.09008" fill="white"></path>
<path d="M28.38 24.3298C28.38 25.5098 27.37 26.4498 26.17 26.3498C25.1 26.2598 24.32 25.2898 24.32 24.2298V12.2798C24.32 11.2098 25.1 10.2498 26.17 10.1598C27.37 10.0598 28.38 10.9998 28.38 12.1798V24.3398V24.3298ZM26.08 6.08978C22.8 6.23978 20.27 9.06978 20.27 12.3598V24.1398C20.27 27.4198 22.79 30.2598 26.08 30.4098C29.56 30.5598 32.44 27.7798 32.44 24.3298V12.1698C32.44 8.71978 29.57 5.93978 26.08 6.08978Z" fill="white"></path>
<path d="M66.89 6.08008L62.84 18.0401L58.78 6.08008H54.73V30.4101H58.78V18.7001L61.37 26.3501H64.3L66.89 18.7001V30.4101H70.95V6.08008H66.89Z" fill="white"></path>
<path d="M97.2999 15.0901C97.2999 16.2101 96.3899 17.1201 95.2699 17.1201H93.2399V10.1401H95.2699C96.3899 10.1401 97.2999 11.0501 97.2999 12.1701V15.1001V15.0901ZM101.35 15.0901V12.1601C101.35 8.80008 98.6299 6.08008 95.2699 6.08008H89.1899V30.4101H93.2399V21.1701H95.2699L97.2999 30.4101H101.35L99.0299 19.8601C100.44 18.7501 101.34 17.0301 101.34 15.0901" fill="white"></path>
<path d="M78.3802 22.2901L80.0702 12.1601L81.7602 22.2901H78.3802ZM83.1102 6.08008H77.0302L72.9702 30.4101H77.0202L77.7002 26.3501H82.4302L83.1002 30.4101H87.1502L83.1002 6.08008H83.1102Z" fill="white"></path>
<path d="M102.39 6.08008V10.1401H105.94V30.4101H109.99V10.1401H113.54V6.08008H102.39Z" fill="white"></path>
</svg>
