<svg  viewBox="0 0 305 88" fill="none" xmlns="http://www.w3.org/2000/svg">
<path d="M226.254 38.2956L221.326 48.0911H231.854L226.254 38.2956ZM234.319 59V58.5548C235.887 58.5548 236.559 58.1097 236.559 56.9963C236.559 56.5511 236.335 55.8832 236.111 55.215L233.199 50.0948H220.429L218.19 54.5474C217.965 55.215 217.741 55.8832 217.741 56.5511C217.741 57.6639 218.19 58.3321 219.534 58.3321V58.7773H211.693V58.3321C213.485 58.3321 214.829 56.9963 215.949 54.7699L225.358 36.0695L222.67 31.8396C221.326 29.6132 219.981 29.168 218.413 29.168V28.7225H230.734L245.968 55.215C246.864 56.7736 247.984 58.5548 250 58.5548V59H234.319ZM200.716 38.2956C200.716 32.73 197.132 30.7262 193.323 30.7262H189.067V56.9963H193.323C197.132 56.9963 200.716 54.9926 200.716 49.4269V38.2956ZM194.443 59H176.522V58.5548C176.97 58.5548 180.33 58.3321 180.33 54.9926V32.9527C180.33 29.3907 176.97 29.3907 176.522 29.3907V28.9453H194.443C202.508 28.9453 210.797 34.0658 210.797 44.084C211.021 53.8795 202.508 59 194.443 59ZM149.64 38.2956L144.711 47.8684H155.24L149.64 38.2956ZM157.704 59V58.5548C159.273 58.5548 159.944 58.1097 159.944 56.9963C159.944 56.5511 159.721 55.8832 159.497 55.215L156.36 50.0948H143.591L141.351 54.5474C141.127 55.215 140.903 55.8832 140.903 56.5511C140.903 57.6639 141.351 58.3321 142.695 58.3321V58.7773H134.855V58.3321C136.647 58.3321 137.991 56.9963 139.111 54.7699L148.52 36.0695L145.831 31.8396C144.487 29.6132 143.143 29.168 141.575 29.168V28.7225H154.12L169.353 55.215C170.249 56.7736 171.37 58.5548 173.386 58.5548V59H157.704ZM112.229 30.7262H105.732V45.4195H112.229C116.933 45.4195 119.173 42.0803 119.173 38.0729C119.173 34.2885 116.933 30.7262 112.229 30.7262ZM120.069 59L105.956 47.4232V54.7699C105.956 58.3321 109.317 58.3321 109.764 58.3321V58.7773H93.4111V58.3321C93.859 58.3321 97.2194 58.1097 97.2194 54.7699V32.73C97.2194 29.168 93.859 29.168 93.4111 29.168V28.7225H116.261C123.43 28.7225 127.014 33.3979 127.014 38.0729C127.014 42.7482 123.654 47.4232 116.261 47.4232H109.317C110.885 48.9818 114.245 49.6497 117.157 49.6497C118.501 49.6497 119.845 49.4269 120.965 49.2045L132.615 58.5548V59H120.069ZM74.8176 30.7262H68.5451V45.4195H74.8176C79.5221 45.4195 81.7622 42.0803 81.7622 38.0729C81.7622 34.2885 79.5221 30.7262 74.8176 30.7262ZM78.8498 47.4232H68.5451V54.7699C68.5451 58.3321 71.9054 58.3321 72.3534 58.3321V58.7773H56V58.3321C56.4482 58.3321 59.8083 58.1094 59.8083 54.7699V32.73C59.8083 29.168 56.4482 29.168 56 29.168V28.7225H78.8498C86.0185 28.7225 89.603 33.3979 89.603 38.0729C89.603 42.7482 86.2426 47.4232 78.8498 47.4232Z" fill="#010101"/>
</svg>
