<svg viewBox="0 0 115 60" id="rolex" xmlns="http://www.w3.org/2000/svg"><path d="M73.3 6.8c-1 0-1.9.8-1.9 1.9 0 .7.3 1.2.8 1.6L65.8 24l1.3-18.3c1-.1 1.8-1 1.7-2.1-.1-1-.9-1.7-1.9-1.7-1 0-1.9.8-1.9 1.9 0 .8.5 1.5 1.3 1.8L62 23.4 59.8 3.7c.8-.2 1.4-1 1.4-1.8 0-1-.8-1.9-1.9-1.9-1 0-1.9.8-1.9 1.9 0 .9.7 1.7 1.6 1.8l-1.8 19.2-5-17.3c.6-.3 1-1 1-1.7 0-1-.8-1.9-1.9-1.9s-1.9.8-1.9 1.9c0 1 .8 1.9 1.9 1.9h.1l2.2 18.1-7.4-13.2c.8-.6 1-1.8.3-2.6-.6-.8-1.8-1-2.6-.3-.5.4-.7.9-.7 1.5 0 1 .8 1.9 1.9 1.9h.4l6.2 18.6c1.4 4.3 14 4.4 15.9 0L73 10.5h.2c1 0 1.9-.8 1.9-1.9 0-1-.8-1.8-1.8-1.8zM59.4 31.7c-3.2 0-5.8-1-5.8-2.2 0-1.2 2.6-1.7 5.8-1.7 3.2 0 5.5.6 5.5 1.7-.1 1.2-2.3 2.2-5.5 2.2z" fill="#b5985b"/><path d="M34.8 40c-6.5 0-10.6 5-10.6 9.8 0 6.1 4 10 10.4 10 6.8 0 10.7-3.8 10.7-10.3 0-4.8-4.2-9.5-10.5-9.5zM0 40.6v2.1h1.9c1.1 0 1.5.3 1.5 1.3v12.2c0 1-.4 1.3-1.5 1.3H0v2h10.7v-2H9.2c-1.1 0-1.5-.4-1.5-1.3v-5.4h1.9c2 0 3.5 1.2 3.6 3.3l.2 2.5c.1 2.3 1.6 3.5 4.3 3.5 2.9 0 3.5-1.4 3.5-4.4v-1.6h-1.6v1c0 1.2-.7 1.8-1.2 1.8-.9 0-1-1.1-1-1.8v-.8c0-2.6-1.2-3.6-2.7-4.4 2.8-.7 4.6-2.3 4.6-4.6 0-3-2-4.7-5.7-4.7H0zm68.5 0v2.1h1.9c1.1 0 1.5.2 1.5 1.2v12.2c0 1-.4 1.3-1.5 1.3h-1.9v2h19.1v-8.1h-1.8c0 4-1.6 6.1-4.2 6.1h-5.4V51h1.1c1.7 0 2.7.8 2.7 2.2v1.1h2v-9h-2.1v1c0 1.4-1 2.2-2.7 2.2h-1.1v-5.8h5c3.7 0 4.4 2.1 4.6 5.3h1.8v-7.4h-19zm23.8 0v2.1c2.7.1 3.4.4 4.4 1.7l4.4 5.4-6.1 6.4c-1.1 1.2-1.2 1.3-2.8 1.3v2h9.6v-2h-2.3c-.7 0-.8-.5-.8-.9s.5-.8.7-1.1l3.4-3.8 3.4 4c.2.2.4.5.4.8 0 .4-.3.9-1 .9h-1.9v2h10.8v-2c-1.7 0-1.9-.1-3.4-2l-5.7-6.7 3.8-4.2c1.4-1.5 2-2 3.2-2h2v-2.1H105v2.1h1.3c.5.1.8.6.3 1l-2.7 3-2.1-2.6c-.5-.5-.4-1.5.5-1.5h1v-2.1l-11 .3zm-44.1 0v2.1h1.5c1.1 0 1.5.3 1.5 1.3v12.1c0 1-.4 1.3-1.5 1.3h-1.5v2h17.9v-8.3h-2c-.1 3.3 0 6.2-4 6.2h-4.5V44.1c0-1 .4-1.3 1.5-1.3h1.7v-2.1H48.2zm-13.4 1.9c3.3 0 5.3 2.5 5.3 7.4 0 4.8-2 7.7-5.5 7.7-3.4 0-5.3-3-5.3-7.9 0-4.8 2.1-7.2 5.5-7.2zm-27.1.2h2.9c2.8 0 3.9.9 3.9 2.8s-1.1 2.8-3.5 2.8H7.7v-5.6z" fill="#252021"/></svg>