<svg viewBox="0 0 89 60" id="swarovski" xmlns="http://www.w3.org/2000/svg"><path d="M56.1 29.4c.2 0 .4-.2.4-.4s-.2-.5-.4-.5-.4.2-.4.5c0 .2.1.4.4.4zm7-15.6c.1 0 .1-.1.2-.2-.1.1-.2.1-.2.2zm-.6 4.2c.3 0 .4-.2.4-.4 0-.3-.2-.5-.4-.5s-.4.2-.4.5c0 .2.2.4.4.4zm-1.2-.3c-.2 0-.4.2-.4.4 0 .3.2.4.4.4s.4-.2.4-.4-.2-.4-.4-.4zm-1 4.8c0 .3.2.4.4.4s.4-.2.4-.4-.2-.4-.4-.4-.4.2-.4.4zm3.6-4.1c0-.2-.2-.4-.4-.4-.3 0-.5.2-.5.4s.2.4.5.4c.2.1.4-.1.4-.4zm-2.8 4.8c-.2 0-.4.2-.4.5 0 .2.2.4.4.4s.5-.2.5-.4-.2-.5-.5-.5zm.6-2.4c-.2 0-.4.2-.4.4s.2.5.4.5.4-.2.4-.5c0-.2-.1-.4-.4-.4zM60 15.3c-.2 0-.4.2-.4.4 0 .3.2.4.4.4s.4-.2.4-.4-.2-.4-.4-.4zm-.3-.9c-.3 0-.5.2-.5.4s.2.4.5.4c.2 0 .4-.2.4-.4s-.2-.4-.4-.4zm3.6 7.1c-.2 0-.4.2-.4.4s.2.5.4.5.4-.2.4-.5c0-.2-.2-.4-.4-.4zm1.3-3.8c0-.2-.2-.4-.4-.4-.3 0-.5.2-.5.4s.2.4.5.4c.2 0 .4-.2.4-.4zm-3.3 1.7c-.2 0-.4.2-.4.5 0 .2.2.4.4.4s.4-.2.4-.4c0-.3-.1-.5-.4-.5zM49.9 34.7c.2 0 .4-.2.4-.4s-.2-.5-.4-.5-.3.1-.4.3c0-.1 0-.2-.1-.2h.1c.3 0 .4-.2.4-.4 0-.3-.2-.5-.4-.5s-.4.2-.4.5c0 .1 0 .2.1.2h-.1c-.2 0-.5.2-.5.4s.2.5.5.5c.2 0 .3-.1.4-.3 0 .2.2.4.4.4zm-1-9.7c0 .3.2.5.4.5s.4-.2.4-.5c0-.1 0-.1-.1-.2.2 0 .4-.1.4-.2 0 .2.2.4.4.4s.5-.2.5-.4-.2-.4-.5-.4c-.2 0-.3.1-.4.2 0-.2-.2-.4-.4-.4s-.4.2-.4.5c0 .1 0 .1.1.2-.3-.1-.4.1-.4.3zm2.7-1.2c-.2 0-.4.2-.4.4s.1.3.2.4c-.1.1-.1.2-.1.3 0 .3.2.4.4.4.3 0 .4-.2.4-.4s-.1-.3-.2-.4c.1-.1.1-.2.1-.3 0-.2-.2-.4-.4-.4zm2 11.9c0-.2-.2-.5-.4-.5s-.3.1-.4.2c-.1-.2-.2-.3-.4-.3h-.1c0-.2-.1-.3-.2-.3.1 0 .3-.1.3-.2.1.2.2.3.4.3s.4-.2.4-.4-.2-.4-.4-.4-.3.1-.4.2c-.1-.2-.2-.3-.4-.3-.3 0-.5.2-.5.4 0 .1.1.3.2.3-.2 0-.4.2-.4.4s.2.4.4.4h.1c0 .2.2.4.4.4s.3-.1.4-.2c0 0 0 .1.1.1-.1.1-.2.2-.2.4 0 .3.2.5.4.5s.4-.2.4-.5c0-.1 0-.2-.1-.3.3.1.4 0 .4-.2zm.5-.1c-.2 0-.4.2-.4.4 0 .3.2.4.4.4.3 0 .4-.2.4-.4s-.2-.4-.4-.4zm-.2-1.2c-.2 0-.4.2-.4.4 0 .3.2.5.4.5s.4-.2.4-.5c0-.2-.2-.4-.4-.4zm.9-12.6c.2 0 .4-.2.4-.4 0-.3-.2-.5-.4-.5s-.4.2-.4.5c0 .2.2.4.4.4zm.5-3.7c0 .3.2.4.4.4.3 0 .4-.2.4-.4.1.1.2.1.2.1.3 0 .4-.2.4-.4 0-.3-.2-.4-.4-.4s-.4.2-.4.4c-.1 0-.2-.1-.2-.1-.2 0-.4.2-.4.4z" fill="#030202"/><path d="M63.1 13.8v.2c0 .2.2.4.5.4.2 0 .4-.2.4-.4s-.2-.4-.4-.4c-.1 0-.2 0-.2.1-.2 0-.2.1-.3.1zm-5.3 1.9c0 .2.2.4.5.4.2 0 .4-.2.4-.4 0-.1 0-.1-.1-.2.1.1.2.1.3.1.2 0 .5-.2.5-.5 0-.2-.2-.4-.5-.4-.2 0-.4.2-.4.4 0 .1 0 .2.1.2-.1-.1-.2-.1-.3-.1-.3.1-.5.3-.5.5zM55 23.4c.2 0 .5-.2.5-.4s-.2-.4-.5-.4c-.2 0-.4.2-.4.4s.2.4.4.4zm.2-4.3c0-.3-.2-.5-.4-.5s-.4.2-.4.5c0 .2.2.4.4.4s.4-.2.4-.4zm8.1-5.7c0-.2-.2-.4-.4-.4s-.4.2-.4.4c0 .3.2.4.4.4.1 0 .1 0 .2-.1 0-.1.1-.1.2-.2v-.1c0 .1 0 .1 0 0zm-4.5 5.8c0-.2-.2-.4-.4-.4s-.4.2-.4.4.2.4.4.4.4-.2.4-.4zm.2 2.1c-.2 0-.5.2-.5.4s.2.4.5.4c.2 0 .4-.2.4-.4s-.2-.4-.4-.4zm-.5 1.7c0-.2-.2-.4-.5-.4-.2 0-.4.2-.4.4s.2.4.4.4c.3.1.5-.1.5-.4zm-1.3-4.3c-.2 0-.4.2-.4.5 0 .2.2.4.4.4s.5-.2.5-.4c0-.3-.2-.5-.5-.5zm.7-1.1c0 .2.2.4.4.4s.4-.2.4-.4v-.1h.2c.2 0 .4-.2.4-.4s-.2-.4-.4-.4c-.3 0-.5.2-.5.4h-.1c-.2.1-.4.3-.4.5zm1.1 2.8c-.3 0-.4.2-.4.4s.2.4.4.4.4-.2.4-.4-.2-.4-.4-.4zm-2.5 2.5c.3 0 .5-.2.5-.4s-.2-.4-.5-.4c-.2 0-.4.2-.4.4s.2.4.4.4zm.6 1.9c0-.2-.2-.4-.4-.4s-.5.2-.5.4.2.4.5.4c.2 0 .4-.1.4-.4zm-.2 3.3c.2 0 .4-.2.4-.4s-.2-.4-.4-.4c-.3 0-.4.2-.4.4s.2.4.4.4zm-.8 5.5c0-.2-.2-.4-.4-.4s-.4.2-.4.4.2.4.4.4.4-.2.4-.4zm1.4-8.2c-.2 0-.4.2-.4.4 0 .3.2.5.4.5s.4-.2.4-.5c0-.2-.2-.4-.4-.4zm-.2-4.2c0 .3.2.5.4.5s.4-.2.4-.5c0-.2-.2-.4-.4-.4-.3 0-.4.2-.4.4zm.8 3c0-.2-.2-.4-.4-.4s-.4.2-.4.4c0 .3.2.5.4.5s.4-.2.4-.5zm1.6-6.9c-.3 0-.5.2-.5.4s.2.4.5.4c.2 0 .4-.2.4-.4s-.2-.4-.4-.4zm-7 12.5c-.2 0-.4.2-.4.4s.2.5.4.5.4-.2.4-.5c0-.2-.2-.4-.4-.4zm1.5 1.3c.2 0 .4-.2.4-.4 0-.3-.2-.4-.4-.4s-.4.2-.4.4.2.4.4.4zm1.1-1.9c0-.2-.2-.4-.4-.4 0-.1.1-.2.1-.2 0-.2-.2-.4-.4-.4s-.4.2-.4.4.2.4.4.4c0 .1-.1.2-.1.2 0 .2.2.4.4.4.2.1.4-.2.4-.4zm-1.9 3.3c.3 0 .4-.2.4-.4 0-.3-.2-.4-.4-.4s-.4.2-.4.4.2.4.4.4zm4.5-2.3c0-.2-.2-.4-.4-.4s-.4.2-.4.4.2.4.4.4c.3 0 .4-.2.4-.4zm-.8 3.4c-.2 0-.4.2-.4.4s.2.5.4.5.4-.2.4-.5c0-.2-.1-.4-.4-.4zm-1-12.9c0 .2.2.4.4.4s.5-.2.5-.4-.2-.4-.5-.4c-.2 0-.4.2-.4.4zm-.3 7.2c0-.2-.2-.4-.4-.4s-.4.2-.4.4c0 .3.2.4.4.4s.4-.2.4-.4zm4.2-9c0-.2-.2-.4-.5-.4-.2 0-.4.2-.4.4 0 .3.2.4.4.4.3 0 .5-.1.5-.4zM54.8 26c0 .1 0 .1 0 0 0 .2.2.4.4.4.3 0 .4-.2.4-.4s-.2-.4-.4-.4-.4.2-.4.4zm1.1-1.9c0-.2-.2-.4-.4-.4s-.4.2-.4.4c0 .3.2.4.4.4.3.1.4-.1.4-.4zm1.9 7.7c0-.2-.2-.4-.4-.4s-.5.2-.5.4.2.5.5.5c.2 0 .4-.2.4-.5zm4.3-16.3c0 .2.2.4.4.4s.5-.2.5-.4-.2-.4-.5-.4c-.2 0-.4.2-.4.4zM38.9 32zM36 41.2zm3.4-7.1z" fill="#030202"/><path d="M29.8 23.4c-2 2.4-3.9 4.8-4.8 6.2-1.6 2.6-3.7 6.8-3.7 10.5 0 1.8.5 3.6 1.8 5 0 .1.1.2.2.3.1.1.2.2.4.2h18.1c.2 0 .4-.2.4-.4v-.1c.1.1.2.1.3.1.2 0 .4-.2.4-.4s-.2-.4-.4-.4c-.3 0-.4.2-.4.4v.1c-.1-.1-.2-.1-.3-.1h-.5c.1-.1.1-.2.1-.3 0-.2-.2-.4-.4-.4s-.4.2-.4.4c0 .1 0 .2.1.3h-.2c-.1-.1-.2-.2-.4-.2-.1 0-.2.1-.2.2h-.2c-.1-.1-.2-.2-.3-.2-.1 0-.2.1-.2.2h-.3l-.2-.2c.1-.1.2-.2.2-.3 0-.2-.2-.4-.4-.4v-.2c0-.1 0-.2-.1-.2v-.1c0 .2.2.4.4.4s.4-.2.4-.5c0-.1-.1-.3-.2-.4.2 0 .4-.2.3-.4 0-.3-.2-.5-.4-.5s-.4.2-.4.5c0 .1.1.3.2.3-.2 0-.3.1-.3.3 0-.2-.2-.3-.4-.3s-.3.1-.4.3c-.1-.1-.2-.3-.4-.3s-.3.1-.4.3c-.1-.1-.2-.2-.4-.2v-.1c.2 0 .3-.1.3-.3.1.1.2.3.4.3s.3-.1.4-.3c.1.2.2.3.4.3s.4-.2.4-.4c0-.1-.1-.3-.2-.4h.1c.2 0 .4-.2.4-.5 0-.2-.2-.4-.4-.4v-.3c.2 0 .4-.2.4-.4.2.1.4 0 .5-.3.1.1.2.2.4.2s.3-.1.4-.3c.1.1.2.2.4.2s.4-.2.4-.4-.2-.4-.4-.4-.3.1-.4.3c-.1-.1-.2-.2-.4-.2h-.1c.2-.1.3-.2.3-.4s-.2-.4-.4-.4-.5.2-.5.4.2.4.5.4h.1c-.1 0-.2.1-.2.3 0-.1-.1-.1-.2-.2s-.2-.2-.3-.2c-.1 0-.1 0-.2.1 0-.2-.2-.3-.4-.3H38l.1-.1c.1.1.2.1.3.1.2 0 .4-.2.4-.4s-.2-.4-.4-.4c-.1 0-.3.1-.4.2-.1-.1-.2-.1-.3-.1-.1 0-.2 0-.3.1-.1-.1-.2-.1-.3-.1-.1 0-.3 0-.4.2 0-.2-.1-.3-.3-.4.1-.1.1-.2.1-.3v-.1.1c0 .2.2.4.4.4.3 0 .4-.2.4-.4 0-.3-.2-.4-.4-.4-.1 0-.2 0-.2.1.2 0 .4-.2.4-.4s-.2-.5-.5-.5c-.2 0-.4.2-.4.4h-.1c0-.1 0-.2-.1-.3.1-.1.1-.1.1-.2h.2c.1.1.2.1.3.1.2 0 .4-.1.4-.3.1.2.2.3.4.3h.2v.1h-.1c-.2 0-.4.2-.4.5 0 .2.2.4.4.4-.1.1-.2.2-.2.4s.2.4.4.4.4-.2.4-.4-.2-.4-.4-.4c.1-.1.3-.2.3-.4 0 .2.2.4.4.4-.1 0-.2.2-.2.4s.2.4.4.4.4-.2.4-.4-.2-.4-.4-.4c.2-.1.2-.2.2-.4s-.1-.4-.3-.4l-.1-.1c.1 0 .2-.1.2-.2.1.1.2.2.4.2v.2c-.1.1-.2.2-.2.3 0 .2.2.4.4.4s.5-.2.5-.4l-.1-.2.1-.1v.1c0 .2.1.4.3.4-.2 0-.3.2-.3.4s.1.4.3.4c-.1.1-.2.2-.2.4s.2.4.4.4.4-.2.4-.4-.2-.4-.4-.4c.1-.1.2-.2.2-.4v-.2c.1.1.2.2.4.2s.4-.2.4-.4v-.2c.1 0 .2.1.2.1.2 0 .4-.2.4-.5v-.1c.1 0 .1.1.2.1.2 0 .5-.2.5-.4s-.2-.4-.5-.4c-.2 0-.4.2-.4.4v.1c-.1 0-.1-.1-.2-.1-.2 0-.5.2-.5.4v.2c-.1 0-.1-.1-.2-.1-.2 0-.4.2-.4.4v.2c0-.1-.1-.2-.3-.3.2 0 .3-.2.3-.4v-.1h.1c.2 0 .5-.2.5-.4s-.2-.4-.5-.4c-.1 0-.3.1-.3.2v-.1c0-.2-.2-.4-.4-.4s-.4.2-.4.3c0-.1-.1-.2-.2-.3v-.2c.2 0 .4-.1.4-.3 0 .2.2.3.4.3.3 0 .4-.2.4-.4 0-.1-.1-.3-.2-.3v-.1c.2 0 .3-.1.4-.3 0 .1.1.3.2.3-.2.1-.3.2-.3.4 0 .3.2.4.4.4h.1v.1c0 .2.2.4.4.4s.5-.2.5-.4-.2-.4-.5-.4h-.1v-.1c0-.1-.1-.3-.2-.4.1 0 .2-.1.2-.2h.1v.1h.2c.2 0 .4-.2.4-.4s-.1-.3-.2-.4c.2-.1.3-.2.3-.4h.2c0 .2.2.4.4.4s.4-.2.4-.4-.2-.4-.4-.4h-.1c0-.2-.2-.4-.4-.4s-.5.2-.5.4h-.1c-.2 0-.4.2-.4.4 0 .1.1.3.2.4-.1 0-.1.1-.2.2-.1-.1-.2-.1-.2-.1-.2 0-.3.1-.4.3 0-.2-.2-.4-.4-.4H40v-.1c.1 0 .2-.1.3-.2.1.2.2.3.4.3.3 0 .5-.2.5-.4s-.2-.4-.5-.4h-.1c0-.1.1-.1.1-.2v-.1c.1-.1.2-.2.2-.3v-.1c.1 0 .1.1.2.1h.2c0 .2.2.4.4.4s.5-.2.5-.4-.2-.5-.5-.5h-.2c0-.1-.1-.1-.1-.2h.2l-.1-.1c.1-.1.2-.2.2-.3h.1c.2 0 .4-.2.4-.4 0-.1 0-.2-.1-.2.1-.1.2-.2.2-.3.1.2.3.2.5.1 0 0 .1 0 .1-.1v.1c0 .2.2.4.4.4-.1.1-.1.2-.1.3 0 .3.2.4.4.4.3 0 .4-.2.4-.4s-.2-.4-.4-.4c.1-.1.1-.2.1-.3 0-.2-.1-.4-.3-.4l.1-.1c.1.1.2.2.4.2s.3-.1.4-.3c0 .2.2.3.4.3s.3-.1.4-.3c0 .1.1.2.2.2 0 .1-.1.1-.1.2s.1.3.2.4h-.2c-.2 0-.4.2-.4.4s.2.4.4.4.5-.2.5-.4c0-.1-.1-.3-.2-.3h.1c.2 0 .4-.2.4-.5 0-.1-.1-.3-.2-.3V30c0 .2.2.3.4.3s.3-.1.4-.3c0 .2.2.3.3.3-.1.1-.2.2-.2.3 0 .2.2.4.4.4h.1c-.1.1-.1.2-.1.3 0 .3.2.4.4.4s.4-.2.4-.4-.2-.4-.4-.4h-.1c.1-.1.1-.2.1-.3 0-.2-.2-.4-.4-.4l.2-.2c0 .2.2.3.4.3s.4-.2.4-.4c0-.1-.1-.2-.2-.3.3 0 .4-.2.4-.4s-.2-.4-.4-.4-.4.2-.4.4c0 .1.1.2.1.3-.2 0-.4.1-.4.3 0-.1-.1-.2-.2-.2.2 0 .4-.2.4-.4s-.2-.4-.4-.4-.4.2-.4.4.1.3.2.3c-.2 0-.4.1-.4.3-.1-.2-.2-.3-.4-.3s-.4.1-.4.3c0-.1-.1-.2-.2-.2.2-.1.3-.3.2-.5.2 0 .3-.2.3-.4 0-.3-.2-.5-.4-.5s-.4.2-.4.5v.1c-.2 0-.3.2-.3.4s.1.3.2.3c-.1.1-.2.1-.2.3-.1-.2-.2-.3-.4-.3h-.1c0-.2-.2-.5-.4-.5s-.4.2-.4.5c-.1 0-.2.1-.3.2l-.3-.3c.1-.1.2-.2.2-.3 0-.2-.2-.4-.5-.4h-.1s.1-.1.1-.2h.3c0 .2.2.4.4.4s.4-.2.4-.5c0-.2-.2-.4-.4-.4h-.2c0-.2-.2-.3-.4-.3l.1-.1c.1.2.2.3.4.3s.4-.1.4-.3c.1.2.2.3.4.3s.4-.1.4-.3c.1.2.2.3.4.3s.4-.1.4-.3c.1.2.2.3.4.3s.4-.1.4-.3c.1.2.2.3.4.3v.1c0 .2.2.4.4.4s.4-.2.4-.4v-.1c.3 0 .5-.2.5-.4 0-.1 0-.2-.1-.2.2 0 .4-.2.4-.4s-.2-.4-.4-.4-.4.2-.4.4c0 .1 0 .2.1.2-.2 0-.3.1-.4.3-.1-.2-.2-.3-.4-.3s-.3.1-.4.3c-.1-.2-.3-.3-.5-.3V27c0-.2-.2-.4-.4-.4s-.4.2-.4.4v.1c-.2 0-.3.1-.3.3 0-.2-.2-.3-.4-.3.1-.1.1-.2.1-.3 0-.2-.2-.4-.4-.4-.1 0-.2 0-.3.1 0 0 0-.1-.1-.1.2 0 .3-.1.3-.2h.4c0 .3.2.5.4.5s.4-.2.4-.5c0-.1-.1-.3-.2-.3.1-.1.2-.2.2-.4s-.2-.4-.4-.4-.4.2-.4.4h-.2v-.1c0-.2-.2-.4-.4-.4.1 0 .1-.1.2-.2.1.2.2.3.4.3.3 0 .5-.2.5-.4v-.1h.2c.3.3.2.4.2.5 0 .2.1.4.4.4v.1c0 .2.2.4.4.4s.4-.2.4-.4v-.1c.2-.1.3-.2.3-.4v-.2c.2 0 .4-.1.5-.3v-.1c0-.2-.1-.4-.3-.4.2 0 .4-.2.4-.5 0-.2-.2-.4-.5-.4-.1 0-.2 0-.3.1-.1-.2-.2-.3-.4-.3s-.4.2-.4.4c0 .3.2.4.4.4.1 0 .2 0 .3-.1 0 .1.1.2.2.3-.2 0-.4.2-.4.5v.2h-.1c-.1 0-.3.1-.4.2-.1-.1-.2-.1-.3-.1 0-.1.1-.2.1-.2.2 0 .4-.2.4-.4s-.2-.4-.4-.4h-.1c0-.1.1-.1.1-.2s0-.2-.1-.3c.1 0 .2-.1.3-.2h.1c.3 0 .4-.2.4-.4v-.1l.1.1v.1c0 .3.2.4.4.4.3 0 .4-.2.4-.4s-.1-.3-.2-.4v-.1h.1c.2 0 .4-.2.4-.4v-.1.1c0 .1 0 .2.1.3-.1.1-.2.2-.2.4s.2.4.4.4.4-.2.4-.4c0-.1 0-.2-.1-.3.1 0 .1-.1.2-.2h.1c.1 0 .2 0 .3-.1.1.1.2.2.4.2s.5-.2.5-.4-.2-.4-.5-.4c-.1 0-.2 0-.3.1-.1-.1-.2-.2-.4-.2s-.3.1-.4.3h-.1v-.1c0-.1-.1-.3-.2-.3.1-.1.2-.2.2-.3 0 .2.2.4.4.4.1 0 .2 0 .3-.1.1.2.2.3.4.3s.4-.2.4-.4c0-.3-.2-.5-.4-.5v-.2c.2-.1.3-.2.3-.4v-.1c.1.1.2.1.3.1.3 0 .4-.2.4-.4 0-.3-.2-.4-.4-.4 0-.1.1-.1.1-.2v-.1h.3v.2c0 .3.2.4.4.4h.1c.1.1.2.2.3.2.2 0 .5-.2.5-.4v-.1c.1 0 .2-.1.3-.1 0 .1.1.2.2.3h-.1c-.3 0-.5.2-.5.4v.1c-.2 0-.4.2-.4.5 0 .2.2.4.4.4s.4-.2.4-.4v-.2h.1c.1 0 .2 0 .3-.1v.1c0 .2.2.5.5.5h.1v.1c0 .2.2.4.4.4.3 0 .4-.2.4-.4s-.2-.4-.4-.4h-.1v-.2c.2 0 .4-.1.5-.3v-.1c0-.3-.2-.5-.4-.5s-.4.2-.4.5v.1h-.1c-.1 0-.2 0-.3.1 0-.2-.1-.4-.3-.5h.1c.2 0 .4-.2.4-.4s-.2-.4-.4-.4c-.1 0-.2 0-.3.1 0-.1-.1-.2-.2-.3.2 0 .3-.1.4-.3.2.1.4.1.5-.1.1.1.2.1.3.1h.1v.1c0 .2.2.4.4.4s.3-.1.4-.2c0 .2.2.4.4.4.3 0 .5-.2.5-.4s-.2-.4-.5-.4c-.1 0-.3.1-.4.2 0-.2-.2-.4-.4-.4h-.1v-.1c0-.2-.2-.4-.4-.4-.1 0-.2 0-.3.1v-.1c.2 0 .4-.2.4-.4s-.2-.4-.4-.4c0 0 0-.1.1-.1.1.1.2.1.3.1.2 0 .4-.2.4-.4v-.1c.1 0 .1.1.2.1h.1c0 .2.2.4.4.4l.2-.1c0 .1.1.2.2.2-.1.1-.1.2-.1.3 0 .2.2.4.4.4s.4-.2.4-.4-.1-.3-.3-.4c.1-.1.1-.2.1-.3 0-.1 0-.2-.1-.3l.1-.1c.2 0 .3-.2.3-.4v-.1h.1c.2 0 .4-.2.4-.5 0-.2-.1-.3-.3-.4v-.2s0-.1-.1-.2h.2c-.1.1-.1.2-.1.2 0 .2.1.3.3.4v.4c-.1.1-.2.2-.2.4 0 .3.2.4.4.4s.4-.2.4-.4v-.2c.1-.1.2-.1.2-.3.1 0 .1.1.2.1.2 0 .4-.2.4-.4s-.2-.4-.4-.4-.3.1-.4.3h-.1c.1-.1 0-.3 0-.4.1.1.2.1.3.1.2 0 .5-.2.5-.4s-.2-.4-.5-.4c-.2 0-.4.2-.4.4 0 .1 0 .2.1.3-.1-.1-.2-.1-.3-.1h-.1c.1-.1.1-.2.1-.3 0-.1 0-.2-.1-.2.1 0 .1.1.2.1.2 0 .4-.1.4-.4.1 0 .1.1.2.1s.2 0 .2-.1c.1.1.2.2.3.2h.1c-.1.1-.1.2-.1.3 0 .2.1.3.3.4-.1.1-.1.2-.1.3 0 .2.2.4.4.4s.4-.2.4-.4-.1-.4-.3-.4c.1-.1.2-.2.2-.3 0-.2-.2-.4-.4-.4h-.1c.1-.1.1-.2.1-.3 0-.2-.2-.4-.4-.4-.1 0-.1 0-.2.1-.5-.7-.6-.8-.7-.8l.2-.2s.1 0 .1-.1c0 .2.2.4.4.4.1 0 .3-.1.4-.2h.1c-.1.1-.1.2-.1.3 0 .2.2.5.4.5s.5-.2.5-.5c0-.1-.1-.3-.2-.4.1-.1.1-.2.1-.3.1.2.2.3.4.3s.5-.2.5-.5c0-.2-.2-.4-.5-.4-.2 0-.4.2-.4.4 0-.1-.1-.1-.1-.2.1-.1.1-.1.1-.2 0-.2-.1-.3-.3-.3.1.1.2.1.2.1.1 0 .3-.1.3-.2.1 0 .1.1.2.1h.1c.1.2.2.3.4.3.3 0 .4-.2.4-.4s-.2-.4-.4-.4h-.1V10h.1c.2 0 .3-.1.4-.3.1-.1.2-.2.2-.3 0 0 .1 0 .1-.1.1.1.2.1.3.1.3 0 .5-.2.5-.4-.2 0-.2-.1-.2-.2.1-.1.2-.2.2-.3h.2c0 .3.2.4.4.4.3 0 .4-.2.4-.4s-.2-.4-.4-.4h-.1c0-.1-.1-.1-.1-.1.2 0 .3-.2.4-.3 0 .2.2.4.4.4s.4-.2.4-.5c0-.1-.1-.2-.2-.3.1-.1.1-.2.1-.2V7c.2.1.4.1.6 0h.2c.3 0 .5-.2.5-.4s-.2-.4-.5-.4c0 0 0-.1.1-.1h.1c.1 0 .1 0 .2-.1 0 .3.2.4.4.4.3 0 .5-.2.5-.4 0-.1-.1-.2-.2-.3.2 0 .4-.2.4-.4 0-.1 0-.2-.1-.3 0 0 0-.1.1-.2 0-.1 0-.2-.1-.3h.1l.2.1c.2 0 .5-.2.5-.4v-.1h.2c-.1.1-.1.2-.1.3 0 .2.2.4.5.4.2 0 .4-.2.4-.4s-.2-.5-.4-.5h-.1c.1-.1.1-.2.1-.3.2-.1.3-.2.3-.4 0-.1-.1-.1-.1-.2.1-.1.2-.2.2-.3 0-.1 0-.2-.1-.3.1.1.2.2.3.2.3 0 .4-.2.4-.4s-.1-.3-.3-.4c.2-.1.3-.2.3-.4l.1-.1c.2 0 .3-.1.4-.3.2 0 .3-.2.4-.3.1-.1.2-.2.2-.4-.2-.1-.4-.3-.6-.3-.2 0-.5.4-.6.6-.1 0-.3.1-.3.3-.2 0-.4.1-.4.4h.1l-.1.1c0 .1-.1.1-.1.2-.2 0-.3.2-.3.4-.2 0-.4.2-.4.4-.1 0-.2.1-.3.3-.1.1-.3.2-.3.4v.1c-.1 0-.2.1-.3.2-.1 0-.2.2-.3.3-.1 0-.2.1-.3.3-.1-.3-.2-.1-.2 0-.1 0-.2.1-.3.2-.1 0-.2.2-.3.3-.1 0-.3.1-.3.3-.1 0-.1.1-.2.2-.1 0-1 .9-1 .9-.1 0-.2.1-.2.2-.1.1-.3.2-.4.3-.3.1-.8.7-1 .9-.1 0-.2.1-.3.3v.1c-.1 0-.2.1-.3.2V8c-.1 0-.3.1-.3.2l-.1.1c-.1 0-.3.1-.3.3l-.1.1c-.2.1-1 1.1-1.3 1.4-2.1 1.9-4.4 3.7-6.2 5.3-1.4 1.2-2.6 2.2-3.4 2.8l-.5.5c-1.1.9-2.1 1.9-3.1 2.9-1.1 1.1-2.3 2.3-3.8 3.9-2.8 3.1-4.3 6-5.5 8.1-1.4 2.6-2.1 3.9-3.5 3.2-.8-.5-1.5-1.8-1.5-3.2l.1-.7.2-.6c.8-1.9 2.7-4.2 4.6-6.7 3.5-4.4 7.6-9.6 7.6-14.5 0-1.5-.4-3-1.3-4.4l-.3-.4c-3-3.8-8.2-1.2-10.3.1-2.4.2-5.5 2.6-6.6 5.1-.3.6-.4 1.2-.4 1.8 0 .8.3 1.5.8 2.1.3.3.7.3 1.1.4-.3.2-.5.4-.6.7-.2.3-.6 1.8-1 3.4l-.6 2c-.1.2-.1.3-.1.5s0 .3.1.4c.2.3.6.3.7.3 2-.2 4.1-6 4.3-6.5 1.5-.4 3.1-2 3.6-2.5.4-.5.6-1.1.9-1.6.3-.9.7-1.9 1.9-2.7 1.2-.8 2.2-.9 2.7-.4.4.4.6 1.1.6 2 0 1.1-.3 2.4-.9 3.6-1.1 2-3.9 5.4-6.4 8.4zM40 36.7c.1 0 .3-.1.3-.2v.2H40c0 .1 0 0 0 0zM63.2 5.4c0 .1.1.2.1.3-.1 0-.2 0-.2.1v-.1c0-.2.1-.3.1-.3zm-6.6 5.8c.1 0 .2 0 .2-.1 0 .1.1.1.1.2-.1 0-.2-.1-.3-.1zm-4.7 4.9zM48.8 19l.2.1h.1c0 .1-.1.1-.1.2v.1c-.1 0-.1-.1-.2-.1V19c0 .1 0 0 0 0zM47 21c0-.1 0-.1 0 0v.4c0-.1 0-.1-.1-.2.1-.1.1-.2.1-.2zm-1.8 1.2c.1 0 .3-.1.4-.2l.1.1c-.1 0-.2.1-.3.2l-.2-.1c.1.1.1.1 0 0 0 .1 0 .1 0 0 0 .1 0 0 0 0zm-.3 1.6h.2c0 .1-.1.1-.1.2 0-.1 0-.2-.1-.2zm-.2.7c-.1 0-.1-.1-.2-.1.1.1.1.1.2.1zm-.1-.9h.1c-.1 0-.2.1-.1 0-.1 0-.1 0 0 0-.1 0-.1 0 0 0zm-6.1 12.3h-.2c-.2 0-.3.1-.4.3 0-.2-.2-.3-.4-.3s-.4.1-.4.3c0-.1-.1-.1-.1-.2v-.2h.2-.1c.1-.1.2-.2.2-.3 0 .2.2.4.4.4s.3-.1.4-.3c.1.2.2.3.4.3zm-1-1.6c.1 0 .1-.1.2-.2h.1v.1c-.1 0-.2.1-.3.1 0 .1 0 0 0 0zm2 .7h-.2c-.2 0-.3.1-.4.3 0-.1-.2-.2-.3-.3v-.1h.1c.2 0 .3-.1.4-.3.1.2.2.4.4.4zm.6-2.1c-.1-.1-.3-.1-.4-.1l.1-.1c.1 0 .2.1.3.1.1 0 .2 0 .2-.1v.1c-.2 0-.2 0-.2.1zm1.3-1.8s0-.1-.1-.1l.2-.2s0 .1.1.1c-.1 0-.2.1-.2.2zm.5-1.9h-.1c-.1 0-.2 0-.3.1 0-.1 0-.2-.1-.2.2-.1.3-.2.3-.4.1.1.2.1.3.1h.1c0 .1 0 .1.1.2-.1.1-.2.1-.3.2zm.5-.8c0-.1-.1-.2-.1-.3l.1-.1c0 .2.2.3.4.3l-.1.1h-.3zm1.6-.8c-.1.1-.1.1-.1.2 0-.2-.2-.3-.4-.3s-.3.1-.4.3c0-.1-.1-.1-.1-.2.1 0 .3-.1.3-.2h.1c.1 0 .2 0 .3-.1 0 .2.1.3.3.3zm-1.2-1.8c.1-.1.1-.1.2-.1l.3-.1h-.1.2c0 .1.1.2.1.3l-.1.1c-.1-.2-.2-.3-.4-.3l-.2.1zm0 0zm0 0zm.1.7h.2c.1 0 .2-.1.3-.1 0 .1 0 .1.1.1-.2 0-.3.1-.3.2h-.1l-.2.1c-.1-.1 0-.2 0-.3zm-.2 3.3c0 .1-.1.1-.1.2 0-.1-.1-.2-.2-.2l.1-.1c.1.1.2.1.2.1zm0-2.3c0-.1 0-.1 0 0zm0-.6c-.1 0 0 0 0 0zm-.1.4c0 .1.1.1.1.2-.2 0-.3.1-.4.3-.1-.2-.3-.3-.5-.3l.2-.1.2.1c.2-.1.3-.1.4-.2zm-.8-1.6h.2v.1l-.2-.1c.1.1 0 .1 0 0 0 .1 0 .1 0 0zm-.3.8c.2 0 .3.1.4.1.1 0 .1 0 .2-.1v.1s-.1 0-.1.1l-.2-.1c-.1 0-.2 0-.3.1v-.2zm-.4 1.8c.2 0 .3-.1.4-.3 0 .1.1.1.1.2-.1.1-.1.2-.1.2-.1-.1-.2-.1-.3-.1l-.2.1c0-.1 0-.1-.1-.2.1.1.2.1.2.1zm-.2 3.2c0 .1 0 .2.1.2h-.1.1c-.1.1-.2.2-.2.3v.1c-.1 0-.1-.1-.2-.1s-.1 0-.2.1c0-.1-.1-.2-.2-.3l.1-.1c.1 0 .1.1.2.1.2.1.4 0 .4-.3zm-1-1.9s.1 0 0 0v.1h-.1c.1 0 .1 0 .1-.1zm-1 2.4c.3 0 .4-.2.4-.4l-.1-.2c.1-.1.2-.2.2-.4v-.1c.1.1.3.1.5-.1.1.1.2.2.3.2.3 0 .4-.2.4-.4v-.1h.1v.1c0 .1.1.1.1.2-.1.1-.2.1-.2.2h-.1c-.2 0-.3.1-.4.2-.1 0-.2-.1-.2-.1-.2 0-.4.2-.4.4s.1.3.2.3c-.1 0-.1.1-.1.2-.1 0-.1-.1-.2-.1s-.2.1-.3.1c-.1.1-.2.1-.2 0zm0 .6c0 .2.2.3.4.3h.2c-.1.1-.1.2-.1.3v.1h-.1c-.1-.2-.3-.3-.4-.3v-.4zm-.1 1.2h.1c.1.1.2.2.3.2h.1v.1c-.1 0-.2.1-.3.2-.1-.2-.2-.3-.4-.3h-.1v-.1c.2.1.3 0 .3-.1zm-1-1.9c.1.1.2.1.3.1.2 0 .4-.2.4-.4v-.2c.1 0 .2-.1.2-.2v.1c-.1.1-.2.2-.2.3 0 .1.1.2.1.3-.1 0-.3.1-.3.2-.1 0-.1-.1-.2-.1s-.2.1-.3.1v-.2zm-.3.5h.1l.1-.1v.2c0 .3.2.4.4.4 0 .2.1.3.3.4-.1 0-.3.2-.3.3 0-.1-.1-.2-.2-.3v-.2c0-.2-.2-.4-.4-.4h-.1c.1-.1.1-.2.1-.3zm-.2 1.1c-.1 0-.2-.1-.2-.1.1 0 .1.1.2.1zm-.5-.7c.1 0 .2.1.3.1h.1l-.1.1c-.1-.1-.2-.2-.3-.2-.1 0 0 0 0 0zm-.1 1.2h.2v.1c-.1 0-.2.1-.2.2 0-.1-.1-.1-.1-.2l.1-.1zm-5 9.9c-.2 0-.4.2-.4.4 0-.1 0-.1-.1-.2.1-.1.1-.2.1-.3s0-.2-.1-.3l.1-.1c.1.1.2.3.3.3.1.1.1.1.1.2zm2.9.3v.1c0 .2.2.4.4.4v.1l-.2-.2c-.1 0-.2.1-.3.2h-.2v.1l-.1-.1h.1c-.1-.1-.2-.2-.3-.2-.1 0-.2.1-.2.2h-.4v-.1c.2 0 .4-.2.4-.4 0 .2.2.3.4.3s.4-.1.4-.4c0-.2-.1-.3-.3-.4 0-.1 0-.2-.1-.3.1 0 .2-.1.3-.2.1.2.2.3.4.3.1 0 .2 0 .3-.1v.3c-.3.1-.5.2-.6.4zm-1.1-.5c.1 0 .1-.1.1-.2 0 0 0 .1.1.1 0 0-.1.1-.2.1.1 0 .1 0 0 0zm2 .6c0-.1-.1-.1-.1-.2h.1v.2zm.1-1.4c-.2 0-.3.1-.4.3-.1-.1-.2-.3-.4-.3s-.3.1-.4.3c0-.1-.1-.1-.2-.2v-.3c.1 0 .1-.1.2-.2.1.2.2.3.4.3s.3-.1.4-.3c.1.2.2.3.4.4 0-.1 0 0 0 0zm.1-.9h-.2c0-.1.1-.1.1-.2h.1v.2zm1.9 1.5l.1.1-.1.2v.2h-.2c0-.1 0-.2-.1-.2l.3-.3zm-.5.9c0 .2.2.3.4.3s.3-.1.4-.3c.1.2.2.3.4.3h.1l-.1.1h-.2c-.1-.1-.1-.2-.3-.2-.1 0-.2.1-.2.2h-.3l-.2-.2c-.1 0-.2.1-.3.2v-.1c.1 0 .3-.1.3-.3zm-.3-.9s0 .1 0 0c-.1.1-.3.3-.3.5l-.3.3c0-.2-.2-.3-.3-.4v-.2l-.1-.2c.1-.1.1-.1.1-.2.1.2.2.3.4.3.3.2.4 0 .5-.1zm-.2-1.6c0 .1.1.2.2.3 0 0 0 .1-.1.1-.1-.1-.1-.2-.2-.2 0-.1.1-.2.1-.2l-.1-.1c.1-.1.3-.2.3-.3 0 0 0 .1.1.1-.2 0-.3.1-.3.3zm.2-.7c-.1-.2-.2-.2-.4-.2s-.3.1-.4.2c-.1-.1-.2-.2-.4-.2s-.3.1-.4.3c0-.2-.1-.3-.3-.3 0 0 0-.1-.1-.1.1 0 .1-.1.2-.2.1.2.2.3.4.2.2 0 .3-.1.4-.2.1.1.2.2.4.2s.3-.1.4-.2c.1.1.2.2.3.2-.1.1-.1.2-.1.3zm1.1.7c-.2 0-.3.1-.4.3 0-.1-.1-.1-.1-.2l.1-.2c0-.1 0-.2-.1-.3.1-.1.2-.1.2-.2.1.1.2.2.3.2v.1c0 .1.1.3.2.4-.1-.1-.1-.1-.2-.1zm.3-1.9c.1 0 .1 0 0 0-.2.1-.4.2-.4.5v.1c-.2 0-.3.1-.4.3-.1-.1-.2-.1-.3-.1.1-.1.1-.2.1-.3v-.1h.1c.3 0 .4-.2.4-.4.3.1.4.1.5 0zm-1.9-.7v-.1c.1 0 .2 0 .2-.1 0 .2.2.3.4.3.1 0 .3-.1.3-.2.1.1.2.1.3.1h.1c-.1.1-.1.2-.1.3h-.2c-.2 0-.4.2-.4.4v.1h-.2c.1-.1.2-.2.2-.3 0-.2-.2-.4-.4-.4s-.3.1-.4.3v-.1c.1-.1.2-.3.2-.3zm-.6-1.3c0 .2.1.3.3.4-.1.1-.1.2-.1.3-.1-.1-.2-.2-.3-.2h-.1v-.1c.1 0 .2-.2.2-.4zm-.3-1.4c.1.1.1.2.2.2-.1.1-.1.2-.1.3 0-.1-.1-.2-.1-.3v-.2zm-.3 2.5c.1.1.2.2.3.2v.1l-.1.2c0-.2-.2-.3-.4-.4.2 0 .2 0 .2-.1zm-.2-1.5h.1c-.1.1-.1.1-.1.2 0-.1 0-.1-.1-.1l.1-.1zm-.1 2.5h.2c.2 0 .4-.1.4-.3.1.2.2.3.4.3s.3-.1.4-.3c0 .2.2.3.4.3h.1c-.1 0-.1.1-.1.2-.1-.1-.2-.3-.4-.3s-.3.1-.4.3c-.1-.2-.2-.3-.4-.3s-.3.1-.4.3c0-.1-.1-.1-.2-.2zm0 1.8c-.2 0-.3.1-.4.3-.1-.1-.2-.3-.3-.3v-.2c.2 0 .3-.1.3-.3l.3.3c.1.1.1.2.1.2zm-.3-3.5s.1 0 .1-.1c0 .1-.1.1-.1.2-.1 0-.2.1-.2.2.2-.1.2-.2.2-.3zm-.1.7c.1.1.2.2.4.2l-.2.2c-.1-.2-.2-.3-.3-.3l.1-.1zm-.1 1.5zm-.1.1c.1 0 .1 0 0 0-.1.1-.1.2-.2.3-.2 0-.4.1-.4.3 0 0 0-.1-.1-.1.1 0 .2-.1.3-.2.2-.1.4-.2.4-.3zm-.6-1.7c0 .1.1.3.3.3-.1.1-.2.1-.2.2 0-.1-.1-.2-.3-.3.1 0 .2-.1.2-.2zm-.3 1.1c.2 0 .4-.1.5-.3 0 .1.1.2.2.2h-.1c-.2 0-.3.1-.3.2h-.1c-.1 0-.2 0-.2-.1zm0 1.7v.2c-.1-.1-.1-.2 0-.2-.1 0 0 0 0 0zm0 1h.2v.1c-.1 0-.2 0-.2-.1v.1s0-.1-.1-.1h.1zm-.4-3.8c0 .1.1.2.2.3-.1.1-.2.2-.2.4 0-.2-.1-.3-.2-.4.1 0 .2-.1.2-.3zm0 3.6h-.1.1zm0 .8c.1.1.1.2.2.2-.1.1-.2.2-.2.3l.1.2v.1c0-.2-.2-.4-.4-.4v-.2c.1.2.2 0 .3-.2zm-.4-.6s0 .1-.1.1-.3.1-.3.2c-.1-.2-.2-.3-.4-.3v-.1c.2 0 .3-.1.4-.3.1.3.2.4.4.4zm-.1-.8c-.1 0-.2.1-.3.2 0 0 0-.1-.1-.1.1-.1.2-.2.2-.3l-.1-.3v-.1c0 .2.2.3.3.3v.3c0-.1 0-.1 0 0zm-.2-2.1c.1.1.1.1.2.1h-.3c.1 0 .1 0 .1-.1zm-.1-.3v.1-.1.1c0-.1-.1-.1 0-.1-.1 0 0 0 0 0zm-.7 1.3c.1 0 .1 0 0 0 .3 0 .4-.1.5-.2.1.1.2.2.4.2v.1c-.1 0-.2.1-.2.2-.1-.2-.2-.2-.4-.2s-.4.1-.4.3v-.1l.1-.3zm-.2.8c.1 0 .1-.1.2-.2l.1.1-.1.2c0 .1 0 .2.1.3-.1.1-.1.2-.1.3 0-.1-.1-.2-.2-.2l.1-.2c-.1-.2-.1-.3-.1-.3zm-3.6-26.4c-.3.3-.7.2-1.1 0-.5-.2-.1-.5-.3-.7-.3-.1-1.1.2-1.5-.2-.8-.8-.2-1.6.1-1.7.5-.3 1 .1 1.1 0 .1-.1 0-.3 0-.4 0-.2-.2-.4 0-.7.1-.3.5-.5.7-.4.4 0 .8.5.5.9-.1.3-.7.4-.8.6-.2.3-.1.7 0 .9.2.3.9.1 1.2.4.3.5.4 1 .1 1.3zm6.7 29.6l-.1-.1.1.1zm-2.4-4.3zm26.6-1.2c.2 0 .4-.2.4-.4s-.2-.4-.4-.4c-.3 0-.4.2-.4.4v.1c-.1-.1-.2-.2-.3-.1-.2 0-.4.2-.4.4s.2.4.4.4.4-.2.4-.4v-.1s.1.1.3.1zm-7.7 4.3c0 .2.2.4.4.4s.5-.2.5-.4-.2-.5-.5-.5c-.2.1-.4.3-.4.5zm-2.5-1.9c0-.3-.2-.5-.4-.5s-.4.2-.4.3c-.1-.2-.2-.3-.4-.3s-.4.2-.4.4c0 .1 0 .2.1.2-.1.1-.2.2-.2.4s.2.4.4.4.4-.2.4-.4c0-.1 0-.2-.1-.3.1-.1.2-.2.2-.3.1.2.2.3.4.3.2.2.4 0 .4-.2zm3.6-1.4c0-.2-.2-.4-.4-.4-.3 0-.4.2-.4.4v.1c-.1-.1-.2-.1-.2-.1-.2 0-.4.2-.4.4 0 .3.2.5.4.5s.4-.2.4-.5v-.1c.1 0 .2.1.2.1.2.1.4-.1.4-.4zm4.7-1c0-.2-.2-.4-.4-.4s-.4.2-.4.4c0 .1 0 .2.1.3-.1.1-.2.2-.2.3-.1-.2-.2-.3-.4-.3s-.4.2-.4.4c0 .3.2.5.4.5s.4-.2.4-.4c.1.2.2.3.4.3s.4-.2.4-.4c0-.1 0-.2-.1-.3.1-.1.2-.3.2-.4zm-.6 3.1c-.2 0-.4.2-.4.4s.2.4.4.4c.3 0 .4-.2.4-.4s-.2-.4-.4-.4zm-15.7-5.8zm16.6-25.4zm6.4-5.7zM51.9 16.1h-.1.1zm-6.7 6.2zM65.5 1.2c-.1 0-.1 0 0 0zM46.9 44.9c0 .2.2.4.4.4.3 0 .4-.2.4-.4 0-.3-.2-.4-.4-.4s-.4.2-.4.4zm-4.2-18.1zm-1.1 1.6zm1.1-.9c0-.1 0-.1 0 0zm-4 7.4zm1.4-2zm4.8-9.1zm16.8 1.3c-.2 0-.4.2-.4.4 0 .3.2.4.4.4.3 0 .4-.2.4-.4s-.1-.4-.4-.4zM45.6 43.8c0-.2-.2-.4-.5-.4-.1 0-.3.1-.3.2-.1-.2-.2-.3-.4-.3s-.4.2-.4.4c0 .3.2.4.4.4s.3-.1.4-.2c.1.2.2.3.4.3s.4-.2.4-.4z" fill="#030202"/><path d="M49.5 21.2c0 .2.2.5.5.5.2 0 .4-.2.4-.3.1.2.2.3.4.3s.4-.2.4-.4-.2-.4-.4-.4-.4.1-.4.3c-.1-.2-.2-.3-.4-.3-.3-.1-.5.1-.5.3zm-1.6 2.2c-.1-.1-.2-.2-.3-.2-.2 0-.5.2-.5.5 0 .2.2.4.5.4.1 0 .3-.1.3-.2.1.1.2.1.3.1-.1.1-.2.2-.2.4s.2.4.4.4.4-.2.4-.4-.2-.4-.4-.4c.1 0 .1-.1.1-.1.1.1.2.2.3.2.2 0 .4-.2.5-.4.1 0 .1.1.2.1.3 0 .4-.2.4-.4s-.2-.4-.4-.4-.4.2-.4.4c-.1 0-.2-.1-.2-.1-.1 0-.3.1-.3.2-.1-.1-.2-.2-.3-.2-.2-.1-.3 0-.4.1zm-.6 3.4c.3 0 .4-.2.4-.4s-.2-.4-.4-.4-.4.2-.4.4c0 .3.2.4.4.4zm2.7-6.2c.2 0 .4-.2.4-.4s-.2-.4-.4-.4-.4.2-.4.4.1.4.4.4zm-3.9 5.5c-.2 0-.5.2-.5.4s.2.5.5.5c.2 0 .4-.2.4-.5 0-.2-.2-.4-.4-.4z" fill="#030202"/><path d="M48.1 25.7c.2 0 .4-.2.4-.4 0-.3-.2-.4-.4-.4H48v-.1c0-.2-.2-.4-.5-.4-.2 0-.4.2-.4.4 0 .3.2.4.4.4h.2v.1c0 .2.2.4.4.4zm14.4-1.3c0-.2-.2-.5-.4-.5s-.4.2-.4.4c-.1-.1-.2-.1-.3-.1-.2 0-.3.1-.4.2-.1-.1-.2-.2-.4-.2h-.2V24c0-.2-.2-.4-.4-.4h-.1v-.1c0-.2-.2-.4-.4-.4.1-.2 0-.4-.2-.5h-.1c-.3 0-.4.2-.4.4s.1.4.4.4v.2c0 .2.2.4.4.4h.2v.1c0 .3.2.4.4.4h.2v.2c0 .2.2.4.4.4.1 0 .3-.1.4-.2.1.1.2.2.4.2s.4-.2.4-.4c.1.1.2.1.3.1 0 0 .2-.2.2-.4zM55.4 38c-.2 0-.4.2-.4.4s.2.4.4.4.4-.2.4-.4-.2-.4-.4-.4zm-2.5-14.8c0 .2.2.4.4.4s.4-.2.4-.4c0-.1 0-.2-.1-.2.1 0 .1 0 .1-.1 0 .1-.1.2-.1.2 0 .2.2.4.4.4.3 0 .4-.2.4-.4 0-.3-.2-.4-.4-.4-.1 0-.2 0-.2.1 0-.1.1-.2.1-.2 0-.2-.2-.4-.4-.4s-.5.2-.5.4c0 .1 0 .2.1.3 0-.1-.2.1-.2.3zm2.5 11.5c-.3 0-.4.2-.4.4s.2.4.4.4.4-.2.4-.4-.1-.4-.4-.4zm.6-19c0 .3.2.4.4.4.3 0 .4-.2.4-.4v-.1c.1 0 .1.1.2.1.2 0 .4-.2.4-.4 0-.1 0-.2-.1-.2h.2c.2 0 .4-.2.4-.4s-.2-.4-.4-.4-.4.2-.4.4c0 .1 0 .1.1.2H57c-.2 0-.4.2-.4.5v.1c-.1 0-.1-.1-.2-.1-.2-.1-.4.1-.4.3zm2-3.1c-.2 0-.4.2-.4.5 0 .2.2.4.4.4h.2c0 .3.2.4.4.4s.4-.2.4-.4-.2-.4-.4-.4h-.1c-.1-.3-.3-.5-.5-.5zm-8.8 9.8c0-.2-.2-.4-.4-.4s-.4.2-.4.4.2.4.4.4c.3 0 .4-.2.4-.4zm-9.6 19.2c0 .2.2.5.5.5.2 0 .4-.2.4-.5.2 0 .3-.1.3-.3l.1.1c-.1.1-.2.2-.2.4s.2.4.4.4.4-.2.4-.4-.1-.3-.2-.4c.1-.1.2-.2.2-.4s-.2-.5-.4-.5-.3.1-.4.3c-.1-.1-.2-.1-.3-.1-.2 0-.4.2-.4.4-.2.1-.4.3-.4.5zm2.7-9.4c0 .2.2.4.4.4s.4-.2.4-.4c0-.1 0-.2-.1-.3.1-.1.1-.2.1-.3 0-.1-.1-.3-.2-.4h-.1c-.2 0-.4.2-.4.4 0 .1.1.2.1.3-.2.1-.2.2-.2.3z" fill="#030202"/><path d="M38.7 41.6c0 .2.2.5.4.5s.5-.2.5-.5c0-.1 0-.1-.1-.2.2 0 .4-.2.4-.4s-.2-.5-.4-.5-.4.2-.4.5c0 .1 0 .1.1.2-.3 0-.5.2-.5.4zm3.3-6.1c0 .3.2.4.4.4s.4-.2.4-.4c0-.1 0-.2-.1-.2h.2v-.1c.2-.1.3-.2.3-.4s-.1-.3-.3-.4v-.1h-.2v.1c-.2.1-.3.2-.3.4 0 .1.1.2.1.3h-.1c-.2 0-.4.1-.4.4zm2.1 7.5c.2 0 .4-.2.4-.4s-.2-.5-.4-.5c-.1 0-.2.1-.3.2v-.1c0-.2-.2-.4-.4-.4s-.4.2-.4.4.2.4.4.4c.1 0 .2-.1.3-.2v.1c0 .3.1.5.4.5zm.5 1.3c-.2 0-.5.2-.5.5 0 .2.2.4.5.4.2 0 .4-.2.4-.4 0-.3-.2-.5-.4-.5zm-.9-11.9c0 .3.2.4.4.4.3 0 .4-.2.4-.4s-.2-.4-.4-.4-.4.2-.4.4zm5.2-3.1c.2 0 .4-.2.4-.5 0-.2-.2-.4-.4-.4h-.1c.1-.2-.1-.4-.3-.5h-.1c-.3 0-.5.2-.5.4s.2.4.5.4h.1v.1c0 .2.1.5.4.5zm-5.6 4.3c0 .2.1.3.2.4-.1.1-.2.2-.2.4s.2.4.4.4.5-.2.5-.4-.1-.3-.2-.4c.1 0 .1-.1.2-.2.1.2.2.3.4.3s.5-.2.5-.4-.2-.4-.5-.4c-.2 0-.3.1-.4.2-.1-.2-.2-.3-.4-.3-.3 0-.5.2-.5.4zm3.6-7.6c.2 0 .4-.2.4-.4s-.2-.4-.4-.4-.5.2-.5.4c.1.3.3.4.5.4zm-2.1 5c0-.2-.2-.4-.4-.4s-.4.2-.4.4.2.4.4.4.4-.2.4-.4z" fill="#030202"/><path d="M43.2 33.4c.2 0 .4-.2.4-.4s-.2-.4-.4-.4-.4.2-.4.4.1.4.4.4zM59.4 31c.2 0 .4-.2.4-.4 0-.3-.2-.4-.4-.4s-.4.2-.4.4.2.4.4.4zm-18.8 8.3c0 .3.2.4.4.4s.4-.2.4-.4-.2-.4-.4-.4-.4.1-.4.4zm.5 4c.2 0 .4-.2.4-.4s-.2-.4-.4-.4-.4.2-.4.4c0 .3.1.4.4.4zm.3-5.4c-.2 0-.4.2-.4.4 0 .3.2.4.4.4.3 0 .5-.2.5-.4-.1-.2-.3-.4-.5-.4zm-1 4.8c0-.2-.2-.4-.5-.4-.2 0-.4.2-.4.4s.2.4.4.4c.3 0 .5-.2.5-.4zm0 1.4c.2 0 .4-.2.4-.4s-.2-.4-.4-.4-.4.2-.4.4c-.1.3.1.4.4.4zm-1.4.2c0 .2.2.4.4.4s.4-.2.4-.4-.2-.4-.4-.4-.4.1-.4.4zm6.9-12.1c-.2 0-.4.2-.4.4-.1-.1-.2-.1-.3-.1-.2 0-.4.2-.4.4s.2.4.4.4.4-.2.5-.4c.1.1.2.1.3.1.2 0 .4-.2.4-.5-.1-.1-.3-.3-.5-.3zm-3.2 4.7c.1.2.2.3.4.3s.4-.2.4-.4v-.1c.2-.1.3-.2.3-.4s-.2-.4-.4-.4-.4.2-.4.4v.1c-.1 0-.2.1-.3.2v.3zm-1.4 2.9c0 .2.1.3.2.4-.1.1-.1.2-.1.3 0 .2.2.4.4.4s.4-.2.4-.4-.1-.3-.2-.4c.1-.1.2-.2.2-.3 0-.2-.2-.4-.4-.4-.3 0-.5.2-.5.4zm.7-1.9c0 .3.2.5.4.5s.4-.2.4-.5c0-.2-.2-.4-.4-.4s-.4.2-.4.4zm.2 1.5c0 .3.2.5.4.5l.3-.1.1-.3-.1-.3-.3-.2c-.3 0-.4.2-.4.4zm7 2.2v-.1c.1.1.2.1.3.1.3 0 .4-.2.4-.4 0-.3-.2-.4-.4-.4s-.4.2-.4.4v.1c-.1-.1-.2-.1-.3-.1-.2 0-.4.2-.4.4s.2.5.4.5c.3 0 .4-.2.4-.5zm-3 1.4c-.3 0-.4.2-.4.4s.2.4.4.4.4-.2.4-.4c0-.3-.2-.4-.4-.4zm2 2.3c.2 0 .5-.2.5-.4s-.2-.5-.5-.5c-.2 0-.4.2-.4.5 0 .2.2.4.4.4zm.2-3.7zm-2-10.7c-.2 0-.4.2-.4.5 0 .2.2.4.4.4.3 0 .4-.2.4-.4 0-.3-.2-.5-.4-.5zM41.9 44c.2 0 .4-.2.4-.4s-.2-.4-.4-.4-.4.2-.4.4c0 .3.2.4.4.4zm4.2 1.3c.2 0 .4-.2.4-.4s-.2-.4-.4-.4c-.3 0-.5.2-.5.4.1.3.3.4.5.4zm.1-4.5c0-.2-.2-.4-.4-.4s-.3.1-.4.3c0-.2-.2-.3-.4-.3s-.4.2-.4.4l.1.2c-.1.1-.2.2-.2.3 0 .2.2.4.4.4s.4-.2.4-.4v-.2c.1 0 .2-.1.2-.2 0 .2.2.4.4.4.1 0 .3-.2.3-.5zm-3.5 1.6c0-.2-.2-.4-.4-.4s-.5.2-.5.4.2.5.5.5c.2-.1.4-.3.4-.5zm.1-1c.3 0 .4-.2.4-.5 0-.2-.1-.4-.3-.4h-.1c-.2 0-.4.2-.4.4-.1.2.1.5.4.5zm.3 3.5c.2 0 .4-.2.4-.4s-.2-.4-.4-.4-.4.2-.4.4.2.4.4.4zm3.2-5.4c.2 0 .4-.2.4-.4s-.2-.4-.4-.4-.4.2-.4.4c-.1.3.1.4.4.4zm-.9-6.1c-.3 0-.5.2-.5.4s.2.4.5.4c.2 0 .4-.2.4-.4 0-.3-.2-.4-.4-.4zm1 4.3c0-.1-.1-.2-.1-.3.2-.1.3-.2.3-.4s-.2-.4-.4-.4-.5.2-.5.4c0 .1 0 .2.1.3-.2.1-.3.2-.3.4 0 .3.2.4.4.4.3 0 .5-.1.5-.4zm.2-3.1c0-.2-.2-.4-.4-.4s-.4.2-.4.4c0 .3.2.4.4.4.2.1.4-.1.4-.4zm-1.8 0c0 .3.2.4.4.4.3 0 .5-.2.5-.4s-.2-.4-.5-.4c-.2 0-.4.2-.4.4zm.6 5c.2 0 .4-.2.4-.4s-.2-.4-.4-.4-.5.2-.5.4.2.4.5.4z" fill="#030202"/><path d="M45.2 36.7c-.2 0-.4.2-.4.4s.2.5.4.5.5-.2.5-.5-.2-.4-.5-.4zm1.6-3.9c-.2 0-.5.2-.5.4s.2.4.5.4c.2 0 .4-.2.4-.4.1-.2-.1-.4-.4-.4zm-.8 3c0-.2-.2-.5-.4-.5s-.4.2-.4.5c0 .2.2.4.4.4s.4-.2.4-.4zm-2.2 5.6c.2 0 .4-.2.4-.5 0-.2-.2-.4-.4-.4s-.5.2-.5.4c.1.3.3.5.5.5zm1-2.5c.2 0 .4-.2.4-.4s-.2-.4-.4-.4-.4.2-.4.4.2.4.4.4zm-.4.3c0-.2-.2-.4-.4-.4s-.4.2-.4.4c0 .3.2.4.4.4s.4-.2.4-.4zm2.7-2.2c0 .2.2.4.5.4.2 0 .4-.2.4-.4s-.2-.4-.4-.4c-.2-.1-.5.1-.5.4zm1.1 1.3c.2 0 .5-.2.5-.5 0-.2-.2-.4-.5-.4-.2 0-.4.2-.4.4 0 .3.2.5.4.5zm1.3 5.3c.2 0 .4-.2.4-.4s-.2-.4-.4-.4-.4.2-.4.4c0 .3.2.4.4.4zm-2.4-8.4c-.2 0-.4.2-.4.5 0 .2.2.4.4.4s.4-.2.4-.4-.2-.5-.4-.5zm-.1-1c-.2 0-.4.2-.4.4 0 .3.2.4.4.4s.4-.2.4-.4-.2-.4-.4-.4zm1.6 5.8c.2 0 .3-.1.4-.2.1.2.2.3.4.3s.4-.2.4-.4-.2-.4-.4-.4-.3.1-.4.2c-.1-.2-.2-.3-.4-.3s-.4.2-.4.5c0 .1.2.3.4.3zm-5.2-1.4c.3 0 .4-.2.4-.4 0-.3-.2-.4-.4-.4s-.4.2-.4.4.2.4.4.4zm4-.4c0-.2-.2-.4-.4-.4-.3 0-.4.2-.4.4s.2.4.4.4.4-.2.4-.4zm.8.7c0-.2-.2-.4-.4-.4-.3 0-.4.2-.4.4s.2.4.4.4.4-.2.4-.4zm-.9 2.4c.2 0 .4-.2.4-.5 0-.2-.2-.4-.4-.4s-.4.2-.4.4c0 .3.2.5.4.5zm-.8-.4c.3 0 .4-.2.4-.4 0-.3-.2-.4-.4-.4s-.4.2-.4.4.2.4.4.4zm6.7-24.6c0-.2-.2-.4-.5-.4-.2 0-.4.2-.4.4s.2.4.4.4c.3.1.5-.1.5-.4zm.1 1.2c.3 0 .4-.2.4-.4 0-.3-.2-.4-.4-.4s-.4.2-.4.4.2.4.4.4zm13.1 4.8c0-.2-.2-.4-.4-.4s-.4.2-.4.4.2.4.4.4.4-.2.4-.4zm-21.7 6.1c-.2 0-.4.2-.4.4 0 .3.2.5.4.5s.4-.2.4-.5c.1-.2-.1-.4-.4-.4zm-5.3 9.4c-.3 0-.4.2-.4.4s.2.4.4.4.4-.2.4-.4-.2-.3-.4-.4zm25.7-9.1c0-.2-.2-.4-.4-.4s-.4.2-.4.4c0 .3.2.4.4.4.2.1.4-.1.4-.4zm-1.8-2.3s0-.1 0 0c0-.2-.2-.4-.4-.4s-.4.2-.4.4c0 .3.2.4.4.4s.4-.2.4-.4zm.2 8.1c.2 0 .4-.2.4-.5 0-.2-.2-.4-.4-.4s-.5.2-.5.4c0 .3.2.5.5.5zm2-8.3c0-.2-.2-.4-.4-.4s-.4.2-.4.4c0 .3.2.4.4.4.2.1.4-.1.4-.4zm-60.4 27c-1.2-.3-3.5-.6-3.5-1.9 0-1.9 1.8-2.1 3-2.1 1 0 2.7.2 2.9 1.7.1.5.5.4.5 0v-1.8c0-.2-.2-.4-.4-.4-1.1-.3-1.8-.4-3.2-.5-2.3 0-4.5 1.5-4.5 3.2 0 1.5 1 2.5 2.5 2.8 1.5.3 4.6.8 4.7 1.8.1.4.1.9 0 1.2-.1.7-.7 1.3-1.5 1.6-1.3.3-2.5.2-3.6-.4-.7-.3-.9-1.1-1.1-1.8-.1-.3-.5-.2-.5.2v2.3c.7.5 2.2.9 3.4.9 2.2 0 4.4-1.1 4.8-2.2.4-.8.4-1.9-.1-2.9-.3-.6-1.2-1.3-3.4-1.7zm60.7-22.8c.2 0 .4-.2.4-.4s-.2-.4-.4-.4c-.3 0-.5.2-.5.4s.2.4.5.4zm-1.3.9c0-.3-.2-.4-.4-.4s-.4.2-.4.4.2.4.4.4.4-.2.4-.4zM23.9 48.8c.4-.1.5-.5-.1-.5h-2.5c-.3 0-.3.4 0 .5.4 0 1 0 .8.3L20 56.9c-.1.5-.4.5-.5 0-.8-2.6-1.6-5.2-2.5-7.8 0-.2.3-.3.6-.3s.4-.5 0-.5H14c-.5 0-.4.5 0 .5s.9.1 1.1.3l1.1 3.1c-.5 1.6-1 3.2-1.4 4.7-.2.4-.4.4-.5 0-.9-2.6-1.7-5.2-2.6-7.8-.1-.2.3-.3.7-.3.4 0 .4-.5 0-.5H9c-.3 0-.3.5 0 .5s.6.1.7.3l3.6 10.6h1.3l1.9-5.9 2 5.9H20c1.1-3.5 2.2-7.1 3.3-10.6.1-.2.3-.3.6-.3zm26.5-12.3c0-.2-.2-.5-.4-.5s-.4.2-.4.5c0 .2.2.4.4.4s.4-.2.4-.4zm18.5 16.7c-1.2-.3-3.5-.6-3.5-1.9 0-1.9 1.8-2.1 3-2.1 1 0 2.7.2 2.9 1.7.1.5.5.4.5 0v-1.8c0-.2-.2-.4-.4-.4-1-.3-1.8-.4-3.1-.5-2.3 0-4.5 1.5-4.5 3.2 0 1.5 1 2.5 2.4 2.8 1.5.3 4.6.8 4.7 1.8.1.4.1.9 0 1.2-.1.7-.7 1.3-1.5 1.6-1.3.3-2.5.2-3.6-.4-.7-.3-1-1.1-1.1-1.8-.1-.3-.5-.2-.5.2v2.3c.5.5 2.1.9 3.3.9 2.2 0 4.4-1.1 4.8-2.2.3-.9.4-2-.1-2.9-.2-.6-1.2-1.3-3.3-1.7zm19.3 6.2c-.5 0-.6-.2-.6-.5V49c0-.2.3-.3.7-.3.2 0 .3-.3 0-.3h-3.1c-.2 0-.2.3 0 .3.3 0 .7.1.7.3v9.9c0 .3-.2.5-.7.5-.2 0-.3.4 0 .4h3c.3 0 .3-.4 0-.4z" fill="#030202"/><path d="M83.8 59.4c-.5 0-1.1-.4-1.2-.6l-5-5.1c-.2-.2-.2-.4 0-.5 1.2-1.3 2.6-2.6 3.9-3.9.4-.4.8-.6 1.2-.6.2 0 .2-.3 0-.3h-3.3c-.3 0-.3.3 0 .3s.8.1.5.5L76.1 53c-.4.4-.5.1-.5-.1v-3.8c0-.3.5-.4.8-.4.3 0 .3-.3 0-.3h-3.5c-.3 0-.3.3 0 .3.4 0 .9.2.9.4v9.5c0 .4-.4.8-.9.8-.4 0-.4.4 0 .4h3.5c.4 0 .4-.4 0-.4-.6 0-.8-.4-.8-.8v-4.1c0-.2.3-.4.6 0 1.6 1.7 3 3.3 4.6 5 .3.3.6.4.8.4h2.1c.4-.2.4-.5.1-.5zM48.4 48.2c-3.6 0-5.9 3.5-5.9 5.7 0 2.4 1.2 6.2 5.9 6.2 4.6 0 6.1-3.7 6.1-6.2-.1-2.3-2.3-5.7-6.1-5.7zm0 10.5c-3.1 0-4.1-2.8-4-4.8-.1-1.6.6-4.5 4-4.5 2.6 0 4.3 2.8 4.3 4.5-.1 2-.8 4.8-4.3 4.8zm-15.9.7c-.4 0-.6-.3-.7-.4l-4.2-10.6h-2.2c-.3 0-.3.3-.1.3.2 0 .8.1.5.7-1.2 3.2-2.3 6.3-3.6 9.5-.1.3-.5.6-.8.6-.3 0-.4.4 0 .4h2.9c.4 0 .3-.4 0-.4-.4 0-.9-.4-.8-.6l1.2-3.2h3.9l1.2 3c.1.3.1.7-.5.7-.3 0-.3.4 0 .4h3.2c.3-.1.1-.4 0-.4zm-7.3-4.9l1.4-3.9 1.5 3.9h-2.9z" fill="#030202"/><path d="M42.9 59.1c-.7-.3-2.8-3.4-4.3-4.9 4.3-.8 4.7-5.9 0-5.9h-5.1c-.4 0-.4.6 0 .6.8 0 .7.4.7 1v8.9c0 .3-.2.4-.7.5-.2 0-.2.3 0 .3h3.2c.2 0 .3-.3 0-.3-.5-.1-.7-.3-.7-.5v-9.3h1.8c1.2 0 2.2.5 2.2 1.7 0 1-.3 1.4-1 1.9-.6.4-.9.5-2.3.5-.3 0-.1.4.1.6l4.2 5.5h2c.9.1.2-.4-.1-.6zm20.8-10.8h-2.5c-.4 0-.4.4 0 .3.5 0 .8.3.7.8-.8 2.5-1.7 4.6-2.5 7.1-.1.4-.4.4-.6 0-1-2.5-1.8-4.6-2.8-7.3-.1-.4.2-.5.5-.6.3 0 .4-.3 0-.3h-3.3c-.3 0-.2.4 0 .3.3 0 .7.1.8.4 1.4 3.4 2.8 6.9 4.2 10.4 0 .1.2.3.4.3h.5c.1 0 .3-.1.4-.3l3.7-10.1c.1-.3.2-.6.5-.6.4 0 .3-.3 0-.4zM54.3 43c.2 0 .4-.2.4-.4s-.2-.4-.4-.4c-.3 0-.4.2-.4.4 0 .1.2.4.4.4zm-.1-3.1c0-.2-.2-.4-.4-.4s-.4.2-.4.4c0 .3.2.4.4.4s.4-.1.4-.4zm1-5.4c0-.2-.2-.4-.4-.4s-.4.2-.4.4.2.4.4.4.4-.2.4-.4zm1.7 2.8c0-.3-.2-.5-.4-.5s-.4.2-.4.5c0 .2.2.4.4.4s.4-.2.4-.4zm-3.6 3.8c.3 0 .4-.2.4-.4s-.2-.4-.4-.4-.4.2-.4.4c0 .3.2.4.4.4zm-1 1.6c.2 0 .4-.2.4-.4s-.2-.4-.4-.4-.4.2-.4.4.2.4.4.4zm1-4.3c0-.2-.2-.4-.4-.4s-.5.2-.5.4.2.4.5.4c.2 0 .4-.2.4-.4zm-1.1 1.2c.2 0 .4-.2.4-.4s-.2-.4-.4-.4-.4.2-.4.4.2.4.4.4zm-1.5-4.4c0-.2-.2-.4-.4-.4s-.4.2-.4.4c-.1-.1-.2-.1-.3-.1-.2 0-.4.2-.4.4 0 .3.2.4.4.4s.4-.2.4-.4c.1.1.2.2.3.2.3-.1.4-.3.4-.5zm6.4 6.3c.3 0 .4-.2.4-.4 0-.3-.2-.4-.4-.4s-.4.2-.4.4.2.4.4.4zm3.1-.1c.2 0 .4-.2.4-.5 0-.2-.2-.4-.4-.4s-.4.2-.4.4.2.5.4.5zm-.7-27.9c-.2 0-.4.2-.4.4s.2.4.4.4.5-.2.5-.4-.2-.4-.5-.4zm2.8 20.7c0-.2-.2-.5-.5-.5-.2 0-.4.2-.4.5 0 .2.2.4.4.4s.5-.2.5-.4zM59 40.1c.2 0 .4-.2.4-.4s-.2-.4-.4-.4-.4.2-.4.4c0 .1.2.4.4.4zm2.1-3.9c0 .2.2.4.4.4.3 0 .4-.2.4-.4s-.2-.4-.4-.4c-.2-.1-.4.1-.4.4zm1.4-4.7c0-.2-.2-.4-.4-.4s-.4.2-.4.4.2.4.4.4.4-.2.4-.4zm-1.3-2.2c0-.2-.2-.4-.4-.4s-.4.2-.4.4c0 .3.2.4.4.4s.4-.1.4-.4z" fill="#030202"/><path d="M62.2 29.1c-.1 0-.3.1-.4.2-.1-.1-.2-.1-.3-.1-.2 0-.4.2-.4.5 0 .2.2.4.4.4.1 0 .3-.1.4-.2.1.1.2.1.3.1.2 0 .4-.2.4-.5 0-.2-.2-.4-.4-.4zm-2.4 7.3c0-.2-.2-.4-.4-.4s-.4.2-.4.4.2.5.4.5c.2-.1.4-.3.4-.5zm-.7 1.2c-.2 0-.4.2-.4.5 0 .2.2.4.4.4s.4-.2.4-.4c0-.3-.2-.5-.4-.5zm1 .9c.3 0 .4-.2.4-.4 0-.3-.2-.4-.4-.4s-.4.2-.4.4.2.4.4.4zm.7-4.4c0-.2-.2-.4-.5-.4-.2 0-.4.2-.4.4s.2.5.4.5c.3-.1.5-.3.5-.5zm-10-5.3c.1 0 .2 0 .3-.1 0 .1-.1.2-.1.2 0 .2.2.4.5.4.2 0 .3-.1.4-.3h.1c.3 0 .5-.2.5-.4s-.2-.4-.5-.4c-.1 0-.2.1-.3.2v-.1.1c-.1 0-.1-.1-.2-.1s-.2 0-.3.1c0-.1.1-.1.1-.2 0-.2-.2-.4-.4-.4s-.4.2-.4.4c-.1.4 0 .6.3.6zm.6 10.5c.2 0 .4-.2.4-.4s-.2-.4-.4-.4c-.3 0-.5.2-.5.4.1.2.3.4.5.4zm-.8-1.9c0 .2.2.4.4.4.3 0 .4-.2.4-.4s-.2-.4-.4-.4c-.3 0-.4.2-.4.4zm4-4.2c.2 0 .4-.2.4-.4s-.2-.4-.4-.4c-.3 0-.4.2-.4.4s.2.4.4.4zm1.1-2.7c0-.2-.2-.4-.4-.4-.3 0-.4.2-.4.4s.2.4.4.4c.2.1.4-.1.4-.4zm-3.9 1.7c.2 0 .4-.2.4-.5 0-.2-.2-.4-.4-.4s-.4.2-.4.4c0 .3.2.5.4.5zm-.6-2.1c-.2 0-.4.2-.4.4s.2.4.4.4c.3 0 .4-.2.4-.4s-.2-.4-.4-.4zm5 .4zm-5.4-.3c.2 0 .4-.2.4-.4s-.2-.4-.4-.4c-.3 0-.4.2-.4.4s.2.4.4.4zm13.1-2.6c.3 0 .4-.2.4-.4s-.2-.4-.4-.4-.4.2-.4.4.2.4.4.4zm-13 5.9c.2 0 .4-.2.4-.4s-.2-.4-.4-.4-.4.2-.4.4.2.4.4.4zm-.3 3.1c0 .2.2.4.4.4s.4-.2.4-.4c0-.3-.2-.4-.4-.4s-.4.2-.4.4zm5.7-6.4c-.1.1-.1.2-.1.3 0 .2.2.4.5.4.2 0 .4-.2.4-.4s-.1-.4-.3-.4c.1-.1.1-.2.1-.2 0-.2-.2-.4-.4-.4s-.4.2-.4.4c-.1.1.1.2.2.3zm3-3.1c.3 0 .4-.2.4-.4 0-.3-.2-.5-.4-.5s-.4.2-.4.5c0 .2.2.4.4.4zm1.1 1c0-.2-.2-.4-.4-.4s-.4.2-.4.4c0 .3.2.5.4.5.2-.1.4-.3.4-.5zm2.6-4.9c0-.2-.2-.4-.5-.4-.2 0-.4.2-.4.4s.2.4.4.4c.3 0 .5-.2.5-.4zm.3 1.5c.2 0 .4-.2.4-.5 0-.2-.2-.4-.4-.4s-.4.2-.4.4c-.1.2.1.5.4.5zM59.7 33c.2 0 .4-.2.4-.5 0-.2-.2-.4-.4-.4s-.5.2-.5.4c0 .3.2.5.5.5zm-3 3.4c.1 0 .3-.1.4-.2 0 .2.2.3.4.3s.4-.2.4-.4-.2-.4-.4-.4-.3.1-.4.2c0-.2-.2-.3-.4-.3-.3 0-.5.2-.5.4s.2.4.5.4zm1.9-1.7c0-.2-.2-.4-.4-.4s-.5.2-.5.4.2.4.5.4c.2 0 .4-.2.4-.4zm.7-10.5c0-.2-.2-.4-.4-.4s-.5.2-.5.4.2.4.5.4c.2 0 .4-.2.4-.4zM58.2 28c-.3 0-.4.2-.4.4s.2.4.4.4.4-.2.4-.4-.1-.4-.4-.4zm-7.3 6.9c.2 0 .4-.2.4-.4 0-.3-.2-.4-.4-.4s-.4.2-.4.4.2.4.4.4zm3.7-10.1zm-.9 4.3c-.2 0-.4.2-.4.4 0 .3.2.5.4.5s.4-.2.4-.5c0-.2-.2-.4-.4-.4zm.4-4.9c0 .3.2.5.4.5h.1v.1c0 .3.2.4.4.4.3 0 .5-.2.5-.4s-.2-.4-.5-.4h-.1v-.2c0-.2-.2-.4-.4-.4s-.4.2-.4.4zm-.4 2.1c-.2 0-.5.2-.5.5 0 .2.2.4.5.4.2 0 .4-.2.4-.4 0-.3-.2-.5-.4-.5zm-.3-1.9c-.2 0-.4.2-.4.4 0 .3.2.4.4.4.3 0 .4-.2.4-.4s-.2-.4-.4-.4zm1.9-5.1c0 .2.2.4.4.4.3 0 .4-.2.4-.4 0-.3-.2-.4-.4-.4s-.4.1-.4.4zm1.8-2.4c-.1-.2-.3-.4-.5-.4s-.4.2-.4.5c0 .2.2.4.4.4h.1c0 .3.2.4.4.4.3 0 .4-.2.4-.4 0-.3-.1-.5-.4-.5zM50 30.7c-.2 0-.4.2-.4.4s.2.4.4.4.4-.2.4-.4c0-.1-.2-.4-.4-.4zm2.5-2.7c0 .3.2.5.4.5s.4-.2.4-.5c0-.2-.2-.4-.4-.4s-.3.2-.4.4zm2.8-6.2c0 .3.2.4.4.4.3 0 .5-.2.5-.4s-.2-.4-.5-.4c-.2 0-.4.2-.4.4zm1.8-3.5c0 .3.2.5.4.5s.4-.2.4-.5c0-.2-.2-.4-.4-.4-.2-.1-.3.1-.4.4zm-7.4 10.2c.2 0 .5-.2.5-.5 0-.1-.1-.2-.2-.3.2 0 .3-.2.3-.4s-.2-.4-.4-.4-.4.2-.4.4c0 .1.1.3.1.4-.2 0-.4.2-.4.4.1.2.3.4.5.4zm0-2.1c.3 0 .4-.2.4-.4 0-.3-.2-.4-.4-.4s-.4.2-.4.4.2.4.4.4zM49 30c0 .3.2.4.4.4s.4-.2.4-.4-.2-.4-.4-.4c-.3 0-.4.2-.4.4zm1.3-7.9s-.1 0 0 0c-.2 0-.4.2-.4.4 0 .3.2.4.4.4.3 0 .4-.2.4-.4s-.2-.4-.4-.4zm-1.2 10c0 .2.2.4.4.4.3 0 .4-.2.4-.4s-.2-.4-.4-.4-.4.2-.4.4zm2.1-9.4c.3 0 .4-.2.4-.4 0-.3-.2-.4-.4-.4s-.4.2-.4.4c-.1.2.1.4.4.4zm1 3.9c-.2 0-.4.2-.4.4s.2.4.4.4.4-.2.4-.4c.1-.2-.1-.4-.4-.4zm-1.2-.5c-.2 0-.4.2-.4.4s.2.5.4.5.4-.2.4-.5c0-.2-.2-.4-.4-.4zm.8-.7c-.2 0-.4.2-.4.5 0 .2.2.4.4.4s.4-.2.4-.4c0-.3-.2-.5-.4-.5zm-.8-1.5c.3 0 .4-.2.4-.4s-.2-.4-.4-.4-.4.2-.4.4.2.4.4.4zm10.3-9.2c0 .2.2.4.4.4.3 0 .4-.2.4-.4s-.2-.4-.4-.4-.4.1-.4.4zm-2.8-2.6c0 .2.2.5.5.5.2 0 .4-.2.4-.5 0-.2-.2-.4-.4-.4-.3 0-.5.2-.5.4zm-2.9 3.7c-.2 0-.4.2-.4.4s.2.4.4.4.4-.2.4-.4c.1-.2-.1-.4-.4-.4zm-.9 1.5c-.2 0-.4.2-.4.4s.2.4.4.4.4-.2.4-.4c.1-.3-.1-.4-.4-.4zm4.9-7.7c-.2 0-.4.2-.4.4 0 .3.2.4.4.4s.4-.2.4-.4-.2-.4-.4-.4zm-5 10.9c0 .2.2.5.4.5s.5-.2.5-.5c0-.2-.2-.4-.5-.4-.1 0-.4.2-.4.4zm6-10.9c-.2 0-.4.2-.4.5 0 .2.2.4.4.4s.4-.2.4-.4c0-.3-.2-.5-.4-.5zm.2 1.5c-.2 0-.4.2-.4.5 0 .2.2.4.4.4s.4-.2.4-.4c0-.3-.2-.5-.4-.5zm0 1.6c-.2 0-.3.1-.4.3 0-.2-.2-.3-.4-.3s-.4.2-.4.4.2.4.4.4.4-.1.4-.3c.1.2.2.3.4.3s.4-.2.4-.4-.1-.4-.4-.4zm-6.2 2.6c-.2 0-.4.2-.4.4 0 .3.2.4.4.4s.4-.2.4-.4-.2-.4-.4-.4zM59.8 11.8c-.2 0-.4.2-.4.4 0 .3.2.5.4.5s.4-.2.4-.5c0-.2-.2-.4-.4-.4zm-7.2 11.8c-.2 0-.4.2-.4.4 0 .3.2.4.4.4.3 0 .4-.2.4-.4s-.2-.4-.4-.4zm-4.1 8.2c-.2 0-.4.1-.4.4h-.2c-.2 0-.4.2-.4.4s.2.5.4.5.4-.2.4-.4h.2c.2 0 .4-.2.4-.4.1-.3-.1-.5-.4-.5zm.3-4.3c.3 0 .4-.2.4-.4s-.2-.4-.4-.4-.4.2-.4.4c-.1.2.2.4.4.4zm-1.3 6.6c0 .2.1.3.2.4-.1.1-.1.2-.1.3 0 .3.2.4.4.4.1 0 .2 0 .2-.1 0 .2.2.4.4.4s.4-.2.4-.4c0-.3-.2-.5-.4-.5-.1 0-.2 0-.2.1 0-.1-.1-.2-.2-.3.1-.1.1-.2.1-.3 0-.2-.2-.4-.4-.4-.2-.1-.4.1-.4.4zm-2.9 2.2c0-.1-.1-.3-.2-.3.2-.1.3-.2.3-.4s-.1-.3-.3-.4c0-.2-.2-.4-.4-.4-.1 0-.2.1-.3.1-.1 0-.2-.1-.2-.1-.2 0-.4.2-.4.4s.2.4.4.4c.1 0 .2-.1.3-.2h.1c0 .1.1.3.2.4-.2.1-.3.2-.3.4 0 .1 0 .2.1.3-.2 0-.3.2-.3.4 0 .3.2.4.4.4s.4-.2.4-.4c0-.1 0-.2-.1-.2.2 0 .3-.1.3-.4zm3.8-9.8c.2 0 .4-.2.4-.4s-.2-.4-.4-.4c-.3 0-.4.2-.4.4s.2.4.4.4zm3-6.3c-.2 0-.4.2-.4.4s.2.4.4.4.4-.2.4-.4-.2-.4-.4-.4zm1.8.7c0 .2.2.4.5.4.2 0 .4-.2.4-.4s-.2-.4-.4-.4c-.3 0-.5.2-.5.4zm7.9-4c0 .2.2.4.4.4s.4-.2.4-.4c0-.3-.2-.5-.4-.5s-.4.2-.4.5zm-6.8 2.4c0-.2-.2-.4-.4-.4-.3 0-.4.2-.4.4s.2.4.4.4.4-.2.4-.4zm-2.1 2c-.2 0-.4.1-.5.4 0 .2.2.4.4.4s.4-.2.4-.4c.1-.3-.1-.4-.3-.4zM65 6.4c-.2 0-.5.2-.5.4s.2.4.5.4c.2 0 .4-.2.4-.4s-.2-.4-.4-.4zm.9 4c-.2 0-.4.2-.4.5 0 .2.2.4.4.4s.4-.2.4-.4c0-.3-.1-.5-.4-.5zm0-3.6c-.3 0-.4.2-.4.4s.2.4.4.4.4-.2.4-.4-.1-.4-.4-.4zm-.8 8.1c-.2 0-.4.2-.4.5 0 .2.2.4.4.4s.4-.2.4-.4c0-.3-.2-.5-.4-.5zm1.2 2c0-.2-.2-.5-.4-.5s-.4.2-.4.5c0 .2.2.4.4.4s.4-.2.4-.4zm-.4-13.6c-.2 0-.4.2-.4.4 0 .3.2.4.4.4s.4-.2.4-.4-.2-.4-.4-.4zM65 19.2c.2 0 .4-.2.4-.4s-.2-.4-.4-.4-.5.2-.5.4c0 .3.2.4.5.4zM65.5 16.9c0-.2-.2-.5-.4-.5s-.4.2-.4.5c0 .2.2.4.4.4s.4-.2.4-.4zm.6 2.6c0-.2-.2-.4-.4-.4s-.5.2-.5.4.2.4.5.4c.2 0 .4-.2.4-.4zM65 10.4c-.2 0-.5.2-.5.5 0 .2.2.4.5.4.2 0 .4-.2.4-.4 0-.3-.2-.5-.4-.5zm.4 14c.2 0 .4-.2.4-.4 0-.3-.2-.4-.4-.4s-.4.2-.4.4c-.1.2.1.4.4.4zm-3.9-11.8c0 .2.2.4.5.4.2 0 .4-.2.4-.4s-.2-.4-.4-.4c-.4 0-.5.2-.5.4zm.5-1.7c0 .2.2.4.4.4.1 0 .2-.1.3-.2 0-.1 0-.1.1-.1v-.1c0-.3-.2-.4-.4-.4s-.4.1-.4.4z" fill="#030202"/><path d="M62.8 11l-.1.1c.1 0 .1-.1.1-.1z" fill="#030202"/><path d="M62.7 11.2c0 .3.2.4.4.4.3 0 .4-.2.4-.4s-.2-.4-.4-.4c-.1 0-.2.1-.3.2 0 0 0 .1-.1.2zm1.9 9.8c0-.2-.2-.4-.5-.4-.2 0-.4.2-.4.4 0 .3.2.4.4.4.3 0 .5-.1.5-.4zM43.4 40.5c.2 0 .4-.2.4-.5 0-.2-.2-.4-.4-.4s-.4.2-.4.4c0 .3.2.5.4.5zM62.1 8.9c-.2 0-.4.2-.4.4s.2.4.4.4.4-.2.4-.4-.2-.4-.4-.4zm2.1 3.1c-.3 0-.5.2-.5.4s.2.4.5.4c.2 0 .4-.2.4-.4s-.2-.4-.4-.4zm-1.5-3.3c0 .2.2.4.4.4.3 0 .4-.2.4-.4 0-.3-.2-.4-.4-.4-.3-.1-.4.1-.4.4zm1.9-3.9c-.2 0-.4.2-.4.4 0 .3.2.4.4.4.3 0 .4-.2.4-.4s-.1-.4-.4-.4zm-1 2.4c-.3 0-.4.2-.4.4 0 .3.2.5.4.5s.4-.2.4-.5c0-.2-.2-.4-.4-.4z" fill="#030202"/></svg>