<svg viewBox="0 0 522 58" fill="none" xmlns="http://www.w3.org/2000/svg">
<path d="M261.811 55.0993C251.029 57.5669 237.013 58.1838 227.001 53.5571C218.375 49.8557 213.138 40.7566 212.06 32.12C210.982 21.3244 214.987 11.9168 223.612 5.59359C233.624 -1.65491 249.643 -1.34646 260.579 3.58869V14.5386C252.261 10.683 239.785 8.52384 231.776 14.5386C226.077 19.011 224.228 25.9511 225.769 32.8912C226.847 38.4432 231.622 43.3784 236.859 45.0748C240.555 46.3086 245.176 46.617 249.335 46.1544V37.2094H243.79V26.4138H261.811V55.0993Z" fill="#111111"></path>
<path d="M129.04 55.562V10.5287H148.909V0.0415039H95V10.5287H114.869V55.562H129.04Z" fill="#111111"></path>
<path d="M169.087 35.0505L177.096 14.3845L185.722 35.0505H169.087ZM184.951 0.504395H168.779L146.137 55.8706H161.077L165.39 45.075H190.188L194.655 55.8706H209.442L184.951 0.504395Z" fill="#111111"></path>
<path d="M316.028 24.2548H284.607V0.504395H276.289V55.7164H284.607V31.6575H316.028V55.7164H324.346V0.504395H316.028V24.2548Z" fill="#111111"></path>
<path d="M417.378 40.1399C416.761 41.528 413.065 49.5476 403.361 49.5476C393.503 49.5476 392.117 41.9906 392.117 37.3639V7.90723H383.646V36.2844C383.646 55.4081 398.124 56.9503 402.437 56.9503C409.676 56.9503 414.605 53.8658 417.378 51.244V55.8707H425.849V8.06145H417.378V40.1399Z" fill="#111111"></path>
<path d="M521.499 12.9967C521.345 12.6882 516.108 6.98193 509.331 6.98193C503.478 6.98193 497.625 12.6882 494.391 16.698V7.90727H485.919V56.025H494.391V27.3394C496.547 23.6381 502.554 15.31 507.637 15.31C511.796 15.31 516.262 20.0909 516.262 20.0909L521.499 12.9967Z" fill="#111111"></path>
<path d="M354.072 6.98193C340.826 6.98193 330.969 16.8522 330.969 31.8119C330.969 42.1449 337.9 56.9503 356.537 56.9503C368.397 56.9503 375.482 50.473 375.79 50.1645L376.252 49.7018V39.8315L373.634 42.2991C373.634 42.2991 366.549 49.0849 356.999 49.0849C346.679 49.0849 339.44 43.0702 339.44 31.9661C339.44 31.9661 339.44 31.9661 339.44 31.8119H377.022V30.2697C377.33 18.3945 370.091 6.98193 354.072 6.98193ZM340.98 24.255C343.137 17.4691 347.911 14.8473 354.072 14.8473C364.084 14.8473 367.011 20.862 367.781 24.255H340.98Z" fill="#111111"></path>
<path d="M455.884 6.98193C442.638 6.98193 432.78 16.8522 432.78 31.8119C432.78 42.1449 439.711 56.9503 458.348 56.9503C470.208 56.9503 477.294 50.473 477.602 50.1645L478.064 49.7018V39.8315L475.445 42.2991C475.445 42.2991 468.36 49.0849 458.81 49.0849C448.491 49.0849 441.251 43.0702 441.251 31.9661C441.251 31.9661 441.251 31.9661 441.251 31.8119H479.142V30.2697C479.142 18.3945 471.903 6.98193 455.884 6.98193ZM442.792 24.255C444.948 17.4691 449.723 14.8473 455.884 14.8473C465.896 14.8473 468.822 20.862 469.592 24.255H442.792Z" fill="#111111"></path>
<path fill-rule="evenodd" clip-rule="evenodd" d="M0 38.2757V0.0268555H66V38.2757L33 57.1999L0 38.2757Z" fill="black"></path>
<path d="M1.69995 1.729V37.2744L33 55.2974L64.3 37.2744V1.729H1.69995Z" fill="white"></path>
<path fill-rule="evenodd" clip-rule="evenodd" d="M62.7001 21.7546V3.43115H3.30005V22.6557H62.7001V21.7546Z" fill="black"></path>
<path fill-rule="evenodd" clip-rule="evenodd" d="M17.8 20.3531V8.73824H24V5.63428H7.30005V8.73824H13.5V20.3531H17.8Z" fill="white"></path>
<path fill-rule="evenodd" clip-rule="evenodd" d="M57.9999 20.1525C54.6999 20.7532 50.3999 20.9535 47.1999 19.7519C44.4999 18.7507 42.8999 16.3476 42.5999 14.0447C42.1999 11.1409 43.4999 8.63775 46.1999 6.93558C49.2999 5.03315 54.1999 5.13327 57.5999 6.43494V9.63903C54.9999 8.63775 51.1999 7.7366 48.6999 9.33865C46.8999 10.5402 46.3999 12.3425 46.7999 14.2449C47.1999 15.7468 48.5999 17.0485 50.1999 17.5491C51.2999 17.8495 52.7999 17.9496 53.9999 17.8495V15.4464H52.2999V12.5427H57.8999L57.9999 20.1525Z" fill="white"></path>
<path fill-rule="evenodd" clip-rule="evenodd" d="M28.2001 17.5495L26.7001 20.4532H22.3L29.5 5.73438H34.5L41.9001 20.4532H37.4001L35.9001 17.5495H28.2001ZM32 9.33898L29.4 14.5456H34.5L32 9.33898Z" fill="white"></path>
<path fill-rule="evenodd" clip-rule="evenodd" d="M3.30005 36.3733L33 53.4951L62.7001 36.3733V24.3579H3.30005V36.3733Z" fill="black"></path>
<path d="M37.7999 47.5879V26.6612C37.7999 26.561 37.8 26.561 37.7 26.561H35.5999C35.4999 26.561 35.5 26.561 35.5 26.6612V46.3864L33 47.688L30.5 46.2862V26.6612C30.5 26.561 30.5 26.561 30.4 26.561H28.2999H28.2C28.2 26.561 28.2 26.561 28.2 26.6612V47.5879C28.2 47.5879 28.1999 47.688 28.2999 47.688L33 50.3915H33.0999L37.7999 47.5879C37.7999 47.688 37.7999 47.688 37.7999 47.5879Z" fill="white"></path>
<path d="M24.7001 45.6855H24.8001L24.9001 45.5854V43.2824C24.9001 43.2824 24.9001 43.1823 24.8001 43.1823L20.3001 40.6791V35.1721L24.4001 36.1733L24.5001 36.0732V33.8704L24.4001 33.7703L20.4001 32.8691V28.4635H24.9001C25.0001 28.4635 25.0001 28.4635 25.0001 28.3634V26.5611C25.0001 26.4609 25.0001 26.4609 24.9001 26.4609H18.2001C18.1001 26.4609 18.1001 26.4609 18.1001 26.5611V41.6804C18.1001 41.6804 18.1001 41.7805 18.2001 41.7805L24.7001 45.6855Z" fill="white"></path>
<path d="M48.5 41.4801V39.4775C48.5 39.4775 48.5 39.3774 48.4 39.3774H48.2999L43.9 41.7805V35.7728L48 34.6714L48.0999 34.5713V32.5687V32.4686C48.0999 32.4686 48.1 32.4686 48 32.4686L43.9 33.3697V28.5636H48.4C48.5 28.5636 48.5 28.5636 48.5 28.4635V26.6612C48.5 26.561 48.5 26.561 48.4 26.561H41.7999C41.6999 26.561 41.7 26.561 41.7 26.6612V45.3851C41.7 45.3851 41.6999 45.4852 41.7999 45.4852H41.9L48.5 41.4801Z" fill="white"></path>
<path d="M12.3999 38.5764L14.1999 39.6778H14.2999L14.3999 39.5777V26.6612C14.3999 26.561 14.3999 26.561 14.2999 26.561H12.4999C12.3999 26.561 12.3999 26.561 12.3999 26.6612V31.267L7.9999 30.2658V26.6612C7.9999 26.561 7.9999 26.561 7.8999 26.561H5.9999H5.8999C5.8999 26.561 5.8999 26.561 5.8999 26.6612V34.8717C5.8999 34.8717 5.8999 34.9718 5.9999 34.9718L7.7999 35.9731H7.8999L7.9999 35.8729V32.1682L12.3999 33.2696V38.5764Z" fill="white"></path>
<path d="M51.8999 39.4776H51.9999L53.8999 38.3762V33.1695L54.9999 32.8692L58.2999 35.7729C58.2999 35.7729 58.3999 35.873 58.3999 35.7729L60.0999 34.7716C60.0999 34.7716 60.0999 34.7716 60.1999 34.6715C60.1999 34.6715 60.1999 34.6715 60.1999 34.5713L57.3999 32.1683L59.3999 31.6676C60.0999 31.4674 60.1999 31.167 60.1999 30.4661V27.1619C60.0999 26.6612 59.7999 26.3608 59.2999 26.3608H59.1999H52.0999C51.9999 26.3608 51.9999 26.461 51.9999 26.461L51.8999 39.4776ZM53.9999 28.5637H57.8999C58.0999 28.5637 58.1999 28.6638 58.1999 28.864V29.8653C58.1999 30.0656 58.1999 30.1657 57.8999 30.2658L53.9999 31.167V28.5637Z" fill="white"></path>
</svg>
