<svg viewBox="0 0 180 84" fill="none" xmlns="http://www.w3.org/2000/svg">
<path d="M84.1533 56.4595C91.787 56.4595 94.8752 61.7207 95.1614 65.4682H89.8265C89.4101 63.9501 88.5817 61.0744 84.1836 61.0744C81.6159 61.0744 77.8381 62.7747 77.8381 69.9747C77.8381 74.5506 79.6598 78.671 84.1836 78.671C87.133 78.671 89.2019 77.0012 89.8308 73.8826H95.1658C94.0988 79.4127 90.4814 83.2773 84.0708 83.2773C77.2742 83.2773 72.4034 78.7144 72.4034 69.9096C72.4034 61.0094 77.5518 56.4638 84.1533 56.4638V56.4595ZM52.4039 57.045V61.5515H39.5653V67.2942H50.799V71.8137H39.5653V82.5139H34.239V57.045H52.4082H52.4039ZM64.4487 57.045L73.4443 82.5139H67.6453L66.0101 77.2657H56.5851L54.8067 82.5139H49.1855L58.294 57.045H64.4487ZM115.694 57.045V61.5515H102.279V66.9038H114.103V71.4147H102.279V78.0161H115.69V82.5139H97.3084V57.045H115.699H115.694ZM120.795 0.867676C153.52 0.867676 180 27.2735 180 59.899V82.5139H155.494V60.5192C155.268 41.591 139.836 26.3409 120.795 26.3409H119.624V0.867676H120.795ZM120.795 57.045C122.248 57.0422 123.688 57.3257 125.031 57.8795C126.375 58.4332 127.596 59.2463 128.625 60.2722C129.655 61.2982 130.471 62.5169 131.029 63.8587C131.587 65.2005 131.875 66.6391 131.877 68.0923V82.5139H119.628V57.045H120.795ZM120.826 28.9564C138.496 28.9824 152.805 43.2089 152.879 60.8185V82.5139H134.497V68.0923C134.496 66.2951 134.14 64.5158 133.451 62.8561C132.761 61.1964 131.751 59.689 130.479 58.42C129.206 57.151 127.696 56.1454 126.034 55.4607C124.373 54.776 122.592 54.4256 120.795 54.4296H119.624V28.9564H120.826ZM61.3518 62.7963H61.2911L58.0121 72.8677H64.5181L61.3518 62.7963ZM35.5099 28.2797C38.893 28.2797 47.7846 29.7414 47.7846 41.6951C47.7846 53.6402 38.893 55.0976 35.5099 55.0976C32.1354 55.0976 23.2352 53.6402 23.2352 41.6951C23.2352 29.7414 32.1354 28.2797 35.5099 28.2797ZM5.61687 28.9564L15.7489 46.6961H15.8313V28.9564H20.8193V54.4296H15.4757L5.05735 36.2691H4.98361V54.4296H0V28.9564H5.61687ZM93.1359 28.9564V33.4585H85.4284V54.4296H80.0935V33.4585H72.3687V28.9564H93.1359ZM62.9263 28.9564C69.7186 28.9564 70.9634 33.9616 70.9634 36.165C70.9634 38.967 69.5277 41.3829 67.0077 42.2373C69.1113 43.1482 70.2477 43.9289 70.2477 48.687V49.3809C70.2477 52.5298 70.3214 53.3626 71.3841 53.7616V54.4296H65.4723C65.1253 53.2325 64.9084 51.9139 64.9084 49.2942C64.9084 45.8113 64.7046 44.471 60.7446 44.471H55.2361V54.4296H50.0096V28.9564H62.9349H62.9263ZM100.392 28.9564V38.6026H110.347V28.9564H115.69V54.4253H110.347V43.0094H100.392V54.4253H95.0574V28.9564H100.392ZM35.5099 32.7906C32.6342 32.7906 28.5701 34.5689 28.5701 41.6951C28.5701 48.8257 32.6342 50.5997 35.5099 50.5997C38.3942 50.5997 42.4453 48.8214 42.4453 41.6951C42.4453 34.5645 38.3942 32.7906 35.5099 32.7906ZM61.894 33.3631H55.2405V40.1727H61.5036C64.2795 40.1727 65.6284 39.2098 65.6284 36.6942C65.6284 35.3496 65.0169 33.3631 61.8983 33.3631H61.894ZM115.694 0.867676V5.37852H102.279V10.7308H114.103V15.2417H102.279V21.8431H115.69V26.3453H97.3084V0.867676H115.699H115.694ZM72.5075 0.867676V5.37852H64.787V26.3409H59.4651V5.37852H51.7446V0.867676H72.5118H72.5075ZM79.7378 0.867676V10.527H89.6964V0.867676H95.0313V26.3409H89.6964V14.9207H79.7378V26.3453H74.4029V0.867676H79.7378Z" fill="black"></path>
</svg>
