<svg id="Layer_1" data-name="Layer 1" xmlns="http://www.w3.org/2000/svg" viewBox="0 0 280 300"><defs><style>.cls-1{fill:#231f20;}.cls-1,.cls-2,.cls-3,.cls-4{fill-rule:evenodd;}.cls-2{fill:#fff;}.cls-3{fill:#fbfbfb;}.cls-4{fill:#f8f8f9;}</style></defs><title>timberland logo</title><path class="cls-1" d="M207.52,216.76c1.39-.38,2.92,1,3.21,2l.09,10.83c0,1-.3,1.15-.9,1.77a2.83,2.83,0,0,1-1.79.92c-2.94.26-3.43-4.51-3.44-7.39,0-3.08.12-7.35,2.83-8.08Zm-1.33,19h10.32v-3.2c-2.3-.49-1.93-3.22-1.93-5.67V203.51c-1.43.07-1.3.51-2.62.89a11,11,0,0,1-3,.36l0,2.66.81.43a1.1,1.1,0,0,1,.59.57c.78,1.33.45,5.21.49,7.05a6,6,0,0,0-2.71-2.32,5,5,0,0,0-4,.82,7.24,7.24,0,0,0-2.19,2.85c-1.69,3.55-1.66,9.61-.59,13.29a10.71,10.71,0,0,0,1.69,3.49c1.06,1.49,1.65,1.31,3.14,2.12Z"/><path class="cls-1" d="M91.12,225.76h0v-4.11c0-1.21,0-2.54-1.05-3-.2-.09-.29-.09-.5-.17-.41-.17-.15,0-.39-.18l.07-1.3c2.36.05,3.53-.72,5.27-.73v1.79a12.47,12.47,0,0,1,4.34-1.89c2.33-.4,3.59.43,4.43,1.78,1-.34,8.93-5.53,9.11,2.86,0,1.83-.08,10.45.09,11.58.29,2,.76,1.3,1.86,2v1.34H107l0-1.37a2.74,2.74,0,0,0,1.89-1.63,3.45,3.45,0,0,0,.11-1.17l-.19-7.72c0-.81.09-2,0-3a3,3,0,0,0-.92-2.44c-1.38-.84-3.67.82-4.38,1.43l.09,12.8a2.2,2.2,0,0,0,.07.37c.28,1.31.82,1,1.57,1.42v1.32h-7V234.3c.42-.08,1.88-.46,1.87-1.11L100,219.66c-.46-2.71-3.54-1.23-5.18.15l0,12.23c.19,2.34.89,2,1.68,2.34l0,1.34H89.22v-1.34l.12-.06.13,0,.25-.1c1.29-.46.68-.34,1.37-1.31l0,0v-7.07Z"/><path class="cls-1" d="M122.47,217.6c1.43-.31,2.37,1,2.76,2.09,1,2.63,1.33,11.27-1.59,12.57a2.37,2.37,0,0,1-2.18-.27,11.43,11.43,0,0,1-1.28-1.24c-.35-.66-.17-8.88-.17-10.27a2.91,2.91,0,0,1,2.46-2.88Zm.51,18.12h1.56c1.08-.54,1.64-.36,2.84-1.91,3.16-4,3.36-15.77-1-18.8-3.69-2.57-5.72.81-6.67,1.34l.06-11.32c-1.83,0-.83.79-5.07,1.23l0,2.51c1.07.6,1.31.24,1.63,1.85s.2,22.8.17,24.69h2.19l.81-1.6c2.64,2,1.34.88,3.43,2Z"/><path class="cls-1" d="M183.92,235.72h7.23v-2.34c-.83-.47-1.58-.25-1.67-2.88-.05-1.59,0-3.23,0-4.83,0-4.83-.57-4.16,1.09-5.84,1.29-1.29,3.68-2.08,4,.84.15,1.49.26,10.42-.28,11.56-.34.71-.63.74-1.35,1.15l0,2.34h7.25v-2.56c-3.29-.42-1.34-7.88-2.07-13.67-.28-2.21-1.4-4.29-3.67-4.22-2.47.09-3.9,2-5.25,2.89v-2.62c-1.46-.09-1.05.77-5.29,1.11l0,2.33c.48.39,1.63.26,1.82,2.64v8.79c-.12,1.82-.22,2.25-1.81,2.85v2.46Z"/><path class="cls-1" d="M175.7,225.85c-.08,1.25.3,4.38-.29,5.1s-2.58,1.72-3.67.49c-1.33-1.5-.77-5.23,4-5.59Zm3.06,9.87h.86a5.11,5.11,0,0,0,2.46-1.84l-.91-1.7a2.6,2.6,0,0,1-1.14.14c-2.34-3.7,2.4-14.17-3.88-16.35-3.34-1.15-8.24.51-8.39,4.51-.11,2.94,2.29,3.6,3.15,1.6s.11-4.16,3-3.67c1.11.19,1.43.62,1.66,1.66a11.4,11.4,0,0,1,.05,3.35c-2.43.49-4.28.74-5.93,2-3.07,2.31-3.28,6.43-1.8,8.4,3.16,4.2,7.83-.07,8.26-.21a5.65,5.65,0,0,0,1.78,1.72l.84.42Z"/><path class="cls-1" d="M145.35,235.72h8.86v-2.53c-2.46-.59-2.2-2.05-2.2-5.34,0-2.42-.13-5.15,0-7.53,2.16-2.14,2.38.06,4.25.3,3.3.42,3.09-7-1.47-5.42-1.58.53-2.42,1.78-3.44,2.57l-.09-2.4c-1.34-.49-1.9.7-5.92,1v2.45c1.38.77,1.95.6,2.12,2.53v9.33c-.16,1.56-.66,2.26-2.14,2.5v2.55Z"/><path class="cls-1" d="M158.41,235.72H166l0-2.51c-1.18-.61-1.4-.7-1.62-2.21-.45-3.17.2-23.86-.16-26-2.38-.07-1.26,1.06-5.78,1.18l0,2.58c.95.63,1.44.25,1.78,1.89.25,1.23.14,8.78.14,10.33,0,2.34,0,4.69,0,7a17.06,17.06,0,0,1-.16,3.28c-.25,1.16-.61,1.55-1.77,1.7v2.72Z"/><path class="cls-1" d="M134.94,223.42a6.93,6.93,0,0,1-.06-2.87c.54-1.71,3.59-3,4.58,1.16l-4.52,1.71Zm3.12,12.3h1.06c1.22-.5,2.76-.47,4.34-2.57a9.65,9.65,0,0,0,1.72-5.29l-1.56-.39c-.6,6.63-7.18,7.62-8.3-1.8l8.17-3.28c-.42-2.64-2.54-5.93-4.83-6.27-3.16-.47-5.76,2.27-6.59,4.47-1.66,4.36.33,12,3.93,14.29a13.57,13.57,0,0,0,2.06.84Z"/><path class="cls-1" d="M194.24,119c2.6.4,2.38,3.58,2.41,6.22,0,2.9.12,5.82.09,8.72-.06,7-5.83,21.2-8.93,25.84-3.86.08-7.4.29-11.2,0-7.89-.53-12.77-.74-20.88-1.6-3.17-.33-7-.61-10.06-1.19l0-26.55L165.78,125c1.39,1.08,2.51,5.44,5.44,5.86,2,.29,2.86-.9,2.14-2.8-.49-1.27-1.88-2.25-2-3.51,1.91-.57,4.34-1,6.39-1.44,3.66-.82,3.54-.62,5.75,1.2,3.9,3.22,2.85,5.29,6.45,4.81a5,5,0,0,0,2.8-1c-.08-1.28-2.75-3.59-3.34-5.49-.89-2.9,4-3.71,4.87-3.58Zm-88.39,9.69c1.51,0,1.13.16,1.7-.25l14-12.09a3.6,3.6,0,0,1,1-.8,58.47,58.47,0,0,1,3.69,4.79,35.83,35.83,0,0,0-3.38,2.17l-9.81,6.56c.43.2,8.85-.06,9.84-.16s2.39-1.42,3.23-2c2.71-1.72,1.66-1.25,6.64-1.35a10.81,10.81,0,0,1,1.08,1.71c.46.8.75.87.8,1.91.13,3.23-.11,21.45-.15,24.84-1.21-.07-2.84-.47-4.14-.67l-4.33-.69a193.24,193.24,0,0,0-27.75-2.45l-9,.27c-.74-.62-1.82-2.93-2.32-4.09-2.6-6.17-3-12.17-2.83-18.79,5.86,0,4.86.53,6.59-1.64,1.22-1.54,4-4.71,4.68-5.86a30.72,30.72,0,0,1,4.42,1.72,27.6,27.6,0,0,1,4.17,1.88l-3.86,5,5.7,0Zm-21.93-5.84a49.54,49.54,0,0,1,.33-6.87A20.18,20.18,0,0,1,89,117l-2.54,5.92-2.53-.09Zm69.46-1.46a7,7,0,0,1,1.44-2.61c.54-.74,2.82-4.44,3.38-4.65a12.49,12.49,0,0,1,3.61,0c-.18,1.28-2.07,4-2.83,5.27-1.68,2.95-.95,2.08-5.6,2Zm-13.84-13.88v6h-3c0-1.44-.23-4.5.11-5.65l2.94-.37ZM99,115.32a24.38,24.38,0,0,1,1.12-2.83,6,6,0,0,1,1.39-2.62c.73-.69,1.31-1.29,2-2,1-1,1.39-.7,3.18-.82a17.63,17.63,0,0,1,3.91,0c.77.1,2.93.18,3.44.53a35.24,35.24,0,0,1,3.12,4.92l-2.91,2.75c-.38.34-.62.52-1,.84l-3.75,3.61c-3-1-7.87-3.56-10.51-4.38Zm-13.31-7c.88-.33,7.61-.17,9-.09-.89,1.58-1.78,3.23-2.6,4.75l-6.67-2.82.24-1.84Zm38.4-2.34a45.13,45.13,0,0,1,4.16-3.33c.41,1,1.45,6.48,1.86,8.36a2.25,2.25,0,0,1-.64,2.25c-1.38-1.56-2.74-3.77-4.09-5.41a7.3,7.3,0,0,1-1.29-1.87Zm22.59,7.86c-.72-1.45-.41-4.41-.43-6.35-.06-5.56-.33-4.45,5.48-8.67.58-.43,3.4-2.91,4.24-2.52s.63,5.45.52,6.48c-.24,2.1-3.74,5.33-5.25,7.11L148,113.46a1.55,1.55,0,0,1-1.28.37Zm15.42-8c.12-.53,5.36-8.68,6-9.55a2,2,0,0,1,1.73-.77c2.23-.16,2.82-.08,1.51,2-3.87,6.2-3.27,9.52-9.27,8.29ZM118,90.32l4.58.22c0,1.93-.08,4.28-.19,6.23a13.93,13.93,0,0,1-1.8,4.3l-2.47,0L118,90.32Zm-15.71-3.77A8.3,8.3,0,0,1,104.15,85l8,2.24-.42,8.92a16.29,16.29,0,0,1-2.45-2.46L104.61,89c-.82-.84-1.55-1.59-2.33-2.41Zm31.24,15.52c-2.91-10.22-3.35-16.65,3.64-25.16,2.5.61,1.79-.08,2.83,3.45.3,1,.57,2,.85,3a8.3,8.3,0,0,1,.59,3l-.3,12.4c-1.14.73-2.26,1.38-3.41,2.07-2.09,1.27-1.32,1.34-4.2,1.23ZM117.8,79.14l3.09,1.21.22,4.71-3.26-.81,0-3.23,0-1.88Zm30.36-14.86h-5.32L148.72,78a48.44,48.44,0,0,1,2,4.69L146,82.63c-.72-1-6.17-14.92-7.54-17.67l-.12-.23a1.53,1.53,0,0,0-.22-.35c-3.1.32-2.47.55-3.59,3-1.89,4.19-4.27,10.06-6.07,13.79l-2.4,0a23.22,23.22,0,0,1-1.63-3.35l-4.89-10.54c-1,.1-6.33,2.34-7.54,2.83l.11,11c-4-.55-7.84-1.59-11.74-2.2-1.12-.18-1.4.48-2.11,1.09a24.68,24.68,0,0,0-4.77,5.48l9.7,10.21a22.7,22.7,0,0,1,2,2.08c1.3,1.49,2.82,2.12,3.14,4.83l-5.48.24c-.53-.68-1.09-1.18-1.58-1.8L92,90.14c-.34-.39-.47-.53-.77-.9s-.55-.54-.83-.84a7.2,7.2,0,0,0-3.73,4.43A54.68,54.68,0,0,1,90.49,97l5,5.75a6.14,6.14,0,0,1,.62.73,7.88,7.88,0,0,1,.6.75l-16,.31-2.31,7.23a63.3,63.3,0,0,0,8.53,51.46,6.6,6.6,0,0,1,1,1.52c21.1-2.45,29.65-3.36,51.45-2,16,1,36.59,2.1,52-.71,3.27-.6,2.7-.13,4.12-2.6,7.35-12.78,10.56-30.28,7-44.59-.46-1.81-.89-3.89-3.11-3.78-1.4.07-8.53,2.6-10.54,3.2-3.44,1-19,5.72-21.82,5.25-.26-1.4.84-2.94,1.42-4a11.71,11.71,0,0,1,2.31-3.38c1.83-1.67,6.81-1.49,9.6-2a51.42,51.42,0,0,0,9-2.55c4-1.47,4.74-2.19,7.86-3.71a37.86,37.86,0,0,0-.64-4.37l-.37-1.41-5.54,2.42c-1.82.78-3.81,1.59-5.49,2.37-1.86.86-3.54,1.53-5.47,2.4-1.17.53-5.43,2.35-5.87.37-.49-2.24,4.19-9.29,5.08-10.53.62-.87.86-1.54,2.21-1.67l12,.27L190.75,89l-17.94-.26L178.7,78.5l-3.22-2.81c-.42.71-1,1.53-1.53,2.28-2.91,4.37-6.48,10.09-9.4,14.22-.59.84-1.06,1.68-1.6,2.44a30,30,0,0,0-1.37-2.71c-.45-.92-.91-1.69-1.4-2.61L157.43,84l14.3-10.5-3.44-2.65c-2.11,1.26-4.38,2.49-6.35,3.65-1,.59-2,1.21-3.15,1.88a27.07,27.07,0,0,0-3,1.94c-1-1.36-6.06-11.78-7.59-14Z"/><path class="cls-2" d="M192.71,128.07a5,5,0,0,1-2.8,1c-3.6.48-2.55-1.59-6.45-4.81-2.21-1.82-2.09-2-5.75-1.2-2.05.46-4.48.87-6.39,1.44.16,1.26,1.55,2.24,2,3.51.72,1.9-.11,3.09-2.14,2.8-2.93-.42-4.05-4.78-5.44-5.86l-20.08,5.49,0,26.55c3,.58,6.89.86,10.06,1.19,8.11.86,13,1.07,20.88,1.6,3.8.26,7.34.05,11.2,0,3.1-4.64,8.87-18.82,8.93-25.84,0-2.9-.05-5.82-.09-8.72,0-2.64.19-5.82-2.41-6.22-.82-.13-5.76.68-4.87,3.58.59,1.9,3.26,4.21,3.34,5.49Z"/><path class="cls-2" d="M105.85,128.69l-5.7,0,3.86-5a27.6,27.6,0,0,0-4.17-1.88,30.72,30.72,0,0,0-4.42-1.72c-.7,1.15-3.46,4.32-4.68,5.86-1.73,2.17-.73,1.65-6.59,1.64-.2,6.62.23,12.62,2.83,18.79.5,1.16,1.58,3.47,2.32,4.09l9-.27a193.24,193.24,0,0,1,27.75,2.45l4.33.69c1.3.2,2.93.6,4.14.67,0-3.39.28-21.61.15-24.84-.05-1-.34-1.11-.8-1.91a10.81,10.81,0,0,0-1.08-1.71c-5,.1-3.93-.37-6.64,1.35-.84.53-2.24,1.85-3.23,2s-9.41.36-9.84.16l9.81-6.56a35.83,35.83,0,0,1,3.38-2.17,58.47,58.47,0,0,0-3.69-4.79,3.6,3.6,0,0,0-1,.8l-14,12.09c-.57.41-.19.25-1.7.25Z"/><path class="cls-1" d="M140.17,191.82A63.25,63.25,0,0,0,170.6,184a15.9,15.9,0,0,0,3.47-2.25c-10.56.51-14.6.37-26.24-1.37-5.75-.86-11.58-1.72-17.25-2.84-9.05-1.8-26.56-4.16-35.6-4.45,1.13,1.57,7.1,6.26,8.63,7.33a64.09,64.09,0,0,0,36.56,11.45Z"/><path class="cls-1" d="M90.33,167.8c.09.27,1.06,1.78,1.72,1.86.91.1,2.72,0,3.75,0a156.67,156.67,0,0,1,21.78,1.47c8.88,1.13,17.44,3.32,26.23,4.72,8.6,1.38,20,2.58,28.67,2.25,1.4-.05,6.5.15,7.36-.28a71,71,0,0,0,6.11-5.6,8.52,8.52,0,0,0,.85-1l2.75-3.1a14.87,14.87,0,0,0,1.75-2.41,55.74,55.74,0,0,0-5.85.81,163.48,163.48,0,0,1-31.52.83c-4.11-.24-8.44-.3-12.51-.69-5.78-.56-19.86-.56-26-.43-8.07.17-17.19.37-25.06,1.61Z"/><path class="cls-2" d="M133.52,102.07c2.88.11,2.11,0,4.2-1.23,1.15-.69,2.27-1.34,3.41-2.07l.3-12.4a8.3,8.3,0,0,0-.59-3c-.28-1-.55-2-.85-3-1-3.53-.33-2.84-2.83-3.45-7,8.51-6.55,14.94-3.64,25.16Z"/><path class="cls-3" d="M99,115.32c2.64.82,7.52,3.37,10.51,4.38l3.75-3.61c.39-.32.63-.5,1-.84l2.91-2.75a35.24,35.24,0,0,0-3.12-4.92c-.51-.35-2.67-.43-3.44-.53a17.63,17.63,0,0,0-3.91,0c-1.79.12-2.23-.13-3.18.82-.71.72-1.29,1.32-2,2a6,6,0,0,0-1.39,2.62A24.38,24.38,0,0,0,99,115.32Z"/><path class="cls-3" d="M146.71,113.83a1.55,1.55,0,0,0,1.28-.37l3.28-3.58c1.51-1.78,5-5,5.25-7.11.11-1,.24-6.14-.52-6.48s-3.66,2.09-4.24,2.52c-5.81,4.22-5.54,3.11-5.48,8.67,0,1.94-.29,4.9.43,6.35Z"/><path class="cls-3" d="M102.28,86.55c.78.82,1.51,1.57,2.33,2.41l4.65,4.72a16.29,16.29,0,0,0,2.45,2.46l.42-8.92-8-2.24a8.3,8.3,0,0,0-1.87,1.57Z"/><path class="cls-4" d="M162.13,105.83c6,1.23,5.4-2.09,9.27-8.29,1.31-2.11.72-2.19-1.51-2a2,2,0,0,0-1.73.77c-.67.87-5.91,9-6,9.55Z"/><path class="cls-3" d="M118.11,101l2.47,0a13.93,13.93,0,0,0,1.8-4.3c.11-2,.21-4.3.19-6.23L118,90.32l.12,10.7Z"/><path class="cls-3" d="M153.38,121.39c4.65.12,3.92,1,5.6-2,.76-1.32,2.65-4,2.83-5.27a12.49,12.49,0,0,0-3.61,0c-.56.21-2.84,3.91-3.38,4.65a7,7,0,0,0-1.44,2.61Z"/><path class="cls-4" d="M124.12,106a7.3,7.3,0,0,0,1.29,1.87c1.35,1.64,2.71,3.85,4.09,5.41a2.25,2.25,0,0,0,.64-2.25c-.41-1.88-1.45-7.31-1.86-8.36a45.13,45.13,0,0,0-4.16,3.33Z"/><path class="cls-1" d="M63.49,209v.19l1.39.49a6.86,6.86,0,0,1,2.46-3,8,8,0,0,1,4.44-1l0,20.09h0v7.81a2.11,2.11,0,0,0-.35,0,13.65,13.65,0,0,0-1.67.52l-.43.19v1.51h9.82L79,234.1c-1.14-.14-1-.34-1.62-.58-.23-.08-.54-.18-.55-.43-.48-9.26-.34-18.19-.36-27.52,3.91.09,5.59,1.31,7,4l1.32-.44a42.08,42.08,0,0,0-2.09-5.33l-17,0L63.49,209Z"/><path class="cls-1" d="M80.45,235.72h7.16l-.24-1.45-.36-.14c-1.05-.41-.51-.6-1.09-1.13l-.06-16.82c-1.6-.14-1.27.06-2.48.41a14.82,14.82,0,0,1-2.86.33l-.08,1.36c1.1.28,1.55.67,1.68,1.84L82.19,233c0,.66-1.15,1.16-1.73,1.28v1.44Z"/><path class="cls-3" d="M85.72,108.31l-.24,1.84L92.15,113c.82-1.52,1.71-3.17,2.6-4.75-1.42-.08-8.15-.24-9,.09Z"/><path class="cls-3" d="M83.92,122.85l2.53.09L89,117a20.18,20.18,0,0,0-4.74-1,49.54,49.54,0,0,0-.33,6.87Z"/><path class="cls-3" d="M136.6,107.88c-.34,1.15-.09,4.21-.11,5.65h3v-6l-2.94.37Z"/><polygon class="cls-3" points="117.83 81.02 117.85 84.25 121.11 85.06 120.89 80.35 117.8 79.14 117.83 81.02 117.83 81.02"/></svg>