<svg viewBox="0 0 213 32" fill="none" xmlns="http://www.w3.org/2000/svg" class="h-[20px] md:h-auto"> <title>Tom Ford</title> <path fill-rule="evenodd" clip-rule="evenodd" d="M15.8685 31.4625H10.437V5.48264H0V0.501676H26.199V5.48264H15.8685V31.4625ZM124.108 5.48264H106.677V14.5842H122.759V19.5293H106.677V31.4625H101.281V0.501676H124.108V5.48264ZM178.352 31.4625L170.755 19.4938H164.01V31.4263H158.65V0.465837H172.211C179.346 0.465837 183.216 3.87009 183.216 9.63941C183.216 14.907 180.269 17.5946 176.506 18.4905L184.671 31.3908L178.352 31.4625ZM171.145 5.48265H164.01V14.5842H171.181C175.334 14.5842 177.677 12.7925 177.677 9.89027C177.713 6.48601 175.157 5.48265 171.145 5.48265ZM196.705 31.4625H185.275V0.501676H196.777C206.645 0.501676 213 6.98768 213 15.9462C213 24.6898 206.752 31.4625 196.705 31.4625ZM196.705 5.48265H190.671V26.517H196.705C203.202 26.517 207.355 22.2531 207.355 16.0538C207.355 9.92574 203.344 5.48265 196.705 5.48265ZM72.633 31.4625L64.326 9.28108V31.4625H59.001V0.537514H66.669L74.1595 20.4252L81.6145 0.537514H89.247V31.4625H83.851V9.24524L75.5085 31.4625H72.633ZM40.9315 32C31.524 32 24.921 24.9407 24.921 16.0176C24.921 7.13102 31.5595 0 41.0025 0C50.41 0 57.013 7.05899 57.013 15.9821C57.013 24.869 50.3745 32 40.9315 32ZM40.9315 4.98096C34.861 4.98096 30.6365 9.81858 30.6365 15.9821C30.6365 22.1456 34.932 27.019 41.0025 27.019C47.073 27.019 51.333 22.1814 51.333 16.0176C51.333 9.85442 47.0375 4.98096 40.9315 4.98096ZM140.58 32C131.173 32 124.605 24.9407 124.605 16.0176C124.605 7.13102 131.243 0 140.687 0C150.094 0 156.697 7.05899 156.697 15.9821C156.662 24.869 149.987 32 140.58 32ZM140.58 4.98096C134.51 4.98096 130.249 9.81858 130.249 15.9821C130.249 22.1456 134.545 27.019 140.687 27.019C146.757 27.019 151.017 22.1814 151.017 16.0176C150.982 9.85442 146.686 4.98096 140.58 4.98096Z" fill="black"></path> </svg>