<svg viewBox="0 0 980 637" fill="none" xmlns="http://www.w3.org/2000/svg">
<g clip-path="url(#clip0_1611_176)">
<path d="M980 0H0V158.33H980V0Z" fill="#0C1A42"></path>
<path d="M490.17 158.33H0V477.75H490.17V158.33Z" fill="white"></path>
<path d="M979.97 158.33H490.17V477.75H979.97V158.33Z" fill="#D4122C"></path>
<path d="M979.97 477.75H0V637H979.97V477.75Z" fill="#0C1A42"></path>
<path d="M290.58 528.58H258.82V553.42H289.64V560.28H258.82V585.75H291.41V592.61H251.01V521.72H290.58V528.58Z" fill="white"></path>
<path d="M511.85 592.61H503.65L493.24 569.85H460.42L450.22 592.61H442.01L473.88 521.31H479.14L511.85 592.61ZM476.51 533.57L463.47 562.99H489.98L476.52 533.57H476.51Z" fill="white"></path>
<path d="M725.83 592.61H719.29L669.54 534.2V592.61H662.08V521.72H668.62L718.37 580.13V521.72H725.83V592.61Z" fill="white"></path>
<path d="M914.08 533.67C912.46 532.58 910.05 531.14 906.91 529.92C903.78 528.7 901.27 527.73 897.9 527.86C896.32 527.92 891.78 528.1 888.25 531.59C887.62 532.22 885.14 534.8 884.68 538.77C884.57 539.68 884.39 541.44 885.17 543.42C885.92 545.34 887.2 546.51 888.09 547.25C891.46 550.06 895.14 551.47 898.12 552.7C908.91 557.16 911.41 559.66 912.34 560.67C914.32 562.81 915.3 564.78 915.67 565.59C916.04 566.39 917.5 569.71 917.34 574.26C917.3 575.3 917.06 579.65 914.47 583.84C909.09 592.55 898.02 593.55 896.24 593.55C889.58 593.55 883.12 590.95 877.6 587.11V577.55C879.28 579.06 881.82 581.07 885.25 582.85C888.64 584.6 891.75 586.22 896 586.1C897.56 586.06 901.43 585.95 904.83 583.1C905.46 582.57 909.09 579.42 909.25 574.64C909.3 573.05 908.96 571.83 908.72 571.02C907.67 567.4 905.37 565.18 904.49 564.34C901.94 561.93 900.32 561.91 893.31 559.04C884.37 555.38 882.28 553.46 881.16 552.25C878.61 549.53 877.6 546.87 877.33 546.08C877.02 545.2 876.21 542.67 876.41 539.33C876.66 535.32 878.22 532.5 878.92 531.26C881.88 526.05 886.37 523.64 888.07 522.83C892.14 520.9 895.78 520.81 897.99 520.78C898.79 520.77 901.5 520.76 904.95 521.6C909.12 522.61 912.14 524.34 914.03 525.46C914.04 528.19 914.06 530.93 914.07 533.66L914.08 533.67Z" fill="white"></path>
<path d="M98.94 581.24C97.96 583.6 96.61 585.66 94.91 587.43C93.21 589.2 91.21 590.6 88.92 591.62C86.63 592.64 84.18 593.16 81.59 593.16C79.17 593.16 76.9 592.73 74.75 591.87C72.61 591.01 70.7 589.81 69.05 588.28C67.03 586.41 65.92 584.55 64.93 582.86C64.16 581.55 63.24 579.77 62.42 577.54C65.01 576.94 67.6 576.34 70.19 575.74C70.47 576.9 70.97 578.34 71.9 579.82C72.31 580.47 73.05 581.62 74.4 582.77C76.48 584.54 78.88 585.42 81.6 585.42C83.17 585.42 84.63 585.11 85.99 584.49C87.35 583.87 88.54 583.03 89.57 581.97C90.6 580.91 91.41 579.69 92.01 578.29C92.61 576.89 92.92 575.38 92.92 573.77V521.72H100.44V573.69C100.44 576.36 99.95 578.88 98.96 581.23L98.94 581.24Z" fill="white"></path>
<path d="M124.26 51.81H98.65V115.37H90.84V51.81H65.22V45H124.26V51.81Z" fill="white"></path>
<path d="M244.17 80.18C244.17 61.61 258.06 44.07 281.62 44.07C305.18 44.07 319.17 60.99 319.17 80.18C319.17 101.23 302.3 116.29 281.21 116.29C260.12 116.29 244.17 100.92 244.17 80.18ZM310.94 79.97C310.94 66.04 300.24 51.39 281.62 51.39C263 51.39 252.4 65.11 252.4 80.28C252.4 97.41 266.08 108.96 281.1 108.96C297.87 108.96 310.94 96.89 310.94 79.97Z" fill="white"></path>
<path d="M519.46 115.37H511.71V56.76L487.43 86.78H486.6L462.21 56.76V115.37H454.46V45H461.9L487.01 75.85L512.02 45H519.46V115.37Z" fill="white"></path>
<path d="M722.29 115.37H714.54V56.76L690.26 86.78H689.43L665.04 56.76V115.37H657.29V45H664.73L689.84 75.85L714.85 45H722.29V115.37Z" fill="white"></path>
<path d="M886.82 77.81V115.37H878.81V77.81L851.26 45H860.98L882.77 71L904.88 45H914.6L886.83 77.81H886.82Z" fill="white"></path>
</g>
<defs>
<clipPath id="clip0_1611_176">
<rect width="980" height="637" fill="white"></rect>
</clipPath>
</defs>
</svg>
