<svg viewBox="0 0 42 24" fill="none" xmlns="http://www.w3.org/2000/svg">
<g clip-path="url(#clip0_692_108)">
<mask id="mask0_692_108" style="mask-type:luminance" maskUnits="userSpaceOnUse" x="0" y="0" width="42" height="24">
<path d="M42 0H0V24H42V0Z" fill="white"></path>
</mask>
<g mask="url(#mask0_692_108)">
<path d="M26.971 11.948C26.82 12.059 26.64 12.188 26.422 12.342C25.027 13.33 23.002 14.007 20.37 14.007H20.195C17.565 14.007 15.538 13.33 14.143 12.342C13.927 12.188 13.747 12.059 13.595 11.948C13.747 11.834 13.927 11.705 14.143 11.552C15.538 10.565 17.564 9.887 20.195 9.887H20.37C23.003 9.887 25.029 10.565 26.422 11.552C26.64 11.705 26.819 11.834 26.971 11.948ZM40.572 3.801C40.572 3.801 39.374 2.886 35.585 1.494C32.258 0.274 29.75 0 29.75 0L29.76 7.174C29.76 8.184 29.485 9.106 28.714 10.157C25.888 9.127 23.214 8.493 20.294 8.493C17.374 8.493 14.702 9.126 11.875 10.157C11.103 9.111 10.829 8.183 10.829 7.174L10.84 0C10.84 0 8.314 0.27 4.985 1.494C1.198 2.89 0 3.801 0 3.801C0.157 7.057 3.008 9.951 7.498 11.948C3.004 13.942 0.153 16.83 0 20.094C0 20.094 1.198 21.008 4.985 22.401C8.312 23.621 10.823 23.895 10.823 23.895L10.811 16.72C10.811 15.71 11.088 14.788 11.857 13.738C14.684 14.768 17.355 15.4 20.276 15.4C23.196 15.4 25.869 14.767 28.696 13.738C29.468 14.785 29.742 15.711 29.742 16.72L29.732 23.895C29.732 23.895 32.241 23.623 35.568 22.401C39.357 21.006 40.555 20.094 40.555 20.094C40.398 16.837 37.547 13.942 33.057 11.948C37.55 9.95 40.4 7.065 40.555 3.8M41.908 19.226C41.908 19.396 41.806 19.551 41.648 19.616C41.491 19.683 41.309 19.647 41.188 19.526C41.067 19.406 41.03 19.224 41.096 19.066C41.161 18.909 41.315 18.806 41.486 18.806C41.597 18.806 41.705 18.849 41.784 18.928C41.864 19.007 41.908 19.114 41.908 19.226ZM41.997 19.226C41.997 19.019 41.873 18.832 41.682 18.753C41.492 18.673 41.272 18.716 41.125 18.863C40.979 19.008 40.935 19.228 41.013 19.419C41.093 19.61 41.279 19.735 41.486 19.735C41.767 19.735 41.996 19.507 41.996 19.225" fill="black"></path>
<path d="M41.5889 19.4723H41.6809L41.5329 19.2623C41.5669 19.2593 41.5989 19.2433 41.6209 19.2173C41.6429 19.1903 41.6529 19.1573 41.6499 19.1223C41.6499 19.0423 41.6059 18.9883 41.4929 18.9883H41.3179V19.4723H41.3999V19.2653H41.4439L41.5889 19.4723ZM41.3929 19.0503H41.4699C41.5359 19.0503 41.5639 19.0733 41.5639 19.1253C41.5639 19.1783 41.5399 19.2043 41.4699 19.2043H41.3929V19.0503Z" fill="black"></path>
</g>
</g>
<defs>
<clipPath id="clip0_692_108">
<rect width="42" height="24" fill="white"></rect>
</clipPath>
</defs>
</svg>
