<svg viewBox="0 0 156 114" fill="none" xmlns="http://www.w3.org/2000/svg">
<path d="M35.1486 87.9894H119.999C124.831 88.117 129.637 87.2446 134.116 85.4269C138.594 83.6092 142.649 80.8854 146.025 77.4266C149.401 73.9677 152.026 69.8484 153.735 65.3271C155.444 60.8057 156.2 55.9801 155.955 51.1528V36.7265C156.049 31.5755 155.059 26.4622 153.047 21.7191C151.036 16.9759 148.05 12.7089 144.282 9.19539C138.438 3.76814 130.881 0.554373 122.918 0.110124H119.284H94.0652V4.79041L100.783 5.28597C101.779 5.21191 102.78 5.33952 103.727 5.66119C104.673 5.98285 105.544 6.49196 106.289 7.15809C107.39 8.321 108.018 9.8521 108.051 11.4529C107.443 14.4423 106.424 17.333 105.023 20.0426C104.307 21.8597 103.426 23.8419 102.545 26.0995L85.3653 68.7177L64.0562 16.6288C62.2392 12.6092 62.3493 11.1226 62.4594 10.5169C62.6486 9.30776 63.1841 8.17936 64.0012 7.26821C64.4249 6.74018 64.9503 6.30246 65.5461 5.9809C66.1419 5.65935 66.7961 5.4605 67.4701 5.3961L74.4079 4.90054V0H35.0384C30.3172 0.0780038 25.6585 1.09382 21.3333 2.98837C17.0081 4.88293 13.1026 7.61843 9.84408 11.0358C6.58552 14.4532 4.03883 18.4843 2.3521 22.8947C0.665376 27.3051 -0.127737 32.0068 0.0188712 36.7265V51.1528C-0.135218 55.8888 0.655589 60.6081 2.34514 65.0351C4.03469 69.4622 6.58912 73.5084 9.85937 76.9375C13.1296 80.3667 17.0502 83.1101 21.3921 85.0076C25.7341 86.9052 30.4106 87.9188 35.1486 87.9894ZM4.97447 51.2629V36.8366C4.81994 32.7759 5.47833 28.7252 6.91098 24.9224C8.34362 21.1196 10.5216 17.6414 13.3171 14.692C16.1126 11.7426 19.4693 9.38155 23.1899 7.74738C26.9105 6.11322 30.9202 5.23893 34.9834 5.17585H37.1859C39.7044 5.14165 42.1498 6.02201 44.0687 7.65365C46.0818 9.71301 47.5732 12.2239 48.4186 14.9769C49.5198 17.8402 50.2907 19.9325 50.8413 21.1439L76.3902 83.0338H34.9834C30.8944 83.025 26.8501 82.1838 23.0968 80.5612C19.3436 78.9387 15.96 76.569 13.1523 73.5964C10.3446 70.6238 8.17151 67.1107 6.76556 63.2711C5.35961 59.4314 4.7502 55.3457 4.97447 51.2629ZM120.165 82.8136H85.5856L107.61 28.1919L113.117 15.1972C114.273 12.1509 115.991 9.34907 118.182 6.93784C118.939 6.29651 119.815 5.81077 120.76 5.50843C121.705 5.20608 122.7 5.09306 123.689 5.17585C136.573 5.17585 150.889 18.1705 150.889 36.8366V51.2629C150.993 59.3602 148.089 67.2082 142.74 73.2878C139.886 76.4085 136.391 78.8753 132.494 80.5195C128.598 82.1636 124.392 82.9462 120.165 82.8136Z" fill="#1D1D1B"></path>
<path d="M39.2967 113.585H33V97.0012H39.1103C41.8621 97.0012 43.9148 98.5859 43.9148 101.334C43.9404 102.151 43.7025 102.954 43.2362 103.625C42.7698 104.296 42.0999 104.799 41.3254 105.06C42.174 105.323 42.9125 105.857 43.4268 106.582C43.9412 107.306 44.2028 108.179 44.1712 109.067C44.1737 112.024 42.2364 113.585 39.2967 113.585ZM38.9706 98.1189H34.2586V104.548H38.9706C40.9765 104.548 42.65 103.615 42.65 101.333C42.65 99.0502 40.9765 98.1203 38.972 98.1203L38.9706 98.1189ZM39.1572 105.665H34.2599V112.467H39.1572C41.4193 112.467 42.9127 111.186 42.9127 109.067C42.9127 106.948 41.4193 105.665 39.1572 105.665Z" fill="black"></path>
<path d="M49.2589 113.585V97.0012H59.3352V98.1203H50.5201V104.664H58.0296V105.782H50.5201V112.467H59.3364V113.585H49.2589Z" fill="black"></path>
<path d="M75.4366 113.585L73.9903 109.555H66.2509L64.8047 113.585H63.4521L69.5624 97.0012H70.6814L76.7929 113.585H75.4366ZM70.1181 98.6785L66.643 108.438H73.5932L70.1181 98.6785Z" fill="black"></path>
<path d="M86.2144 113.724C85.4702 113.768 84.7251 113.656 84.0264 113.396C83.3276 113.136 82.6905 112.734 82.1553 112.215C81.6202 111.696 81.1988 111.072 80.9177 110.381C80.6367 109.691 80.5022 108.949 80.5228 108.204V97H81.7827V108.038C81.7686 108.629 81.8727 109.217 82.089 109.767C82.3054 110.317 82.6297 110.818 83.0426 111.241C83.4555 111.664 83.9488 112 84.4935 112.229C85.0382 112.459 85.6234 112.577 86.2144 112.577C86.8055 112.577 87.3905 112.459 87.9352 112.229C88.48 112 88.9733 111.664 89.3863 111.241C89.7992 110.818 90.1233 110.317 90.3397 109.767C90.556 109.217 90.6601 108.629 90.646 108.038V97H91.9059V108.204C91.9265 108.949 91.792 109.691 91.511 110.381C91.23 111.072 90.8085 111.696 90.2734 112.215C89.7383 112.734 89.1012 113.136 88.4025 113.396C87.7038 113.656 86.9586 113.768 86.2144 113.724Z" fill="black"></path>
<path d="M102.941 98.1203V113.586H101.681V98.1203H96.7334V97.0012H107.906V98.1203H102.941Z" fill="black"></path>
<path d="M118.103 106.715V113.586H116.843V106.715L111.946 97.0012H113.297L117.519 105.386L121.648 97.0012H123L118.103 106.715Z" fill="black"></path>
</svg>
