<svg fill="none" viewBox="0 -27.5 121 121" x="4500" y="500" xmlns="http://www.w3.org/2000/svg"><path d="M69.089 56.501c-.162-.204-.242-.409-.484-.532-.645.041-1.17-.164-1.412-.737.162-.368-.362-.491-.16-.86-.283-.245-.485-.573-.888-.49-.04-.042-.201-.124-.161-.247-.121-.327-.484-.614-.323-.9.282-.205 0-.492.202-.696-.121-.287-.08-.696-.161-1.065-.162-.491.16-1.023.04-1.556.04-.04.04-.082.08-.082.162-.777-.362-1.31-.16-2.129.16-.081-.041-.368.16-.409v-.164c.323-.245.484-.573.726-.9.162-.369-.242-.45-.282-.738-.443-.45-.726-.941-1.008-1.433-.403-.04-.242-.45-.484-.696.04-.204-.242-.45-.161-.777.161-.656.04-1.393.08-2.048-.16-.327-.04-.696 0-1.064.444-.492 0-1.147.162-1.72.08-.205.242-.41.161-.655.08-.532-.202-1.187-.04-1.801.242-.123 0-.41.242-.533 0-.245-.04-.49.08-.573 0-.163-.16-.368-.201-.573-.08-.123-.161-.246-.323-.164-.161-.286-.443-.655-.161-.982-.04-.205.12-.45.201-.655-.04-.45.122-1.024-.12-1.433-.404-.778.16-1.515-.081-2.334.201-.205.08-.532.12-.778-.443-.328 0-.778-.281-1.146.242-.574.04-1.27.04-1.843-.242-.45.04-.983-.08-1.392.12-.532.04-.9.04-1.433.362-.369-.081-.696-.04-1.105.16-.41-.041-.901.04-1.31l-.04-.082c0-.901-.162-1.761-.122-2.744-.403-.286.202-.655-.08-1.064.12-.328-.081-.573-.081-.86.282-.041.363-.328.605-.491.322.082.484-.246.726-.41-.162-.327.282-.368.161-.696-.363-.205-.121-.614-.161-1.023-.162-.041-.121-.164-.121-.287-.04-.04-.121-.164-.202-.123-.161-.245-.564-.164-.685-.491-.726-.123-.767-1.024-1.29-1.474-.283.164-.404-.205-.606-.205-.282-.368-.887-.696-.846-1.146 0-.041-.081-.041-.081-.082-.08-.164-.121-.369-.242-.491.04-.205.04-.41.04-.574.04-.04.202-.122 0-.204 0-.328-.04-.696 0-1.106-.04-.082-.16-.082-.201-.204-.08-.205.04-.287 0-.369-.04-.082-.403-.696-.847-.737-.282.164-.363.328-.403.532-.121.082-.04.205-.08.328-.122.246-.081.696-.081 1.023 0 .246-.121.328-.121.533 0 .082 0 .778-.202 1.023-.04.205 0 .328-.08.533-.081.163-.243.327-.364.45-.04.164-.201.327-.363.491-.12.164-.242.123-.282.164-.12.082-.08.164-.12.205-.041.04-.081.04-.122.082-.161.163-.201.327-.322.45-.081.082-.162.082-.242.164-.162.163-.08.286-.363.45-.04.041-.08.164-.121.205a.49.49 0 0 0-.202.205c-.08.081-.201.081-.242.163-.16.205-.282.41-.363.614-.04.123.081.246-.08.287 0 .041 0 .205-.08.205-.122.245-.041.696.04.819.12.163-.081.245-.04.286 0 .164.08.123.16.246.04.082 0 .164.04.245.081.123.243.042.283.369 0 .123.242.164.444.41.04.04.16.163.201.286.04.164.04.287.08.328.041.204-.04.204-.04.286 0 .082.04.082.081.164.04.082.04.205.121.205.08.04.08.204 0 .327-.161.123 0 .164 0 .246 0 .123-.08.205-.08.287 0 .04.08.081.08.163.04.082.04.369-.08.328-.04 0 0 .368-.081.327-.08-.04-.04 1.188-.04 1.351 0 .082-.081.123-.081.246v.532c0 .041.08.123.08.205.04.246-.04.123-.08.287 0 .04.08.04.04.163 0 .041-.08.041-.08.246-.04.164 0 .614 0 .737-.04.205.241.369 0 .41v1.72c.241.531.322 1.105.443 1.719-.161.286-.161.778 0 1.105-.363.328.04.942-.363 1.27v1.842c.121.123.08.245 0 .368.282.205-.161.328 0 .573.242.164-.04.45.282.574-.201.368.04.696.04 1.064.243.123-.16.246.041.41 0 .123.04.245-.04.327.161.45-.323.655-.162 1.147-.08.368-.08.819 0 1.187-.04.082.04.246-.08.287.161 1.023-.04 2.047.161 3.111-.282 1.31.161 2.703.161 3.972l.081.163c-.04.492-.12.942-.605 1.27-.363-.082-.242.368-.524.45 0 .041-.04.123.04.164-.242.573-.927.778-1.33 1.228v.778c.242.164.161.532.443.614.121.164.363.369.283.573.443.45.241 1.27.241 1.884h-.04c0 .286.121.573.04.86h-.04c-.201.614.363.941.202 1.555 0 .492.282 1.147.04 1.68-.202.777-1.008.49-1.411 1.145-.121.123-.162.287-.242.41.04.164.04.245-.04.327.12.615-.484 1.065-.888 1.393.121.204-.12.286-.16.45.04.245 0 .573.16.819 0 .368.404.45.484.778.444-.205 1.21.204 1.412-.369.201.041.443-.082.604.082-.04-.04.04-.082.04-.123h.807c.282.41.686-.04 1.089.123.282.164.605-.04.927-.082.162.164.444.041.645.082.162.164.363.205.484.369.807.04 1.371-.246 2.137 0 .121-.205.363-.082.525-.123.362-.205.685.082 1.088.04.121-.04.202-.163.363-.122.282-.287.847-.205 1.17-.082.12.205.362.123.524.287.403-.041.806-.164 1.25-.123.242-.246.524-.328.887-.246.242-.164.766-.368.564-.778.323-.327.283-.614.162-.942Zm-6.17-12.692c.04.041.121.164.242.123-.04.082.04.082.08.082.082-.082.324-.041.485-.041.161.123.201.287.282.45-.161.123-.282.45-.605.369-.282.163-.403-.287-.685-.164-.242-.123-.363-.287-.525-.491.081-.41.525-.41.726-.328Zm-.927-.819c-.161-.245-.202-.41 0-.655.161-.164.282-.286.323-.491.483-.123.725-1.228 1.25-.532.08.49.12 1.023-.04 1.433-.323.286-.727.573-1.13.409-.12 0-.322 0-.403-.164Zm1.573-4.053c-.202.573-.605 1.024-.968 1.515-.484.082-.645.614-.968.9-.282.246-.161.533-.444.779-.04.368-.403.614-.524.9-.403 0-.605.655-1.129.369-.403-.164-.685-.492-.685-.901.12-.082.04-.369.161-.45-.242-.328.484-.492.363-.86 1.089-1.106 2.339-2.047 3.024-3.398.202-.328.484-.533.807-.86.16.04.363.04.483.245-.201.614.242 1.27-.12 1.76Zm-2.138 5.404c0 .287-.362.246-.604.45-.283 0-.484-.245-.807-.204-.161-.082-.282-.082-.363-.246-.161-.163 0-.368.202-.45.524.123 1.21-.082 1.572.45Zm2.017-9.949c0 .123 0 .246-.081.287.04.368-.161.655-.161.982-.525.41-.928 1.024-1.452 1.352-.726 1.023-1.573 1.801-2.339 2.825-.12.04-.242.163-.363.123-.201-.041-.242-.287-.363-.45 0-.288-.08-.656.202-.86-.04-.574.282-.983.484-1.516.12-.245.242-.573.605-.573.564-.573 1.451-1.228 1.653-2.006.363-.573 1.13-.778 1.411-1.392.283-.082.404.246.605.41-.04.327-.322.573-.202.818Zm0-4.176c.04.573-.686.9-.565 1.474 0 .164-.04.164-.161.287h-.04c.04.49-.686.696-.807 1.187a6.694 6.694 0 0 0-1.774 1.924l-.282.246c.08.246-.202.368-.363.532-.162 0-.283.164-.444.082-.282-.287-.403-.778-.282-1.228.363-.246.201-.778.564-1.106.323-.9 1.13-1.596 1.855-2.17.04-.245.403-.368.403-.696.162-.245.525-.245.484-.573.645-.287.283-1.27 1.008-1.515.323.164.565.328.645.696-.04.369-.362.573-.242.86Zm-.323-4.135c-.04.327 0 .696-.161.9-.283.205-.242.615-.525.901v.164c-.282.532-1.008.737-1.048 1.392-.524.41-.806 1.106-1.129 1.638-.363.205-.605.9-1.048.573-.162-.123-.363 0-.484-.246.08-.327-.04-.573.04-.982-.08-.491.363-.696.484-1.147.484-.614.766-1.35 1.29-1.924.404-.532 1.049-.778 1.25-1.515.202-.164.283-.491.525-.696 0-.245.241-.286.282-.491.201-.041.363-.041.605-.123l.363.491c-.283.369-.202.737-.444 1.065Zm.12-5.446c-.12.45.243.86-.08 1.229.202.368-.242.614-.201.982l-.605.86c-.726.983-1.613 1.843-2.299 2.866-.16 0-.282.164-.403.328-.161.368-.242.819-.645.982-.161.123-.323-.082-.403-.163-.403-.246.04-.492 0-.778.161-.45-.08-1.024.242-1.392.04-.164-.04-.246-.04-.41.604-.368.645-1.105 1.088-1.638l1.532-1.637c.242 0 .242-.328.444-.492.08-.368.282-.777.645-1.064.323 0 .645 0 .726.327Zm-.2-3.971c.241.532 0 1.105 0 1.638-.686 1.064-1.815 2.047-2.46 3.193-.605.369-.888 1.024-1.452 1.556-.282-.04-.605.041-.726-.286.121-.287-.242-.82.04-1.106 0-.368.444-.696.484-1.105.121-.369.686-.328.525-.778.443-.287.685-.778 1.169-1.065v-.082c.685-.45.605-1.433 1.37-1.72.162-.286.324-.286.525-.573.282-.04.444.164.524.328Zm-.122-2.825c.162.327-.242.491-.161.86-.605.819-1.29 1.474-1.976 2.252-.363.081-.282.409-.443.655-.323.491-.847.655-1.008 1.187l.04.04c-.242.124-.323.451-.686.329-.403-.287-.16-.778-.242-1.188.162-.245-.16-.45-.04-.737.282-.45.645-1.105 1.21-1.392.322-.9 1.089-1.515 1.653-2.252l.04.041c.202-.04.162-.286.323-.368.04.04.121.082.161.164.162.04.283-.164.484-.123.282.123.645.204.645.532Zm-3.87-4.381c.483-.164.806-.737 1.33-.655.202.04.363.123.605.082.282.368.766.123 1.089.41.16.204.604.163.524.531.322.164.161.41.161.697-.242.368-.524.327-.927.327-.202-.082-.363-.368-.605-.205-.282.123-.726.205-1.008.082-.323.164-.605-.164-.887.041-.202-.123-.484-.123-.605-.41-.121-.368.201-.613.322-.9Zm.282 3.562h-.121c-.04-.082.12-.205.161-.123.04.041 0 .082-.04.123Zm-.968.696.443-.368c.363.082.646-.123.888.327.08-.04.16.082.201.123-.282.41-.524 1.31-1.25 1.146-.161.041-.282-.082-.363-.163-.08-.369-.161-.778.08-1.065Zm-.444 31.24c0 .081-.161.081-.161 0h.161Zm-.403 7.246c.121-.368 0-.941.121-1.35-.202-.205.161-.41-.04-.615.08-.9-.08-1.924-.04-2.825.12-.245.201-.45.362-.655.565-.082 1.13.164 1.775.041.282-.328.766-.246 1.048-.369l.161.123c.484-.04 1.089-.163 1.452.369.605.082 1.21-.123 1.855-.123-.04.082.04.082.04.123.363 0 .282.368.484.573-.161.164-.04.45-.282.491.282.41-.04 1.106.16 1.72.122.778.041 1.556.041 2.293-.242.245.08.491.04.778.04.122.04.245.04.368-.04.164-.2.41-.281.573-.323.205-.928.082-1.371.123-.323.041-.807-.04-1.13.082-.483-.164-1.048-.04-1.532-.164-.282.164-.483.041-.806.123-.323-.123-.686-.04-1.008.082-.202 0-.403.123-.565.123-.927-.246-.443-1.27-.524-1.884Zm-1.411 3.522c-.363-.246-.121-.492-.161-.82.322-.245.846-.04 1.25-.163.12-.287.483-.082.645-.164.685-.082 1.29.041 1.976-.082.282.205.645-.123.927.041.161.041.484-.082.605.123l.968-.082c.483-.082 1.008.369 1.532.082.242 0 .645-.205.766.164a.946.946 0 0 1 .484-.123c.201.123.443.205.685.286.323.246-.12.369-.04.697-.282.245-.766-.082-1.008.245-.323-.082-.766-.04-1.048.041-.242-.164-.605.041-.847-.04-.08.122-.202 0-.323 0-.282-.165-.806-.165-1.089 0-.403-.287-.685.122-1.088-.083-.605-.081-1.089.205-1.694 0-.685.041-1.452.287-2.097-.04-.12.081-.322.04-.443-.082Zm9.758 1.637c-.121 0-.242-.04-.363.041-.282-.614-1.048-.245-1.573-.327-.483.368-1.129.163-1.693.327-.363-.327-.726.205-1.13-.04-.685.081-1.25-.083-1.935.04-.443.041-1.008-.205-1.492.041-.282-.164-.766-.04-.887-.491.283-.491.928-.246 1.371-.287.282-.04.686.205 1.008.082.121.082.162.082.283.041.201-.164.363-.082.564-.164.161.205.484.082.686.123 0 .041.04.041.08.082.283-.041.363-.246.726-.246.565.246 1.008.164 1.653.041.282.492.847.041 1.21.082.403.205.806.041 1.25.041.161.041.403.041.444.246 0 .082-.04.163-.202.368ZM88.08 41.106c-.121-.122-.202-.286-.202-.409-.08-.123-.12-.246-.282-.368-.04-.369-.484-.574-.645-.942-.162-.082.12-.246-.121-.246.04-.41-.363-.696-.363-1.064-.202-.041-.04-.246-.162-.369.162-.778-.645-1.105-.685-1.842-.564-.369-.484-1.065-.726-1.515-.242-.164-.161-.573-.484-.696-.242-.491-.282-.942-.362-1.433-.283-.573-.605-1.024-.928-1.597 0-.123 0-.246-.12-.287-.041-.204-.041-.368-.162-.532.04-.368-.08-.696-.282-.941.08-.45-.525-.41-.484-.778-.363-.082-.242-.574-.524-.696-.363.04-.686-.123-1.009-.369l-1.048-.04c-.524-.042-.927.245-1.25.654.04.123-.08.164-.161.246-.323.164-.363.573-.524.9-.121.123-.162.287-.242.37v.409c-.363.081.04.368-.202.49.04.533-.403.902-.363 1.393.08-.041-.363.737-.363.737 0 .41-.403.614-.403 1.024-.202.245-.323.573-.242.9-.242.369-.282.82-.403 1.188 0 .45-.565.778-.484 1.31-.04.123-.08.286-.161.368.12.287-.202.369-.162.574-.04.573-.483.818-.524 1.35-.08.205-.242.41-.282.697.161.409-.484.45-.282.86-.363.081-.04.49-.283.614.04.368-.12.86.162 1.105.12.45.605.368 1.008.45.282 0 .564.164.806 0 .403.123.484-.368.847-.245.403-.082.363-.573.444-.901h.04l.04-.655h.04c.121-.082-.08-.164.081-.246 0-.491.282-.737.323-1.187.363-.287.242-.737.564-1.065-.08-.245.121-.368.242-.49.686-.165.161-.615 1.532-.492.081 0 .242.04.404 0 .12.204.685-.041.766.204.161-.04.363.082.484-.122.16.04.322-.041.443.082.363.122.847-.164 1.21.081.282.533.927.737 1.008 1.392.04.369.282.697.322 1.106.283.368.242.86.565 1.187-.08.164.161.246.242.369.282 1.228 1.613.614 2.54.86.282.081.323.04.525-.123.443-.287.241-.86.282-1.27Zm-2.46-.327c-.605-.246-.363-.819-.766-1.146.04-.41-.565-.369-.403-.82-.323-.45-.363-.818-.605-1.35.161-.369-.363-.492-.323-.778-.161-.205-.242-.328-.484-.45-.645.122-1.25.081-1.854.245-.323.123-.686-.287-.928.04-.322-.163-.685.124-1.129 0-.161-.245-.766-.163-1.17-.286-.241.246-.403-.204-.644.041.242.45-.444.614-.484.942-.04.246-.282.328-.202.573-.363.41-.443.983-.524 1.433-.161.164-.121.328-.161.45-.202.246-.363.574-.605.82.04.081-.04.163-.08.204-.162.041-.364-.082-.444.082-.242-.123-.202-.369-.202-.573.121-.369.161-.696.484-.942.08-.287.04-.532.202-.819.645-.737.443-1.842 1.128-2.58-.04-.245.162-.368.121-.613.283-.369.484-.983.404-1.474.201-.164.403-.369.403-.696l.12-.123c0-.205.243-.369.203-.614-.081-1.065.725-1.597.887-2.58.524-.368.08-.982.685-1.31.605.164 1.371-.778 1.653.164-.201.45.363.491.323.9.242.164.564.492.524.779.242.163.121.45.363.573.121.245.363.368.363.696.645.286.201 1.023.685 1.392-.12.245.242.368.121.655.323.491.444 1.065.847 1.515v.123c-.04-.041-.08.04-.12.04-.041.246.281.246.322.451-.08.287.403.45.242.819l-.04.082c.403.204.282.614.564.9.04.574.685.942.726 1.515.322.45.403.86.484 1.392-.162.287-.404.41-.686.328Zm-48.75-13.102c-.484-.368-1.048-.245-1.613-.122-.282.368-.726.245-.927.696-.162.49-.686.818-.686 1.433-.363.45-.484 1.064-.564 1.637-.162.246-.323.492-.363.778-.363.246-.162.614-.484.901-.161.45-.363.9-.686 1.31.202.573-.524.778-.242 1.351-.16.246-.08.696-.282.942-.201.368-.443.819-.726 1.187-.282-.04-.604.123-.725-.163-.121-.533-.726-.86-.646-1.434-.322-.245-.08-.736-.363-.982-.08-.246-.241-.573-.282-.819.162-.287-.363-.369-.161-.655-.242-.164-.161-.45-.282-.696-.04-.41-.565-.614-.484-1.105-.242-.164-.162-.369-.162-.656-.524-.49-.362-1.35-.927-1.842l.04-.041-.08-.123c.08-.245-.242-.368-.162-.696-.443-.368-.443-.819-.967-1.105-.04-.369-.323-.123-.484-.41-.202.082-.202-.204-.403-.123-.444.246-1.089.205-1.29.778a.956.956 0 0 0 .08.983c0 .246.08.614.202.819.483 0 .12.573.483.696.162.327.04.696.363.941-.16.574.444.901.363 1.433.08.246.323.45.282.697.162.368.484.778.484 1.187.363.368.404.819.686 1.228.242.45.08 1.106.605 1.433-.162.45.282.737.524 1.106-.08.123.12.204.08.286.122.328.283.696.364.983-.04.368.362.614.443.9.04.492.605.901.484 1.475.363.532.927.696 1.37.941.565 0 1.372.246 1.614-.532.605-.246.443-.942.806-1.31.08-.123-.04-.369.121-.41.121-.122.04-.45.202-.573.242-.368.12-.982.524-1.31-.242-.369.282-.491.242-.778.524-.245.12-.942.645-1.228-.04-.328.444-.41.323-.778h.04c-.08-.246.202-.41.161-.696-.04-.369.363-.532.484-.86.04-.164-.202-.205-.08-.368.403-.164.362-.574.483-.942.04-.041.081-.164.162-.123v-.164c.605-.286.363-.941.605-1.392.241-.368.362-.819.604-1.228.04-.246.162-.491.363-.655 0-.205.08-.41.202-.573-.161-.45.04-.942-.363-1.229Zm-2.298 6.674c-.04-.04-.202-.164-.04-.246h.04v.246Zm.242-3.398c0-.041-.04-.041-.04-.082h-.041c.04.573-.202 1.065-.444 1.556-.363.532-.484 1.228-.484 1.842-.16.573-.685 1.065-1.008 1.515-.16.491-.08 1.024-.443 1.433-.161.246-.202.573-.323.9.162.37-.363.37-.242.697-.201.04-.363.245-.484.41.04.327-.282.45-.16.695-.082.574-.283 1.065-.767 1.474-.645-.04-1.33.123-1.573-.614-.08-.246-.12-.573-.403-.778-.12-.696-.645-1.269-.564-2.047-.08-.368-.484-.655-.444-1.105-.322-.45-.443-.942-.806-1.351-.202-.492-.484-1.024-.605-1.597 0-.328-.242-.574-.282-.86-.162-.328-.202-.737-.363-1.105-.283-.164.08-.656-.363-.82-.08-.327-.121-.777-.363-1.105-.08-.245-.242-.491-.282-.778.363-.41.564.123.766.369.04.368.645.655.322 1.105.283.123-.04.246.04.491.485.123.202.574.525.86.282.287.322.655.524.983.08.491.323.9.605 1.351-.04.45.605.614.403 1.105.121.287.121.656.363.901.04.328.323.532.363.82-.121.572.645.613.444 1.186.483.246.16.737.604.942-.08.328.323.41.484.573.282.041.565-.245.726-.532-.04-.491.766-.655.564-1.228.444-.246 0-.983.484-1.31.242-.287.202-.655.444-.901-.08-.205.242-.246.282-.492.04-.368.363-.573.323-.941.12-.696.806-1.228 1.048-1.925 0-.245.08-.49.04-.777.242-.246.242-.574.363-.901.283-.246.162-.696.444-.942.282-.082.202-.655.564-.368-.04.245.04.491.162.696-.162.164-.08.573-.404.655Zm12.015-1.924c-.08-.328-.524-.41-.645-.655-.363.04-.564-.533-.927-.574a.502.502 0 0 0-.484.041c-.161-.123-.363-.164-.524-.368-.242-.041-.605-.123-.807.082a1.395 1.395 0 0 0-1.25.41c-.282-.083-.443.245-.645.368-.403.122-.685.368-1.089.45-.363.573-1.008 1.024-1.048 1.72-.444.204-.202.696-.363 1.023a3.682 3.682 0 0 0-.484 1.556c-.04.246 0 .573-.161.778 0 .45.161.983-.04 1.392.161 1.064-.242 2.334.363 3.275-.04.205.04.369.16.533.041.614.243 1.187.807 1.596-.04.369.484.369.404.778.04.041.12.205.242.164.04.082.201.123.16.246.041.163.202.123.323.123.162.204.444.245.605.368.363.041.605.246 1.008.287.161.163.484.04.686.286.322-.082.725.205 1.129 0 .242-.532.927-.163 1.25-.327.161-.246.443-.041.605-.287.282-.245.604-.491.967-.655.484-.164.605-.737.887-.983.444-.45-.04-1.023.081-1.637-.201-.246-.04-.696-.282-.901-.121-.082-.202-.287-.403-.205-.404-.204-.928-.04-1.371 0-.323.205-.323.533-.404.82-.12.163-.322.204-.282.368-.282.614-.968.655-1.572.573-.162-.082-.323.205-.444 0H43c-.363-.082-.807-.287-.928-.696-.282-.205-.12-.573-.483-.778.08-.205-.121-.246-.162-.369 0-.655-.443-1.392-.161-2.047-.202-.286.08-.532-.121-.778.08-.491-.08-1.105.12-1.596.162-.164-.04-.492.162-.533.08-.45.403-.9.807-1.146.483-.041.725-.778 1.29-.614.444-.246 1.089-.041 1.452.245.322-.081.363.287.645.369.282.491.766 1.105 1.451 1.023.162-.245.363-.163.524-.286.444.04.404-.532.686-.696.161-.737-.202-1.228-.403-1.802-.403-.41-.686-.614-1.049-.941Zm-.12 1.883c-.202.041-.364.45-.605.164-.363-.287-.807-.942-1.412-.778-.242-.287-.645-.123-.887-.369-.363.164-.766 0-1.048.328-.444.082-.726.491-1.17.573-.362.164-.242.573-.604.696-.162.41-.605.696-.484 1.228.04.123-.04.205-.161.246.04 1.024-.283 2.006 0 2.989-.202.205.08.368.04.614-.08.287.04.696-.161.983.282.573.241 1.269.806 1.72 0 .245.202.204.322.368l.202-.041c.04.327.282.573.605.737.282.04.524.082.806.205.404-.246.686.368 1.25.163.04.164.202.041.283.082.282-.04.605-.164.806-.368.363-.164.605-.492.847-.778.161 0 .363-.082.524.082.121.04.08.204.08.327-.362.778-1.128.778-1.572 1.433-.484.287-1.129.164-1.653.164-.202-.287-.605-.246-.847-.368-.12-.246-.443 0-.564-.246-.645-.041-1.29-.573-1.492-1.147-.363-.163-.121-.573-.444-.736 0-.287-.242-.574-.161-.942-.282-.246-.202-.696-.363-.983.202-.205-.282-.327-.08-.532-.283-.123 0-.45-.162-.696.08-.573.161-1.31.242-1.924-.202-.697.323-1.147.242-1.843.242-.696.605-1.351 1.008-2.006.323-.246.282-.778.806-.737.242-.041.404-.205.605-.369.282-.163.605-.163.928-.204.282-.123.726-.041 1.008-.205.363.082.685.205 1.048.368.565.492 1.492.901 1.411 1.802Z" fill="#222"/><path d="M81.871 33.45c.161-.204-.121-.368-.161-.49.08-.287-.283-.37-.283-.697-.201-.368-.16-.86-.524-1.146-.04-.287-.201-.491-.242-.778-.161-.04-.322-.246-.605-.246-.403-.163-.282.41-.564.287l-.08.082c-.283.327-.364.737-.404 1.146-.444.041-.08.573-.444.696.04.246-.16.369-.12.573-.363.164.04.737-.363.86-.04.164.12.164.16.246-.16.082-.16.246-.322.369.081.327-.16.49-.16.777.08.246.483.164.684.205.404.164.968.082 1.331.041.162-.04.403.123.403-.123.04 0 .081-.04.121 0 0 .082.202 0 .121.041.04-.04.323.164.686.082.524-.123 1.129.082 1.653-.164.161-.286-.161-.573-.12-.9-.485-.205-.324-.615-.767-.86Zm-.887 1.147c-.242-.082-.242.164-.444.246-.322-.041-.605.204-.887-.082-.161.04-.282 0-.363-.082.081-.246-.161-.369-.322-.491.363-.328.322-.82.685-1.106.04-.368 0-.778.323-.982.161.04.201-.123.363-.041.282.245.322.655.564.9.121.328.242.492.282.86.162.246-.08.532-.201.778Z" fill="#222"/><path d="M119.411 31.198 61.791.328A2.91 2.91 0 0 0 60.46 0c-.484 0-.887.123-1.331.328l-57.54 30.87c-1.452.778-1.452 2.867 0 3.603l57.62 30.871A2.91 2.91 0 0 0 60.54 66c.484 0 .887-.123 1.331-.328l57.54-30.87c1.452-.778 1.452-2.866 0-3.604Zm-.766 2.17L61.025 64.24a1.273 1.273 0 0 1-.565.122c-.202 0-.404-.04-.565-.122L2.315 33.369c-.162-.123-.202-.246-.202-.369s.04-.287.202-.368L59.935 1.76c.162-.082.363-.123.565-.123.202 0 .403.04.565.123l57.58 30.87c.161.082.202.246.202.369.04.123 0 .246-.202.368Z" fill="#222"/></svg>