<svg id="Layer_1" data-name="Layer 1" xmlns="http://www.w3.org/2000/svg" viewBox="0 0 280 300"><defs><style>.cls-1{fill:#eb2227;}</style></defs><title>vans logo</title><path class="cls-1" d="M228.39,119.66c-1.29,3,1.21,7.69-2.4,8.62l-112.11-.36-11.9.24-1.68,2.53-14,52.41-2,.87-18.94-.33L63.6,180c-5.27-21.37-11.2-42.39-16.27-63.73,4.85-.63,10.5-1,15.43,0,5.13,15.61,7.47,32.22,11.94,48.38l.59.47,1.38-1.54L88.75,117l1.35-1.12,127.34.21c3.64,1.12,11.26-2.56,10.95,3.56"/><path class="cls-1" d="M228.44,141.1c.33,3.25-3.18,6.23-5.74,8.13-4.78-1.87-10.68-5.73-16.56-2.94-1.83,1.21-3.13,3.39-1.79,5.19,8.14,5.37,22.66,2.44,25.73,13.32,1.51,4.69.3,10.68-3.91,14-6.79,5.58-16.62,6.76-26.1,4.35-4.17-1.63-8.82-2.73-12.42-5.67a26.47,26.47,0,0,1,6.44-8.66c5.29,1.15,9.89,4.93,16.43,4.26a7.24,7.24,0,0,0,5.94-3.38c.77-8.11-11-5-16.38-7.28-5.5-1.17-9.85-5.3-10.93-9.93a12,12,0,0,1,4.66-12.61c9.83-5.92,25.29-5,34.63,1.23"/><path class="cls-1" d="M185.22,137.26c.38,15,.32,30.6-.12,45.53-4.91,1.25-10.44.17-15.65.16-4.2-6.9-6.77-13.49-11.59-20.44-.62-.26-.89.54-1.32.7l-.39,19.28c-3.29,1.77-7.93.16-11.73.87l-.84-2.54c.15-14.14-.41-29.58.75-43.43a59,59,0,0,1,13.82-.72l1.39.94,10.69,18.92,1.49-.28c-.37-5.58.86-12.64.55-18.83,3.68-1.55,9-.7,12.95-.16"/><path class="cls-1" d="M120,161.85c-.33-3.73-1.89-7.32-3.47-10.55-2.14,2.91-2.07,7-3,10.43,1.75,1.58,4.52.8,6.46.12m11.34-13.22,8.57,34.16c-3.66,1.33-8.38.33-12.55.39-2.06-2.83-.76-8.26-5.5-8.87-4.4.27-10.11-1.43-13.1,2l-2,7a36,36,0,0,1-12.47-.4c4-15.47,8.65-30.68,13.47-45.88,5.95-1.16,13.63-.72,19.79,0Z"/><path class="cls-1" d="M230.51,131.9a1.07,1.07,0,0,0-.41-.06h-.16v.75h.27a.62.62,0,0,0,.38-.08.39.39,0,0,0,.14-.32.3.3,0,0,0-.22-.29M229.26,134V131.4c.16,0,.41,0,.73,0h.54a1.19,1.19,0,0,1,.52.14.64.64,0,0,1,.35.61.53.53,0,0,1-.18.46.75.75,0,0,1-.45.17,1,1,0,0,1,.37.16.69.69,0,0,1,.24.59v.22a.22.22,0,0,1,0,.08s0,0,0,.07l0,.09-.65,0a1.36,1.36,0,0,1,0-.36.91.91,0,0,0-.05-.3.29.29,0,0,0-.19-.2,1,1,0,0,0-.24,0h-.3V134Zm-.34-2.64a1.84,1.84,0,0,0-.56,1.35,1.91,1.91,0,0,0,1.94,1.92,1.93,1.93,0,1,0-1.38-3.27m3,3a2.42,2.42,0,0,1-3.34,0,2.34,2.34,0,0,1-.69-1.66,2.21,2.21,0,0,1,.75-1.69,2.3,2.3,0,0,1,1.63-.64,2.34,2.34,0,0,1,2.36,2.33,2.17,2.17,0,0,1-.71,1.68"/></svg>