<svg viewBox="0 0 207 33" fill="none" xmlns="http://www.w3.org/2000/svg">
<path d="M6.84335 1.23054L11.2458 24.2451H11.3765L15.9969 1.23054H22.4915L15.3431 32.3525H7.27924L0.130765 1.23054H6.84335ZM42.174 1.23054V6.37395H31.059V13.6968H41.5202V18.8402H31.059V27.2091H42.6099V32.3525H24.7823V1.23054H42.174ZM63.9875 1.23054V6.37395H57.1878V32.3525H50.9111V6.37395H44.1113V1.23054H63.9875ZM84.1021 1.23054V6.37395H72.9871V13.6968H83.4483V18.8402H72.9871V27.2091H84.538V32.3525H66.7104V1.23054H84.1021ZM87.8265 1.23054H97.1544L101.6 23.199H101.688L106.177 1.23054H115.461V32.3525H109.708V7.50724H109.621L104.085 32.3525H99.2031L93.6674 7.50724H93.5802V32.3525H87.8265V1.23054ZM137.353 1.23054V6.37395H126.238V13.6968H136.699V18.8402H126.238V27.2091H137.789V32.3525H119.961V1.23054H137.353ZM148.182 1.23054L155.767 22.5452H155.854V1.23054H161.607V32.3525H154.459L146.787 10.5584H146.7V32.3525H140.947V1.23054H148.182ZM184.196 1.23054V6.37395H177.396V32.3525H171.119V6.37395H164.319V1.23054H184.196ZM191.975 22.6324V23.5477C191.975 24.2742 192.033 24.9425 192.149 25.5528C192.265 26.134 192.483 26.628 192.803 27.0348C193.123 27.4416 193.544 27.7612 194.067 27.9937C194.59 28.2262 195.273 28.3424 196.116 28.3424C197.075 28.3424 197.932 28.0373 198.687 27.4271C199.472 26.7878 199.864 25.8143 199.864 24.5067C199.864 23.8092 199.763 23.2135 199.559 22.7195C199.385 22.1965 199.08 21.7315 198.644 21.3247C198.208 20.9179 197.627 20.5547 196.9 20.235C196.203 19.8863 195.331 19.5376 194.285 19.1889C192.89 18.724 191.684 18.2154 190.667 17.6633C189.65 17.1112 188.793 16.4719 188.095 15.7454C187.427 14.9899 186.933 14.1327 186.613 13.1737C186.294 12.1857 186.134 11.0524 186.134 9.77383C186.134 6.6936 186.991 4.39795 188.706 2.88689C190.42 1.37583 192.774 0.620303 195.767 0.620303C197.162 0.620303 198.44 0.780127 199.603 1.09977C200.794 1.39036 201.811 1.88436 202.654 2.58177C203.526 3.25013 204.194 4.12189 204.659 5.19707C205.153 6.24319 205.4 7.50725 205.4 8.98925V9.86101H199.385C199.385 8.37901 199.123 7.24571 198.6 6.46113C198.077 5.64748 197.205 5.24066 195.985 5.24066C195.288 5.24066 194.706 5.34236 194.241 5.54577C193.776 5.74919 193.399 6.02524 193.108 6.37395C192.847 6.6936 192.658 7.07136 192.541 7.50724C192.454 7.94313 192.411 8.39354 192.411 8.85848C192.411 9.81742 192.614 10.6311 193.021 11.2994C193.428 11.9387 194.3 12.5344 195.636 13.0865L200.475 15.1788C201.637 15.7018 202.596 16.254 203.351 16.8351C204.136 17.3872 204.746 17.9975 205.182 18.6658C205.647 19.3051 205.967 20.0171 206.141 20.8017C206.315 21.5862 206.403 22.458 206.403 23.417C206.403 26.7006 205.444 29.1125 203.526 30.6526C201.637 32.1927 198.993 32.9628 195.593 32.9628C192.047 32.9628 189.505 32.1782 187.965 30.609C186.454 29.0108 185.698 26.7732 185.698 23.8964V22.6324H191.975Z" fill="black"></path>
</svg>
