<svg viewBox="0 0 64 47" fill="none" xmlns="http://www.w3.org/2000/svg">
<path fill-rule="evenodd" clip-rule="evenodd" d="M41.3707 21.2798C40.16 20.0632 38.7529 19.09 37.2195 18.4034C35.3618 16.7192 34.2368 13.4716 34.674 12.6264C34.7009 12.5647 34.7425 12.5113 34.7948 12.4715C34.8471 12.4317 34.9083 12.4068 34.9724 12.3992C35.8414 12.2588 37.7013 13.7258 38.7648 14.8095L39.7788 15.8395V4.2391L38.7648 5.2344C36.1068 7.8544 35.3088 7.4522 34.7614 6.8765C34.2964 6.3875 35.3104 3.8021 36.5223 1.8115L37.1209 0.833496H26.6689L27.2839 1.7924C29.2279 5.1061 29.1454 6.6129 29.0119 6.8401L29.0083 6.8443C28.7887 7.1054 28.1328 7.8852 25.0926 5.2795L24.1132 4.4402V15.8846L25.1272 14.8442C26.1577 13.7968 28.0341 12.3455 28.8981 12.4686C28.9721 12.4718 29.0438 12.4962 29.1054 12.5394C29.1671 12.5825 29.2163 12.6426 29.2476 12.7131C29.8745 13.8234 28.3063 16.4476 26.4316 18.3653C25.4011 18.8182 24.4228 19.4018 23.5193 20.106C21.7764 21.4644 20.3605 23.2336 19.3854 25.2716C19.3074 25.4345 19.2324 25.5988 19.1605 25.7644C7.47824 27.2325 0.508057 30.4953 0.508057 34.5133C0.508057 39.3776 11.2497 42.6366 23.6433 43.6568C25.9939 45.4947 28.853 46.4738 31.7842 46.4426C34.6847 46.4531 37.5117 45.4904 39.8548 43.6962C52.447 42.7225 63.4785 39.4393 63.4922 34.4959C63.4922 29.7606 53.6874 26.8722 44.3892 25.7284C43.6599 24.0625 42.6369 22.5523 41.3707 21.2798ZM33.4061 13.0269C33.3616 14.3446 34.0484 16.1513 35.0199 17.6394C33.1883 17.1774 31.2834 17.1115 29.4216 17.4496C29.1754 17.4943 28.9307 17.5459 28.6879 17.6043C29.7249 16.222 30.6346 14.5486 30.5701 13.1537C30.9762 13.3225 31.4109 13.4104 31.852 13.4104C32.3102 13.4106 32.764 13.3159 33.1874 13.1315C33.2615 13.0993 33.3344 13.0644 33.4061 13.0269ZM35.059 11.1874C36.3904 11.3441 37.6358 11.9681 38.5916 12.9628V7.0863C37.4451 8.064 36.2464 8.7643 35.1346 8.4981C35.2704 8.8948 35.3409 9.3152 35.3409 9.7412C35.3411 10.2231 35.251 10.7004 35.0758 11.1456C35.0703 11.1596 35.0647 11.1735 35.059 11.1874ZM33.4855 6.4991C33.4549 5.1382 34.3021 3.3054 34.9708 2.0906H28.8255C29.8679 4.0688 30.2517 5.5198 30.2431 6.4855C30.534 6.3265 30.8463 6.2106 31.1713 6.1426C31.8481 6.001 32.5496 6.0737 33.1871 6.3514C33.2891 6.3958 33.3886 6.4451 33.4855 6.4991ZM28.5916 8.4351C27.7347 8.537 26.6601 8.0795 25.3053 7.0447V12.9923C26.2263 12.0494 27.4066 11.4421 28.6729 11.2529C28.6576 11.2173 28.6428 11.1815 28.6286 11.1454C28.3645 10.4749 28.2954 9.7372 28.4301 9.0254C28.4683 8.8233 28.5224 8.6259 28.5916 8.4351ZM19.6816 38.9813C18.5144 36.8101 17.8983 34.3505 17.9044 31.8411C17.9038 30.9531 17.9804 30.0699 18.1315 29.2021C11.2192 30.539 8.74566 32.5948 8.74566 33.9722C8.74566 35.8389 12.9088 37.8438 19.6816 38.9813ZM18.6517 27.1072C18.5817 27.3223 18.5166 27.5389 18.4563 27.757L18.426 27.8547C14.1885 28.6229 7.54366 30.4054 7.54366 33.9688C7.54366 38.6488 20.0353 41.1649 31.7816 41.1649C43.528 41.1649 56.0196 38.6506 56.0196 33.9688C56.0196 30.4454 49.3782 28.6629 45.1414 27.8756C45.0692 27.6061 44.9896 27.3384 44.9025 27.073C55.202 28.4205 62.2984 31.44 62.2984 34.5115C62.2984 37.899 53.4919 41.4759 39.71 42.4697C39.6339 42.457 39.5562 42.4602 39.4813 42.4791C39.4706 42.4818 39.4599 42.4848 39.4493 42.4882C37.1026 42.6511 34.6136 42.7393 32.0009 42.7393C13.8785 42.7393 1.70346 38.4772 1.70346 34.5115C1.70346 31.927 6.95316 28.6684 18.6517 27.1072ZM19.9723 26.9655C20.1144 26.5851 20.2733 26.2109 20.4488 25.8443C21.3394 23.9841 22.632 22.3691 24.2231 21.129C25.5635 20.0842 27.0844 19.3299 28.6972 18.9059V31.3907C25.4997 30.9273 22.4113 29.8416 19.5906 28.1882L19.9723 26.9655ZM26.2314 43.8358C27.9466 44.7269 29.8468 45.1879 31.7811 45.1663C33.6829 45.1702 35.5499 44.7203 37.246 43.8636C35.5061 43.9528 33.7492 43.9982 31.9993 43.9982H32.0009C30.0753 43.9982 28.1415 43.9434 26.2314 43.8358ZM43.6983 27.3241C43.0322 25.378 41.9446 23.6214 40.5213 22.1934C39.0883 20.7558 37.3551 19.6912 35.4604 19.0851C35.3487 19.0494 35.2367 19.0153 35.1243 18.9829V31.2918C38.2439 30.9425 41.2619 29.9185 43.9882 28.2832C43.9736 28.228 43.9588 28.1728 43.9435 28.1177L43.6983 27.3241ZM45.4343 29.2045C45.6893 30.6698 45.7302 32.1721 45.5518 33.6591C45.3268 35.5346 44.7579 37.3424 43.8806 38.9837C50.6579 37.8477 54.8242 35.8431 54.8242 33.9722C54.8242 32.5956 52.3384 30.5414 45.4343 29.2045ZM42.3257 39.2224C43.1859 37.8623 43.7993 36.3505 44.1386 34.7636C40.4463 37.0314 36.2078 38.1476 31.9206 37.9688V37.9705C27.5437 38.0942 23.2197 36.9877 19.3923 34.7723C19.7298 36.3549 20.3494 37.8649 21.2263 39.219C24.3206 39.6533 27.8821 39.9112 31.7849 39.9112C35.6802 39.9112 39.2355 39.6547 42.3257 39.2224ZM44.3889 33.1187C44.4977 31.9321 44.4544 30.7383 44.2623 29.5691C41.4993 31.1735 38.4602 32.1846 35.3217 32.5432C35.4655 32.9597 35.5402 33.4014 35.5402 33.8491C35.5402 34.8636 35.157 35.8366 34.4749 36.5539L34.4593 36.5702C38.2967 36.2265 41.8882 35.09 44.3117 33.1656C44.3364 33.1479 44.3623 33.1323 44.3889 33.1187ZM29.3405 36.564C25.5939 36.2224 21.9959 35.1379 19.3795 33.306C19.3713 33.2974 19.363 33.293 19.3548 33.2887C19.3465 33.2844 19.3383 33.28 19.3301 33.2714C19.2742 33.2394 19.2145 33.2173 19.1531 33.2051C19.111 32.7534 19.0914 32.2981 19.0948 31.8411C19.0947 31.0412 19.163 30.2456 19.2977 29.4636C22.1468 31.0835 25.2474 32.1569 28.4541 32.6336C28.4053 32.7866 28.3656 32.9434 28.3354 33.1029C28.1951 33.8449 28.2671 34.614 28.5424 35.313C28.7278 35.7838 28.9999 36.2085 29.3405 36.564ZM33.9289 18.7026V30.6723C33.7302 30.5321 33.518 30.4123 33.2948 30.3151C32.6302 30.0256 31.8988 29.9498 31.1932 30.0974C30.7267 30.195 30.2853 30.3874 29.8926 30.6612V18.6553C31.2345 18.4438 32.5972 18.4607 33.9289 18.7026ZM31.9029 31.1233C31.3902 31.1233 30.8891 31.2831 30.4628 31.5827C30.0366 31.8822 29.7044 32.3079 29.5082 32.806C29.312 33.3041 29.2607 33.8521 29.3607 34.3809C29.4607 34.9097 29.7076 35.3954 30.0701 35.7766C30.4326 36.1578 30.8944 36.4174 31.3972 36.5226C31.9 36.6278 32.4212 36.5738 32.8948 36.3675C33.3684 36.1612 33.7732 35.8118 34.058 35.3635C34.3428 34.9153 34.4948 34.3882 34.4948 33.8491C34.494 33.1265 34.2206 32.4337 33.7347 31.9227C33.2488 31.4117 32.59 31.1242 31.9029 31.1233ZM31.8865 21.7086C32.4366 21.7086 32.8824 21.2393 32.8824 20.6605C32.8824 20.0817 32.4366 19.6125 31.8865 19.6125C31.3365 19.6125 30.8906 20.0817 30.8906 20.6605C30.8906 21.2393 31.3365 21.7086 31.8865 21.7086ZM32.8824 24.1361C32.8824 24.7149 32.4366 25.1841 31.8865 25.1841C31.3365 25.1841 30.8906 24.7149 30.8906 24.1361C30.8906 23.5573 31.3365 23.0881 31.8865 23.0881C32.4366 23.0881 32.8824 23.5573 32.8824 24.1361ZM31.8865 28.6431C32.4366 28.6431 32.8824 28.1739 32.8824 27.5951C32.8824 27.0163 32.4366 26.547 31.8865 26.547C31.3365 26.547 30.8906 27.0163 30.8906 27.5951C30.8906 28.1739 31.3365 28.6431 31.8865 28.6431ZM39.3428 33.9016C39.3428 34.4709 38.9191 34.9323 38.3964 34.9323C37.8737 34.9323 37.4499 34.4709 37.4499 33.9016C37.4499 33.3324 37.8737 32.8709 38.3964 32.8709C38.9191 32.8709 39.3428 33.3324 39.3428 33.9016ZM42.1008 33.5518C42.6235 33.5518 43.0472 33.0903 43.0472 32.5211C43.0472 31.9519 42.6235 31.4904 42.1008 31.4904C41.5781 31.4904 41.1543 31.9519 41.1543 32.5211C41.1543 33.0903 41.5781 33.5518 42.1008 33.5518ZM26.3379 33.8671C26.3379 34.4364 25.9142 34.8978 25.3915 34.8978C24.8688 34.8978 24.4451 34.4364 24.4451 33.8671C24.4451 33.2979 24.8688 32.8364 25.3915 32.8364C25.9142 32.8364 26.3379 33.2979 26.3379 33.8671ZM21.6685 33.5869C22.1912 33.5869 22.615 33.1255 22.615 32.5562C22.615 31.987 22.1912 31.5256 21.6685 31.5256C21.1458 31.5256 20.7221 31.987 20.7221 32.5562C20.7221 33.1255 21.1458 33.5869 21.6685 33.5869ZM30.4953 7.6008C30.8969 7.3186 31.369 7.168 31.852 7.168C32.4993 7.1689 33.12 7.4398 33.5777 7.9212C34.0355 8.4026 34.293 9.0552 34.2939 9.736C34.2939 10.2439 34.1507 10.7405 33.8824 11.1628C33.614 11.5851 33.2327 11.9142 32.7865 12.1086C32.3402 12.303 31.8493 12.3538 31.3756 12.2547C30.9019 12.1557 30.4668 11.9111 30.1253 11.5519C29.7838 11.1928 29.5512 10.7352 29.457 10.237C29.3627 9.7389 29.4111 9.2225 29.5959 8.7533C29.7807 8.284 30.0937 7.883 30.4953 7.6008Z" fill="black"></path>
</svg>
