<svg  viewBox="0 0 305 88" fill="none" xmlns="http://www.w3.org/2000/svg">
<path d="M184.133 42.0219H188.939L187.146 33.7641L184.133 42.0219ZM176.654 55.9936C176.892 55.6943 177.412 54.7688 177.668 54.2312L188.814 27.1689L193.902 53.7934C193.902 53.7934 194.508 55.7387 194.804 55.9936C194.431 55.9936 192.634 55.9936 192.14 55.9936C191.957 55.2288 189.262 43.4351 189.262 43.4351H183.577C183.577 43.4351 179.08 55.65 178.954 55.9936C178.582 55.9936 176.78 55.9936 176.654 55.9936ZM198.772 48.2734C198.803 57.7505 207.922 58.0608 207.94 47.7358L207.954 28.7374L210.491 28.7429C209.859 29.3692 209.626 32.2123 209.501 34.5455C209.46 35.3491 209.007 47.1982 208.954 48.3621C208.263 61.0813 196.857 59.2358 196.328 49.4539C196.27 48.3843 196.081 32.0626 196.019 31.4863C195.956 30.1506 195.709 29.0422 195.247 28.7374C195.584 28.7374 198.74 28.7374 198.74 28.7374L198.772 48.2734ZM212.782 28.815C232.012 25.3345 227.237 41.6561 220.57 43.2245C220.57 43.2245 228.641 55.456 228.95 55.9936C228.95 55.9105 228.721 31.5251 228.721 31.5251C228.672 29.5576 227.99 28.7374 227.99 28.7374H239.513V31.5251C239.513 31.5251 237.07 30.0398 231.676 30.001L231.456 41.9055H239.513V43.5515H231.456V54.3864C231.456 55.2454 232.044 55.1844 232.478 55.1844C237.738 55.1844 241.015 53.7324 241.015 53.7324L240.082 56.3206C240.082 56.3206 229.972 56.3372 229.277 56.3206C229.6 56.9856 232.295 60.5437 234.052 61.8794C233.187 61.4582 229.569 59.8509 228.242 58.0608C227.811 57.4789 218.113 44.8262 217.4 43.7954C227.282 41.5619 223.942 27.2465 216.49 29.6574L215.437 55.9936H212.437C212.661 55.5946 212.85 54.7134 212.935 53.7989L213.459 31.719C213.446 30.1617 213.137 29.3581 212.782 28.815ZM135.635 56.0324C135.635 56.0269 135.281 31.0318 135.281 31.0318C135.281 30.1395 134.859 29.1419 134.442 28.6265H138.047L137.818 54.4473C137.782 54.7965 138.173 55.9437 138.343 56.0324C138.298 56.0269 135.635 56.0324 135.635 56.0324ZM140.755 28.6265H144.602L158.64 52.5519V28.6265H175.681L177.103 20.6181C177.255 19.5485 177.255 18.8945 176.852 18.2683H180.846L172.368 62.1842C172.157 63.1928 172.216 64.074 173.583 64.1018C177.784 64.1738 186.446 63.2372 189.903 61.7685L188.298 65.2434H168.88C169.185 64.7502 169.467 63.8302 169.745 62.5721L175.238 31.054C173.153 30.1063 170.606 30.0453 168.261 30.0508L167.589 53.9098C167.584 54.7965 167.701 55.4505 167.831 56.0324C167.817 56.0324 164.876 56.0324 164.863 56.0324C165.074 55.3452 165.141 54.7688 165.168 53.7878L165.011 30.0398H161.334C160.128 30.0786 160.375 31.4142 160.343 31.9906L159.384 58.2548L143.329 32.8385L143.338 56.0324C143.338 56.0324 141.185 56.0324 141.217 56.0324C141.419 55.6555 141.719 54.4584 141.759 53.5107L142.36 31.187L140.755 28.6265ZM275 28.8925V30.8434C272.866 30.0508 271.368 30.0508 268.979 30.0508L268.266 54.4418C268.239 55.3119 268.311 55.6555 268.454 56.2929C268.454 56.2929 265.616 56.2873 265.616 56.2818C265.777 55.6223 265.867 55.3729 265.916 54.4252L265.786 30.0508C265.786 30.0508 261.796 30.0508 261.783 30.0508C260.532 30.0508 260.532 31.647 260.532 32.2178C260.532 32.2178 259.765 57.5565 259.734 58.5097C259.456 58.0109 243.678 33.099 243.678 33.099L243.687 56.2929C243.687 56.2929 242.221 56.2929 241.777 56.2929C242.051 55.5391 242.069 54.7688 242.109 53.7657C242.109 53.7657 242.714 32.1347 242.714 31.4419C242.539 31.1371 241.306 29.1863 241.105 28.887C241.71 28.887 244.956 28.887 244.956 28.887L258.994 52.8124V28.8925H275ZM123.606 41.8889H128.188L126.547 34.0911L123.606 41.8889ZM123.036 43.6014L117.257 58.7868C113.347 68.674 104.08 68.0588 97.8345 61.0536L98.8253 57.1519C107.12 73.7285 121.005 60.7044 113.643 49.1712L102.847 33.3761C95.4896 22.8793 91.0599 33.9913 95.1444 38.0371L101.206 43.6956C105.663 47.6028 104.174 55.9105 98.4084 56.6531C95.7496 56.9967 92.7053 55.5502 90.8806 53.9984L90.3829 56.0989H78.5689C78.7796 55.6223 79.0083 54.7466 79.0038 54.0705L78.9724 29.868C78.9858 29.4246 78.7527 29.3969 78.6182 29.7627L68.2165 57.3071L63.6254 32.3453C63.4729 31.7301 63.1591 32.3065 63.1591 32.3065C62.3879 33.6255 58.9894 39.5113 58.3841 40.52C57.9313 41.2681 57.7475 41.7669 57.4067 42.9917C57.2319 43.6014 53.5061 62.1232 53.3402 62.8492C53.1878 63.5087 53.3985 64.8444 53.681 65.1769H50C50.13 65.0495 50.7263 64.1849 50.8698 63.5087L53.7975 44.804C54.4521 41.124 53.6182 37.3886 53.6182 37.3886C51.8069 24.3092 51.4123 18.6673 50.4663 17.7805H53.5285C53.6182 18.4678 57.1422 39.0679 57.3619 40.0655C57.1422 40.4867 69.0773 17.9634 69.0773 17.9634H72.1709C72.1709 17.9634 70.6241 19.7646 70.3506 20.2302C70.1085 20.6181 66.3917 26.8974 65.9254 27.6788L69.4808 51.3382L77.179 28.56H89.9839V31.1371C88.5805 30.2781 83.7114 29.2251 81.788 29.5354L81.6042 41.0187C81.6132 41.6505 81.6042 41.7004 82.066 41.7004L89.9973 41.6893V43.2744H81.51L81.2455 54.3808C81.2455 55.1457 81.6939 55.2232 82.0839 55.2399C85.4017 55.4006 88.5312 54.8575 90.8402 53.6105L91.3872 51.1276C93.9428 54.9905 96.0097 56.3705 98.6998 55.3895C101.291 54.4584 103.771 50.0857 99.0091 45.99L94.3777 41.9387C87.9618 35.9477 93.3823 22.9957 102.475 29.48C102.444 18.2018 114.065 12.5709 122.265 21.1834L121.463 24.8911C114.217 10.3541 100.95 22.3085 107.084 32.6834L115.768 46.7161C117.719 49.7421 118.051 51.9257 118.051 51.9257L128.277 27.7453L133.362 54.0317C133.546 54.8575 133.918 55.711 134.182 56.0324C134.178 56.0324 131.263 56.0324 131.259 56.0324C131.263 56.0324 128.555 43.6069 128.555 43.6069L123.036 43.6014Z" fill="black"/>
</svg>
