<svg viewBox="0 0 52 124" fill="none" xmlns="http://www.w3.org/2000/svg">
<g clip-path="url(#clip0_477_410)">
<path d="M19.1 104.89C18.29 104.89 18.1 104.59 18.38 103.38C18.41 103.26 19.6 98.3102 21.33 91.1802C33.5 88.8602 36.49 78.0102 36.49 73.2802C36.49 68.5502 34.07 65.0402 29.1 59.1902C29.1 59.1902 29.08 59.1702 29.07 59.1602C31.86 47.6102 34.11 38.3302 34.11 38.3302H26.26C26.87 38.9902 26.98 40.2902 26.72 41.6002C26.63 42.0502 25.63 46.6902 24.21 53.2402C23.48 52.3502 22.73 51.4402 22 50.5602C23.2 45.0402 24.32 39.8902 24.53 39.1202C25.41 35.7502 26.29 34.0402 27.37 32.4502C27.57 32.1602 30.17 28.4602 33.51 23.7402C36.39 25.2202 39.15 27.6202 41.1 31.1702L42.54 25.3802C40.55 23.7302 38.15 22.2602 35.26 21.2502C41.04 13.0802 48.01 3.25023 48.85 2.19023C50.25 0.410234 51.52 -0.00976562 51.52 -0.00976562H45.95L32.76 20.5202C30.85 20.0702 28.75 19.8202 26.42 19.8202C24.4 19.8202 22.48 20.1102 20.7 20.6202L14.52 0.000234375H9.10002C10.27 0.910234 10.83 2.78023 11.12 3.99023C11.3 4.73023 13.87 14.7102 15.95 22.7702C10.61 26.1102 7.34002 31.8902 7.34002 37.9802C7.34002 40.7602 8.12002 44.6702 11.99 48.6702C12.36 49.0602 13.96 50.8102 16 53.0702C14.89 59.3602 13.83 65.3702 13.62 66.4002C13.14 68.7402 11.98 69.2402 11.98 69.2402H19.24C18.47 68.4402 18.58 66.5102 18.86 65.2202C18.93 64.9002 19.58 61.8602 20.42 57.9702C21.19 58.8202 21.94 59.6602 22.66 60.4702C20.68 69.6402 18.32 80.5002 16.45 89.1102C11.67 88.9802 4.41002 84.6802 1.69002 77.7802L0.0200195 84.5102C1.64002 86.4402 8.51002 91.3902 15.91 91.6202C14.36 98.7602 13.24 103.85 13.13 104.24C12.64 106.04 12.03 106.75 11.63 107.09C12.47 107.09 46.35 107.09 46.35 107.09L49.65 101.49C49.65 101.49 43.19 103 34.38 104.11C28.04 104.91 23.97 104.91 19.11 104.91M25.97 21.8302C27.61 21.8302 29.45 22.1402 31.31 22.8002L24.52 33.3802L21.32 22.7002C22.81 22.1402 24.39 21.8402 25.98 21.8402M12.64 35.1202C12.64 31.2102 14.25 27.9402 16.68 25.6202C17.65 29.3802 18.39 32.3002 18.56 32.9402C19.08 35.0002 18.91 36.2702 18.73 37.4802C18.68 37.8302 18.13 40.9902 17.41 45.1002C15.17 42.7902 12.64 39.0102 12.64 35.1302M27.55 66.0002C29.36 68.1402 31.74 71.8202 31.74 76.4302C31.74 81.9102 28.5 86.8002 22.75 88.6202C22.5 88.7002 22.22 88.7602 21.93 88.8202C23.57 82.0502 25.57 73.7802 27.47 65.9002C27.5 65.9302 27.53 65.9702 27.55 65.9902" fill="#111111"></path>
<path d="M8.12012 123.77H6.37012V117.06H8.03012C9.29012 117.06 10.1401 117.68 10.1401 118.77C10.1401 119.51 9.77012 120.03 9.14012 120.33C9.88012 120.5 10.5301 121.04 10.5301 121.95C10.5301 123.2 9.64012 123.76 8.12012 123.76M7.98012 117.6H6.98012V120.12H8.44012C9.23012 119.86 9.51012 119.45 9.51012 118.83C9.51012 118.08 8.92012 117.6 7.97012 117.6M8.25012 120.65H6.97012V123.21H8.11012C9.25012 123.21 9.89012 122.8 9.89012 121.88C9.89012 121.08 9.23012 120.65 8.25012 120.65Z" fill="#111111"></path>
<path d="M14.6899 123.77V117.06H17.9799V117.64H15.2999V120.02H17.8799V120.6H15.2999V123.19H18.2299V123.77H14.6899Z" fill="#111111"></path>
<path d="M26.9598 123.77L25.9998 121.39H23.1698L22.2198 123.77H21.5698L24.3598 116.88H24.8298L27.6298 123.77H26.9498H26.9598ZM24.5998 117.83L23.3998 120.84H25.8098L24.6098 117.83H24.5998Z" fill="#111111"></path>
<path d="M31.0498 121.81V117.06H31.6598V121.7C31.6598 122.83 32.2898 123.36 33.2798 123.36C34.2698 123.36 34.9098 122.83 34.9098 121.7V117.06H35.5198V121.81C35.5198 123.21 34.6198 123.94 33.2898 123.94C31.9598 123.94 31.0498 123.2 31.0498 121.81Z" fill="#111111"></path>
<path d="M41.1399 123.78V117.65H39.1899V117.07H43.6899V117.65H41.7399V123.78H41.1399Z" fill="#111111"></path>
<path d="M47.4302 123.77V117.06H48.7802L49.5502 115.9H50.2002L49.3002 117.06H50.7102V117.64H48.0402V120.02H50.6202V120.6H48.0402V123.19H50.9702V123.77H47.4302Z" fill="#111111"></path>
</g>
<defs>
<clipPath id="clip0_477_410">
<rect width="51.51" height="123.94" fill="white"></rect>
</clipPath>
</defs>
</svg>
